<?xml version="1.0" encoding="utf-8" standalone="no"?>
<!DOCTYPE svg PUBLIC "-//W3C//DTD SVG 1.1//EN"
  "http://www.w3.org/Graphics/SVG/1.1/DTD/svg11.dtd">
<svg xmlns:xlink="http://www.w3.org/1999/xlink" width="576pt" height="360pt" viewBox="0 0 576 360" xmlns="http://www.w3.org/2000/svg" version="1.1">
 <metadata>
  <rdf:RDF xmlns:dc="http://purl.org/dc/elements/1.1/" xmlns:cc="http://creativecommons.org/ns#" xmlns:rdf="http://www.w3.org/1999/02/22-rdf-syntax-ns#">
   <cc:Work>
    <dc:type rdf:resource="http://purl.org/dc/dcmitype/StillImage"/>
    <dc:date>2025-11-24T23:19:49.616533</dc:date>
    <dc:format>image/svg+xml</dc:format>
    <dc:creator>
     <cc:Agent>
      <dc:title>Matplotlib v3.10.1, https://matplotlib.org/</dc:title>
     </cc:Agent>
    </dc:creator>
   </cc:Work>
  </rdf:RDF>
 </metadata>
 <defs>
  <style type="text/css">*{stroke-linejoin: round; stroke-linecap: butt}</style>
 </defs>
 <g id="figure_1">
  <g id="patch_1">
   <path d="M 0 360 
L 576 360 
L 576 0 
L 0 0 
z
" style="fill: #ffffff"/>
  </g>
  <g id="axes_1">
   <g id="patch_2">
    <path d="M 72 320.4 
L 518.4 320.4 
L 518.4 43.2 
L 72 43.2 
z
" style="fill: #ffffff"/>
   </g>
   <g id="matplotlib.axis_1">
    <g id="xtick_1">
     <g id="line2d_1">
      <defs>
       <path id="m1dee65de3f" d="M 0 0 
L 0 3.5 
" style="stroke: #000000; stroke-width: 0.8"/>
      </defs>
      <g>
       <use xlink:href="#m1dee65de3f" x="102.575342" y="320.4" style="stroke: #000000; stroke-width: 0.8"/>
      </g>
     </g>
     <g id="text_1">
      <!-- −80 -->
      <g transform="translate(92.022999 334.998438) scale(0.1 -0.1)">
       <defs>
        <path id="DejaVuSans-2212" d="M 678 2272 
L 4684 2272 
L 4684 1741 
L 678 1741 
L 678 2272 
z
" transform="scale(0.015625)"/>
        <path id="DejaVuSans-38" d="M 2034 2216 
Q 1584 2216 1326 1975 
Q 1069 1734 1069 1313 
Q 1069 891 1326 650 
Q 1584 409 2034 409 
Q 2484 409 2743 651 
Q 3003 894 3003 1313 
Q 3003 1734 2745 1975 
Q 2488 2216 2034 2216 
z
M 1403 2484 
Q 997 2584 770 2862 
Q 544 3141 544 3541 
Q 544 4100 942 4425 
Q 1341 4750 2034 4750 
Q 2731 4750 3128 4425 
Q 3525 4100 3525 3541 
Q 3525 3141 3298 2862 
Q 3072 2584 2669 2484 
Q 3125 2378 3379 2068 
Q 3634 1759 3634 1313 
Q 3634 634 3220 271 
Q 2806 -91 2034 -91 
Q 1263 -91 848 271 
Q 434 634 434 1313 
Q 434 1759 690 2068 
Q 947 2378 1403 2484 
z
M 1172 3481 
Q 1172 3119 1398 2916 
Q 1625 2713 2034 2713 
Q 2441 2713 2670 2916 
Q 2900 3119 2900 3481 
Q 2900 3844 2670 4047 
Q 2441 4250 2034 4250 
Q 1625 4250 1398 4047 
Q 1172 3844 1172 3481 
z
" transform="scale(0.015625)"/>
        <path id="DejaVuSans-30" d="M 2034 4250 
Q 1547 4250 1301 3770 
Q 1056 3291 1056 2328 
Q 1056 1369 1301 889 
Q 1547 409 2034 409 
Q 2525 409 2770 889 
Q 3016 1369 3016 2328 
Q 3016 3291 2770 3770 
Q 2525 4250 2034 4250 
z
M 2034 4750 
Q 2819 4750 3233 4129 
Q 3647 3509 3647 2328 
Q 3647 1150 3233 529 
Q 2819 -91 2034 -91 
Q 1250 -91 836 529 
Q 422 1150 422 2328 
Q 422 3509 836 4129 
Q 1250 4750 2034 4750 
z
" transform="scale(0.015625)"/>
       </defs>
       <use xlink:href="#DejaVuSans-2212"/>
       <use xlink:href="#DejaVuSans-38" transform="translate(83.789062 0)"/>
       <use xlink:href="#DejaVuSans-30" transform="translate(147.412109 0)"/>
      </g>
     </g>
    </g>
    <g id="xtick_2">
     <g id="line2d_2">
      <g>
       <use xlink:href="#m1dee65de3f" x="163.726027" y="320.4" style="stroke: #000000; stroke-width: 0.8"/>
      </g>
     </g>
     <g id="text_2">
      <!-- −70 -->
      <g transform="translate(153.173684 334.998438) scale(0.1 -0.1)">
       <defs>
        <path id="DejaVuSans-37" d="M 525 4666 
L 3525 4666 
L 3525 4397 
L 1831 0 
L 1172 0 
L 2766 4134 
L 525 4134 
L 525 4666 
z
" transform="scale(0.015625)"/>
       </defs>
       <use xlink:href="#DejaVuSans-2212"/>
       <use xlink:href="#DejaVuSans-37" transform="translate(83.789062 0)"/>
       <use xlink:href="#DejaVuSans-30" transform="translate(147.412109 0)"/>
      </g>
     </g>
    </g>
    <g id="xtick_3">
     <g id="line2d_3">
      <g>
       <use xlink:href="#m1dee65de3f" x="224.876712" y="320.4" style="stroke: #000000; stroke-width: 0.8"/>
      </g>
     </g>
     <g id="text_3">
      <!-- −60 -->
      <g transform="translate(214.324369 334.998438) scale(0.1 -0.1)">
       <defs>
        <path id="DejaVuSans-36" d="M 2113 2584 
Q 1688 2584 1439 2293 
Q 1191 2003 1191 1497 
Q 1191 994 1439 701 
Q 1688 409 2113 409 
Q 2538 409 2786 701 
Q 3034 994 3034 1497 
Q 3034 2003 2786 2293 
Q 2538 2584 2113 2584 
z
M 3366 4563 
L 3366 3988 
Q 3128 4100 2886 4159 
Q 2644 4219 2406 4219 
Q 1781 4219 1451 3797 
Q 1122 3375 1075 2522 
Q 1259 2794 1537 2939 
Q 1816 3084 2150 3084 
Q 2853 3084 3261 2657 
Q 3669 2231 3669 1497 
Q 3669 778 3244 343 
Q 2819 -91 2113 -91 
Q 1303 -91 875 529 
Q 447 1150 447 2328 
Q 447 3434 972 4092 
Q 1497 4750 2381 4750 
Q 2619 4750 2861 4703 
Q 3103 4656 3366 4563 
z
" transform="scale(0.015625)"/>
       </defs>
       <use xlink:href="#DejaVuSans-2212"/>
       <use xlink:href="#DejaVuSans-36" transform="translate(83.789062 0)"/>
       <use xlink:href="#DejaVuSans-30" transform="translate(147.412109 0)"/>
      </g>
     </g>
    </g>
    <g id="xtick_4">
     <g id="line2d_4">
      <g>
       <use xlink:href="#m1dee65de3f" x="286.027397" y="320.4" style="stroke: #000000; stroke-width: 0.8"/>
      </g>
     </g>
     <g id="text_4">
      <!-- −50 -->
      <g transform="translate(275.475054 334.998438) scale(0.1 -0.1)">
       <defs>
        <path id="DejaVuSans-35" d="M 691 4666 
L 3169 4666 
L 3169 4134 
L 1269 4134 
L 1269 2991 
Q 1406 3038 1543 3061 
Q 1681 3084 1819 3084 
Q 2600 3084 3056 2656 
Q 3513 2228 3513 1497 
Q 3513 744 3044 326 
Q 2575 -91 1722 -91 
Q 1428 -91 1123 -41 
Q 819 9 494 109 
L 494 744 
Q 775 591 1075 516 
Q 1375 441 1709 441 
Q 2250 441 2565 725 
Q 2881 1009 2881 1497 
Q 2881 1984 2565 2268 
Q 2250 2553 1709 2553 
Q 1456 2553 1204 2497 
Q 953 2441 691 2322 
L 691 4666 
z
" transform="scale(0.015625)"/>
       </defs>
       <use xlink:href="#DejaVuSans-2212"/>
       <use xlink:href="#DejaVuSans-35" transform="translate(83.789062 0)"/>
       <use xlink:href="#DejaVuSans-30" transform="translate(147.412109 0)"/>
      </g>
     </g>
    </g>
    <g id="xtick_5">
     <g id="line2d_5">
      <g>
       <use xlink:href="#m1dee65de3f" x="347.178082" y="320.4" style="stroke: #000000; stroke-width: 0.8"/>
      </g>
     </g>
     <g id="text_5">
      <!-- −40 -->
      <g transform="translate(336.625738 334.998438) scale(0.1 -0.1)">
       <defs>
        <path id="DejaVuSans-34" d="M 2419 4116 
L 825 1625 
L 2419 1625 
L 2419 4116 
z
M 2253 4666 
L 3047 4666 
L 3047 1625 
L 3713 1625 
L 3713 1100 
L 3047 1100 
L 3047 0 
L 2419 0 
L 2419 1100 
L 313 1100 
L 313 1709 
L 2253 4666 
z
" transform="scale(0.015625)"/>
       </defs>
       <use xlink:href="#DejaVuSans-2212"/>
       <use xlink:href="#DejaVuSans-34" transform="translate(83.789062 0)"/>
       <use xlink:href="#DejaVuSans-30" transform="translate(147.412109 0)"/>
      </g>
     </g>
    </g>
    <g id="xtick_6">
     <g id="line2d_6">
      <g>
       <use xlink:href="#m1dee65de3f" x="408.328767" y="320.4" style="stroke: #000000; stroke-width: 0.8"/>
      </g>
     </g>
     <g id="text_6">
      <!-- −30 -->
      <g transform="translate(397.776423 334.998438) scale(0.1 -0.1)">
       <defs>
        <path id="DejaVuSans-33" d="M 2597 2516 
Q 3050 2419 3304 2112 
Q 3559 1806 3559 1356 
Q 3559 666 3084 287 
Q 2609 -91 1734 -91 
Q 1441 -91 1130 -33 
Q 819 25 488 141 
L 488 750 
Q 750 597 1062 519 
Q 1375 441 1716 441 
Q 2309 441 2620 675 
Q 2931 909 2931 1356 
Q 2931 1769 2642 2001 
Q 2353 2234 1838 2234 
L 1294 2234 
L 1294 2753 
L 1863 2753 
Q 2328 2753 2575 2939 
Q 2822 3125 2822 3475 
Q 2822 3834 2567 4026 
Q 2313 4219 1838 4219 
Q 1578 4219 1281 4162 
Q 984 4106 628 3988 
L 628 4550 
Q 988 4650 1302 4700 
Q 1616 4750 1894 4750 
Q 2613 4750 3031 4423 
Q 3450 4097 3450 3541 
Q 3450 3153 3228 2886 
Q 3006 2619 2597 2516 
z
" transform="scale(0.015625)"/>
       </defs>
       <use xlink:href="#DejaVuSans-2212"/>
       <use xlink:href="#DejaVuSans-33" transform="translate(83.789062 0)"/>
       <use xlink:href="#DejaVuSans-30" transform="translate(147.412109 0)"/>
      </g>
     </g>
    </g>
    <g id="xtick_7">
     <g id="line2d_7">
      <g>
       <use xlink:href="#m1dee65de3f" x="469.479452" y="320.4" style="stroke: #000000; stroke-width: 0.8"/>
      </g>
     </g>
     <g id="text_7">
      <!-- −20 -->
      <g transform="translate(458.927108 334.998438) scale(0.1 -0.1)">
       <defs>
        <path id="DejaVuSans-32" d="M 1228 531 
L 3431 531 
L 3431 0 
L 469 0 
L 469 531 
Q 828 903 1448 1529 
Q 2069 2156 2228 2338 
Q 2531 2678 2651 2914 
Q 2772 3150 2772 3378 
Q 2772 3750 2511 3984 
Q 2250 4219 1831 4219 
Q 1534 4219 1204 4116 
Q 875 4013 500 3803 
L 500 4441 
Q 881 4594 1212 4672 
Q 1544 4750 1819 4750 
Q 2544 4750 2975 4387 
Q 3406 4025 3406 3419 
Q 3406 3131 3298 2873 
Q 3191 2616 2906 2266 
Q 2828 2175 2409 1742 
Q 1991 1309 1228 531 
z
" transform="scale(0.015625)"/>
       </defs>
       <use xlink:href="#DejaVuSans-2212"/>
       <use xlink:href="#DejaVuSans-32" transform="translate(83.789062 0)"/>
       <use xlink:href="#DejaVuSans-30" transform="translate(147.412109 0)"/>
      </g>
     </g>
    </g>
    <g id="text_8">
     <!-- $\mu$ (K) -->
     <g transform="translate(283.2 348.678125) scale(0.1 -0.1)">
      <defs>
       <path id="DejaVuSans-Oblique-3bc" d="M -84 -1331 
L 856 3500 
L 1434 3500 
L 1009 1322 
Q 997 1256 987 1175 
Q 978 1094 978 1013 
Q 978 722 1161 565 
Q 1344 409 1684 409 
Q 2147 409 2431 671 
Q 2716 934 2816 1459 
L 3213 3500 
L 3788 3500 
L 3266 809 
Q 3253 750 3248 706 
Q 3244 663 3244 628 
Q 3244 531 3283 486 
Q 3322 441 3406 441 
Q 3438 441 3492 456 
Q 3547 472 3647 513 
L 3559 50 
Q 3422 -19 3297 -55 
Q 3172 -91 3053 -91 
Q 2847 -91 2730 40 
Q 2613 172 2613 403 
Q 2438 153 2195 31 
Q 1953 -91 1625 -91 
Q 1334 -91 1117 43 
Q 900 178 831 397 
L 494 -1331 
L -84 -1331 
z
" transform="scale(0.015625)"/>
       <path id="DejaVuSans-20" transform="scale(0.015625)"/>
       <path id="DejaVuSans-28" d="M 1984 4856 
Q 1566 4138 1362 3434 
Q 1159 2731 1159 2009 
Q 1159 1288 1364 580 
Q 1569 -128 1984 -844 
L 1484 -844 
Q 1016 -109 783 600 
Q 550 1309 550 2009 
Q 550 2706 781 3412 
Q 1013 4119 1484 4856 
L 1984 4856 
z
" transform="scale(0.015625)"/>
       <path id="DejaVuSans-4b" d="M 628 4666 
L 1259 4666 
L 1259 2694 
L 3353 4666 
L 4166 4666 
L 1850 2491 
L 4331 0 
L 3500 0 
L 1259 2247 
L 1259 0 
L 628 0 
L 628 4666 
z
" transform="scale(0.015625)"/>
       <path id="DejaVuSans-29" d="M 513 4856 
L 1013 4856 
Q 1481 4119 1714 3412 
Q 1947 2706 1947 2009 
Q 1947 1309 1714 600 
Q 1481 -109 1013 -844 
L 513 -844 
Q 928 -128 1133 580 
Q 1338 1288 1338 2009 
Q 1338 2731 1133 3434 
Q 928 4138 513 4856 
z
" transform="scale(0.015625)"/>
      </defs>
      <use xlink:href="#DejaVuSans-Oblique-3bc" transform="translate(0 0.125)"/>
      <use xlink:href="#DejaVuSans-20" transform="translate(63.623047 0.125)"/>
      <use xlink:href="#DejaVuSans-28" transform="translate(95.410156 0.125)"/>
      <use xlink:href="#DejaVuSans-4b" transform="translate(134.423828 0.125)"/>
      <use xlink:href="#DejaVuSans-29" transform="translate(200 0.125)"/>
     </g>
    </g>
   </g>
   <g id="matplotlib.axis_2">
    <g id="ytick_1">
     <g id="line2d_8">
      <defs>
       <path id="m3ba33b2558" d="M 0 0 
L -3.5 0 
" style="stroke: #000000; stroke-width: 0.8"/>
      </defs>
      <g>
       <use xlink:href="#m3ba33b2558" x="72" y="307.8" style="stroke: #000000; stroke-width: 0.8"/>
      </g>
     </g>
     <g id="text_9">
      <!-- 0 -->
      <g transform="translate(58.6375 311.599219) scale(0.1 -0.1)">
       <use xlink:href="#DejaVuSans-30"/>
      </g>
     </g>
    </g>
    <g id="ytick_2">
     <g id="line2d_9">
      <g>
       <use xlink:href="#m3ba33b2558" x="72" y="261.715704" style="stroke: #000000; stroke-width: 0.8"/>
      </g>
     </g>
     <g id="text_10">
      <!-- 5 -->
      <g transform="translate(58.6375 265.514923) scale(0.1 -0.1)">
       <use xlink:href="#DejaVuSans-35"/>
      </g>
     </g>
    </g>
    <g id="ytick_3">
     <g id="line2d_10">
      <g>
       <use xlink:href="#m3ba33b2558" x="72" y="215.631408" style="stroke: #000000; stroke-width: 0.8"/>
      </g>
     </g>
     <g id="text_11">
      <!-- 10 -->
      <g transform="translate(52.275 219.430627) scale(0.1 -0.1)">
       <defs>
        <path id="DejaVuSans-31" d="M 794 531 
L 1825 531 
L 1825 4091 
L 703 3866 
L 703 4441 
L 1819 4666 
L 2450 4666 
L 2450 531 
L 3481 531 
L 3481 0 
L 794 0 
L 794 531 
z
" transform="scale(0.015625)"/>
       </defs>
       <use xlink:href="#DejaVuSans-31"/>
       <use xlink:href="#DejaVuSans-30" transform="translate(63.623047 0)"/>
      </g>
     </g>
    </g>
    <g id="ytick_4">
     <g id="line2d_11">
      <g>
       <use xlink:href="#m3ba33b2558" x="72" y="169.547112" style="stroke: #000000; stroke-width: 0.8"/>
      </g>
     </g>
     <g id="text_12">
      <!-- 15 -->
      <g transform="translate(52.275 173.346331) scale(0.1 -0.1)">
       <use xlink:href="#DejaVuSans-31"/>
       <use xlink:href="#DejaVuSans-35" transform="translate(63.623047 0)"/>
      </g>
     </g>
    </g>
    <g id="ytick_5">
     <g id="line2d_12">
      <g>
       <use xlink:href="#m3ba33b2558" x="72" y="123.462816" style="stroke: #000000; stroke-width: 0.8"/>
      </g>
     </g>
     <g id="text_13">
      <!-- 20 -->
      <g transform="translate(52.275 127.262035) scale(0.1 -0.1)">
       <use xlink:href="#DejaVuSans-32"/>
       <use xlink:href="#DejaVuSans-30" transform="translate(63.623047 0)"/>
      </g>
     </g>
    </g>
    <g id="ytick_6">
     <g id="line2d_13">
      <g>
       <use xlink:href="#m3ba33b2558" x="72" y="77.37852" style="stroke: #000000; stroke-width: 0.8"/>
      </g>
     </g>
     <g id="text_14">
      <!-- 25 -->
      <g transform="translate(52.275 81.177739) scale(0.1 -0.1)">
       <use xlink:href="#DejaVuSans-32"/>
       <use xlink:href="#DejaVuSans-35" transform="translate(63.623047 0)"/>
      </g>
     </g>
    </g>
    <g id="text_15">
     <!-- N -->
     <g transform="translate(46.195312 185.540625) rotate(-90) scale(0.1 -0.1)">
      <defs>
       <path id="DejaVuSans-4e" d="M 628 4666 
L 1478 4666 
L 3547 763 
L 3547 4666 
L 4159 4666 
L 4159 0 
L 3309 0 
L 1241 3903 
L 1241 0 
L 628 0 
L 628 4666 
z
" transform="scale(0.015625)"/>
      </defs>
      <use xlink:href="#DejaVuSans-4e"/>
     </g>
    </g>
   </g>
   <g id="LineCollection_1">
    <path d="M 518.4 57.419587 
L 518.4 55.8 
" clip-path="url(#p9b33cd9b30)" style="fill: none; stroke: #1f77b4; stroke-width: 1.5"/>
    <path d="M 500.054795 91.890464 
L 500.054795 91.08659 
" clip-path="url(#p9b33cd9b30)" style="fill: none; stroke: #1f77b4; stroke-width: 1.5"/>
    <path d="M 475.594521 111.621114 
L 475.594521 110.867638 
" clip-path="url(#p9b33cd9b30)" style="fill: none; stroke: #1f77b4; stroke-width: 1.5"/>
    <path d="M 457.249315 129.340739 
L 457.249315 128.473045 
" clip-path="url(#p9b33cd9b30)" style="fill: none; stroke: #1f77b4; stroke-width: 1.5"/>
    <path d="M 438.90411 148.433721 
L 438.90411 147.681717 
" clip-path="url(#p9b33cd9b30)" style="fill: none; stroke: #1f77b4; stroke-width: 1.5"/>
    <path d="M 414.443836 169.725995 
L 414.443836 169.001766 
" clip-path="url(#p9b33cd9b30)" style="fill: none; stroke: #1f77b4; stroke-width: 1.5"/>
    <path d="M 396.09863 177.248877 
L 396.09863 176.928885 
" clip-path="url(#p9b33cd9b30)" style="fill: none; stroke: #1f77b4; stroke-width: 1.5"/>
    <path d="M 371.638356 187.77555 
L 371.638356 186.947825 
" clip-path="url(#p9b33cd9b30)" style="fill: none; stroke: #1f77b4; stroke-width: 1.5"/>
    <path d="M 353.293151 224.294773 
L 353.293151 222.32451 
" clip-path="url(#p9b33cd9b30)" style="fill: none; stroke: #1f77b4; stroke-width: 1.5"/>
    <path d="M 334.947945 253.15498 
L 334.947945 252.492811 
" clip-path="url(#p9b33cd9b30)" style="fill: none; stroke: #1f77b4; stroke-width: 1.5"/>
    <path d="M 316.60274 272.528711 
L 316.60274 271.792395 
" clip-path="url(#p9b33cd9b30)" style="fill: none; stroke: #1f77b4; stroke-width: 1.5"/>
    <path d="M 292.142466 286.465446 
L 292.142466 286.192654 
" clip-path="url(#p9b33cd9b30)" style="fill: none; stroke: #1f77b4; stroke-width: 1.5"/>
    <path d="M 273.79726 288.736278 
L 273.79726 288.660707 
" clip-path="url(#p9b33cd9b30)" style="fill: none; stroke: #1f77b4; stroke-width: 1.5"/>
    <path d="M 255.452055 289.24246 
L 255.452055 289.21533 
" clip-path="url(#p9b33cd9b30)" style="fill: none; stroke: #1f77b4; stroke-width: 1.5"/>
    <path d="M 224.876712 289.37702 
L 224.876712 289.365498 
" clip-path="url(#p9b33cd9b30)" style="fill: none; stroke: #1f77b4; stroke-width: 1.5"/>
    <path d="M 194.30137 289.441866 
L 194.30137 289.418701 
" clip-path="url(#p9b33cd9b30)" style="fill: none; stroke: #1f77b4; stroke-width: 1.5"/>
    <path d="M 163.726027 290.505979 
L 163.726027 290.377872 
" clip-path="url(#p9b33cd9b30)" style="fill: none; stroke: #1f77b4; stroke-width: 1.5"/>
    <path d="M 133.150685 297.637059 
L 133.150685 297.248142 
" clip-path="url(#p9b33cd9b30)" style="fill: none; stroke: #1f77b4; stroke-width: 1.5"/>
    <path d="M 108.690411 305.212897 
L 108.690411 304.993858 
" clip-path="url(#p9b33cd9b30)" style="fill: none; stroke: #1f77b4; stroke-width: 1.5"/>
    <path d="M 90.345205 307.219937 
L 90.345205 307.128505 
" clip-path="url(#p9b33cd9b30)" style="fill: none; stroke: #1f77b4; stroke-width: 1.5"/>
    <path d="M 72 307.78485 
L 72 307.778006 
" clip-path="url(#p9b33cd9b30)" style="fill: none; stroke: #1f77b4; stroke-width: 1.5"/>
   </g>
   <g id="LineCollection_2">
    <path d="M 518.4 143.764771 
L 518.4 142.806057 
" clip-path="url(#p9b33cd9b30)" style="fill: none; stroke: #ff7f0e; stroke-width: 1.5"/>
    <path d="M 500.054795 175.572643 
L 500.054795 174.657999 
" clip-path="url(#p9b33cd9b30)" style="fill: none; stroke: #ff7f0e; stroke-width: 1.5"/>
    <path d="M 475.594521 250.351289 
L 475.594521 249.361914 
" clip-path="url(#p9b33cd9b30)" style="fill: none; stroke: #ff7f0e; stroke-width: 1.5"/>
    <path d="M 457.249315 281.644884 
L 457.249315 281.383128 
" clip-path="url(#p9b33cd9b30)" style="fill: none; stroke: #ff7f0e; stroke-width: 1.5"/>
    <path d="M 438.90411 287.723138 
L 438.90411 287.649143 
" clip-path="url(#p9b33cd9b30)" style="fill: none; stroke: #ff7f0e; stroke-width: 1.5"/>
    <path d="M 414.443836 289.163532 
L 414.443836 289.13888 
" clip-path="url(#p9b33cd9b30)" style="fill: none; stroke: #ff7f0e; stroke-width: 1.5"/>
    <path d="M 396.09863 289.378985 
L 396.09863 289.352159 
" clip-path="url(#p9b33cd9b30)" style="fill: none; stroke: #ff7f0e; stroke-width: 1.5"/>
    <path d="M 371.638356 289.637893 
L 371.638356 289.555218 
" clip-path="url(#p9b33cd9b30)" style="fill: none; stroke: #ff7f0e; stroke-width: 1.5"/>
    <path d="M 353.293151 290.546276 
L 353.293151 290.321004 
" clip-path="url(#p9b33cd9b30)" style="fill: none; stroke: #ff7f0e; stroke-width: 1.5"/>
    <path d="M 334.947945 293.757596 
L 334.947945 293.306916 
" clip-path="url(#p9b33cd9b30)" style="fill: none; stroke: #ff7f0e; stroke-width: 1.5"/>
    <path d="M 316.60274 300.03077 
L 316.60274 299.57114 
" clip-path="url(#p9b33cd9b30)" style="fill: none; stroke: #ff7f0e; stroke-width: 1.5"/>
    <path d="M 292.142466 305.996112 
L 292.142466 305.781121 
" clip-path="url(#p9b33cd9b30)" style="fill: none; stroke: #ff7f0e; stroke-width: 1.5"/>
    <path d="M 273.79726 307.45862 
L 273.79726 307.392067 
" clip-path="url(#p9b33cd9b30)" style="fill: none; stroke: #ff7f0e; stroke-width: 1.5"/>
    <path d="M 255.452055 307.727709 
L 255.452055 307.694848 
" clip-path="url(#p9b33cd9b30)" style="fill: none; stroke: #ff7f0e; stroke-width: 1.5"/>
    <path d="M 224.876712 307.79213 
L 224.876712 307.786192 
" clip-path="url(#p9b33cd9b30)" style="fill: none; stroke: #ff7f0e; stroke-width: 1.5"/>
    <path d="M 194.30137 307.799975 
L 194.30137 307.799638 
" clip-path="url(#p9b33cd9b30)" style="fill: none; stroke: #ff7f0e; stroke-width: 1.5"/>
    <path d="M 163.726027 307.799943 
L 163.726027 307.799338 
" clip-path="url(#p9b33cd9b30)" style="fill: none; stroke: #ff7f0e; stroke-width: 1.5"/>
    <path d="M 133.150685 307.8 
L 133.150685 307.8 
" clip-path="url(#p9b33cd9b30)" style="fill: none; stroke: #ff7f0e; stroke-width: 1.5"/>
    <path d="M 108.690411 307.8 
L 108.690411 307.8 
" clip-path="url(#p9b33cd9b30)" style="fill: none; stroke: #ff7f0e; stroke-width: 1.5"/>
    <path d="M 90.345205 307.8 
L 90.345205 307.8 
" clip-path="url(#p9b33cd9b30)" style="fill: none; stroke: #ff7f0e; stroke-width: 1.5"/>
    <path d="M 72 307.8 
L 72 307.8 
" clip-path="url(#p9b33cd9b30)" style="fill: none; stroke: #ff7f0e; stroke-width: 1.5"/>
   </g>
   <g id="LineCollection_3">
    <path d="M 518.4 80.383528 
L 518.4 79.267868 
" clip-path="url(#p9b33cd9b30)" style="fill: none; stroke: #2ca02c; stroke-width: 1.5"/>
    <path d="M 500.054795 109.713652 
L 500.054795 108.879614 
" clip-path="url(#p9b33cd9b30)" style="fill: none; stroke: #2ca02c; stroke-width: 1.5"/>
    <path d="M 475.594521 140.896269 
L 475.594521 140.056809 
" clip-path="url(#p9b33cd9b30)" style="fill: none; stroke: #2ca02c; stroke-width: 1.5"/>
    <path d="M 457.249315 166.916421 
L 457.249315 166.093422 
" clip-path="url(#p9b33cd9b30)" style="fill: none; stroke: #2ca02c; stroke-width: 1.5"/>
    <path d="M 438.90411 204.998149 
L 438.90411 203.812306 
" clip-path="url(#p9b33cd9b30)" style="fill: none; stroke: #2ca02c; stroke-width: 1.5"/>
    <path d="M 414.443836 275.19845 
L 414.443836 274.746636 
" clip-path="url(#p9b33cd9b30)" style="fill: none; stroke: #2ca02c; stroke-width: 1.5"/>
    <path d="M 396.09863 286.438387 
L 396.09863 286.279456 
" clip-path="url(#p9b33cd9b30)" style="fill: none; stroke: #2ca02c; stroke-width: 1.5"/>
    <path d="M 371.638356 288.992548 
L 371.638356 288.965209 
" clip-path="url(#p9b33cd9b30)" style="fill: none; stroke: #2ca02c; stroke-width: 1.5"/>
    <path d="M 353.293151 289.356971 
L 353.293151 289.311204 
" clip-path="url(#p9b33cd9b30)" style="fill: none; stroke: #2ca02c; stroke-width: 1.5"/>
    <path d="M 334.947945 289.557292 
L 334.947945 289.490266 
" clip-path="url(#p9b33cd9b30)" style="fill: none; stroke: #2ca02c; stroke-width: 1.5"/>
    <path d="M 316.60274 290.152744 
L 316.60274 289.994349 
" clip-path="url(#p9b33cd9b30)" style="fill: none; stroke: #2ca02c; stroke-width: 1.5"/>
    <path d="M 292.142466 293.573929 
L 292.142466 293.114222 
" clip-path="url(#p9b33cd9b30)" style="fill: none; stroke: #2ca02c; stroke-width: 1.5"/>
    <path d="M 273.79726 299.887682 
L 273.79726 299.409003 
" clip-path="url(#p9b33cd9b30)" style="fill: none; stroke: #2ca02c; stroke-width: 1.5"/>
    <path d="M 255.452055 305.117287 
L 255.452055 304.749753 
" clip-path="url(#p9b33cd9b30)" style="fill: none; stroke: #2ca02c; stroke-width: 1.5"/>
    <path d="M 224.876712 307.58874 
L 224.876712 307.533292 
" clip-path="url(#p9b33cd9b30)" style="fill: none; stroke: #2ca02c; stroke-width: 1.5"/>
    <path d="M 194.30137 307.781505 
L 194.30137 307.76795 
" clip-path="url(#p9b33cd9b30)" style="fill: none; stroke: #2ca02c; stroke-width: 1.5"/>
    <path d="M 163.726027 307.79968 
L 163.726027 307.7989 
" clip-path="url(#p9b33cd9b30)" style="fill: none; stroke: #2ca02c; stroke-width: 1.5"/>
    <path d="M 133.150685 307.8 
L 133.150685 307.8 
" clip-path="url(#p9b33cd9b30)" style="fill: none; stroke: #2ca02c; stroke-width: 1.5"/>
    <path d="M 108.690411 307.8 
L 108.690411 307.799945 
" clip-path="url(#p9b33cd9b30)" style="fill: none; stroke: #2ca02c; stroke-width: 1.5"/>
    <path d="M 90.345205 307.8 
L 90.345205 307.8 
" clip-path="url(#p9b33cd9b30)" style="fill: none; stroke: #2ca02c; stroke-width: 1.5"/>
    <path d="M 72 307.8 
L 72 307.8 
" clip-path="url(#p9b33cd9b30)" style="fill: none; stroke: #2ca02c; stroke-width: 1.5"/>
   </g>
   <g id="LineCollection_4">
    <path d="M 518.4 98.032327 
L 518.4 94.658826 
" clip-path="url(#p9b33cd9b30)" style="fill: none; stroke: #d62728; stroke-width: 1.5"/>
    <path d="M 500.054795 126.510733 
L 500.054795 123.946022 
" clip-path="url(#p9b33cd9b30)" style="fill: none; stroke: #d62728; stroke-width: 1.5"/>
    <path d="M 475.594521 144.950436 
L 475.594521 142.776477 
" clip-path="url(#p9b33cd9b30)" style="fill: none; stroke: #d62728; stroke-width: 1.5"/>
    <path d="M 457.249315 167.94385 
L 457.249315 165.879328 
" clip-path="url(#p9b33cd9b30)" style="fill: none; stroke: #d62728; stroke-width: 1.5"/>
    <path d="M 438.90411 193.008265 
L 438.90411 189.352836 
" clip-path="url(#p9b33cd9b30)" style="fill: none; stroke: #d62728; stroke-width: 1.5"/>
    <path d="M 414.443836 264.818772 
L 414.443836 262.705258 
" clip-path="url(#p9b33cd9b30)" style="fill: none; stroke: #d62728; stroke-width: 1.5"/>
    <path d="M 396.09863 285.103072 
L 396.09863 284.495231 
" clip-path="url(#p9b33cd9b30)" style="fill: none; stroke: #d62728; stroke-width: 1.5"/>
    <path d="M 371.638356 288.756786 
L 371.638356 288.649786 
" clip-path="url(#p9b33cd9b30)" style="fill: none; stroke: #d62728; stroke-width: 1.5"/>
    <path d="M 353.293151 289.228244 
L 353.293151 289.18941 
" clip-path="url(#p9b33cd9b30)" style="fill: none; stroke: #d62728; stroke-width: 1.5"/>
    <path d="M 334.947945 289.455471 
L 334.947945 289.358825 
" clip-path="url(#p9b33cd9b30)" style="fill: none; stroke: #d62728; stroke-width: 1.5"/>
    <path d="M 316.60274 289.679255 
L 316.60274 289.459086 
" clip-path="url(#p9b33cd9b30)" style="fill: none; stroke: #d62728; stroke-width: 1.5"/>
    <path d="M 292.142466 292.354375 
L 292.142466 291.699785 
" clip-path="url(#p9b33cd9b30)" style="fill: none; stroke: #d62728; stroke-width: 1.5"/>
    <path d="M 273.79726 298.71648 
L 273.79726 297.573174 
" clip-path="url(#p9b33cd9b30)" style="fill: none; stroke: #d62728; stroke-width: 1.5"/>
    <path d="M 255.452055 304.440799 
L 255.452055 303.764164 
" clip-path="url(#p9b33cd9b30)" style="fill: none; stroke: #d62728; stroke-width: 1.5"/>
    <path d="M 224.876712 307.490449 
L 224.876712 307.409679 
" clip-path="url(#p9b33cd9b30)" style="fill: none; stroke: #d62728; stroke-width: 1.5"/>
    <path d="M 194.30137 307.787643 
L 194.30137 307.774884 
" clip-path="url(#p9b33cd9b30)" style="fill: none; stroke: #d62728; stroke-width: 1.5"/>
    <path d="M 163.726027 307.799148 
L 163.726027 307.797002 
" clip-path="url(#p9b33cd9b30)" style="fill: none; stroke: #d62728; stroke-width: 1.5"/>
    <path d="M 133.150685 307.8 
L 133.150685 307.8 
" clip-path="url(#p9b33cd9b30)" style="fill: none; stroke: #d62728; stroke-width: 1.5"/>
    <path d="M 108.690411 307.8 
L 108.690411 307.799977 
" clip-path="url(#p9b33cd9b30)" style="fill: none; stroke: #d62728; stroke-width: 1.5"/>
    <path d="M 90.345205 307.8 
L 90.345205 307.8 
" clip-path="url(#p9b33cd9b30)" style="fill: none; stroke: #d62728; stroke-width: 1.5"/>
    <path d="M 72 307.8 
L 72 307.799976 
" clip-path="url(#p9b33cd9b30)" style="fill: none; stroke: #d62728; stroke-width: 1.5"/>
   </g>
   <g id="line2d_14">
    <path d="M 518.4 56.609793 
L 500.054795 91.488527 
L 475.594521 111.244376 
L 457.249315 128.906892 
L 438.90411 148.057719 
L 414.443836 169.363881 
L 396.09863 177.088881 
L 371.638356 187.361688 
L 353.293151 223.309642 
L 334.947945 252.823896 
L 316.60274 272.160553 
L 292.142466 286.32905 
L 273.79726 288.698492 
L 255.452055 289.228895 
L 224.876712 289.371259 
L 194.30137 289.430283 
L 163.726027 290.441926 
L 133.150685 297.442601 
L 108.690411 305.103377 
L 90.345205 307.174221 
L 72 307.781428 
" clip-path="url(#p9b33cd9b30)" style="fill: none; stroke: #1f77b4; stroke-width: 1.5; stroke-linecap: square"/>
    <defs>
     <path id="m11e3e2075b" d="M 0 3 
C 0.795609 3 1.55874 2.683901 2.12132 2.12132 
C 2.683901 1.55874 3 0.795609 3 0 
C 3 -0.795609 2.683901 -1.55874 2.12132 -2.12132 
C 1.55874 -2.683901 0.795609 -3 0 -3 
C -0.795609 -3 -1.55874 -2.683901 -2.12132 -2.12132 
C -2.683901 -1.55874 -3 -0.795609 -3 0 
C -3 0.795609 -2.683901 1.55874 -2.12132 2.12132 
C -1.55874 2.683901 -0.795609 3 0 3 
z
" style="stroke: #1f77b4"/>
    </defs>
    <g clip-path="url(#p9b33cd9b30)">
     <use xlink:href="#m11e3e2075b" x="518.4" y="56.609793" style="fill: #1f77b4; stroke: #1f77b4"/>
     <use xlink:href="#m11e3e2075b" x="500.054795" y="91.488527" style="fill: #1f77b4; stroke: #1f77b4"/>
     <use xlink:href="#m11e3e2075b" x="475.594521" y="111.244376" style="fill: #1f77b4; stroke: #1f77b4"/>
     <use xlink:href="#m11e3e2075b" x="457.249315" y="128.906892" style="fill: #1f77b4; stroke: #1f77b4"/>
     <use xlink:href="#m11e3e2075b" x="438.90411" y="148.057719" style="fill: #1f77b4; stroke: #1f77b4"/>
     <use xlink:href="#m11e3e2075b" x="414.443836" y="169.363881" style="fill: #1f77b4; stroke: #1f77b4"/>
     <use xlink:href="#m11e3e2075b" x="396.09863" y="177.088881" style="fill: #1f77b4; stroke: #1f77b4"/>
     <use xlink:href="#m11e3e2075b" x="371.638356" y="187.361688" style="fill: #1f77b4; stroke: #1f77b4"/>
     <use xlink:href="#m11e3e2075b" x="353.293151" y="223.309642" style="fill: #1f77b4; stroke: #1f77b4"/>
     <use xlink:href="#m11e3e2075b" x="334.947945" y="252.823896" style="fill: #1f77b4; stroke: #1f77b4"/>
     <use xlink:href="#m11e3e2075b" x="316.60274" y="272.160553" style="fill: #1f77b4; stroke: #1f77b4"/>
     <use xlink:href="#m11e3e2075b" x="292.142466" y="286.32905" style="fill: #1f77b4; stroke: #1f77b4"/>
     <use xlink:href="#m11e3e2075b" x="273.79726" y="288.698492" style="fill: #1f77b4; stroke: #1f77b4"/>
     <use xlink:href="#m11e3e2075b" x="255.452055" y="289.228895" style="fill: #1f77b4; stroke: #1f77b4"/>
     <use xlink:href="#m11e3e2075b" x="224.876712" y="289.371259" style="fill: #1f77b4; stroke: #1f77b4"/>
     <use xlink:href="#m11e3e2075b" x="194.30137" y="289.430283" style="fill: #1f77b4; stroke: #1f77b4"/>
     <use xlink:href="#m11e3e2075b" x="163.726027" y="290.441926" style="fill: #1f77b4; stroke: #1f77b4"/>
     <use xlink:href="#m11e3e2075b" x="133.150685" y="297.442601" style="fill: #1f77b4; stroke: #1f77b4"/>
     <use xlink:href="#m11e3e2075b" x="108.690411" y="305.103377" style="fill: #1f77b4; stroke: #1f77b4"/>
     <use xlink:href="#m11e3e2075b" x="90.345205" y="307.174221" style="fill: #1f77b4; stroke: #1f77b4"/>
     <use xlink:href="#m11e3e2075b" x="72" y="307.781428" style="fill: #1f77b4; stroke: #1f77b4"/>
    </g>
   </g>
   <g id="line2d_15">
    <path d="M 518.4 143.285414 
L 500.054795 175.115321 
L 475.594521 249.856602 
L 457.249315 281.514006 
L 438.90411 287.68614 
L 414.443836 289.151206 
L 396.09863 289.365572 
L 371.638356 289.596556 
L 353.293151 290.43364 
L 334.947945 293.532256 
L 316.60274 299.800955 
L 292.142466 305.888617 
L 273.79726 307.425344 
L 255.452055 307.711278 
L 224.876712 307.789161 
L 194.30137 307.799806 
L 163.726027 307.79964 
L 133.150685 307.8 
L 108.690411 307.8 
L 90.345205 307.8 
L 72 307.8 
" clip-path="url(#p9b33cd9b30)" style="fill: none; stroke: #ff7f0e; stroke-width: 1.5; stroke-linecap: square"/>
    <defs>
     <path id="mfabffef2cd" d="M 0 3 
C 0.795609 3 1.55874 2.683901 2.12132 2.12132 
C 2.683901 1.55874 3 0.795609 3 0 
C 3 -0.795609 2.683901 -1.55874 2.12132 -2.12132 
C 1.55874 -2.683901 0.795609 -3 0 -3 
C -0.795609 -3 -1.55874 -2.683901 -2.12132 -2.12132 
C -2.683901 -1.55874 -3 -0.795609 -3 0 
C -3 0.795609 -2.683901 1.55874 -2.12132 2.12132 
C -1.55874 2.683901 -0.795609 3 0 3 
z
" style="stroke: #ff7f0e"/>
    </defs>
    <g clip-path="url(#p9b33cd9b30)">
     <use xlink:href="#mfabffef2cd" x="518.4" y="143.285414" style="fill: #ff7f0e; stroke: #ff7f0e"/>
     <use xlink:href="#mfabffef2cd" x="500.054795" y="175.115321" style="fill: #ff7f0e; stroke: #ff7f0e"/>
     <use xlink:href="#mfabffef2cd" x="475.594521" y="249.856602" style="fill: #ff7f0e; stroke: #ff7f0e"/>
     <use xlink:href="#mfabffef2cd" x="457.249315" y="281.514006" style="fill: #ff7f0e; stroke: #ff7f0e"/>
     <use xlink:href="#mfabffef2cd" x="438.90411" y="287.68614" style="fill: #ff7f0e; stroke: #ff7f0e"/>
     <use xlink:href="#mfabffef2cd" x="414.443836" y="289.151206" style="fill: #ff7f0e; stroke: #ff7f0e"/>
     <use xlink:href="#mfabffef2cd" x="396.09863" y="289.365572" style="fill: #ff7f0e; stroke: #ff7f0e"/>
     <use xlink:href="#mfabffef2cd" x="371.638356" y="289.596556" style="fill: #ff7f0e; stroke: #ff7f0e"/>
     <use xlink:href="#mfabffef2cd" x="353.293151" y="290.43364" style="fill: #ff7f0e; stroke: #ff7f0e"/>
     <use xlink:href="#mfabffef2cd" x="334.947945" y="293.532256" style="fill: #ff7f0e; stroke: #ff7f0e"/>
     <use xlink:href="#mfabffef2cd" x="316.60274" y="299.800955" style="fill: #ff7f0e; stroke: #ff7f0e"/>
     <use xlink:href="#mfabffef2cd" x="292.142466" y="305.888617" style="fill: #ff7f0e; stroke: #ff7f0e"/>
     <use xlink:href="#mfabffef2cd" x="273.79726" y="307.425344" style="fill: #ff7f0e; stroke: #ff7f0e"/>
     <use xlink:href="#mfabffef2cd" x="255.452055" y="307.711278" style="fill: #ff7f0e; stroke: #ff7f0e"/>
     <use xlink:href="#mfabffef2cd" x="224.876712" y="307.789161" style="fill: #ff7f0e; stroke: #ff7f0e"/>
     <use xlink:href="#mfabffef2cd" x="194.30137" y="307.799806" style="fill: #ff7f0e; stroke: #ff7f0e"/>
     <use xlink:href="#mfabffef2cd" x="163.726027" y="307.79964" style="fill: #ff7f0e; stroke: #ff7f0e"/>
     <use xlink:href="#mfabffef2cd" x="133.150685" y="307.8" style="fill: #ff7f0e; stroke: #ff7f0e"/>
     <use xlink:href="#mfabffef2cd" x="108.690411" y="307.8" style="fill: #ff7f0e; stroke: #ff7f0e"/>
     <use xlink:href="#mfabffef2cd" x="90.345205" y="307.8" style="fill: #ff7f0e; stroke: #ff7f0e"/>
     <use xlink:href="#mfabffef2cd" x="72" y="307.8" style="fill: #ff7f0e; stroke: #ff7f0e"/>
    </g>
   </g>
   <g id="line2d_16">
    <path d="M 518.4 79.825698 
L 500.054795 109.296633 
L 475.594521 140.476539 
L 457.249315 166.504922 
L 438.90411 204.405227 
L 414.443836 274.972543 
L 396.09863 286.358922 
L 371.638356 288.978879 
L 353.293151 289.334087 
L 334.947945 289.523779 
L 316.60274 290.073546 
L 292.142466 293.344075 
L 273.79726 299.648342 
L 255.452055 304.93352 
L 224.876712 307.561016 
L 194.30137 307.774727 
L 163.726027 307.79929 
L 133.150685 307.8 
L 108.690411 307.799972 
L 90.345205 307.8 
L 72 307.8 
" clip-path="url(#p9b33cd9b30)" style="fill: none; stroke: #2ca02c; stroke-width: 1.5; stroke-linecap: square"/>
    <defs>
     <path id="mf1e60b03e0" d="M 0 3 
C 0.795609 3 1.55874 2.683901 2.12132 2.12132 
C 2.683901 1.55874 3 0.795609 3 0 
C 3 -0.795609 2.683901 -1.55874 2.12132 -2.12132 
C 1.55874 -2.683901 0.795609 -3 0 -3 
C -0.795609 -3 -1.55874 -2.683901 -2.12132 -2.12132 
C -2.683901 -1.55874 -3 -0.795609 -3 0 
C -3 0.795609 -2.683901 1.55874 -2.12132 2.12132 
C -1.55874 2.683901 -0.795609 3 0 3 
z
" style="stroke: #2ca02c"/>
    </defs>
    <g clip-path="url(#p9b33cd9b30)">
     <use xlink:href="#mf1e60b03e0" x="518.4" y="79.825698" style="fill: #2ca02c; stroke: #2ca02c"/>
     <use xlink:href="#mf1e60b03e0" x="500.054795" y="109.296633" style="fill: #2ca02c; stroke: #2ca02c"/>
     <use xlink:href="#mf1e60b03e0" x="475.594521" y="140.476539" style="fill: #2ca02c; stroke: #2ca02c"/>
     <use xlink:href="#mf1e60b03e0" x="457.249315" y="166.504922" style="fill: #2ca02c; stroke: #2ca02c"/>
     <use xlink:href="#mf1e60b03e0" x="438.90411" y="204.405227" style="fill: #2ca02c; stroke: #2ca02c"/>
     <use xlink:href="#mf1e60b03e0" x="414.443836" y="274.972543" style="fill: #2ca02c; stroke: #2ca02c"/>
     <use xlink:href="#mf1e60b03e0" x="396.09863" y="286.358922" style="fill: #2ca02c; stroke: #2ca02c"/>
     <use xlink:href="#mf1e60b03e0" x="371.638356" y="288.978879" style="fill: #2ca02c; stroke: #2ca02c"/>
     <use xlink:href="#mf1e60b03e0" x="353.293151" y="289.334087" style="fill: #2ca02c; stroke: #2ca02c"/>
     <use xlink:href="#mf1e60b03e0" x="334.947945" y="289.523779" style="fill: #2ca02c; stroke: #2ca02c"/>
     <use xlink:href="#mf1e60b03e0" x="316.60274" y="290.073546" style="fill: #2ca02c; stroke: #2ca02c"/>
     <use xlink:href="#mf1e60b03e0" x="292.142466" y="293.344075" style="fill: #2ca02c; stroke: #2ca02c"/>
     <use xlink:href="#mf1e60b03e0" x="273.79726" y="299.648342" style="fill: #2ca02c; stroke: #2ca02c"/>
     <use xlink:href="#mf1e60b03e0" x="255.452055" y="304.93352" style="fill: #2ca02c; stroke: #2ca02c"/>
     <use xlink:href="#mf1e60b03e0" x="224.876712" y="307.561016" style="fill: #2ca02c; stroke: #2ca02c"/>
     <use xlink:href="#mf1e60b03e0" x="194.30137" y="307.774727" style="fill: #2ca02c; stroke: #2ca02c"/>
     <use xlink:href="#mf1e60b03e0" x="163.726027" y="307.79929" style="fill: #2ca02c; stroke: #2ca02c"/>
     <use xlink:href="#mf1e60b03e0" x="133.150685" y="307.8" style="fill: #2ca02c; stroke: #2ca02c"/>
     <use xlink:href="#mf1e60b03e0" x="108.690411" y="307.799972" style="fill: #2ca02c; stroke: #2ca02c"/>
     <use xlink:href="#mf1e60b03e0" x="90.345205" y="307.8" style="fill: #2ca02c; stroke: #2ca02c"/>
     <use xlink:href="#mf1e60b03e0" x="72" y="307.8" style="fill: #2ca02c; stroke: #2ca02c"/>
    </g>
   </g>
   <g id="line2d_17">
    <path d="M 518.4 96.345577 
L 500.054795 125.228377 
L 475.594521 143.863456 
L 457.249315 166.911589 
L 438.90411 191.180551 
L 414.443836 263.762015 
L 396.09863 284.799151 
L 371.638356 288.703286 
L 353.293151 289.208827 
L 334.947945 289.407148 
L 316.60274 289.56917 
L 292.142466 292.02708 
L 273.79726 298.144827 
L 255.452055 304.102481 
L 224.876712 307.450064 
L 194.30137 307.781263 
L 163.726027 307.798075 
L 133.150685 307.8 
L 108.690411 307.799989 
L 90.345205 307.8 
L 72 307.799988 
" clip-path="url(#p9b33cd9b30)" style="fill: none; stroke: #d62728; stroke-width: 1.5; stroke-linecap: square"/>
    <defs>
     <path id="m29465d7304" d="M 0 3 
C 0.795609 3 1.55874 2.683901 2.12132 2.12132 
C 2.683901 1.55874 3 0.795609 3 0 
C 3 -0.795609 2.683901 -1.55874 2.12132 -2.12132 
C 1.55874 -2.683901 0.795609 -3 0 -3 
C -0.795609 -3 -1.55874 -2.683901 -2.12132 -2.12132 
C -2.683901 -1.55874 -3 -0.795609 -3 0 
C -3 0.795609 -2.683901 1.55874 -2.12132 2.12132 
C -1.55874 2.683901 -0.795609 3 0 3 
z
" style="stroke: #d62728"/>
    </defs>
    <g clip-path="url(#p9b33cd9b30)">
     <use xlink:href="#m29465d7304" x="518.4" y="96.345577" style="fill: #d62728; stroke: #d62728"/>
     <use xlink:href="#m29465d7304" x="500.054795" y="125.228377" style="fill: #d62728; stroke: #d62728"/>
     <use xlink:href="#m29465d7304" x="475.594521" y="143.863456" style="fill: #d62728; stroke: #d62728"/>
     <use xlink:href="#m29465d7304" x="457.249315" y="166.911589" style="fill: #d62728; stroke: #d62728"/>
     <use xlink:href="#m29465d7304" x="438.90411" y="191.180551" style="fill: #d62728; stroke: #d62728"/>
     <use xlink:href="#m29465d7304" x="414.443836" y="263.762015" style="fill: #d62728; stroke: #d62728"/>
     <use xlink:href="#m29465d7304" x="396.09863" y="284.799151" style="fill: #d62728; stroke: #d62728"/>
     <use xlink:href="#m29465d7304" x="371.638356" y="288.703286" style="fill: #d62728; stroke: #d62728"/>
     <use xlink:href="#m29465d7304" x="353.293151" y="289.208827" style="fill: #d62728; stroke: #d62728"/>
     <use xlink:href="#m29465d7304" x="334.947945" y="289.407148" style="fill: #d62728; stroke: #d62728"/>
     <use xlink:href="#m29465d7304" x="316.60274" y="289.56917" style="fill: #d62728; stroke: #d62728"/>
     <use xlink:href="#m29465d7304" x="292.142466" y="292.02708" style="fill: #d62728; stroke: #d62728"/>
     <use xlink:href="#m29465d7304" x="273.79726" y="298.144827" style="fill: #d62728; stroke: #d62728"/>
     <use xlink:href="#m29465d7304" x="255.452055" y="304.102481" style="fill: #d62728; stroke: #d62728"/>
     <use xlink:href="#m29465d7304" x="224.876712" y="307.450064" style="fill: #d62728; stroke: #d62728"/>
     <use xlink:href="#m29465d7304" x="194.30137" y="307.781263" style="fill: #d62728; stroke: #d62728"/>
     <use xlink:href="#m29465d7304" x="163.726027" y="307.798075" style="fill: #d62728; stroke: #d62728"/>
     <use xlink:href="#m29465d7304" x="133.150685" y="307.8" style="fill: #d62728; stroke: #d62728"/>
     <use xlink:href="#m29465d7304" x="108.690411" y="307.799989" style="fill: #d62728; stroke: #d62728"/>
     <use xlink:href="#m29465d7304" x="90.345205" y="307.8" style="fill: #d62728; stroke: #d62728"/>
     <use xlink:href="#m29465d7304" x="72" y="307.799988" style="fill: #d62728; stroke: #d62728"/>
    </g>
   </g>
   <g id="patch_3">
    <path d="M 72 320.4 
L 72 43.2 
" style="fill: none; stroke: #000000; stroke-width: 0.8; stroke-linejoin: miter; stroke-linecap: square"/>
   </g>
   <g id="patch_4">
    <path d="M 518.4 320.4 
L 518.4 43.2 
" style="fill: none; stroke: #000000; stroke-width: 0.8; stroke-linejoin: miter; stroke-linecap: square"/>
   </g>
   <g id="patch_5">
    <path d="M 72 320.4 
L 518.4 320.4 
" style="fill: none; stroke: #000000; stroke-width: 0.8; stroke-linejoin: miter; stroke-linecap: square"/>
   </g>
   <g id="patch_6">
    <path d="M 72 43.2 
L 518.4 43.2 
" style="fill: none; stroke: #000000; stroke-width: 0.8; stroke-linejoin: miter; stroke-linecap: square"/>
   </g>
   <g id="legend_1">
    <g id="LineCollection_5">
     <path d="M 91 61.298437 
L 91 51.298437 
" style="fill: none; stroke: #1f77b4; stroke-width: 1.5"/>
    </g>
    <g id="line2d_18">
     <path d="M 81 56.298437 
L 101 56.298437 
" style="fill: none; stroke: #1f77b4; stroke-width: 1.5; stroke-linecap: square"/>
    </g>
    <g id="line2d_19">
     <g>
      <use xlink:href="#m11e3e2075b" x="91" y="56.298437" style="fill: #1f77b4; stroke: #1f77b4"/>
     </g>
    </g>
    <g id="text_16">
     <!-- Lennard-Jones -->
     <g transform="translate(109 59.798437) scale(0.1 -0.1)">
      <defs>
       <path id="DejaVuSans-4c" d="M 628 4666 
L 1259 4666 
L 1259 531 
L 3531 531 
L 3531 0 
L 628 0 
L 628 4666 
z
" transform="scale(0.015625)"/>
       <path id="DejaVuSans-65" d="M 3597 1894 
L 3597 1613 
L 953 1613 
Q 991 1019 1311 708 
Q 1631 397 2203 397 
Q 2534 397 2845 478 
Q 3156 559 3463 722 
L 3463 178 
Q 3153 47 2828 -22 
Q 2503 -91 2169 -91 
Q 1331 -91 842 396 
Q 353 884 353 1716 
Q 353 2575 817 3079 
Q 1281 3584 2069 3584 
Q 2775 3584 3186 3129 
Q 3597 2675 3597 1894 
z
M 3022 2063 
Q 3016 2534 2758 2815 
Q 2500 3097 2075 3097 
Q 1594 3097 1305 2825 
Q 1016 2553 972 2059 
L 3022 2063 
z
" transform="scale(0.015625)"/>
       <path id="DejaVuSans-6e" d="M 3513 2113 
L 3513 0 
L 2938 0 
L 2938 2094 
Q 2938 2591 2744 2837 
Q 2550 3084 2163 3084 
Q 1697 3084 1428 2787 
Q 1159 2491 1159 1978 
L 1159 0 
L 581 0 
L 581 3500 
L 1159 3500 
L 1159 2956 
Q 1366 3272 1645 3428 
Q 1925 3584 2291 3584 
Q 2894 3584 3203 3211 
Q 3513 2838 3513 2113 
z
" transform="scale(0.015625)"/>
       <path id="DejaVuSans-61" d="M 2194 1759 
Q 1497 1759 1228 1600 
Q 959 1441 959 1056 
Q 959 750 1161 570 
Q 1363 391 1709 391 
Q 2188 391 2477 730 
Q 2766 1069 2766 1631 
L 2766 1759 
L 2194 1759 
z
M 3341 1997 
L 3341 0 
L 2766 0 
L 2766 531 
Q 2569 213 2275 61 
Q 1981 -91 1556 -91 
Q 1019 -91 701 211 
Q 384 513 384 1019 
Q 384 1609 779 1909 
Q 1175 2209 1959 2209 
L 2766 2209 
L 2766 2266 
Q 2766 2663 2505 2880 
Q 2244 3097 1772 3097 
Q 1472 3097 1187 3025 
Q 903 2953 641 2809 
L 641 3341 
Q 956 3463 1253 3523 
Q 1550 3584 1831 3584 
Q 2591 3584 2966 3190 
Q 3341 2797 3341 1997 
z
" transform="scale(0.015625)"/>
       <path id="DejaVuSans-72" d="M 2631 2963 
Q 2534 3019 2420 3045 
Q 2306 3072 2169 3072 
Q 1681 3072 1420 2755 
Q 1159 2438 1159 1844 
L 1159 0 
L 581 0 
L 581 3500 
L 1159 3500 
L 1159 2956 
Q 1341 3275 1631 3429 
Q 1922 3584 2338 3584 
Q 2397 3584 2469 3576 
Q 2541 3569 2628 3553 
L 2631 2963 
z
" transform="scale(0.015625)"/>
       <path id="DejaVuSans-64" d="M 2906 2969 
L 2906 4863 
L 3481 4863 
L 3481 0 
L 2906 0 
L 2906 525 
Q 2725 213 2448 61 
Q 2172 -91 1784 -91 
Q 1150 -91 751 415 
Q 353 922 353 1747 
Q 353 2572 751 3078 
Q 1150 3584 1784 3584 
Q 2172 3584 2448 3432 
Q 2725 3281 2906 2969 
z
M 947 1747 
Q 947 1113 1208 752 
Q 1469 391 1925 391 
Q 2381 391 2643 752 
Q 2906 1113 2906 1747 
Q 2906 2381 2643 2742 
Q 2381 3103 1925 3103 
Q 1469 3103 1208 2742 
Q 947 2381 947 1747 
z
" transform="scale(0.015625)"/>
       <path id="DejaVuSans-2d" d="M 313 2009 
L 1997 2009 
L 1997 1497 
L 313 1497 
L 313 2009 
z
" transform="scale(0.015625)"/>
       <path id="DejaVuSans-4a" d="M 628 4666 
L 1259 4666 
L 1259 325 
Q 1259 -519 939 -900 
Q 619 -1281 -91 -1281 
L -331 -1281 
L -331 -750 
L -134 -750 
Q 284 -750 456 -515 
Q 628 -281 628 325 
L 628 4666 
z
" transform="scale(0.015625)"/>
       <path id="DejaVuSans-6f" d="M 1959 3097 
Q 1497 3097 1228 2736 
Q 959 2375 959 1747 
Q 959 1119 1226 758 
Q 1494 397 1959 397 
Q 2419 397 2687 759 
Q 2956 1122 2956 1747 
Q 2956 2369 2687 2733 
Q 2419 3097 1959 3097 
z
M 1959 3584 
Q 2709 3584 3137 3096 
Q 3566 2609 3566 1747 
Q 3566 888 3137 398 
Q 2709 -91 1959 -91 
Q 1206 -91 779 398 
Q 353 888 353 1747 
Q 353 2609 779 3096 
Q 1206 3584 1959 3584 
z
" transform="scale(0.015625)"/>
       <path id="DejaVuSans-73" d="M 2834 3397 
L 2834 2853 
Q 2591 2978 2328 3040 
Q 2066 3103 1784 3103 
Q 1356 3103 1142 2972 
Q 928 2841 928 2578 
Q 928 2378 1081 2264 
Q 1234 2150 1697 2047 
L 1894 2003 
Q 2506 1872 2764 1633 
Q 3022 1394 3022 966 
Q 3022 478 2636 193 
Q 2250 -91 1575 -91 
Q 1294 -91 989 -36 
Q 684 19 347 128 
L 347 722 
Q 666 556 975 473 
Q 1284 391 1588 391 
Q 1994 391 2212 530 
Q 2431 669 2431 922 
Q 2431 1156 2273 1281 
Q 2116 1406 1581 1522 
L 1381 1569 
Q 847 1681 609 1914 
Q 372 2147 372 2553 
Q 372 3047 722 3315 
Q 1072 3584 1716 3584 
Q 2034 3584 2315 3537 
Q 2597 3491 2834 3397 
z
" transform="scale(0.015625)"/>
      </defs>
      <use xlink:href="#DejaVuSans-4c"/>
      <use xlink:href="#DejaVuSans-65" transform="translate(53.962891 0)"/>
      <use xlink:href="#DejaVuSans-6e" transform="translate(115.486328 0)"/>
      <use xlink:href="#DejaVuSans-6e" transform="translate(178.865234 0)"/>
      <use xlink:href="#DejaVuSans-61" transform="translate(242.244141 0)"/>
      <use xlink:href="#DejaVuSans-72" transform="translate(303.523438 0)"/>
      <use xlink:href="#DejaVuSans-64" transform="translate(342.886719 0)"/>
      <use xlink:href="#DejaVuSans-2d" transform="translate(406.363281 0)"/>
      <use xlink:href="#DejaVuSans-4a" transform="translate(448.072266 0)"/>
      <use xlink:href="#DejaVuSans-6f" transform="translate(477.564453 0)"/>
      <use xlink:href="#DejaVuSans-6e" transform="translate(538.746094 0)"/>
      <use xlink:href="#DejaVuSans-65" transform="translate(602.125 0)"/>
      <use xlink:href="#DejaVuSans-73" transform="translate(663.648438 0)"/>
     </g>
    </g>
    <g id="LineCollection_6">
     <path d="M 91 75.976562 
L 91 65.976562 
" style="fill: none; stroke: #ff7f0e; stroke-width: 1.5"/>
    </g>
    <g id="line2d_20">
     <path d="M 81 70.976562 
L 101 70.976562 
" style="fill: none; stroke: #ff7f0e; stroke-width: 1.5; stroke-linecap: square"/>
    </g>
    <g id="line2d_21">
     <g>
      <use xlink:href="#mfabffef2cd" x="91" y="70.976562" style="fill: #ff7f0e; stroke: #ff7f0e"/>
     </g>
    </g>
    <g id="text_17">
     <!-- Lee 2003 -->
     <g transform="translate(109 74.476562) scale(0.1 -0.1)">
      <use xlink:href="#DejaVuSans-4c"/>
      <use xlink:href="#DejaVuSans-65" transform="translate(53.962891 0)"/>
      <use xlink:href="#DejaVuSans-65" transform="translate(115.486328 0)"/>
      <use xlink:href="#DejaVuSans-20" transform="translate(177.009766 0)"/>
      <use xlink:href="#DejaVuSans-32" transform="translate(208.796875 0)"/>
      <use xlink:href="#DejaVuSans-30" transform="translate(272.419922 0)"/>
      <use xlink:href="#DejaVuSans-30" transform="translate(336.042969 0)"/>
      <use xlink:href="#DejaVuSans-33" transform="translate(399.666016 0)"/>
     </g>
    </g>
    <g id="LineCollection_7">
     <path d="M 91 90.654687 
L 91 80.654687 
" style="fill: none; stroke: #2ca02c; stroke-width: 1.5"/>
    </g>
    <g id="line2d_22">
     <path d="M 81 85.654687 
L 101 85.654687 
" style="fill: none; stroke: #2ca02c; stroke-width: 1.5; stroke-linecap: square"/>
    </g>
    <g id="line2d_23">
     <g>
      <use xlink:href="#mf1e60b03e0" x="91" y="85.654687" style="fill: #2ca02c; stroke: #2ca02c"/>
     </g>
    </g>
    <g id="text_18">
     <!-- Shirkov 2024 -->
     <g transform="translate(109 89.154687) scale(0.1 -0.1)">
      <defs>
       <path id="DejaVuSans-53" d="M 3425 4513 
L 3425 3897 
Q 3066 4069 2747 4153 
Q 2428 4238 2131 4238 
Q 1616 4238 1336 4038 
Q 1056 3838 1056 3469 
Q 1056 3159 1242 3001 
Q 1428 2844 1947 2747 
L 2328 2669 
Q 3034 2534 3370 2195 
Q 3706 1856 3706 1288 
Q 3706 609 3251 259 
Q 2797 -91 1919 -91 
Q 1588 -91 1214 -16 
Q 841 59 441 206 
L 441 856 
Q 825 641 1194 531 
Q 1563 422 1919 422 
Q 2459 422 2753 634 
Q 3047 847 3047 1241 
Q 3047 1584 2836 1778 
Q 2625 1972 2144 2069 
L 1759 2144 
Q 1053 2284 737 2584 
Q 422 2884 422 3419 
Q 422 4038 858 4394 
Q 1294 4750 2059 4750 
Q 2388 4750 2728 4690 
Q 3069 4631 3425 4513 
z
" transform="scale(0.015625)"/>
       <path id="DejaVuSans-68" d="M 3513 2113 
L 3513 0 
L 2938 0 
L 2938 2094 
Q 2938 2591 2744 2837 
Q 2550 3084 2163 3084 
Q 1697 3084 1428 2787 
Q 1159 2491 1159 1978 
L 1159 0 
L 581 0 
L 581 4863 
L 1159 4863 
L 1159 2956 
Q 1366 3272 1645 3428 
Q 1925 3584 2291 3584 
Q 2894 3584 3203 3211 
Q 3513 2838 3513 2113 
z
" transform="scale(0.015625)"/>
       <path id="DejaVuSans-69" d="M 603 3500 
L 1178 3500 
L 1178 0 
L 603 0 
L 603 3500 
z
M 603 4863 
L 1178 4863 
L 1178 4134 
L 603 4134 
L 603 4863 
z
" transform="scale(0.015625)"/>
       <path id="DejaVuSans-6b" d="M 581 4863 
L 1159 4863 
L 1159 1991 
L 2875 3500 
L 3609 3500 
L 1753 1863 
L 3688 0 
L 2938 0 
L 1159 1709 
L 1159 0 
L 581 0 
L 581 4863 
z
" transform="scale(0.015625)"/>
       <path id="DejaVuSans-76" d="M 191 3500 
L 800 3500 
L 1894 563 
L 2988 3500 
L 3597 3500 
L 2284 0 
L 1503 0 
L 191 3500 
z
" transform="scale(0.015625)"/>
      </defs>
      <use xlink:href="#DejaVuSans-53"/>
      <use xlink:href="#DejaVuSans-68" transform="translate(63.476562 0)"/>
      <use xlink:href="#DejaVuSans-69" transform="translate(126.855469 0)"/>
      <use xlink:href="#DejaVuSans-72" transform="translate(154.638672 0)"/>
      <use xlink:href="#DejaVuSans-6b" transform="translate(195.751953 0)"/>
      <use xlink:href="#DejaVuSans-6f" transform="translate(250.037109 0)"/>
      <use xlink:href="#DejaVuSans-76" transform="translate(311.21875 0)"/>
      <use xlink:href="#DejaVuSans-20" transform="translate(370.398438 0)"/>
      <use xlink:href="#DejaVuSans-32" transform="translate(402.185547 0)"/>
      <use xlink:href="#DejaVuSans-30" transform="translate(465.808594 0)"/>
      <use xlink:href="#DejaVuSans-32" transform="translate(529.431641 0)"/>
      <use xlink:href="#DejaVuSans-34" transform="translate(593.054688 0)"/>
     </g>
    </g>
    <g id="LineCollection_8">
     <path d="M 91 105.332812 
L 91 95.332812 
" style="fill: none; stroke: #d62728; stroke-width: 1.5"/>
    </g>
    <g id="line2d_24">
     <path d="M 81 100.332812 
L 101 100.332812 
" style="fill: none; stroke: #d62728; stroke-width: 1.5; stroke-linecap: square"/>
    </g>
    <g id="line2d_25">
     <g>
      <use xlink:href="#m29465d7304" x="91" y="100.332812" style="fill: #d62728; stroke: #d62728"/>
     </g>
    </g>
    <g id="text_19">
     <!-- This work -->
     <g transform="translate(109 103.832812) scale(0.1 -0.1)">
      <defs>
       <path id="DejaVuSans-54" d="M -19 4666 
L 3928 4666 
L 3928 4134 
L 2272 4134 
L 2272 0 
L 1638 0 
L 1638 4134 
L -19 4134 
L -19 4666 
z
" transform="scale(0.015625)"/>
       <path id="DejaVuSans-77" d="M 269 3500 
L 844 3500 
L 1563 769 
L 2278 3500 
L 2956 3500 
L 3675 769 
L 4391 3500 
L 4966 3500 
L 4050 0 
L 3372 0 
L 2619 2869 
L 1863 0 
L 1184 0 
L 269 3500 
z
" transform="scale(0.015625)"/>
      </defs>
      <use xlink:href="#DejaVuSans-54"/>
      <use xlink:href="#DejaVuSans-68" transform="translate(61.083984 0)"/>
      <use xlink:href="#DejaVuSans-69" transform="translate(124.462891 0)"/>
      <use xlink:href="#DejaVuSans-73" transform="translate(152.246094 0)"/>
      <use xlink:href="#DejaVuSans-20" transform="translate(204.345703 0)"/>
      <use xlink:href="#DejaVuSans-77" transform="translate(236.132812 0)"/>
      <use xlink:href="#DejaVuSans-6f" transform="translate(317.919922 0)"/>
      <use xlink:href="#DejaVuSans-72" transform="translate(379.101562 0)"/>
      <use xlink:href="#DejaVuSans-6b" transform="translate(420.214844 0)"/>
     </g>
    </g>
   </g>
  </g>
 </g>
 <defs>
  <clipPath id="p9b33cd9b30">
   <rect x="72" y="43.2" width="446.4" height="277.2"/>
  </clipPath>
 </defs>
</svg>
