<?xml version="1.0" encoding="utf-8" standalone="no"?>
<!DOCTYPE svg PUBLIC "-//W3C//DTD SVG 1.1//EN"
  "http://www.w3.org/Graphics/SVG/1.1/DTD/svg11.dtd">
<svg xmlns:xlink="http://www.w3.org/1999/xlink" width="576pt" height="360pt" viewBox="0 0 576 360" xmlns="http://www.w3.org/2000/svg" version="1.1">
 <metadata>
  <rdf:RDF xmlns:dc="http://purl.org/dc/elements/1.1/" xmlns:cc="http://creativecommons.org/ns#" xmlns:rdf="http://www.w3.org/1999/02/22-rdf-syntax-ns#">
   <cc:Work>
    <dc:type rdf:resource="http://purl.org/dc/dcmitype/StillImage"/>
    <dc:date>2025-12-19T08:56:21.199311</dc:date>
    <dc:format>image/svg+xml</dc:format>
    <dc:creator>
     <cc:Agent>
      <dc:title>Matplotlib v3.10.8, https://matplotlib.org/</dc:title>
     </cc:Agent>
    </dc:creator>
   </cc:Work>
  </rdf:RDF>
 </metadata>
 <defs>
  <style type="text/css">*{stroke-linejoin: round; stroke-linecap: butt}</style>
 </defs>
 <g id="figure_1">
  <g id="patch_1">
   <path d="M 0 360 
L 576 360 
L 576 0 
L 0 0 
z
" style="fill: #ffffff"/>
  </g>
  <g id="axes_1">
   <g id="patch_2">
    <path d="M 72 320.4 
L 518.4 320.4 
L 518.4 43.2 
L 72 43.2 
z
" style="fill: #ffffff"/>
   </g>
   <g id="FillBetweenPolyCollection_1">
    <defs>
     <path id="m62c2a393cd" d="M 72 -304.2 
L 72 -293.866241 
L 73.889844 -292.87895 
L 75.779687 -291.477516 
L 77.669531 -289.655603 
L 79.559375 -287.413599 
L 81.449219 -284.75829 
L 83.339062 -281.70181 
L 85.228905 -278.26044 
L 87.11875 -274.453629 
L 89.008594 -270.303185 
L 90.898438 -265.832629 
L 92.78828 -261.066784 
L 94.678124 -256.031544 
L 96.567968 -250.753827 
L 98.457811 -245.261405 
L 100.347655 -239.5827 
L 102.237499 -233.746747 
L 104.127343 -227.782911 
L 106.017187 -221.720523 
L 107.907031 -215.588737 
L 109.796875 -209.416085 
L 111.686716 -203.230264 
L 113.57656 -197.057823 
L 115.466404 -190.923948 
L 117.356249 -184.852078 
L 119.246093 -178.863697 
L 121.135937 -172.976463 
L 123.025781 -167.181673 
L 124.915622 -161.442449 
L 126.805466 -155.858654 
L 128.69531 -150.463877 
L 130.585157 -145.273005 
L 132.474998 -140.297187 
L 134.364839 -135.545274 
L 136.254686 -131.023952 
L 138.144527 -126.738071 
L 140.034374 -122.691057 
L 141.924215 -118.884963 
L 143.814063 -115.32079 
L 145.703903 -111.999004 
L 147.593751 -108.919397 
L 149.483592 -106.081402 
L 151.373432 -103.484028 
L 153.26328 -101.124774 
L 155.153121 -98.997262 
L 157.042968 -97.077461 
L 158.932809 -95.338482 
L 160.822656 -93.807004 
L 162.712497 -92.485483 
L 164.602338 -91.363813 
L 166.492185 -90.429928 
L 168.382026 -89.671127 
L 170.271873 -89.074003 
L 172.161714 -88.622785 
L 174.051562 -88.28559 
L 175.941402 -88.033424 
L 177.831243 -87.892197 
L 179.721091 -87.870944 
L 181.610931 -87.967528 
L 183.500779 -88.175127 
L 185.39062 -88.484277 
L 187.280467 -88.884813 
L 189.170315 -89.36688 
L 191.060149 -89.921682 
L 192.949996 -90.54251 
L 194.839844 -91.224182 
L 196.729678 -91.962062 
L 198.619525 -92.751586 
L 200.509373 -93.587608 
L 202.39922 -94.464049 
L 204.289054 -95.373799 
L 206.178901 -96.306262 
L 208.068749 -97.229705 
L 209.958583 -98.11821 
L 211.84843 -99.005887 
L 213.738278 -99.902145 
L 215.628125 -100.808237 
L 217.517959 -101.723995 
L 219.407807 -102.648705 
L 221.297654 -103.580719 
L 223.187502 -104.517454 
L 225.077336 -105.45571 
L 226.967183 -106.391875 
L 228.857031 -107.322471 
L 230.746865 -108.244854 
L 232.636712 -109.157109 
L 234.52656 -110.057859 
L 236.416407 -110.946315 
L 238.306241 -111.821335 
L 240.196089 -112.678463 
L 242.085936 -113.47229 
L 243.97577 -114.160144 
L 245.865618 -114.808026 
L 247.755465 -115.427004 
L 249.645313 -116.019252 
L 251.535147 -116.585612 
L 253.424994 -117.126235 
L 255.314842 -117.640916 
L 257.204676 -118.129366 
L 259.094523 -118.591289 
L 260.984371 -119.026482 
L 262.874218 -119.435041 
L 264.764052 -119.817352 
L 266.6539 -120.174179 
L 268.543747 -120.506703 
L 270.433581 -120.816351 
L 272.323428 -121.104728 
L 274.213276 -121.373476 
L 276.103123 -121.62416 
L 277.992957 -121.858207 
L 279.882805 -122.076844 
L 281.772652 -122.281049 
L 283.662486 -122.471572 
L 285.552334 -122.648991 
L 287.442181 -122.813801 
L 289.332029 -122.966553 
L 291.221863 -123.107912 
L 293.11171 -123.238724 
L 295.001558 -123.360042 
L 296.891405 -123.473019 
L 298.781239 -123.578783 
L 300.671087 -123.678328 
L 302.560934 -123.772388 
L 304.450782 -123.861373 
L 306.340629 -123.945372 
L 308.23045 -124.02426 
L 310.120297 -124.097849 
L 312.010145 -124.166021 
L 313.899992 -124.228871 
L 315.78984 -124.286835 
L 317.679687 -124.34069 
L 319.569535 -124.391484 
L 321.459355 -124.44045 
L 323.349203 -124.488842 
L 325.23905 -124.537747 
L 327.128898 -124.587941 
L 329.018745 -124.639812 
L 330.908593 -124.693317 
L 332.79844 -124.748028 
L 334.688261 -124.803275 
L 336.578108 -124.858337 
L 338.467955 -124.912631 
L 340.357803 -124.965901 
L 342.24765 -125.018403 
L 344.137498 -125.070957 
L 346.027345 -125.124888 
L 347.917166 -125.181941 
L 349.807013 -125.244071 
L 351.696861 -125.313147 
L 353.586708 -125.390698 
L 355.476583 -125.477696 
L 357.36643 -125.574379 
L 359.256278 -125.680182 
L 361.146125 -125.793852 
L 363.035946 -125.913639 
L 364.925793 -126.037562 
L 366.815641 -126.163734 
L 368.705488 -126.290721 
L 370.595336 -126.417786 
L 372.485183 -126.544995 
L 374.375031 -126.67329 
L 376.264851 -126.804375 
L 378.154699 -126.940456 
L 380.044546 -127.083957 
L 381.934394 -127.237217 
L 383.824241 -127.402158 
L 385.714089 -127.58003 
L 387.603936 -127.771292 
L 389.493757 -127.975576 
L 391.383604 -128.191752 
L 393.273452 -128.418118 
L 395.163299 -128.652673 
L 397.053146 -128.893392 
L 398.942994 -129.138473 
L 400.832841 -129.386582 
L 402.722662 -129.636995 
L 404.612509 -129.889628 
L 406.502357 -130.145015 
L 408.392204 -130.40422 
L 410.282052 -130.668659 
L 412.171899 -130.939927 
L 414.061747 -131.219622 
L 415.951567 -131.50917 
L 417.841415 -131.809702 
L 419.731262 -132.121961 
L 421.62111 -132.446272 
L 423.510957 -132.78255 
L 425.400805 -133.130361 
L 427.290652 -133.488995 
L 429.180473 -133.857594 
L 431.07032 -134.235246 
L 432.960168 -134.62108 
L 434.850015 -135.014356 
L 436.739863 -135.414491 
L 438.62971 -135.821095 
L 440.519558 -136.233958 
L 442.409378 -136.652997 
L 444.299226 -137.078251 
L 446.189073 -137.509795 
L 448.078921 -137.947709 
L 449.968768 -138.392053 
L 451.858616 -138.842819 
L 453.748463 -139.299913 
L 455.63831 -139.763165 
L 457.528131 -140.23231 
L 459.417979 -140.707094 
L 461.307826 -141.187414 
L 463.197673 -141.673468 
L 465.087521 -142.165909 
L 466.977368 -142.663206 
L 468.867216 -142.555677 
L 470.757036 -142.16583 
L 472.646884 -141.754231 
L 474.536731 -141.319127 
L 476.426579 -140.858177 
L 478.316426 -140.369217 
L 480.206274 -139.850312 
L 482.096121 -139.299851 
L 483.985942 -138.716572 
L 485.875789 -138.0995 
L 487.765637 -137.448023 
L 489.655484 -136.761813 
L 491.545332 -136.040812 
L 493.435179 -135.285209 
L 495.325027 -134.495404 
L 497.214847 -133.671988 
L 499.104695 -132.815713 
L 500.994542 -131.927466 
L 502.88439 -131.008251 
L 504.774237 -130.059165 
L 506.664085 -129.081384 
L 508.553932 -128.076145 
L 510.443753 -127.04476 
L 512.3336 -125.988469 
L 514.223448 -124.908698 
L 516.113295 -123.806781 
L 518.003143 -122.684088 
L 519.89299 -121.54199 
L 521.782837 -120.381851 
L 523.672658 -119.205026 
L 525.562532 -118.012856 
L 527.452353 -116.806662 
L 529.342227 -115.587743 
L 531.232048 -114.357374 
L 533.121868 -113.116836 
L 535.011743 -111.867253 
L 536.901563 -110.609939 
L 538.791438 -109.345926 
L 540.681258 -108.076432 
L 542.571133 -106.802516 
L 544.460953 -105.525234 
L 546.350774 -104.24564 
L 548.240648 -102.964623 
L 550.130469 -101.683263 
L 552.020343 -100.402348 
L 553.910164 -99.122887 
L 555.800038 -97.845598 
L 557.689859 -96.571422 
L 559.579679 -95.301038 
L 561.469554 -94.035222 
L 563.359374 -92.774685 
L 565.249249 -91.520104 
L 567.139069 -90.272124 
L 569.028944 -89.031358 
L 570.918764 -87.79839 
L 572.808585 -86.573801 
L 574.698459 -85.358022 
L 576.58828 -84.151639 
L 578.478154 -82.955086 
L 580.367975 -81.768801 
L 582.257849 -80.593194 
L 584.14767 -79.428651 
L 586.03749 -78.275559 
L 587.927364 -77.134166 
L 589.817185 -76.0049 
L 591.707059 -74.887933 
L 593.59688 -73.783644 
L 595.486754 -72.692165 
L 597.376575 -71.613829 
L 599.266395 -70.548757 
L 601.15627 -69.497159 
L 603.04609 -68.4592 
L 604.935965 -67.435026 
L 606.825785 -66.424765 
L 608.71566 -65.428504 
L 610.60548 -64.446415 
L 612.495301 -63.478503 
L 614.385175 -62.524857 
L 616.274996 -61.585529 
L 618.16487 -60.660557 
L 620.054691 -59.749964 
L 621.944565 -58.853764 
L 623.834386 -57.971955 
L 625.724206 -57.104547 
L 627.614081 -56.251454 
L 629.503901 -55.412729 
L 631.393776 -54.588243 
L 633.283596 -53.77803 
L 635.173471 -52.981945 
L 637.063291 -52.2 
L 637.063291 -235.083175 
L 637.063291 -235.083175 
L 635.173471 -234.330567 
L 633.283596 -233.563746 
L 631.393776 -232.782704 
L 629.503901 -231.987285 
L 627.614081 -231.177499 
L 625.724206 -230.353204 
L 623.834386 -229.514432 
L 621.944565 -228.661078 
L 620.054691 -227.793131 
L 618.16487 -226.91057 
L 616.274996 -226.013386 
L 614.385175 -225.101581 
L 612.495301 -224.175169 
L 610.60548 -223.234179 
L 608.71566 -222.278675 
L 606.825785 -221.30864 
L 604.935965 -220.324216 
L 603.04609 -219.325464 
L 601.15627 -218.312486 
L 599.266395 -217.285399 
L 597.376575 -216.244338 
L 595.486754 -215.189484 
L 593.59688 -214.120928 
L 591.707059 -213.038968 
L 589.817185 -211.943707 
L 587.927364 -210.835487 
L 586.03749 -209.714448 
L 584.14767 -208.580981 
L 582.257849 -207.435298 
L 580.367975 -206.277748 
L 578.478154 -205.108679 
L 576.58828 -203.928462 
L 574.698459 -202.737494 
L 572.808585 -201.536168 
L 570.918764 -200.325026 
L 569.028944 -199.104456 
L 567.139069 -197.874995 
L 565.249249 -196.637181 
L 563.359374 -195.391579 
L 561.469554 -194.138786 
L 559.579679 -192.879432 
L 557.689859 -191.614175 
L 555.800038 -190.343741 
L 553.910164 -189.068757 
L 552.020343 -187.79011 
L 550.130469 -186.508462 
L 548.240648 -185.224768 
L 546.350774 -183.939756 
L 544.460953 -182.65445 
L 542.571133 -181.369678 
L 540.681258 -180.086435 
L 538.791438 -178.805713 
L 536.901563 -177.528509 
L 535.011743 -176.255979 
L 533.121868 -174.989085 
L 531.232048 -173.729078 
L 529.342227 -172.477014 
L 527.452353 -171.234103 
L 525.562532 -170.001552 
L 523.672658 -168.780588 
L 521.782837 -167.57246 
L 519.89299 -166.378437 
L 518.003143 -165.199798 
L 516.113295 -164.037833 
L 514.223448 -162.893836 
L 512.3336 -161.7691 
L 510.443753 -160.664879 
L 508.553932 -159.582524 
L 506.664085 -158.523191 
L 504.774237 -157.488113 
L 502.88439 -156.478446 
L 500.994542 -155.495282 
L 499.104695 -154.539636 
L 497.214847 -153.612428 
L 495.325027 -152.714462 
L 493.435179 -151.846405 
L 491.545332 -151.008762 
L 489.655484 -150.20185 
L 487.765637 -149.42577 
L 485.875789 -148.68038 
L 483.985942 -147.965266 
L 482.096121 -147.279733 
L 480.206274 -146.622715 
L 478.316426 -145.992868 
L 476.426579 -145.388496 
L 474.536731 -144.807578 
L 472.646884 -144.247871 
L 470.757036 -143.70695 
L 468.867216 -143.182981 
L 466.977368 -142.936447 
L 465.087521 -143.289778 
L 463.197673 -143.633229 
L 461.307826 -143.965235 
L 459.417979 -144.28648 
L 457.528131 -144.597256 
L 455.63831 -144.897603 
L 453.748463 -145.187429 
L 451.858616 -145.466627 
L 449.968768 -145.735114 
L 448.078921 -145.992777 
L 446.189073 -146.239468 
L 444.299226 -146.474993 
L 442.409378 -146.699092 
L 440.519558 -146.9115 
L 438.62971 -147.112001 
L 436.739863 -147.300458 
L 434.850015 -147.476888 
L 432.960168 -147.641499 
L 431.07032 -147.794701 
L 429.180473 -147.937095 
L 427.290652 -148.069417 
L 425.400805 -148.192481 
L 423.510957 -148.30706 
L 421.62111 -148.413777 
L 419.731262 -148.51301 
L 417.841415 -148.604802 
L 415.951567 -148.68879 
L 414.061747 -148.764204 
L 412.171899 -148.829913 
L 410.282052 -148.884483 
L 408.392204 -148.926326 
L 406.502357 -148.953873 
L 404.612509 -148.965739 
L 402.722662 -148.960909 
L 400.832841 -148.938906 
L 398.942994 -148.899887 
L 397.053146 -148.84466 
L 395.163299 -148.774652 
L 393.273452 -148.691773 
L 391.383604 -148.598171 
L 389.493757 -148.495976 
L 387.603936 -148.387029 
L 385.714089 -148.272624 
L 383.824241 -148.153293 
L 381.934394 -148.028754 
L 380.044546 -147.897955 
L 378.154699 -147.75917 
L 376.264851 -147.610278 
L 374.375031 -147.449084 
L 372.485183 -147.273615 
L 370.595336 -147.08242 
L 368.705488 -146.87482 
L 366.815641 -146.651017 
L 364.925793 -146.412039 
L 363.035946 -146.159613 
L 361.146125 -145.895934 
L 359.256278 -145.623302 
L 357.36643 -145.343796 
L 355.476583 -145.059006 
L 353.586708 -144.769857 
L 351.696861 -144.476473 
L 349.807013 -144.178252 
L 347.917166 -143.874055 
L 346.027345 -143.562407 
L 344.137498 -143.241755 
L 342.24765 -142.910776 
L 340.357803 -142.568567 
L 338.467955 -142.214749 
L 336.578108 -141.849513 
L 334.688261 -141.473567 
L 332.79844 -141.087971 
L 330.908593 -140.693911 
L 329.018745 -140.292544 
L 327.128898 -139.884795 
L 325.23905 -139.471214 
L 323.349203 -139.051921 
L 321.459355 -138.626665 
L 319.569535 -138.194889 
L 317.679687 -137.755864 
L 315.78984 -137.308914 
L 313.899992 -136.853535 
L 312.010145 -136.389513 
L 310.120297 -135.916981 
L 308.23045 -135.436409 
L 306.340629 -134.948504 
L 304.450782 -134.454029 
L 302.560934 -133.953699 
L 300.671087 -133.448027 
L 298.781239 -132.937202 
L 296.891405 -132.421091 
L 295.001558 -131.899308 
L 293.11171 -131.371332 
L 291.221863 -130.83661 
L 289.332029 -130.294721 
L 287.442181 -129.745413 
L 285.552334 -129.188629 
L 283.662486 -128.624437 
L 281.772652 -128.052943 
L 279.882805 -127.47418 
L 277.992957 -126.888035 
L 276.103123 -126.294148 
L 274.213276 -125.691958 
L 272.323428 -125.080714 
L 270.433581 -124.459516 
L 268.543747 -123.827441 
L 266.6539 -123.183549 
L 264.764052 -122.52704 
L 262.874218 -121.857322 
L 260.984371 -121.174026 
L 259.094523 -120.476986 
L 257.204676 -119.766151 
L 255.314842 -119.041401 
L 253.424994 -118.302512 
L 251.535147 -117.549165 
L 249.645313 -116.780806 
L 247.755465 -115.996907 
L 245.865618 -115.19721 
L 243.97577 -114.382471 
L 242.085936 -113.562258 
L 240.196089 -112.801212 
L 238.306241 -112.056114 
L 236.416407 -111.281957 
L 234.52656 -110.475465 
L 232.636712 -109.637524 
L 230.746865 -108.770372 
L 228.857031 -107.876919 
L 226.967183 -106.960719 
L 225.077336 -106.02587 
L 223.187502 -105.076497 
L 221.297654 -104.116568 
L 219.407807 -103.149323 
L 217.517959 -102.176839 
L 215.628125 -101.200646 
L 213.738278 -100.221991 
L 211.84843 -99.242646 
L 209.958583 -98.266949 
L 208.068749 -97.309856 
L 206.178901 -96.41304 
L 204.289054 -95.558871 
L 202.39922 -94.725537 
L 200.509373 -93.91422 
L 198.619525 -93.130401 
L 196.729678 -92.380257 
L 194.839844 -91.670042 
L 192.949996 -91.005628 
L 191.060149 -90.392182 
L 189.170315 -89.835132 
L 187.280467 -89.340864 
L 185.39062 -88.916972 
L 183.500779 -88.572262 
L 181.610931 -88.316068 
L 179.721091 -88.157538 
L 177.831243 -88.105443 
L 175.941402 -88.16856 
L 174.051562 -88.363583 
L 172.161714 -88.72497 
L 170.271873 -89.236587 
L 168.382026 -89.883997 
L 166.492185 -90.672209 
L 164.602338 -91.610885 
L 162.712497 -92.712131 
L 160.822656 -93.99015 
L 158.932809 -95.46156 
L 157.042968 -97.153572 
L 155.153121 -99.112711 
L 153.26328 -101.324325 
L 151.373432 -103.770117 
L 149.483592 -106.446037 
L 147.593751 -109.35089 
L 145.703903 -112.484591 
L 143.814063 -115.847439 
L 141.924215 -119.439875 
L 140.034374 -123.262003 
L 138.144527 -127.312774 
L 136.254686 -131.589642 
L 134.364839 -136.088337 
L 132.474998 -140.802298 
L 130.585157 -145.722914 
L 128.69531 -150.839658 
L 126.805466 -156.140198 
L 124.915622 -161.612041 
L 123.025781 -167.258183 
L 121.135937 -173.145093 
L 119.246093 -179.200307 
L 117.356249 -185.377185 
L 115.466404 -191.652806 
L 113.57656 -198.005058 
L 111.686716 -204.410924 
L 109.796875 -210.846173 
L 107.907031 -217.285416 
L 106.017187 -223.701878 
L 104.127343 -230.067785 
L 102.237499 -236.354539 
L 100.347655 -242.533023 
L 98.457811 -248.573923 
L 96.567968 -254.448117 
L 94.678124 -260.126943 
L 92.78828 -265.582377 
L 90.898438 -270.787232 
L 89.008594 -275.715338 
L 87.11875 -280.341665 
L 85.228905 -284.642518 
L 83.339062 -288.59595 
L 81.449219 -292.18243 
L 79.559375 -295.385559 
L 77.669531 -298.192993 
L 75.779687 -300.597547 
L 73.889844 -302.598109 
L 72 -304.2 
z
" style="stroke: #0000ff; stroke-opacity: 0.3"/>
    </defs>
    <g clip-path="url(#p3875b235ff)">
     <use xlink:href="#m62c2a393cd" x="0" y="360" style="fill: #0000ff; fill-opacity: 0.3; stroke: #0000ff; stroke-opacity: 0.3"/>
    </g>
   </g>
   <g id="PathCollection_1">
    <defs>
     <path id="m41ecff39ba" d="M 0 3 
C 0.795609 3 1.55874 2.683901 2.12132 2.12132 
C 2.683901 1.55874 3 0.795609 3 0 
C 3 -0.795609 2.683901 -1.55874 2.12132 -2.12132 
C 1.55874 -2.683901 0.795609 -3 0 -3 
C -0.795609 -3 -1.55874 -2.683901 -2.12132 -2.12132 
C -2.683901 -1.55874 -3 -0.795609 -3 0 
C -3 0.795609 -2.683901 1.55874 -2.12132 2.12132 
C -1.55874 2.683901 -0.795609 3 0 3 
z
" style="stroke: #ff0000"/>
    </defs>
    <g clip-path="url(#p3875b235ff)">
     <use xlink:href="#m41ecff39ba" x="467.544304" y="217.179068" style="fill: #ff0000; stroke: #ff0000"/>
     <use xlink:href="#m41ecff39ba" x="207.61519" y="262.953912" style="fill: #ff0000; stroke: #ff0000"/>
     <use xlink:href="#m41ecff39ba" x="156.759494" y="262.615391" style="fill: #ff0000; stroke: #ff0000"/>
     <use xlink:href="#m41ecff39ba" x="122.855696" y="192.258932" style="fill: #ff0000; stroke: #ff0000"/>
     <use xlink:href="#m41ecff39ba" x="241.518987" y="246.712436" style="fill: #ff0000; stroke: #ff0000"/>
     <use xlink:href="#m41ecff39ba" x="173.711392" y="271.612963" style="fill: #ff0000; stroke: #ff0000"/>
    </g>
   </g>
   <g id="PathCollection_2">
    <defs>
     <path id="m652f24893b" d="M -3 3 
L 3 -3 
M -3 -3 
L 3 3 
" style="stroke: #00bfbf; stroke-width: 1.5"/>
    </defs>
    <g clip-path="url(#p3875b235ff)">
     <use xlink:href="#m652f24893b" x="72" y="140.802714" style="fill: #00bfbf; stroke: #00bfbf; stroke-width: 1.5"/>
     <use xlink:href="#m652f24893b" x="77.345193" y="142.505737" style="fill: #00bfbf; stroke: #00bfbf; stroke-width: 1.5"/>
     <use xlink:href="#m652f24893b" x="82.690387" y="147.519789" style="fill: #00bfbf; stroke: #00bfbf; stroke-width: 1.5"/>
     <use xlink:href="#m652f24893b" x="88.03558" y="155.559778" style="fill: #00bfbf; stroke: #00bfbf; stroke-width: 1.5"/>
     <use xlink:href="#m652f24893b" x="93.380773" y="166.195263" style="fill: #00bfbf; stroke: #00bfbf; stroke-width: 1.5"/>
     <use xlink:href="#m652f24893b" x="98.725966" y="178.889558" style="fill: #00bfbf; stroke: #00bfbf; stroke-width: 1.5"/>
     <use xlink:href="#m652f24893b" x="104.07116" y="193.006463" style="fill: #00bfbf; stroke: #00bfbf; stroke-width: 1.5"/>
     <use xlink:href="#m652f24893b" x="109.416353" y="207.870122" style="fill: #00bfbf; stroke: #00bfbf; stroke-width: 1.5"/>
     <use xlink:href="#m652f24893b" x="114.761546" y="222.839929" style="fill: #00bfbf; stroke: #00bfbf; stroke-width: 1.5"/>
     <use xlink:href="#m652f24893b" x="120.10674" y="237.364242" style="fill: #00bfbf; stroke: #00bfbf; stroke-width: 1.5"/>
     <use xlink:href="#m652f24893b" x="125.451933" y="250.957971" style="fill: #00bfbf; stroke: #00bfbf; stroke-width: 1.5"/>
     <use xlink:href="#m652f24893b" x="130.797126" y="263.237339" style="fill: #00bfbf; stroke: #00bfbf; stroke-width: 1.5"/>
     <use xlink:href="#m652f24893b" x="136.14232" y="273.919387" style="fill: #00bfbf; stroke: #00bfbf; stroke-width: 1.5"/>
     <use xlink:href="#m652f24893b" x="141.487513" y="282.829541" style="fill: #00bfbf; stroke: #00bfbf; stroke-width: 1.5"/>
     <use xlink:href="#m652f24893b" x="146.832706" y="289.898042" style="fill: #00bfbf; stroke: #00bfbf; stroke-width: 1.5"/>
     <use xlink:href="#m652f24893b" x="152.177899" y="295.134524" style="fill: #00bfbf; stroke: #00bfbf; stroke-width: 1.5"/>
     <use xlink:href="#m652f24893b" x="157.523093" y="298.571984" style="fill: #00bfbf; stroke: #00bfbf; stroke-width: 1.5"/>
     <use xlink:href="#m652f24893b" x="162.868286" y="300.306646" style="fill: #00bfbf; stroke: #00bfbf; stroke-width: 1.5"/>
     <use xlink:href="#m652f24893b" x="168.213479" y="300.582649" style="fill: #00bfbf; stroke: #00bfbf; stroke-width: 1.5"/>
     <use xlink:href="#m652f24893b" x="173.558673" y="299.639367" style="fill: #00bfbf; stroke: #00bfbf; stroke-width: 1.5"/>
     <use xlink:href="#m652f24893b" x="178.903866" y="297.507226" style="fill: #00bfbf; stroke: #00bfbf; stroke-width: 1.5"/>
     <use xlink:href="#m652f24893b" x="184.249059" y="294.284651" style="fill: #00bfbf; stroke: #00bfbf; stroke-width: 1.5"/>
     <use xlink:href="#m652f24893b" x="189.594252" y="290.390468" style="fill: #00bfbf; stroke: #00bfbf; stroke-width: 1.5"/>
     <use xlink:href="#m652f24893b" x="194.939446" y="286.101293" style="fill: #00bfbf; stroke: #00bfbf; stroke-width: 1.5"/>
     <use xlink:href="#m652f24893b" x="200.284639" y="281.348136" style="fill: #00bfbf; stroke: #00bfbf; stroke-width: 1.5"/>
     <use xlink:href="#m652f24893b" x="205.629832" y="276.32074" style="fill: #00bfbf; stroke: #00bfbf; stroke-width: 1.5"/>
     <use xlink:href="#m652f24893b" x="210.975026" y="271.393888" style="fill: #00bfbf; stroke: #00bfbf; stroke-width: 1.5"/>
     <use xlink:href="#m652f24893b" x="216.320219" y="266.628364" style="fill: #00bfbf; stroke: #00bfbf; stroke-width: 1.5"/>
     <use xlink:href="#m652f24893b" x="221.665412" y="261.936165" style="fill: #00bfbf; stroke: #00bfbf; stroke-width: 1.5"/>
     <use xlink:href="#m652f24893b" x="227.010606" y="257.382388" style="fill: #00bfbf; stroke: #00bfbf; stroke-width: 1.5"/>
     <use xlink:href="#m652f24893b" x="232.355799" y="253.162998" style="fill: #00bfbf; stroke: #00bfbf; stroke-width: 1.5"/>
     <use xlink:href="#m652f24893b" x="237.700992" y="249.271087" style="fill: #00bfbf; stroke: #00bfbf; stroke-width: 1.5"/>
     <use xlink:href="#m652f24893b" x="243.046185" y="245.715887" style="fill: #00bfbf; stroke: #00bfbf; stroke-width: 1.5"/>
     <use xlink:href="#m652f24893b" x="248.391379" y="242.472946" style="fill: #00bfbf; stroke: #00bfbf; stroke-width: 1.5"/>
     <use xlink:href="#m652f24893b" x="253.736572" y="239.543302" style="fill: #00bfbf; stroke: #00bfbf; stroke-width: 1.5"/>
     <use xlink:href="#m652f24893b" x="259.081765" y="236.900776" style="fill: #00bfbf; stroke: #00bfbf; stroke-width: 1.5"/>
     <use xlink:href="#m652f24893b" x="264.426959" y="234.529927" style="fill: #00bfbf; stroke: #00bfbf; stroke-width: 1.5"/>
     <use xlink:href="#m652f24893b" x="269.772152" y="232.433779" style="fill: #00bfbf; stroke: #00bfbf; stroke-width: 1.5"/>
     <use xlink:href="#m652f24893b" x="275.117345" y="230.559252" style="fill: #00bfbf; stroke: #00bfbf; stroke-width: 1.5"/>
     <use xlink:href="#m652f24893b" x="280.462538" y="228.878209" style="fill: #00bfbf; stroke: #00bfbf; stroke-width: 1.5"/>
     <use xlink:href="#m652f24893b" x="285.807732" y="227.354333" style="fill: #00bfbf; stroke: #00bfbf; stroke-width: 1.5"/>
     <use xlink:href="#m652f24893b" x="291.152925" y="225.983768" style="fill: #00bfbf; stroke: #00bfbf; stroke-width: 1.5"/>
     <use xlink:href="#m652f24893b" x="296.498118" y="224.762582" style="fill: #00bfbf; stroke: #00bfbf; stroke-width: 1.5"/>
     <use xlink:href="#m652f24893b" x="301.843312" y="223.652138" style="fill: #00bfbf; stroke: #00bfbf; stroke-width: 1.5"/>
     <use xlink:href="#m652f24893b" x="307.188505" y="222.623168" style="fill: #00bfbf; stroke: #00bfbf; stroke-width: 1.5"/>
     <use xlink:href="#m652f24893b" x="312.533698" y="221.6905" style="fill: #00bfbf; stroke: #00bfbf; stroke-width: 1.5"/>
     <use xlink:href="#m652f24893b" x="317.878892" y="220.866337" style="fill: #00bfbf; stroke: #00bfbf; stroke-width: 1.5"/>
     <use xlink:href="#m652f24893b" x="323.224085" y="220.128606" style="fill: #00bfbf; stroke: #00bfbf; stroke-width: 1.5"/>
     <use xlink:href="#m652f24893b" x="328.569278" y="219.441829" style="fill: #00bfbf; stroke: #00bfbf; stroke-width: 1.5"/>
     <use xlink:href="#m652f24893b" x="333.914471" y="218.794338" style="fill: #00bfbf; stroke: #00bfbf; stroke-width: 1.5"/>
     <use xlink:href="#m652f24893b" x="339.259665" y="218.207345" style="fill: #00bfbf; stroke: #00bfbf; stroke-width: 1.5"/>
     <use xlink:href="#m652f24893b" x="344.604858" y="217.702746" style="fill: #00bfbf; stroke: #00bfbf; stroke-width: 1.5"/>
     <use xlink:href="#m652f24893b" x="349.950051" y="217.26067" style="fill: #00bfbf; stroke: #00bfbf; stroke-width: 1.5"/>
     <use xlink:href="#m652f24893b" x="355.295245" y="216.82957" style="fill: #00bfbf; stroke: #00bfbf; stroke-width: 1.5"/>
     <use xlink:href="#m652f24893b" x="360.640438" y="216.378756" style="fill: #00bfbf; stroke: #00bfbf; stroke-width: 1.5"/>
     <use xlink:href="#m652f24893b" x="365.985631" y="215.940175" style="fill: #00bfbf; stroke: #00bfbf; stroke-width: 1.5"/>
     <use xlink:href="#m652f24893b" x="371.330824" y="215.574535" style="fill: #00bfbf; stroke: #00bfbf; stroke-width: 1.5"/>
     <use xlink:href="#m652f24893b" x="376.676018" y="215.293292" style="fill: #00bfbf; stroke: #00bfbf; stroke-width: 1.5"/>
     <use xlink:href="#m652f24893b" x="382.021211" y="215.044701" style="fill: #00bfbf; stroke: #00bfbf; stroke-width: 1.5"/>
     <use xlink:href="#m652f24893b" x="387.366404" y="214.77066" style="fill: #00bfbf; stroke: #00bfbf; stroke-width: 1.5"/>
     <use xlink:href="#m652f24893b" x="392.711598" y="214.461151" style="fill: #00bfbf; stroke: #00bfbf; stroke-width: 1.5"/>
     <use xlink:href="#m652f24893b" x="398.056791" y="214.162985" style="fill: #00bfbf; stroke: #00bfbf; stroke-width: 1.5"/>
     <use xlink:href="#m652f24893b" x="403.401984" y="213.924171" style="fill: #00bfbf; stroke: #00bfbf; stroke-width: 1.5"/>
     <use xlink:href="#m652f24893b" x="408.747178" y="213.74861" style="fill: #00bfbf; stroke: #00bfbf; stroke-width: 1.5"/>
     <use xlink:href="#m652f24893b" x="414.092371" y="213.604919" style="fill: #00bfbf; stroke: #00bfbf; stroke-width: 1.5"/>
     <use xlink:href="#m652f24893b" x="419.437564" y="213.457167" style="fill: #00bfbf; stroke: #00bfbf; stroke-width: 1.5"/>
     <use xlink:href="#m652f24893b" x="424.782757" y="213.288571" style="fill: #00bfbf; stroke: #00bfbf; stroke-width: 1.5"/>
     <use xlink:href="#m652f24893b" x="430.127951" y="213.108416" style="fill: #00bfbf; stroke: #00bfbf; stroke-width: 1.5"/>
     <use xlink:href="#m652f24893b" x="435.473144" y="212.937488" style="fill: #00bfbf; stroke: #00bfbf; stroke-width: 1.5"/>
     <use xlink:href="#m652f24893b" x="440.818337" y="212.787755" style="fill: #00bfbf; stroke: #00bfbf; stroke-width: 1.5"/>
     <use xlink:href="#m652f24893b" x="446.163531" y="212.658064" style="fill: #00bfbf; stroke: #00bfbf; stroke-width: 1.5"/>
     <use xlink:href="#m652f24893b" x="451.508724" y="212.543499" style="fill: #00bfbf; stroke: #00bfbf; stroke-width: 1.5"/>
     <use xlink:href="#m652f24893b" x="456.853917" y="212.443561" style="fill: #00bfbf; stroke: #00bfbf; stroke-width: 1.5"/>
     <use xlink:href="#m652f24893b" x="462.199111" y="212.36196" style="fill: #00bfbf; stroke: #00bfbf; stroke-width: 1.5"/>
     <use xlink:href="#m652f24893b" x="467.544304" y="212.29964" style="fill: #00bfbf; stroke: #00bfbf; stroke-width: 1.5"/>
     <use xlink:href="#m652f24893b" x="66.654807" y="142.505737" style="fill: #00bfbf; stroke: #00bfbf; stroke-width: 1.5"/>
    </g>
   </g>
   <g id="FillBetweenPolyCollection_2">
    <defs>
     <path id="m3edfc26ff0" d="M 72 -174.032698 
L 72 -113.550995 
L 73.889844 -115.501891 
L 75.779687 -117.618972 
L 77.669531 -119.90236 
L 79.559375 -122.349501 
L 81.449219 -124.954745 
L 83.339062 -127.70905 
L 85.228905 -130.599639 
L 87.11875 -133.609772 
L 89.008594 -136.718546 
L 90.898438 -139.900837 
L 92.78828 -143.127299 
L 94.678124 -146.364508 
L 96.567968 -149.57523 
L 98.457811 -152.718825 
L 100.347655 -155.751792 
L 102.237499 -158.628448 
L 104.127343 -161.301741 
L 106.017187 -163.724174 
L 107.907031 -165.848844 
L 109.796875 -167.630535 
L 111.686716 -169.026873 
L 113.57656 -169.999504 
L 115.466404 -170.51523 
L 117.356249 -170.547105 
L 119.246093 -170.075427 
L 121.135937 -169.088518 
L 123.025781 -167.362616 
L 124.915622 -163.087991 
L 126.805466 -158.615834 
L 128.69531 -153.997354 
L 130.585157 -149.282412 
L 132.474998 -144.521969 
L 134.364839 -139.766874 
L 136.254686 -135.066724 
L 138.144527 -130.468775 
L 140.034374 -126.016752 
L 141.924215 -121.750036 
L 143.814063 -117.702724 
L 145.703903 -113.903126 
L 147.593751 -110.373216 
L 149.483592 -107.128532 
L 151.373432 -104.178058 
L 153.26328 -101.524445 
L 155.153121 -99.164192 
L 157.042968 -96.949259 
L 158.932809 -94.347108 
L 160.822656 -92.183721 
L 162.712497 -90.467433 
L 164.602338 -89.190987 
L 166.492185 -88.336873 
L 168.382026 -87.87827 
L 170.271873 -87.780093 
L 172.161714 -88.000031 
L 174.051562 -88.328053 
L 175.941402 -88.096043 
L 177.831243 -87.948595 
L 179.721091 -87.882387 
L 181.610931 -87.893152 
L 183.500779 -87.979404 
L 185.39062 -88.142181 
L 187.280467 -88.384572 
L 189.170315 -88.711123 
L 191.060149 -89.127183 
L 192.949996 -89.638234 
L 194.839844 -90.24919 
L 196.729678 -90.963761 
L 198.619525 -91.783902 
L 200.509373 -92.709288 
L 202.39922 -93.736969 
L 204.289054 -94.861096 
L 206.178901 -96.072661 
L 208.068749 -96.954552 
L 209.958583 -96.590055 
L 211.84843 -96.258725 
L 213.738278 -95.997501 
L 215.628125 -95.840376 
L 217.517959 -95.818807 
L 219.407807 -95.960862 
L 221.297654 -96.290477 
L 223.187502 -96.826858 
L 225.077336 -97.584054 
L 226.967183 -98.570722 
L 228.857031 -99.790028 
L 230.746865 -101.239734 
L 232.636712 -102.912469 
L 234.52656 -104.796056 
L 236.416407 -106.873981 
L 238.306241 -109.126049 
L 240.196089 -111.528806 
L 242.085936 -113.216271 
L 243.97577 -112.897298 
L 245.865618 -112.454843 
L 247.755465 -111.903923 
L 249.645313 -111.26024 
L 251.535147 -110.540355 
L 253.424994 -109.761211 
L 255.314842 -108.939705 
L 257.204676 -108.092269 
L 259.094523 -107.234455 
L 260.984371 -106.380663 
L 262.874218 -105.543846 
L 264.764052 -104.735312 
L 266.6539 -103.964595 
L 268.543747 -103.239385 
L 270.433581 -102.565527 
L 272.323428 -101.947043 
L 274.213276 -101.386276 
L 276.103123 -100.883999 
L 277.992957 -100.439595 
L 279.882805 -100.051268 
L 281.772652 -99.716234 
L 283.662486 -99.430953 
L 285.552334 -99.191321 
L 287.442181 -98.992905 
L 289.332029 -98.831098 
L 291.221863 -98.701291 
L 293.11171 -98.599006 
L 295.001558 -98.52001 
L 296.891405 -98.460388 
L 298.781239 -98.416607 
L 300.671087 -98.385536 
L 302.560934 -98.364462 
L 304.450782 -98.351078 
L 306.340629 -98.343465 
L 308.23045 -98.340055 
L 310.120297 -98.339593 
L 312.010145 -98.341103 
L 313.899992 -98.343837 
L 315.78984 -98.347243 
L 317.679687 -98.350924 
L 319.569535 -98.354607 
L 321.459355 -98.358114 
L 323.349203 -98.361339 
L 325.23905 -98.364227 
L 327.128898 -98.366764 
L 329.018745 -98.368955 
L 330.908593 -98.370825 
L 332.79844 -98.372407 
L 334.688261 -98.373739 
L 336.578108 -98.37486 
L 338.467955 -98.375811 
L 340.357803 -98.376631 
L 342.24765 -98.377356 
L 344.137498 -98.378026 
L 346.027345 -98.378677 
L 347.917166 -98.379349 
L 349.807013 -98.380084 
L 351.696861 -98.380929 
L 353.586708 -98.381938 
L 355.476583 -98.383173 
L 357.36643 -98.384708 
L 359.256278 -98.38663 
L 361.146125 -98.389047 
L 363.035946 -98.392086 
L 364.925793 -98.3959 
L 366.815641 -98.400674 
L 368.705488 -98.406626 
L 370.595336 -98.414019 
L 372.485183 -98.423163 
L 374.375031 -98.434423 
L 376.264851 -98.44823 
L 378.154699 -98.465084 
L 380.044546 -98.485571 
L 381.934394 -98.510365 
L 383.824241 -98.540247 
L 385.714089 -98.576113 
L 387.603936 -98.618989 
L 389.493757 -98.670044 
L 391.383604 -98.730611 
L 393.273452 -98.802197 
L 395.163299 -98.886511 
L 397.053146 -98.985474 
L 398.942994 -99.101248 
L 400.832841 -99.236258 
L 402.722662 -99.393207 
L 404.612509 -99.57511 
L 406.502357 -99.785297 
L 408.392204 -100.027443 
L 410.282052 -100.305563 
L 412.171899 -100.62403 
L 414.061747 -100.987544 
L 415.951567 -101.40113 
L 417.841415 -101.870087 
L 419.731262 -102.399943 
L 421.62111 -102.996357 
L 423.510957 -103.665065 
L 425.400805 -104.411726 
L 427.290652 -105.241804 
L 429.180473 -106.160434 
L 431.07032 -107.17229 
L 432.960168 -108.281335 
L 434.850015 -109.490704 
L 436.739863 -110.802579 
L 438.62971 -112.217934 
L 440.519558 -113.73651 
L 442.409378 -115.356551 
L 444.299226 -117.074925 
L 446.189073 -118.886807 
L 448.078921 -120.785883 
L 449.968768 -122.764187 
L 451.858616 -124.812325 
L 453.748463 -126.919423 
L 455.63831 -129.073326 
L 457.528131 -131.260801 
L 459.417979 -133.467794 
L 461.307826 -135.679478 
L 463.197673 -137.880647 
L 465.087521 -140.056027 
L 466.977368 -142.189977 
L 468.867216 -141.342437 
L 470.757036 -139.189915 
L 472.646884 -137.002419 
L 474.536731 -134.795193 
L 476.426579 -132.58358 
L 478.316426 -130.382632 
L 480.206274 -128.206946 
L 482.096121 -126.070221 
L 483.985942 -123.985366 
L 485.875789 -121.963927 
L 487.765637 -120.016252 
L 489.655484 -118.151182 
L 491.545332 -116.37602 
L 493.435179 -114.696518 
L 495.325027 -113.116744 
L 497.214847 -111.639361 
L 499.104695 -110.26543 
L 500.994542 -108.994741 
L 502.88439 -107.825813 
L 504.774237 -106.756096 
L 506.664085 -105.78204 
L 508.553932 -104.899405 
L 510.443753 -104.103346 
L 512.3336 -103.388538 
L 514.223448 -102.749431 
L 516.113295 -102.180335 
L 518.003143 -101.67551 
L 519.89299 -101.229349 
L 521.782837 -100.83641 
L 523.672658 -100.491506 
L 525.562532 -100.189723 
L 527.452353 -99.926496 
L 529.342227 -99.697596 
L 531.232048 -99.499147 
L 533.121868 -99.32761 
L 535.011743 -99.179775 
L 536.901563 -99.052771 
L 538.791438 -98.943996 
L 540.681258 -98.851141 
L 542.571133 -98.772135 
L 544.460953 -98.705151 
L 546.350774 -98.64856 
L 548.240648 -98.600926 
L 550.130469 -98.560988 
L 552.020343 -98.527632 
L 553.910164 -98.499887 
L 555.800038 -98.476905 
L 557.689859 -98.45795 
L 559.579679 -98.442384 
L 561.469554 -98.429657 
L 563.359374 -98.419297 
L 565.249249 -98.410903 
L 567.139069 -98.404133 
L 569.028944 -98.398697 
L 570.918764 -98.394354 
L 572.808585 -98.390899 
L 574.698459 -98.388164 
L 576.58828 -98.386008 
L 578.478154 -98.384318 
L 580.367975 -98.382999 
L 582.257849 -98.381974 
L 584.14767 -98.381181 
L 586.03749 -98.380572 
L 587.927364 -98.380104 
L 589.817185 -98.379748 
L 591.707059 -98.379478 
L 593.59688 -98.379274 
L 595.486754 -98.379121 
L 597.376575 -98.379006 
L 599.266395 -98.378921 
L 601.15627 -98.378858 
L 603.04609 -98.378811 
L 604.935965 -98.378777 
L 606.825785 -98.378752 
L 608.71566 -98.378734 
L 610.60548 -98.37872 
L 612.495301 -98.378711 
L 614.385175 -98.378704 
L 616.274996 -98.378699 
L 618.16487 -98.378696 
L 620.054691 -98.378693 
L 621.944565 -98.378692 
L 623.834386 -98.37869 
L 625.724206 -98.37869 
L 627.614081 -98.378689 
L 629.503901 -98.378689 
L 631.393776 -98.378688 
L 633.283596 -98.378688 
L 635.173471 -98.378688 
L 637.063291 -98.378688 
L 637.063291 -160.688571 
L 637.063291 -160.688571 
L 635.173471 -160.688571 
L 633.283596 -160.688571 
L 631.393776 -160.688572 
L 629.503901 -160.688572 
L 627.614081 -160.688572 
L 625.724206 -160.688573 
L 623.834386 -160.688574 
L 621.944565 -160.688575 
L 620.054691 -160.688577 
L 618.16487 -160.688579 
L 616.274996 -160.688582 
L 614.385175 -160.688587 
L 612.495301 -160.688594 
L 610.60548 -160.688604 
L 608.71566 -160.688617 
L 606.825785 -160.688635 
L 604.935965 -160.68866 
L 603.04609 -160.688694 
L 601.15627 -160.688741 
L 599.266395 -160.688804 
L 597.376575 -160.68889 
L 595.486754 -160.689004 
L 593.59688 -160.689157 
L 591.707059 -160.689361 
L 589.817185 -160.689631 
L 587.927364 -160.689987 
L 586.03749 -160.690454 
L 584.14767 -160.691063 
L 582.257849 -160.691855 
L 580.367975 -160.692879 
L 578.478154 -160.694196 
L 576.58828 -160.695882 
L 574.698459 -160.698031 
L 572.808585 -160.700756 
L 570.918764 -160.704194 
L 569.028944 -160.70851 
L 567.139069 -160.713903 
L 565.249249 -160.720604 
L 563.359374 -160.728891 
L 561.469554 -160.739086 
L 559.579679 -160.751559 
L 557.689859 -160.76674 
L 555.800038 -160.785115 
L 553.910164 -160.807232 
L 552.020343 -160.8337 
L 550.130469 -160.865188 
L 548.240648 -160.902419 
L 546.350774 -160.946168 
L 544.460953 -160.997236 
L 542.571133 -161.056443 
L 540.681258 -161.124603 
L 538.791438 -161.202477 
L 536.901563 -161.290754 
L 535.011743 -161.389987 
L 533.121868 -161.50055 
L 531.232048 -161.622551 
L 529.342227 -161.755793 
L 527.452353 -161.899677 
L 525.562532 -162.053127 
L 523.672658 -162.214509 
L 521.782837 -162.381557 
L 519.89299 -162.551316 
L 518.003143 -162.72006 
L 516.113295 -162.883266 
L 514.223448 -163.035584 
L 512.3336 -163.17085 
L 510.443753 -163.282094 
L 508.553932 -163.361604 
L 506.664085 -163.401014 
L 504.774237 -163.391412 
L 502.88439 -163.323486 
L 500.994542 -163.187689 
L 499.104695 -162.974435 
L 497.214847 -162.674307 
L 495.325027 -162.278286 
L 493.435179 -161.777945 
L 491.545332 -161.165739 
L 489.655484 -160.435141 
L 487.765637 -159.580935 
L 485.875789 -158.599346 
L 483.985942 -157.488214 
L 482.096121 -156.247143 
L 480.206274 -154.877479 
L 478.316426 -153.382551 
L 476.426579 -151.767431 
L 474.536731 -150.039115 
L 472.646884 -148.206306 
L 470.757036 -146.279367 
L 468.867216 -144.270065 
L 466.977368 -143.44647 
L 465.087521 -145.484771 
L 463.197673 -147.446194 
L 461.307826 -149.317976 
L 459.417979 -151.089227 
L 457.528131 -152.750562 
L 455.63831 -154.294274 
L 453.748463 -155.714541 
L 451.858616 -157.007339 
L 449.968768 -158.170507 
L 448.078921 -159.203738 
L 446.189073 -160.108532 
L 444.299226 -160.888016 
L 442.409378 -161.546875 
L 440.519558 -162.091104 
L 438.62971 -162.527892 
L 436.739863 -162.865324 
L 434.850015 -163.112214 
L 432.960168 -163.277847 
L 431.07032 -163.371771 
L 429.180473 -163.403569 
L 427.290652 -163.382669 
L 425.400805 -163.318162 
L 423.510957 -163.218647 
L 421.62111 -163.092111 
L 419.731262 -162.945827 
L 417.841415 -162.786287 
L 415.951567 -162.619171 
L 414.061747 -162.44933 
L 412.171899 -162.2808 
L 410.282052 -162.11684 
L 408.392204 -161.95999 
L 406.502357 -161.812121 
L 404.612509 -161.674525 
L 402.722662 -161.54798 
L 400.832841 -161.432842 
L 398.942994 -161.329108 
L 397.053146 -161.236506 
L 395.163299 -161.154546 
L 393.273452 -161.082589 
L 391.383604 -161.019896 
L 389.493757 -160.96567 
L 387.603936 -160.919092 
L 385.714089 -160.879347 
L 383.824241 -160.845651 
L 381.934394 -160.817257 
L 380.044546 -160.793475 
L 378.154699 -160.77367 
L 376.264851 -160.75727 
L 374.375031 -160.743763 
L 372.485183 -160.732699 
L 370.595336 -160.723683 
L 368.705488 -160.716372 
L 366.815641 -160.710471 
L 364.925793 -160.705731 
L 363.035946 -160.701937 
L 361.146125 -160.698911 
L 359.256278 -160.696501 
L 357.36643 -160.694582 
L 355.476583 -160.693049 
L 353.586708 -160.691813 
L 351.696861 -160.690801 
L 349.807013 -160.689949 
L 347.917166 -160.689203 
L 346.027345 -160.688513 
L 344.137498 -160.687832 
L 342.24765 -160.687115 
L 340.357803 -160.686315 
L 338.467955 -160.685377 
L 336.578108 -160.684242 
L 334.688261 -160.682837 
L 332.79844 -160.681073 
L 330.908593 -160.678838 
L 329.018745 -160.675989 
L 327.128898 -160.672348 
L 325.23905 -160.667681 
L 323.349203 -160.661694 
L 321.459355 -160.654006 
L 319.569535 -160.644133 
L 317.679687 -160.631456 
L 315.78984 -160.615192 
L 313.899992 -160.594356 
L 312.010145 -160.567712 
L 310.120297 -160.533728 
L 308.23045 -160.490516 
L 306.340629 -160.435776 
L 304.450782 -160.366722 
L 302.560934 -160.280032 
L 300.671087 -160.171773 
L 298.781239 -160.037354 
L 296.891405 -159.871478 
L 295.001558 -159.668102 
L 293.11171 -159.420438 
L 291.221863 -159.120965 
L 289.332029 -158.761464 
L 287.442181 -158.333102 
L 285.552334 -157.826538 
L 283.662486 -157.232074 
L 281.772652 -156.539858 
L 279.882805 -155.740047 
L 277.992957 -154.823136 
L 276.103123 -153.780192 
L 274.213276 -152.603182 
L 272.323428 -151.285265 
L 270.433581 -149.821129 
L 268.543747 -148.207319 
L 266.6539 -146.442468 
L 264.764052 -144.52767 
L 262.874218 -142.466649 
L 260.984371 -140.265955 
L 259.094523 -137.93509 
L 257.204676 -135.486563 
L 255.314842 -132.935895 
L 253.424994 -130.301398 
L 251.535147 -127.604148 
L 249.645313 -124.867591 
L 247.755465 -122.117185 
L 245.865618 -119.380001 
L 243.97577 -116.684129 
L 242.085936 -114.058801 
L 240.196089 -113.402643 
L 238.306241 -113.441644 
L 236.416407 -113.32787 
L 234.52656 -113.056514 
L 232.636712 -112.626106 
L 230.746865 -112.038552 
L 228.857031 -111.299149 
L 226.967183 -110.416513 
L 225.077336 -109.402431 
L 223.187502 -108.271568 
L 221.297654 -107.041073 
L 219.407807 -105.730147 
L 217.517959 -104.359477 
L 215.628125 -102.950657 
L 213.738278 -101.525534 
L 211.84843 -100.105629 
L 209.958583 -98.711549 
L 208.068749 -97.363863 
L 206.178901 -97.323376 
L 204.289054 -97.653064 
L 202.39922 -97.914833 
L 200.509373 -98.07905 
L 198.619525 -98.120734 
L 196.729678 -98.020442 
L 194.839844 -97.765163 
L 192.949996 -97.349044 
L 191.060149 -96.773944 
L 189.170315 -96.049717 
L 187.280467 -95.194245 
L 185.39062 -94.233228 
L 183.500779 -93.199675 
L 181.610931 -92.133127 
L 179.721091 -91.07868 
L 177.831243 -90.085725 
L 175.941402 -89.206682 
L 174.051562 -88.499363 
L 172.161714 -88.672352 
L 170.271873 -89.122562 
L 168.382026 -89.704056 
L 166.492185 -90.435595 
L 164.602338 -91.338053 
L 162.712497 -92.433351 
L 160.822656 -93.743601 
L 158.932809 -95.290275 
L 157.042968 -97.097969 
L 155.153121 -99.995384 
L 153.26328 -103.438208 
L 151.373432 -107.251832 
L 149.483592 -111.391226 
L 147.593751 -115.803165 
L 145.703903 -120.42719 
L 143.814063 -125.196987 
L 141.924215 -130.042149 
L 140.034374 -134.88975 
L 138.144527 -139.666274 
L 136.254686 -144.299242 
L 134.364839 -148.719073 
L 132.474998 -152.860545 
L 130.585157 -156.664352 
L 128.69531 -160.078292 
L 126.805466 -163.058264 
L 124.915622 -165.56915 
L 123.025781 -167.588826 
L 121.135937 -171.408159 
L 119.246093 -175.170977 
L 117.356249 -178.621556 
L 115.466404 -181.730903 
L 113.57656 -184.476424 
L 111.686716 -186.842165 
L 109.796875 -188.818921 
L 107.907031 -190.404185 
L 106.017187 -191.601905 
L 104.127343 -192.422112 
L 102.237499 -192.880402 
L 100.347655 -192.997302 
L 98.457811 -192.79755 
L 96.567968 -192.309317 
L 94.678124 -191.563393 
L 92.78828 -190.592363 
L 90.898438 -189.429801 
L 89.008594 -188.109498 
L 87.11875 -186.664751 
L 85.228905 -185.127716 
L 83.339062 -183.52886 
L 81.449219 -181.896481 
L 79.559375 -180.256352 
L 77.669531 -178.631436 
L 75.779687 -177.041738 
L 73.889844 -175.504193 
L 72 -174.032698 
z
" style="stroke: #008000; stroke-opacity: 0.1"/>
    </defs>
    <g clip-path="url(#p3875b235ff)">
     <use xlink:href="#m3edfc26ff0" x="0" y="360" style="fill: #008000; fill-opacity: 0.1; stroke: #008000; stroke-opacity: 0.1"/>
    </g>
   </g>
   <g id="matplotlib.axis_1">
    <g id="xtick_1">
     <g id="line2d_1">
      <defs>
       <path id="m37f387d715" d="M 0 0 
L 0 3.5 
" style="stroke: #000000; stroke-width: 0.8"/>
      </defs>
      <g>
       <use xlink:href="#m37f387d715" x="72" y="320.4" style="stroke: #000000; stroke-width: 0.8"/>
      </g>
     </g>
     <g id="text_1">
      <!-- 0 -->
      <g transform="translate(68.81875 334.998438) scale(0.1 -0.1)">
       <defs>
        <path id="DejaVuSans-30" d="M 2034 4250 
Q 1547 4250 1301 3770 
Q 1056 3291 1056 2328 
Q 1056 1369 1301 889 
Q 1547 409 2034 409 
Q 2525 409 2770 889 
Q 3016 1369 3016 2328 
Q 3016 3291 2770 3770 
Q 2525 4250 2034 4250 
z
M 2034 4750 
Q 2819 4750 3233 4129 
Q 3647 3509 3647 2328 
Q 3647 1150 3233 529 
Q 2819 -91 2034 -91 
Q 1250 -91 836 529 
Q 422 1150 422 2328 
Q 422 3509 836 4129 
Q 1250 4750 2034 4750 
z
" transform="scale(0.015625)"/>
       </defs>
       <use xlink:href="#DejaVuSans-30"/>
      </g>
     </g>
    </g>
    <g id="xtick_2">
     <g id="line2d_2">
      <g>
       <use xlink:href="#m37f387d715" x="128.506329" y="320.4" style="stroke: #000000; stroke-width: 0.8"/>
      </g>
     </g>
     <g id="text_2">
      <!-- 1 -->
      <g transform="translate(125.325079 334.998438) scale(0.1 -0.1)">
       <defs>
        <path id="DejaVuSans-31" d="M 794 531 
L 1825 531 
L 1825 4091 
L 703 3866 
L 703 4441 
L 1819 4666 
L 2450 4666 
L 2450 531 
L 3481 531 
L 3481 0 
L 794 0 
L 794 531 
z
" transform="scale(0.015625)"/>
       </defs>
       <use xlink:href="#DejaVuSans-31"/>
      </g>
     </g>
    </g>
    <g id="xtick_3">
     <g id="line2d_3">
      <g>
       <use xlink:href="#m37f387d715" x="185.012658" y="320.4" style="stroke: #000000; stroke-width: 0.8"/>
      </g>
     </g>
     <g id="text_3">
      <!-- 2 -->
      <g transform="translate(181.831408 334.998438) scale(0.1 -0.1)">
       <defs>
        <path id="DejaVuSans-32" d="M 1228 531 
L 3431 531 
L 3431 0 
L 469 0 
L 469 531 
Q 828 903 1448 1529 
Q 2069 2156 2228 2338 
Q 2531 2678 2651 2914 
Q 2772 3150 2772 3378 
Q 2772 3750 2511 3984 
Q 2250 4219 1831 4219 
Q 1534 4219 1204 4116 
Q 875 4013 500 3803 
L 500 4441 
Q 881 4594 1212 4672 
Q 1544 4750 1819 4750 
Q 2544 4750 2975 4387 
Q 3406 4025 3406 3419 
Q 3406 3131 3298 2873 
Q 3191 2616 2906 2266 
Q 2828 2175 2409 1742 
Q 1991 1309 1228 531 
z
" transform="scale(0.015625)"/>
       </defs>
       <use xlink:href="#DejaVuSans-32"/>
      </g>
     </g>
    </g>
    <g id="xtick_4">
     <g id="line2d_4">
      <g>
       <use xlink:href="#m37f387d715" x="241.518987" y="320.4" style="stroke: #000000; stroke-width: 0.8"/>
      </g>
     </g>
     <g id="text_4">
      <!-- 3 -->
      <g transform="translate(238.337737 334.998438) scale(0.1 -0.1)">
       <defs>
        <path id="DejaVuSans-33" d="M 2597 2516 
Q 3050 2419 3304 2112 
Q 3559 1806 3559 1356 
Q 3559 666 3084 287 
Q 2609 -91 1734 -91 
Q 1441 -91 1130 -33 
Q 819 25 488 141 
L 488 750 
Q 750 597 1062 519 
Q 1375 441 1716 441 
Q 2309 441 2620 675 
Q 2931 909 2931 1356 
Q 2931 1769 2642 2001 
Q 2353 2234 1838 2234 
L 1294 2234 
L 1294 2753 
L 1863 2753 
Q 2328 2753 2575 2939 
Q 2822 3125 2822 3475 
Q 2822 3834 2567 4026 
Q 2313 4219 1838 4219 
Q 1578 4219 1281 4162 
Q 984 4106 628 3988 
L 628 4550 
Q 988 4650 1302 4700 
Q 1616 4750 1894 4750 
Q 2613 4750 3031 4423 
Q 3450 4097 3450 3541 
Q 3450 3153 3228 2886 
Q 3006 2619 2597 2516 
z
" transform="scale(0.015625)"/>
       </defs>
       <use xlink:href="#DejaVuSans-33"/>
      </g>
     </g>
    </g>
    <g id="xtick_5">
     <g id="line2d_5">
      <g>
       <use xlink:href="#m37f387d715" x="298.025316" y="320.4" style="stroke: #000000; stroke-width: 0.8"/>
      </g>
     </g>
     <g id="text_5">
      <!-- 4 -->
      <g transform="translate(294.844066 334.998438) scale(0.1 -0.1)">
       <defs>
        <path id="DejaVuSans-34" d="M 2419 4116 
L 825 1625 
L 2419 1625 
L 2419 4116 
z
M 2253 4666 
L 3047 4666 
L 3047 1625 
L 3713 1625 
L 3713 1100 
L 3047 1100 
L 3047 0 
L 2419 0 
L 2419 1100 
L 313 1100 
L 313 1709 
L 2253 4666 
z
" transform="scale(0.015625)"/>
       </defs>
       <use xlink:href="#DejaVuSans-34"/>
      </g>
     </g>
    </g>
    <g id="xtick_6">
     <g id="line2d_6">
      <g>
       <use xlink:href="#m37f387d715" x="354.531646" y="320.4" style="stroke: #000000; stroke-width: 0.8"/>
      </g>
     </g>
     <g id="text_6">
      <!-- 5 -->
      <g transform="translate(351.350396 334.998438) scale(0.1 -0.1)">
       <defs>
        <path id="DejaVuSans-35" d="M 691 4666 
L 3169 4666 
L 3169 4134 
L 1269 4134 
L 1269 2991 
Q 1406 3038 1543 3061 
Q 1681 3084 1819 3084 
Q 2600 3084 3056 2656 
Q 3513 2228 3513 1497 
Q 3513 744 3044 326 
Q 2575 -91 1722 -91 
Q 1428 -91 1123 -41 
Q 819 9 494 109 
L 494 744 
Q 775 591 1075 516 
Q 1375 441 1709 441 
Q 2250 441 2565 725 
Q 2881 1009 2881 1497 
Q 2881 1984 2565 2268 
Q 2250 2553 1709 2553 
Q 1456 2553 1204 2497 
Q 953 2441 691 2322 
L 691 4666 
z
" transform="scale(0.015625)"/>
       </defs>
       <use xlink:href="#DejaVuSans-35"/>
      </g>
     </g>
    </g>
    <g id="xtick_7">
     <g id="line2d_7">
      <g>
       <use xlink:href="#m37f387d715" x="411.037975" y="320.4" style="stroke: #000000; stroke-width: 0.8"/>
      </g>
     </g>
     <g id="text_7">
      <!-- 6 -->
      <g transform="translate(407.856725 334.998438) scale(0.1 -0.1)">
       <defs>
        <path id="DejaVuSans-36" d="M 2113 2584 
Q 1688 2584 1439 2293 
Q 1191 2003 1191 1497 
Q 1191 994 1439 701 
Q 1688 409 2113 409 
Q 2538 409 2786 701 
Q 3034 994 3034 1497 
Q 3034 2003 2786 2293 
Q 2538 2584 2113 2584 
z
M 3366 4563 
L 3366 3988 
Q 3128 4100 2886 4159 
Q 2644 4219 2406 4219 
Q 1781 4219 1451 3797 
Q 1122 3375 1075 2522 
Q 1259 2794 1537 2939 
Q 1816 3084 2150 3084 
Q 2853 3084 3261 2657 
Q 3669 2231 3669 1497 
Q 3669 778 3244 343 
Q 2819 -91 2113 -91 
Q 1303 -91 875 529 
Q 447 1150 447 2328 
Q 447 3434 972 4092 
Q 1497 4750 2381 4750 
Q 2619 4750 2861 4703 
Q 3103 4656 3366 4563 
z
" transform="scale(0.015625)"/>
       </defs>
       <use xlink:href="#DejaVuSans-36"/>
      </g>
     </g>
    </g>
    <g id="xtick_8">
     <g id="line2d_8">
      <g>
       <use xlink:href="#m37f387d715" x="467.544304" y="320.4" style="stroke: #000000; stroke-width: 0.8"/>
      </g>
     </g>
     <g id="text_8">
      <!-- 7 -->
      <g transform="translate(464.363054 334.998438) scale(0.1 -0.1)">
       <defs>
        <path id="DejaVuSans-37" d="M 525 4666 
L 3525 4666 
L 3525 4397 
L 1831 0 
L 1172 0 
L 2766 4134 
L 525 4134 
L 525 4666 
z
" transform="scale(0.015625)"/>
       </defs>
       <use xlink:href="#DejaVuSans-37"/>
      </g>
     </g>
    </g>
    <g id="text_9">
     <!-- z () -->
     <g transform="translate(280.204297 352.156563) scale(0.13 -0.13)">
      <defs>
       <path id="DejaVuSans-7a" d="M 353 3500 
L 3084 3500 
L 3084 2975 
L 922 459 
L 3084 459 
L 3084 0 
L 275 0 
L 275 525 
L 2438 3041 
L 353 3041 
L 353 3500 
z
" transform="scale(0.015625)"/>
       <path id="DejaVuSans-20" transform="scale(0.015625)"/>
       <path id="DejaVuSans-28" d="M 1984 4856 
Q 1566 4138 1362 3434 
Q 1159 2731 1159 2009 
Q 1159 1288 1364 580 
Q 1569 -128 1984 -844 
L 1484 -844 
Q 1016 -109 783 600 
Q 550 1309 550 2009 
Q 550 2706 781 3412 
Q 1013 4119 1484 4856 
L 1984 4856 
z
" transform="scale(0.015625)"/>
       <path id="DejaVuSans-c5" d="M 2663 5081 
Q 2663 5278 2523 5417 
Q 2384 5556 2188 5556 
Q 1988 5556 1852 5420 
Q 1716 5284 1716 5081 
Q 1716 4884 1853 4746 
Q 1991 4609 2188 4609 
Q 2384 4609 2523 4746 
Q 2663 4884 2663 5081 
z
M 2188 4044 
L 1338 1722 
L 3041 1722 
L 2188 4044 
z
M 1716 4366 
Q 1525 4494 1428 4673 
Q 1331 4853 1331 5081 
Q 1331 5441 1579 5691 
Q 1828 5941 2188 5941 
Q 2544 5941 2795 5689 
Q 3047 5438 3047 5081 
Q 3047 4863 2948 4678 
Q 2850 4494 2663 4366 
L 4325 0 
L 3669 0 
L 3244 1197 
L 1141 1197 
L 716 0 
L 50 0 
L 1716 4366 
z
" transform="scale(0.015625)"/>
       <path id="DejaVuSans-29" d="M 513 4856 
L 1013 4856 
Q 1481 4119 1714 3412 
Q 1947 2706 1947 2009 
Q 1947 1309 1714 600 
Q 1481 -109 1013 -844 
L 513 -844 
Q 928 -128 1133 580 
Q 1338 1288 1338 2009 
Q 1338 2731 1133 3434 
Q 928 4138 513 4856 
z
" transform="scale(0.015625)"/>
      </defs>
      <use xlink:href="#DejaVuSans-7a"/>
      <use xlink:href="#DejaVuSans-20" transform="translate(52.490234 0)"/>
      <use xlink:href="#DejaVuSans-28" transform="translate(84.277344 0)"/>
      <use xlink:href="#DejaVuSans-c5" transform="translate(123.291016 0)"/>
      <use xlink:href="#DejaVuSans-29" transform="translate(191.699219 0)"/>
     </g>
    </g>
   </g>
   <g id="matplotlib.axis_2">
    <g id="ytick_1">
     <g id="line2d_9">
      <defs>
       <path id="mf9ff36a354" d="M 0 0 
L -3.5 0 
" style="stroke: #000000; stroke-width: 0.8"/>
      </defs>
      <g>
       <use xlink:href="#mf9ff36a354" x="72" y="291.530179" style="stroke: #000000; stroke-width: 0.8"/>
      </g>
     </g>
     <g id="text_10">
      <!-- 40 -->
      <g transform="translate(43.895313 295.329398) scale(0.1 -0.1)">
       <defs>
        <path id="DejaVuSans-2212" d="M 678 2272 
L 4684 2272 
L 4684 1741 
L 678 1741 
L 678 2272 
z
" transform="scale(0.015625)"/>
       </defs>
       <use xlink:href="#DejaVuSans-2212"/>
       <use xlink:href="#DejaVuSans-34" transform="translate(83.789062 0)"/>
       <use xlink:href="#DejaVuSans-30" transform="translate(147.412109 0)"/>
      </g>
     </g>
    </g>
    <g id="ytick_2">
     <g id="line2d_10">
      <g>
       <use xlink:href="#mf9ff36a354" x="72" y="253.687266" style="stroke: #000000; stroke-width: 0.8"/>
      </g>
     </g>
     <g id="text_11">
      <!-- 20 -->
      <g transform="translate(43.895313 257.486485) scale(0.1 -0.1)">
       <use xlink:href="#DejaVuSans-2212"/>
       <use xlink:href="#DejaVuSans-32" transform="translate(83.789062 0)"/>
       <use xlink:href="#DejaVuSans-30" transform="translate(147.412109 0)"/>
      </g>
     </g>
    </g>
    <g id="ytick_3">
     <g id="line2d_11">
      <g>
       <use xlink:href="#mf9ff36a354" x="72" y="215.844352" style="stroke: #000000; stroke-width: 0.8"/>
      </g>
     </g>
     <g id="text_12">
      <!-- 0 -->
      <g transform="translate(58.6375 219.643571) scale(0.1 -0.1)">
       <use xlink:href="#DejaVuSans-30"/>
      </g>
     </g>
    </g>
    <g id="ytick_4">
     <g id="line2d_12">
      <g>
       <use xlink:href="#mf9ff36a354" x="72" y="178.001439" style="stroke: #000000; stroke-width: 0.8"/>
      </g>
     </g>
     <g id="text_13">
      <!-- 20 -->
      <g transform="translate(52.275 181.800658) scale(0.1 -0.1)">
       <use xlink:href="#DejaVuSans-32"/>
       <use xlink:href="#DejaVuSans-30" transform="translate(63.623047 0)"/>
      </g>
     </g>
    </g>
    <g id="ytick_5">
     <g id="line2d_13">
      <g>
       <use xlink:href="#mf9ff36a354" x="72" y="140.158526" style="stroke: #000000; stroke-width: 0.8"/>
      </g>
     </g>
     <g id="text_14">
      <!-- 40 -->
      <g transform="translate(52.275 143.957744) scale(0.1 -0.1)">
       <use xlink:href="#DejaVuSans-34"/>
       <use xlink:href="#DejaVuSans-30" transform="translate(63.623047 0)"/>
      </g>
     </g>
    </g>
    <g id="ytick_6">
     <g id="line2d_14">
      <g>
       <use xlink:href="#mf9ff36a354" x="72" y="102.315612" style="stroke: #000000; stroke-width: 0.8"/>
      </g>
     </g>
     <g id="text_15">
      <!-- 60 -->
      <g transform="translate(52.275 106.114831) scale(0.1 -0.1)">
       <use xlink:href="#DejaVuSans-36"/>
       <use xlink:href="#DejaVuSans-30" transform="translate(63.623047 0)"/>
      </g>
     </g>
    </g>
    <g id="ytick_7">
     <g id="line2d_15">
      <g>
       <use xlink:href="#mf9ff36a354" x="72" y="64.472699" style="stroke: #000000; stroke-width: 0.8"/>
      </g>
     </g>
     <g id="text_16">
      <!-- 80 -->
      <g transform="translate(52.275 68.271918) scale(0.1 -0.1)">
       <defs>
        <path id="DejaVuSans-38" d="M 2034 2216 
Q 1584 2216 1326 1975 
Q 1069 1734 1069 1313 
Q 1069 891 1326 650 
Q 1584 409 2034 409 
Q 2484 409 2743 651 
Q 3003 894 3003 1313 
Q 3003 1734 2745 1975 
Q 2488 2216 2034 2216 
z
M 1403 2484 
Q 997 2584 770 2862 
Q 544 3141 544 3541 
Q 544 4100 942 4425 
Q 1341 4750 2034 4750 
Q 2731 4750 3128 4425 
Q 3525 4100 3525 3541 
Q 3525 3141 3298 2862 
Q 3072 2584 2669 2484 
Q 3125 2378 3379 2068 
Q 3634 1759 3634 1313 
Q 3634 634 3220 271 
Q 2806 -91 2034 -91 
Q 1263 -91 848 271 
Q 434 634 434 1313 
Q 434 1759 690 2068 
Q 947 2378 1403 2484 
z
M 1172 3481 
Q 1172 3119 1398 2916 
Q 1625 2713 2034 2713 
Q 2441 2713 2670 2916 
Q 2900 3119 2900 3481 
Q 2900 3844 2670 4047 
Q 2441 4250 2034 4250 
Q 1625 4250 1398 4047 
Q 1172 3844 1172 3481 
z
" transform="scale(0.015625)"/>
       </defs>
       <use xlink:href="#DejaVuSans-38"/>
       <use xlink:href="#DejaVuSans-30" transform="translate(63.623047 0)"/>
      </g>
     </g>
    </g>
    <g id="text_17">
     <!-- V(4.347,1.165,z) -->
     <g transform="translate(37.191719 236.078047) rotate(-90) scale(0.13 -0.13)">
      <defs>
       <path id="DejaVuSans-56" d="M 1831 0 
L 50 4666 
L 709 4666 
L 2188 738 
L 3669 4666 
L 4325 4666 
L 2547 0 
L 1831 0 
z
" transform="scale(0.015625)"/>
       <path id="DejaVuSans-2e" d="M 684 794 
L 1344 794 
L 1344 0 
L 684 0 
L 684 794 
z
" transform="scale(0.015625)"/>
       <path id="DejaVuSans-2c" d="M 750 794 
L 1409 794 
L 1409 256 
L 897 -744 
L 494 -744 
L 750 256 
L 750 794 
z
" transform="scale(0.015625)"/>
      </defs>
      <use xlink:href="#DejaVuSans-56"/>
      <use xlink:href="#DejaVuSans-28" transform="translate(68.408203 0)"/>
      <use xlink:href="#DejaVuSans-34" transform="translate(107.421875 0)"/>
      <use xlink:href="#DejaVuSans-2e" transform="translate(171.044922 0)"/>
      <use xlink:href="#DejaVuSans-33" transform="translate(202.832031 0)"/>
      <use xlink:href="#DejaVuSans-34" transform="translate(266.455078 0)"/>
      <use xlink:href="#DejaVuSans-37" transform="translate(330.078125 0)"/>
      <use xlink:href="#DejaVuSans-2c" transform="translate(393.701172 0)"/>
      <use xlink:href="#DejaVuSans-31" transform="translate(425.488281 0)"/>
      <use xlink:href="#DejaVuSans-2e" transform="translate(489.111328 0)"/>
      <use xlink:href="#DejaVuSans-31" transform="translate(520.898438 0)"/>
      <use xlink:href="#DejaVuSans-36" transform="translate(584.521484 0)"/>
      <use xlink:href="#DejaVuSans-35" transform="translate(648.144531 0)"/>
      <use xlink:href="#DejaVuSans-2c" transform="translate(711.767578 0)"/>
      <use xlink:href="#DejaVuSans-7a" transform="translate(743.554688 0)"/>
      <use xlink:href="#DejaVuSans-29" transform="translate(796.044922 0)"/>
     </g>
    </g>
   </g>
   <g id="line2d_16">
    <path d="M 72 60.966879 
L 73.889844 62.26147 
L 75.779687 63.962469 
L 77.669531 66.075702 
L 79.559375 68.600421 
L 81.449219 71.52964 
L 83.339062 74.85112 
L 85.228905 78.548521 
L 87.11875 82.602353 
L 89.008594 86.990738 
L 92.78828 96.67542 
L 96.567968 107.399028 
L 100.347655 118.942139 
L 106.017187 137.2888 
L 119.246093 180.967998 
L 123.025781 192.780072 
L 126.805466 204.000574 
L 130.585157 214.502041 
L 134.364839 224.183194 
L 138.144527 232.974578 
L 141.924215 240.837581 
L 145.703903 247.758202 
L 147.593751 250.864856 
L 149.483592 253.73628 
L 151.373432 256.372928 
L 153.26328 258.77545 
L 155.153121 260.945014 
L 157.042968 262.884484 
L 158.932809 264.599979 
L 160.822656 266.101423 
L 162.712497 267.401193 
L 164.602338 268.512651 
L 166.492185 269.448932 
L 168.382026 270.222438 
L 170.271873 270.844705 
L 172.161714 271.326123 
L 174.051562 271.675413 
L 175.941402 271.899008 
L 177.831243 272.00118 
L 179.721091 271.985759 
L 183.500779 271.626306 
L 187.280467 270.887162 
L 191.060149 269.843068 
L 194.839844 268.552888 
L 198.619525 267.059007 
L 204.289054 264.533665 
L 211.84843 260.875734 
L 234.52656 249.733338 
L 240.196089 247.260162 
L 245.865618 244.997382 
L 251.535147 242.932612 
L 257.204676 241.052241 
L 262.874218 239.353818 
L 270.433581 237.362066 
L 277.992957 235.626879 
L 287.442181 233.720393 
L 296.891405 232.052945 
L 308.23045 230.269665 
L 319.569535 228.706814 
L 336.578108 226.646075 
L 349.807013 225.288839 
L 376.264851 222.792674 
L 415.951567 219.90102 
L 459.417979 217.503213 
L 478.316426 216.818957 
L 497.214847 216.357792 
L 519.89299 216.039786 
L 546.350774 215.907302 
L 577 215.961729 
L 577 215.961729 
" clip-path="url(#p3875b235ff)" style="fill: none; stroke: #ff0000; stroke-width: 1.5; stroke-linecap: square"/>
   </g>
   <g id="line2d_17">
    <path d="M 72 216.208153 
L 75.779687 212.669645 
L 79.559375 208.697073 
L 83.339062 204.381045 
L 94.678124 191.03605 
L 96.567968 189.057727 
L 98.457811 187.241812 
L 100.347655 185.625453 
L 102.237499 184.245575 
L 104.127343 183.138074 
L 106.017187 182.336961 
L 107.907031 181.873486 
L 109.796875 181.775272 
L 111.686716 182.065481 
L 113.57656 182.762036 
L 115.466404 183.876934 
L 117.356249 185.415669 
L 119.246093 187.376798 
L 121.135937 189.751662 
L 123.025781 192.524279 
L 124.915622 195.67143 
L 126.805466 199.162951 
L 128.69531 202.962177 
L 132.474998 211.308743 
L 138.144527 224.932476 
L 143.814063 238.550145 
L 147.593751 246.91181 
L 149.483592 250.740121 
L 151.373432 254.285055 
L 153.26328 257.518673 
L 155.153121 260.420212 
L 157.042968 262.976386 
L 158.932809 265.181309 
L 160.822656 267.036339 
L 162.712497 268.549608 
L 164.602338 269.73548 
L 166.492185 270.613766 
L 168.382026 271.208837 
L 170.271873 271.548672 
L 172.161714 271.663809 
L 174.051562 271.586292 
L 175.941402 271.348637 
L 179.721091 270.519467 
L 185.39062 268.812295 
L 192.949996 266.506361 
L 198.619525 265.047682 
L 209.958583 262.349198 
L 213.738278 261.238483 
L 217.517959 259.910858 
L 221.297654 258.334225 
L 225.077336 256.506758 
L 228.857031 254.455412 
L 234.52656 251.073715 
L 245.865618 244.082578 
L 251.535147 240.927749 
L 255.314842 239.0622 
L 259.094523 237.415228 
L 262.874218 235.994752 
L 266.6539 234.796469 
L 270.433581 233.806672 
L 274.213276 233.005271 
L 279.882805 232.104342 
L 285.552334 231.49107 
L 291.221863 231.088872 
L 298.781239 230.773019 
L 310.120297 230.563339 
L 330.908593 230.475169 
L 381.934394 230.336189 
L 393.273452 230.057607 
L 400.832841 229.66545 
L 406.502357 229.201291 
L 412.171899 228.547585 
L 417.841415 227.671813 
L 423.510957 226.558144 
L 429.180473 225.217999 
L 436.739863 223.166048 
L 448.078921 220.005189 
L 453.748463 218.683018 
L 457.528131 217.994319 
L 461.307826 217.501273 
L 465.087521 217.229601 
L 468.867216 217.193749 
L 472.646884 217.395637 
L 476.426579 217.824494 
L 480.206274 218.457787 
L 485.875789 219.718363 
L 493.435179 221.762768 
L 504.774237 224.926246 
L 510.443753 226.30728 
L 516.113295 227.4682 
L 521.782837 228.391016 
L 527.452353 229.086913 
L 533.121868 229.58592 
L 540.681258 230.012128 
L 550.130469 230.286912 
L 563.359374 230.425906 
L 577 230.459423 
L 577 230.459423 
" clip-path="url(#p3875b235ff)" style="fill: none; stroke: #008000; stroke-width: 1.5; stroke-linecap: square"/>
   </g>
   <g id="patch_3">
    <path d="M 72 320.4 
L 72 43.2 
" style="fill: none; stroke: #000000; stroke-width: 0.8; stroke-linejoin: miter; stroke-linecap: square"/>
   </g>
   <g id="patch_4">
    <path d="M 518.4 320.4 
L 518.4 43.2 
" style="fill: none; stroke: #000000; stroke-width: 0.8; stroke-linejoin: miter; stroke-linecap: square"/>
   </g>
   <g id="patch_5">
    <path d="M 72 320.4 
L 518.4 320.4 
" style="fill: none; stroke: #000000; stroke-width: 0.8; stroke-linejoin: miter; stroke-linecap: square"/>
   </g>
   <g id="patch_6">
    <path d="M 72 43.2 
L 518.4 43.2 
" style="fill: none; stroke: #000000; stroke-width: 0.8; stroke-linejoin: miter; stroke-linecap: square"/>
   </g>
   <g id="legend_1">
    <g id="patch_7">
     <path d="M 371.935937 109.9125 
L 511.4 109.9125 
Q 513.4 109.9125 513.4 107.9125 
L 513.4 50.2 
Q 513.4 48.2 511.4 48.2 
L 371.935937 48.2 
Q 369.935937 48.2 369.935937 50.2 
L 369.935937 107.9125 
Q 369.935937 109.9125 371.935937 109.9125 
z
" style="fill: #ffffff; opacity: 0.8; stroke: #cccccc; stroke-linejoin: miter"/>
    </g>
    <g id="line2d_18">
     <path d="M 373.935937 56.298437 
L 383.935937 56.298437 
L 393.935937 56.298437 
" style="fill: none; stroke: #ff0000; stroke-width: 1.5; stroke-linecap: square"/>
    </g>
    <g id="text_18">
     <!-- MFGP -->
     <g transform="translate(401.935937 59.798437) scale(0.1 -0.1)">
      <defs>
       <path id="DejaVuSans-4d" d="M 628 4666 
L 1569 4666 
L 2759 1491 
L 3956 4666 
L 4897 4666 
L 4897 0 
L 4281 0 
L 4281 4097 
L 3078 897 
L 2444 897 
L 1241 4097 
L 1241 0 
L 628 0 
L 628 4666 
z
" transform="scale(0.015625)"/>
       <path id="DejaVuSans-46" d="M 628 4666 
L 3309 4666 
L 3309 4134 
L 1259 4134 
L 1259 2759 
L 3109 2759 
L 3109 2228 
L 1259 2228 
L 1259 0 
L 628 0 
L 628 4666 
z
" transform="scale(0.015625)"/>
       <path id="DejaVuSans-47" d="M 3809 666 
L 3809 1919 
L 2778 1919 
L 2778 2438 
L 4434 2438 
L 4434 434 
Q 4069 175 3628 42 
Q 3188 -91 2688 -91 
Q 1594 -91 976 548 
Q 359 1188 359 2328 
Q 359 3472 976 4111 
Q 1594 4750 2688 4750 
Q 3144 4750 3555 4637 
Q 3966 4525 4313 4306 
L 4313 3634 
Q 3963 3931 3569 4081 
Q 3175 4231 2741 4231 
Q 1884 4231 1454 3753 
Q 1025 3275 1025 2328 
Q 1025 1384 1454 906 
Q 1884 428 2741 428 
Q 3075 428 3337 486 
Q 3600 544 3809 666 
z
" transform="scale(0.015625)"/>
       <path id="DejaVuSans-50" d="M 1259 4147 
L 1259 2394 
L 2053 2394 
Q 2494 2394 2734 2622 
Q 2975 2850 2975 3272 
Q 2975 3691 2734 3919 
Q 2494 4147 2053 4147 
L 1259 4147 
z
M 628 4666 
L 2053 4666 
Q 2838 4666 3239 4311 
Q 3641 3956 3641 3272 
Q 3641 2581 3239 2228 
Q 2838 1875 2053 1875 
L 1259 1875 
L 1259 0 
L 628 0 
L 628 4666 
z
" transform="scale(0.015625)"/>
      </defs>
      <use xlink:href="#DejaVuSans-4d"/>
      <use xlink:href="#DejaVuSans-46" transform="translate(86.279297 0)"/>
      <use xlink:href="#DejaVuSans-47" transform="translate(143.798828 0)"/>
      <use xlink:href="#DejaVuSans-50" transform="translate(221.289062 0)"/>
     </g>
    </g>
    <g id="PathCollection_3">
     <g>
      <use xlink:href="#m41ecff39ba" x="383.935937" y="71.851562" style="fill: #ff0000; stroke: #ff0000"/>
     </g>
    </g>
    <g id="text_19">
     <!-- HF CCSD(T)/CBS data -->
     <g transform="translate(401.935937 74.476562) scale(0.1 -0.1)">
      <defs>
       <path id="DejaVuSans-48" d="M 628 4666 
L 1259 4666 
L 1259 2753 
L 3553 2753 
L 3553 4666 
L 4184 4666 
L 4184 0 
L 3553 0 
L 3553 2222 
L 1259 2222 
L 1259 0 
L 628 0 
L 628 4666 
z
" transform="scale(0.015625)"/>
       <path id="DejaVuSans-43" d="M 4122 4306 
L 4122 3641 
Q 3803 3938 3442 4084 
Q 3081 4231 2675 4231 
Q 1875 4231 1450 3742 
Q 1025 3253 1025 2328 
Q 1025 1406 1450 917 
Q 1875 428 2675 428 
Q 3081 428 3442 575 
Q 3803 722 4122 1019 
L 4122 359 
Q 3791 134 3420 21 
Q 3050 -91 2638 -91 
Q 1578 -91 968 557 
Q 359 1206 359 2328 
Q 359 3453 968 4101 
Q 1578 4750 2638 4750 
Q 3056 4750 3426 4639 
Q 3797 4528 4122 4306 
z
" transform="scale(0.015625)"/>
       <path id="DejaVuSans-53" d="M 3425 4513 
L 3425 3897 
Q 3066 4069 2747 4153 
Q 2428 4238 2131 4238 
Q 1616 4238 1336 4038 
Q 1056 3838 1056 3469 
Q 1056 3159 1242 3001 
Q 1428 2844 1947 2747 
L 2328 2669 
Q 3034 2534 3370 2195 
Q 3706 1856 3706 1288 
Q 3706 609 3251 259 
Q 2797 -91 1919 -91 
Q 1588 -91 1214 -16 
Q 841 59 441 206 
L 441 856 
Q 825 641 1194 531 
Q 1563 422 1919 422 
Q 2459 422 2753 634 
Q 3047 847 3047 1241 
Q 3047 1584 2836 1778 
Q 2625 1972 2144 2069 
L 1759 2144 
Q 1053 2284 737 2584 
Q 422 2884 422 3419 
Q 422 4038 858 4394 
Q 1294 4750 2059 4750 
Q 2388 4750 2728 4690 
Q 3069 4631 3425 4513 
z
" transform="scale(0.015625)"/>
       <path id="DejaVuSans-44" d="M 1259 4147 
L 1259 519 
L 2022 519 
Q 2988 519 3436 956 
Q 3884 1394 3884 2338 
Q 3884 3275 3436 3711 
Q 2988 4147 2022 4147 
L 1259 4147 
z
M 628 4666 
L 1925 4666 
Q 3281 4666 3915 4102 
Q 4550 3538 4550 2338 
Q 4550 1131 3912 565 
Q 3275 0 1925 0 
L 628 0 
L 628 4666 
z
" transform="scale(0.015625)"/>
       <path id="DejaVuSans-54" d="M -19 4666 
L 3928 4666 
L 3928 4134 
L 2272 4134 
L 2272 0 
L 1638 0 
L 1638 4134 
L -19 4134 
L -19 4666 
z
" transform="scale(0.015625)"/>
       <path id="DejaVuSans-2f" d="M 1625 4666 
L 2156 4666 
L 531 -594 
L 0 -594 
L 1625 4666 
z
" transform="scale(0.015625)"/>
       <path id="DejaVuSans-42" d="M 1259 2228 
L 1259 519 
L 2272 519 
Q 2781 519 3026 730 
Q 3272 941 3272 1375 
Q 3272 1813 3026 2020 
Q 2781 2228 2272 2228 
L 1259 2228 
z
M 1259 4147 
L 1259 2741 
L 2194 2741 
Q 2656 2741 2882 2914 
Q 3109 3088 3109 3444 
Q 3109 3797 2882 3972 
Q 2656 4147 2194 4147 
L 1259 4147 
z
M 628 4666 
L 2241 4666 
Q 2963 4666 3353 4366 
Q 3744 4066 3744 3513 
Q 3744 3084 3544 2831 
Q 3344 2578 2956 2516 
Q 3422 2416 3680 2098 
Q 3938 1781 3938 1306 
Q 3938 681 3513 340 
Q 3088 0 2303 0 
L 628 0 
L 628 4666 
z
" transform="scale(0.015625)"/>
       <path id="DejaVuSans-64" d="M 2906 2969 
L 2906 4863 
L 3481 4863 
L 3481 0 
L 2906 0 
L 2906 525 
Q 2725 213 2448 61 
Q 2172 -91 1784 -91 
Q 1150 -91 751 415 
Q 353 922 353 1747 
Q 353 2572 751 3078 
Q 1150 3584 1784 3584 
Q 2172 3584 2448 3432 
Q 2725 3281 2906 2969 
z
M 947 1747 
Q 947 1113 1208 752 
Q 1469 391 1925 391 
Q 2381 391 2643 752 
Q 2906 1113 2906 1747 
Q 2906 2381 2643 2742 
Q 2381 3103 1925 3103 
Q 1469 3103 1208 2742 
Q 947 2381 947 1747 
z
" transform="scale(0.015625)"/>
       <path id="DejaVuSans-61" d="M 2194 1759 
Q 1497 1759 1228 1600 
Q 959 1441 959 1056 
Q 959 750 1161 570 
Q 1363 391 1709 391 
Q 2188 391 2477 730 
Q 2766 1069 2766 1631 
L 2766 1759 
L 2194 1759 
z
M 3341 1997 
L 3341 0 
L 2766 0 
L 2766 531 
Q 2569 213 2275 61 
Q 1981 -91 1556 -91 
Q 1019 -91 701 211 
Q 384 513 384 1019 
Q 384 1609 779 1909 
Q 1175 2209 1959 2209 
L 2766 2209 
L 2766 2266 
Q 2766 2663 2505 2880 
Q 2244 3097 1772 3097 
Q 1472 3097 1187 3025 
Q 903 2953 641 2809 
L 641 3341 
Q 956 3463 1253 3523 
Q 1550 3584 1831 3584 
Q 2591 3584 2966 3190 
Q 3341 2797 3341 1997 
z
" transform="scale(0.015625)"/>
       <path id="DejaVuSans-74" d="M 1172 4494 
L 1172 3500 
L 2356 3500 
L 2356 3053 
L 1172 3053 
L 1172 1153 
Q 1172 725 1289 603 
Q 1406 481 1766 481 
L 2356 481 
L 2356 0 
L 1766 0 
Q 1100 0 847 248 
Q 594 497 594 1153 
L 594 3053 
L 172 3053 
L 172 3500 
L 594 3500 
L 594 4494 
L 1172 4494 
z
" transform="scale(0.015625)"/>
      </defs>
      <use xlink:href="#DejaVuSans-48"/>
      <use xlink:href="#DejaVuSans-46" transform="translate(75.195312 0)"/>
      <use xlink:href="#DejaVuSans-20" transform="translate(132.714844 0)"/>
      <use xlink:href="#DejaVuSans-43" transform="translate(164.501953 0)"/>
      <use xlink:href="#DejaVuSans-43" transform="translate(234.326172 0)"/>
      <use xlink:href="#DejaVuSans-53" transform="translate(304.150391 0)"/>
      <use xlink:href="#DejaVuSans-44" transform="translate(367.626953 0)"/>
      <use xlink:href="#DejaVuSans-28" transform="translate(444.628906 0)"/>
      <use xlink:href="#DejaVuSans-54" transform="translate(483.642578 0)"/>
      <use xlink:href="#DejaVuSans-29" transform="translate(544.726562 0)"/>
      <use xlink:href="#DejaVuSans-2f" transform="translate(583.740234 0)"/>
      <use xlink:href="#DejaVuSans-43" transform="translate(617.431641 0)"/>
      <use xlink:href="#DejaVuSans-42" transform="translate(687.255859 0)"/>
      <use xlink:href="#DejaVuSans-53" transform="translate(754.109375 0)"/>
      <use xlink:href="#DejaVuSans-20" transform="translate(817.585938 0)"/>
      <use xlink:href="#DejaVuSans-64" transform="translate(849.373047 0)"/>
      <use xlink:href="#DejaVuSans-61" transform="translate(912.849609 0)"/>
      <use xlink:href="#DejaVuSans-74" transform="translate(974.128906 0)"/>
      <use xlink:href="#DejaVuSans-61" transform="translate(1013.337891 0)"/>
     </g>
    </g>
    <g id="PathCollection_4">
     <g>
      <use xlink:href="#m652f24893b" x="383.935937" y="86.529687" style="fill: #00bfbf; stroke: #00bfbf; stroke-width: 1.5"/>
     </g>
    </g>
    <g id="text_20">
     <!-- LF DFT data -->
     <g transform="translate(401.935937 89.154687) scale(0.1 -0.1)">
      <defs>
       <path id="DejaVuSans-4c" d="M 628 4666 
L 1259 4666 
L 1259 531 
L 3531 531 
L 3531 0 
L 628 0 
L 628 4666 
z
" transform="scale(0.015625)"/>
      </defs>
      <use xlink:href="#DejaVuSans-4c"/>
      <use xlink:href="#DejaVuSans-46" transform="translate(55.712891 0)"/>
      <use xlink:href="#DejaVuSans-20" transform="translate(113.232422 0)"/>
      <use xlink:href="#DejaVuSans-44" transform="translate(145.019531 0)"/>
      <use xlink:href="#DejaVuSans-46" transform="translate(222.021484 0)"/>
      <use xlink:href="#DejaVuSans-54" transform="translate(277.791016 0)"/>
      <use xlink:href="#DejaVuSans-20" transform="translate(338.875 0)"/>
      <use xlink:href="#DejaVuSans-64" transform="translate(370.662109 0)"/>
      <use xlink:href="#DejaVuSans-61" transform="translate(434.138672 0)"/>
      <use xlink:href="#DejaVuSans-74" transform="translate(495.417969 0)"/>
      <use xlink:href="#DejaVuSans-61" transform="translate(534.626953 0)"/>
     </g>
    </g>
    <g id="line2d_19">
     <path d="M 373.935937 100.332812 
L 383.935937 100.332812 
L 393.935937 100.332812 
" style="fill: none; stroke: #008000; stroke-width: 1.5; stroke-linecap: square"/>
    </g>
    <g id="text_21">
     <!-- Standard GP -->
     <g transform="translate(401.935937 103.832812) scale(0.1 -0.1)">
      <defs>
       <path id="DejaVuSans-6e" d="M 3513 2113 
L 3513 0 
L 2938 0 
L 2938 2094 
Q 2938 2591 2744 2837 
Q 2550 3084 2163 3084 
Q 1697 3084 1428 2787 
Q 1159 2491 1159 1978 
L 1159 0 
L 581 0 
L 581 3500 
L 1159 3500 
L 1159 2956 
Q 1366 3272 1645 3428 
Q 1925 3584 2291 3584 
Q 2894 3584 3203 3211 
Q 3513 2838 3513 2113 
z
" transform="scale(0.015625)"/>
       <path id="DejaVuSans-72" d="M 2631 2963 
Q 2534 3019 2420 3045 
Q 2306 3072 2169 3072 
Q 1681 3072 1420 2755 
Q 1159 2438 1159 1844 
L 1159 0 
L 581 0 
L 581 3500 
L 1159 3500 
L 1159 2956 
Q 1341 3275 1631 3429 
Q 1922 3584 2338 3584 
Q 2397 3584 2469 3576 
Q 2541 3569 2628 3553 
L 2631 2963 
z
" transform="scale(0.015625)"/>
      </defs>
      <use xlink:href="#DejaVuSans-53"/>
      <use xlink:href="#DejaVuSans-74" transform="translate(63.476562 0)"/>
      <use xlink:href="#DejaVuSans-61" transform="translate(102.685547 0)"/>
      <use xlink:href="#DejaVuSans-6e" transform="translate(163.964844 0)"/>
      <use xlink:href="#DejaVuSans-64" transform="translate(227.34375 0)"/>
      <use xlink:href="#DejaVuSans-61" transform="translate(290.820312 0)"/>
      <use xlink:href="#DejaVuSans-72" transform="translate(352.099609 0)"/>
      <use xlink:href="#DejaVuSans-64" transform="translate(391.462891 0)"/>
      <use xlink:href="#DejaVuSans-20" transform="translate(454.939453 0)"/>
      <use xlink:href="#DejaVuSans-47" transform="translate(486.726562 0)"/>
      <use xlink:href="#DejaVuSans-50" transform="translate(564.216797 0)"/>
     </g>
    </g>
   </g>
  </g>
  <g id="patch_8">
   <path d="M 192.96 198 
L 336.96 198 
L 336.96 54 
L 192.96 54 
z
" style="fill: #ffffff"/>
  </g>
  <g id="axes_2">
   <g id="line2d_20">
    <path d="M 221.393106 140.560868 
L 207.021047 140.560868 
" clip-path="url(#p6e393dac54)" style="fill: none; stroke: #e6e6fa; stroke-width: 1.5; stroke-linecap: square"/>
    <defs>
     <path id="me83239241a" d="M 0 3 
C 0.795609 3 1.55874 2.683901 2.12132 2.12132 
C 2.683901 1.55874 3 0.795609 3 0 
C 3 -0.795609 2.683901 -1.55874 2.12132 -2.12132 
C 1.55874 -2.683901 0.795609 -3 0 -3 
C -0.795609 -3 -1.55874 -2.683901 -2.12132 -2.12132 
C -2.683901 -1.55874 -3 -0.795609 -3 0 
C -3 0.795609 -2.683901 1.55874 -2.12132 2.12132 
C -1.55874 2.683901 -0.795609 3 0 3 
z
" style="stroke: #e6e6fa"/>
    </defs>
    <g clip-path="url(#p6e393dac54)">
     <use xlink:href="#me83239241a" x="221.393106" y="140.560868" style="fill: #e6e6fa; stroke: #e6e6fa"/>
     <use xlink:href="#me83239241a" x="207.021047" y="140.560868" style="fill: #e6e6fa; stroke: #e6e6fa"/>
    </g>
   </g>
   <g id="line2d_21">
    <path d="M 231.240554 132.432404 
L 224.753443 126.287309 
" clip-path="url(#p6e393dac54)" style="fill: none; stroke: #e6e6fa; stroke-width: 1.5; stroke-linecap: square"/>
    <g clip-path="url(#p6e393dac54)">
     <use xlink:href="#me83239241a" x="231.240554" y="132.432404" style="fill: #e6e6fa; stroke: #e6e6fa"/>
     <use xlink:href="#me83239241a" x="224.753443" y="126.287309" style="fill: #e6e6fa; stroke: #e6e6fa"/>
    </g>
   </g>
   <g id="line2d_22">
    <path d="M 249.347357 132.432404 
L 256.548936 126.287308 
" clip-path="url(#p6e393dac54)" style="fill: none; stroke: #e6e6fa; stroke-width: 1.5; stroke-linecap: square"/>
    <g clip-path="url(#p6e393dac54)">
     <use xlink:href="#me83239241a" x="249.347357" y="132.432404" style="fill: #e6e6fa; stroke: #e6e6fa"/>
     <use xlink:href="#me83239241a" x="256.548936" y="126.287308" style="fill: #e6e6fa; stroke: #e6e6fa"/>
    </g>
   </g>
   <g id="line2d_23">
    <path d="M 258.249735 140.560868 
L 272.621795 140.560868 
" clip-path="url(#p6e393dac54)" style="fill: none; stroke: #e6e6fa; stroke-width: 1.5; stroke-linecap: square"/>
    <g clip-path="url(#p6e393dac54)">
     <use xlink:href="#me83239241a" x="258.249735" y="140.560868" style="fill: #e6e6fa; stroke: #e6e6fa"/>
     <use xlink:href="#me83239241a" x="272.621795" y="140.560868" style="fill: #e6e6fa; stroke: #e6e6fa"/>
    </g>
   </g>
   <g id="line2d_24">
    <path d="M 248.712527 148.983216 
L 255.872914 155.766091 
" clip-path="url(#p6e393dac54)" style="fill: none; stroke: #e6e6fa; stroke-width: 1.5; stroke-linecap: square"/>
    <g clip-path="url(#p6e393dac54)">
     <use xlink:href="#me83239241a" x="248.712527" y="148.983216" style="fill: #e6e6fa; stroke: #e6e6fa"/>
     <use xlink:href="#me83239241a" x="255.872914" y="155.766091" style="fill: #e6e6fa; stroke: #e6e6fa"/>
    </g>
   </g>
   <g id="line2d_25">
    <path d="M 229.951075 148.983217 
L 222.002067 155.766091 
" clip-path="url(#p6e393dac54)" style="fill: none; stroke: #e6e6fa; stroke-width: 1.5; stroke-linecap: square"/>
    <g clip-path="url(#p6e393dac54)">
     <use xlink:href="#me83239241a" x="229.951075" y="148.983217" style="fill: #e6e6fa; stroke: #e6e6fa"/>
     <use xlink:href="#me83239241a" x="222.002067" y="155.766091" style="fill: #e6e6fa; stroke: #e6e6fa"/>
    </g>
   </g>
   <g id="line2d_26">
    <path d="M 221.393106 140.560868 
L 231.240554 132.432404 
" clip-path="url(#p6e393dac54)" style="fill: none; stroke: #000000; stroke-width: 1.5; stroke-linecap: square"/>
    <defs>
     <path id="md7ec61d401" d="M 0 3 
C 0.795609 3 1.55874 2.683901 2.12132 2.12132 
C 2.683901 1.55874 3 0.795609 3 0 
C 3 -0.795609 2.683901 -1.55874 2.12132 -2.12132 
C 1.55874 -2.683901 0.795609 -3 0 -3 
C -0.795609 -3 -1.55874 -2.683901 -2.12132 -2.12132 
C -2.683901 -1.55874 -3 -0.795609 -3 0 
C -3 0.795609 -2.683901 1.55874 -2.12132 2.12132 
C -1.55874 2.683901 -0.795609 3 0 3 
z
" style="stroke: #000000"/>
    </defs>
    <g clip-path="url(#p6e393dac54)">
     <use xlink:href="#md7ec61d401" x="221.393106" y="140.560868" style="stroke: #000000"/>
     <use xlink:href="#md7ec61d401" x="231.240554" y="132.432404" style="stroke: #000000"/>
    </g>
   </g>
   <g id="line2d_27">
    <path d="M 231.240554 132.432404 
L 249.347357 132.432404 
" clip-path="url(#p6e393dac54)" style="fill: none; stroke: #000000; stroke-width: 1.5; stroke-linecap: square"/>
    <g clip-path="url(#p6e393dac54)">
     <use xlink:href="#md7ec61d401" x="231.240554" y="132.432404" style="stroke: #000000"/>
     <use xlink:href="#md7ec61d401" x="249.347357" y="132.432404" style="stroke: #000000"/>
    </g>
   </g>
   <g id="line2d_28">
    <path d="M 249.347357 132.432404 
L 258.249735 140.560868 
" clip-path="url(#p6e393dac54)" style="fill: none; stroke: #000000; stroke-width: 1.5; stroke-linecap: square"/>
    <g clip-path="url(#p6e393dac54)">
     <use xlink:href="#md7ec61d401" x="249.347357" y="132.432404" style="stroke: #000000"/>
     <use xlink:href="#md7ec61d401" x="258.249735" y="140.560868" style="stroke: #000000"/>
    </g>
   </g>
   <g id="line2d_29">
    <path d="M 258.249735 140.560868 
L 248.712527 148.983216 
" clip-path="url(#p6e393dac54)" style="fill: none; stroke: #000000; stroke-width: 1.5; stroke-linecap: square"/>
    <g clip-path="url(#p6e393dac54)">
     <use xlink:href="#md7ec61d401" x="258.249735" y="140.560868" style="stroke: #000000"/>
     <use xlink:href="#md7ec61d401" x="248.712527" y="148.983216" style="stroke: #000000"/>
    </g>
   </g>
   <g id="line2d_30">
    <path d="M 248.712527 148.983216 
L 229.951075 148.983217 
" clip-path="url(#p6e393dac54)" style="fill: none; stroke: #000000; stroke-width: 1.5; stroke-linecap: square"/>
    <g clip-path="url(#p6e393dac54)">
     <use xlink:href="#md7ec61d401" x="248.712527" y="148.983216" style="stroke: #000000"/>
     <use xlink:href="#md7ec61d401" x="229.951075" y="148.983217" style="stroke: #000000"/>
    </g>
   </g>
   <g id="line2d_31">
    <path d="M 229.951075 148.983217 
L 221.393106 140.560868 
" clip-path="url(#p6e393dac54)" style="fill: none; stroke: #000000; stroke-width: 1.5; stroke-linecap: square"/>
    <g clip-path="url(#p6e393dac54)">
     <use xlink:href="#md7ec61d401" x="229.951075" y="148.983217" style="stroke: #000000"/>
     <use xlink:href="#md7ec61d401" x="221.393106" y="140.560868" style="stroke: #000000"/>
    </g>
   </g>
   <g id="line2d_32">
    <path d="M 298.208645 158.344304 
L 185.575318 124.038725 
" clip-path="url(#p6e393dac54)" style="fill: none; stroke: #000000; stroke-linecap: square"/>
   </g>
   <g id="line2d_33">
    <path d="M 272.509964 112.667791 
L 202.686426 172.248094 
" clip-path="url(#p6e393dac54)" style="fill: none; stroke: #000000; stroke-linecap: square"/>
   </g>
   <g id="line2d_34">
    <path d="M 238.93067 96.764705 
L 240.657197 181.654099 
" clip-path="url(#p6e393dac54)" style="fill: none; stroke: #000000; stroke-linecap: square"/>
   </g>
   <g id="Line3DCollection_1">
    <path d="M 298.528697 117.968745 
L 297.811593 148.679435 
" clip-path="url(#p6e393dac54)" style="fill: none; stroke: #0000ff; stroke-width: 1.5"/>
    <path d="M 298.528697 117.968745 
L 295.042424 126.080858 
" clip-path="url(#p6e393dac54)" style="fill: none; stroke: #0000ff; stroke-width: 1.5"/>
    <path d="M 298.528697 117.968745 
L 301.606129 127.950392 
" clip-path="url(#p6e393dac54)" style="fill: none; stroke: #0000ff; stroke-width: 1.5"/>
   </g>
   <g id="text_22">
    <!-- x -->
    <g transform="translate(300.636986 159.083923) scale(0.06 -0.06)">
     <defs>
      <path id="DejaVuSans-78" d="M 3513 3500 
L 2247 1797 
L 3578 0 
L 2900 0 
L 1881 1375 
L 863 0 
L 184 0 
L 1544 1831 
L 300 3500 
L 978 3500 
L 1906 2253 
L 2834 3500 
L 3513 3500 
z
" transform="scale(0.015625)"/>
     </defs>
     <use xlink:href="#DejaVuSans-78"/>
    </g>
   </g>
   <g id="text_23">
    <!-- y -->
    <g transform="translate(274.67309 113.274228) scale(0.06 -0.06)">
     <defs>
      <path id="DejaVuSans-79" d="M 2059 -325 
Q 1816 -950 1584 -1140 
Q 1353 -1331 966 -1331 
L 506 -1331 
L 506 -850 
L 844 -850 
Q 1081 -850 1212 -737 
Q 1344 -625 1503 -206 
L 1606 56 
L 191 3500 
L 800 3500 
L 1894 763 
L 2988 3500 
L 3597 3500 
L 2059 -325 
z
" transform="scale(0.015625)"/>
     </defs>
     <use xlink:href="#DejaVuSans-79"/>
    </g>
   </g>
   <g id="text_24">
    <!-- z -->
    <g transform="translate(241.256456 97.406872) scale(0.06 -0.06)">
     <use xlink:href="#DejaVuSans-7a"/>
    </g>
   </g>
  </g>
 </g>
 <defs>
  <clipPath id="p3875b235ff">
   <rect x="72" y="43.2" width="446.4" height="277.2"/>
  </clipPath>
  <clipPath id="p6e393dac54">
   <rect x="192.96" y="54" width="144" height="144"/>
  </clipPath>
 </defs>
</svg>
