<?xml version="1.0" encoding="utf-8" standalone="no"?>
<!DOCTYPE svg PUBLIC "-//W3C//DTD SVG 1.1//EN"
  "http://www.w3.org/Graphics/SVG/1.1/DTD/svg11.dtd">
<svg xmlns:xlink="http://www.w3.org/1999/xlink" width="576pt" height="360pt" viewBox="0 0 576 360" xmlns="http://www.w3.org/2000/svg" version="1.1">
 <metadata>
  <rdf:RDF xmlns:dc="http://purl.org/dc/elements/1.1/" xmlns:cc="http://creativecommons.org/ns#" xmlns:rdf="http://www.w3.org/1999/02/22-rdf-syntax-ns#">
   <cc:Work>
    <dc:type rdf:resource="http://purl.org/dc/dcmitype/StillImage"/>
    <dc:date>2025-11-19T17:02:33.607309</dc:date>
    <dc:format>image/svg+xml</dc:format>
    <dc:creator>
     <cc:Agent>
      <dc:title>Matplotlib v3.10.6, https://matplotlib.org/</dc:title>
     </cc:Agent>
    </dc:creator>
   </cc:Work>
  </rdf:RDF>
 </metadata>
 <defs>
  <style type="text/css">*{stroke-linejoin: round; stroke-linecap: butt}</style>
 </defs>
 <g id="figure_1">
  <g id="patch_1">
   <path d="M 0 360 
L 576 360 
L 576 0 
L 0 0 
z
" style="fill: #ffffff"/>
  </g>
  <g id="axes_1">
   <g id="patch_2">
    <path d="M 72 320.4 
L 518.4 320.4 
L 518.4 43.2 
L 72 43.2 
z
" style="fill: #ffffff"/>
   </g>
   <g id="FillBetweenPolyCollection_1">
    <defs>
     <path id="m03bc1a4447" d="M 72 -304.2 
L 72 -293.866241 
L 77.70771 -289.614454 
L 83.41542 -281.570101 
L 89.123131 -270.041109 
L 94.83084 -255.6137 
L 100.538549 -238.999853 
L 106.246261 -220.98039 
L 111.95397 -202.355967 
L 117.661679 -183.878071 
L 123.369388 -166.131061 
L 129.077097 -149.398385 
L 134.784806 -134.520401 
L 140.492522 -121.746184 
L 146.200231 -111.166785 
L 151.90794 -102.792772 
L 157.615649 -96.530223 
L 163.323358 -92.101631 
L 169.031067 -89.448531 
L 174.738777 -88.182764 
L 180.446486 -87.894374 
L 186.154195 -88.635674 
L 191.861904 -90.177322 
L 197.569613 -92.306875 
L 203.277322 -94.88311 
L 208.985044 -97.662259 
L 214.692753 -100.358534 
L 220.400462 -103.137484 
L 226.108172 -105.966847 
L 231.815881 -108.762235 
L 237.52359 -111.460719 
L 243.231299 -113.89559 
L 248.939008 -115.800972 
L 254.646717 -117.461937 
L 260.354426 -118.884392 
L 266.062135 -120.065121 
L 271.769844 -121.022362 
L 277.477553 -121.795952 
L 283.185262 -122.42472 
L 288.892971 -122.932108 
L 294.60068 -123.335043 
L 300.308389 -123.659667 
L 306.016112 -123.931306 
L 311.723807 -124.15604 
L 317.43153 -124.333818 
L 323.139226 -124.483458 
L 328.846948 -124.635025 
L 334.554644 -124.799367 
L 340.262366 -124.963233 
L 345.970089 -125.123217 
L 351.677784 -125.31241 
L 357.385507 -125.575403 
L 363.093202 -125.917342 
L 368.800925 -126.297139 
L 374.508647 -126.682443 
L 380.216343 -127.097453 
L 385.924066 -127.60062 
L 391.631761 -128.220937 
L 397.339484 -128.930284 
L 403.047179 -129.680211 
L 408.754902 -130.454518 
L 414.462597 -131.280173 
L 420.17032 -132.19623 
L 425.878016 -133.219929 
L 431.585738 -134.339695 
L 437.293434 -135.532935 
L 443.001156 -136.785488 
L 448.708852 -138.095106 
L 454.416574 -139.462996 
L 460.124297 -140.885962 
L 465.831992 -142.361755 
L 471.539715 -141.998066 
L 477.247411 -140.649376 
L 482.955133 -139.038866 
L 488.662829 -137.126585 
L 494.370551 -134.898533 
L 500.078247 -132.362078 
L 505.785969 -129.539211 
L 511.493665 -126.460914 
L 517.201387 -123.162841 
L 522.909083 -119.68247 
L 528.616779 -116.057068 
L 534.324501 -112.32263 
L 540.032224 -108.513001 
L 545.739946 -104.659444 
L 551.447669 -100.790376 
L 557.155337 -96.931467 
L 562.86306 -93.105199 
L 568.570782 -89.331466 
L 574.278505 -85.627372 
L 579.986174 -82.00764 
L 585.693896 -78.484352 
L 591.401619 -75.067625 
L 597.109341 -71.765516 
L 602.81701 -68.584299 
L 608.524732 -65.528534 
L 614.232455 -62.601399 
L 619.940177 -59.80475 
L 625.647846 -57.139321 
L 631.355569 -54.604781 
L 637.063291 -52.2 
L 637.063291 -235.083175 
L 637.063291 -235.083175 
L 631.355569 -232.766755 
L 625.647846 -230.319591 
L 619.940177 -227.740051 
L 614.232455 -225.027251 
L 608.524732 -222.181313 
L 602.81701 -219.203417 
L 597.109341 -216.096004 
L 591.401619 -212.862828 
L 585.693896 -209.509279 
L 579.986174 -206.042457 
L 574.278505 -202.47144 
L 568.570782 -198.807191 
L 562.86306 -195.063219 
L 557.155337 -191.255331 
L 551.447669 -187.402025 
L 545.739946 -183.524295 
L 540.032224 -179.646227 
L 534.324501 -175.794552 
L 528.616779 -171.998754 
L 522.909083 -168.290801 
L 517.201387 -164.704722 
L 511.493665 -161.275723 
L 505.785969 -158.039143 
L 500.078247 -155.028426 
L 494.370551 -152.272281 
L 488.662829 -149.790372 
L 482.955133 -147.587723 
L 477.247411 -145.647976 
L 471.539715 -143.928851 
L 465.831992 -143.151241 
L 460.124297 -144.167649 
L 454.416574 -145.086176 
L 448.708852 -145.908101 
L 443.001156 -146.630163 
L 437.293434 -147.246505 
L 431.585738 -147.754019 
L 425.878016 -148.162235 
L 420.17032 -148.490614 
L 414.462597 -148.748975 
L 408.754902 -148.919357 
L 403.047179 -148.962955 
L 397.339484 -148.854019 
L 391.631761 -148.610997 
L 385.924066 -148.285582 
L 380.216343 -147.910146 
L 374.508647 -147.460929 
L 368.800925 -146.885697 
L 363.093202 -146.167437 
L 357.385507 -145.346645 
L 351.677784 -144.473489 
L 345.970089 -143.552833 
L 340.262366 -142.550978 
L 334.554644 -141.446607 
L 328.846948 -140.255729 
L 323.139226 -139.004977 
L 317.43153 -137.697642 
L 311.723807 -136.318458 
L 306.016112 -134.86404 
L 300.308389 -133.350389 
L 294.60068 -131.787847 
L 288.892971 -130.167774 
L 283.185262 -128.480814 
L 277.477553 -126.726853 
L 271.769844 -124.899825 
L 266.062135 -122.979366 
L 260.354426 -120.943217 
L 254.646717 -118.781801 
L 248.939008 -116.489683 
L 243.231299 -114.058453 
L 237.52359 -111.73939 
L 231.815881 -109.264321 
L 226.108172 -106.537855 
L 220.400462 -103.658136 
L 214.692753 -100.716489 
L 208.985044 -97.769474 
L 203.277322 -95.110251 
L 197.569613 -92.7091 
L 191.861904 -90.645879 
L 186.154195 -89.079227 
L 180.446486 -88.20627 
L 174.738777 -88.275226 
L 169.031067 -89.646183 
L 163.323358 -92.337559 
L 157.615649 -96.614585 
L 151.90794 -103.054932 
L 146.200231 -111.639421 
L 140.492522 -122.314355 
L 134.784806 -135.069745 
L 129.077097 -149.790744 
L 123.369388 -166.215674 
L 117.661679 -184.371635 
L 111.95397 -203.502673 
L 106.246261 -222.926248 
L 100.538549 -241.914684 
L 94.83084 -259.675974 
L 89.123131 -275.425007 
L 83.41542 -288.443203 
L 77.70771 -298.140249 
L 72 -304.2 
z
" style="stroke: #0000ff; stroke-opacity: 0.3"/>
    </defs>
    <g clip-path="url(#p25cd973b7e)">
     <use xlink:href="#m03bc1a4447" x="0" y="360" style="fill: #0000ff; fill-opacity: 0.3; stroke: #0000ff; stroke-opacity: 0.3"/>
    </g>
   </g>
   <g id="PathCollection_1">
    <defs>
     <path id="m8a3f69b670" d="M 0 3 
C 0.795609 3 1.55874 2.683901 2.12132 2.12132 
C 2.683901 1.55874 3 0.795609 3 0 
C 3 -0.795609 2.683901 -1.55874 2.12132 -2.12132 
C 1.55874 -2.683901 0.795609 -3 0 -3 
C -0.795609 -3 -1.55874 -2.683901 -2.12132 -2.12132 
C -2.683901 -1.55874 -3 -0.795609 -3 0 
C -3 0.795609 -2.683901 1.55874 -2.12132 2.12132 
C -1.55874 2.683901 -0.795609 3 0 3 
z
" style="stroke: #0000ff"/>
    </defs>
    <g clip-path="url(#p25cd973b7e)">
     <use xlink:href="#m8a3f69b670" x="467.544304" y="217.179068" style="fill: #0000ff; stroke: #0000ff"/>
     <use xlink:href="#m8a3f69b670" x="207.61519" y="262.953912" style="fill: #0000ff; stroke: #0000ff"/>
     <use xlink:href="#m8a3f69b670" x="156.759494" y="262.615391" style="fill: #0000ff; stroke: #0000ff"/>
     <use xlink:href="#m8a3f69b670" x="122.855696" y="192.258932" style="fill: #0000ff; stroke: #0000ff"/>
     <use xlink:href="#m8a3f69b670" x="241.518987" y="246.712436" style="fill: #0000ff; stroke: #0000ff"/>
     <use xlink:href="#m8a3f69b670" x="173.711392" y="271.612963" style="fill: #0000ff; stroke: #0000ff"/>
    </g>
   </g>
   <g id="PathCollection_2">
    <defs>
     <path id="m14a523f9c0" d="M -3 3 
L 3 -3 
M -3 -3 
L 3 3 
" style="stroke: #00bfbf; stroke-width: 1.5"/>
    </defs>
    <g clip-path="url(#p25cd973b7e)">
     <use xlink:href="#m14a523f9c0" x="72" y="140.802714" style="fill: #00bfbf; stroke: #00bfbf; stroke-width: 1.5"/>
     <use xlink:href="#m14a523f9c0" x="77.345193" y="142.505737" style="fill: #00bfbf; stroke: #00bfbf; stroke-width: 1.5"/>
     <use xlink:href="#m14a523f9c0" x="82.690387" y="147.519789" style="fill: #00bfbf; stroke: #00bfbf; stroke-width: 1.5"/>
     <use xlink:href="#m14a523f9c0" x="88.03558" y="155.559778" style="fill: #00bfbf; stroke: #00bfbf; stroke-width: 1.5"/>
     <use xlink:href="#m14a523f9c0" x="93.380773" y="166.195263" style="fill: #00bfbf; stroke: #00bfbf; stroke-width: 1.5"/>
     <use xlink:href="#m14a523f9c0" x="98.725966" y="178.889558" style="fill: #00bfbf; stroke: #00bfbf; stroke-width: 1.5"/>
     <use xlink:href="#m14a523f9c0" x="104.07116" y="193.006463" style="fill: #00bfbf; stroke: #00bfbf; stroke-width: 1.5"/>
     <use xlink:href="#m14a523f9c0" x="109.416353" y="207.870122" style="fill: #00bfbf; stroke: #00bfbf; stroke-width: 1.5"/>
     <use xlink:href="#m14a523f9c0" x="114.761546" y="222.839929" style="fill: #00bfbf; stroke: #00bfbf; stroke-width: 1.5"/>
     <use xlink:href="#m14a523f9c0" x="120.10674" y="237.364243" style="fill: #00bfbf; stroke: #00bfbf; stroke-width: 1.5"/>
     <use xlink:href="#m14a523f9c0" x="125.451933" y="250.957971" style="fill: #00bfbf; stroke: #00bfbf; stroke-width: 1.5"/>
     <use xlink:href="#m14a523f9c0" x="130.797126" y="263.237339" style="fill: #00bfbf; stroke: #00bfbf; stroke-width: 1.5"/>
     <use xlink:href="#m14a523f9c0" x="136.14232" y="273.919387" style="fill: #00bfbf; stroke: #00bfbf; stroke-width: 1.5"/>
     <use xlink:href="#m14a523f9c0" x="141.487513" y="282.829541" style="fill: #00bfbf; stroke: #00bfbf; stroke-width: 1.5"/>
     <use xlink:href="#m14a523f9c0" x="146.832706" y="289.898043" style="fill: #00bfbf; stroke: #00bfbf; stroke-width: 1.5"/>
     <use xlink:href="#m14a523f9c0" x="152.177899" y="295.134524" style="fill: #00bfbf; stroke: #00bfbf; stroke-width: 1.5"/>
     <use xlink:href="#m14a523f9c0" x="157.523093" y="298.571985" style="fill: #00bfbf; stroke: #00bfbf; stroke-width: 1.5"/>
     <use xlink:href="#m14a523f9c0" x="162.868286" y="300.306647" style="fill: #00bfbf; stroke: #00bfbf; stroke-width: 1.5"/>
     <use xlink:href="#m14a523f9c0" x="168.213479" y="300.58265" style="fill: #00bfbf; stroke: #00bfbf; stroke-width: 1.5"/>
     <use xlink:href="#m14a523f9c0" x="173.558673" y="299.639367" style="fill: #00bfbf; stroke: #00bfbf; stroke-width: 1.5"/>
     <use xlink:href="#m14a523f9c0" x="178.903866" y="297.507226" style="fill: #00bfbf; stroke: #00bfbf; stroke-width: 1.5"/>
     <use xlink:href="#m14a523f9c0" x="184.249059" y="294.284651" style="fill: #00bfbf; stroke: #00bfbf; stroke-width: 1.5"/>
     <use xlink:href="#m14a523f9c0" x="189.594252" y="290.390468" style="fill: #00bfbf; stroke: #00bfbf; stroke-width: 1.5"/>
     <use xlink:href="#m14a523f9c0" x="194.939446" y="286.101294" style="fill: #00bfbf; stroke: #00bfbf; stroke-width: 1.5"/>
     <use xlink:href="#m14a523f9c0" x="200.284639" y="281.348136" style="fill: #00bfbf; stroke: #00bfbf; stroke-width: 1.5"/>
     <use xlink:href="#m14a523f9c0" x="205.629832" y="276.32074" style="fill: #00bfbf; stroke: #00bfbf; stroke-width: 1.5"/>
     <use xlink:href="#m14a523f9c0" x="210.975026" y="271.393888" style="fill: #00bfbf; stroke: #00bfbf; stroke-width: 1.5"/>
     <use xlink:href="#m14a523f9c0" x="216.320219" y="266.628364" style="fill: #00bfbf; stroke: #00bfbf; stroke-width: 1.5"/>
     <use xlink:href="#m14a523f9c0" x="221.665412" y="261.936165" style="fill: #00bfbf; stroke: #00bfbf; stroke-width: 1.5"/>
     <use xlink:href="#m14a523f9c0" x="227.010606" y="257.382388" style="fill: #00bfbf; stroke: #00bfbf; stroke-width: 1.5"/>
     <use xlink:href="#m14a523f9c0" x="232.355799" y="253.162998" style="fill: #00bfbf; stroke: #00bfbf; stroke-width: 1.5"/>
     <use xlink:href="#m14a523f9c0" x="237.700992" y="249.271087" style="fill: #00bfbf; stroke: #00bfbf; stroke-width: 1.5"/>
     <use xlink:href="#m14a523f9c0" x="243.046185" y="245.715888" style="fill: #00bfbf; stroke: #00bfbf; stroke-width: 1.5"/>
     <use xlink:href="#m14a523f9c0" x="248.391379" y="242.472946" style="fill: #00bfbf; stroke: #00bfbf; stroke-width: 1.5"/>
     <use xlink:href="#m14a523f9c0" x="253.736572" y="239.543302" style="fill: #00bfbf; stroke: #00bfbf; stroke-width: 1.5"/>
     <use xlink:href="#m14a523f9c0" x="259.081765" y="236.900776" style="fill: #00bfbf; stroke: #00bfbf; stroke-width: 1.5"/>
     <use xlink:href="#m14a523f9c0" x="264.426959" y="234.529927" style="fill: #00bfbf; stroke: #00bfbf; stroke-width: 1.5"/>
     <use xlink:href="#m14a523f9c0" x="269.772152" y="232.433779" style="fill: #00bfbf; stroke: #00bfbf; stroke-width: 1.5"/>
     <use xlink:href="#m14a523f9c0" x="275.117345" y="230.559252" style="fill: #00bfbf; stroke: #00bfbf; stroke-width: 1.5"/>
     <use xlink:href="#m14a523f9c0" x="280.462538" y="228.878209" style="fill: #00bfbf; stroke: #00bfbf; stroke-width: 1.5"/>
     <use xlink:href="#m14a523f9c0" x="285.807732" y="227.354333" style="fill: #00bfbf; stroke: #00bfbf; stroke-width: 1.5"/>
     <use xlink:href="#m14a523f9c0" x="291.152925" y="225.983768" style="fill: #00bfbf; stroke: #00bfbf; stroke-width: 1.5"/>
     <use xlink:href="#m14a523f9c0" x="296.498118" y="224.762583" style="fill: #00bfbf; stroke: #00bfbf; stroke-width: 1.5"/>
     <use xlink:href="#m14a523f9c0" x="301.843312" y="223.652138" style="fill: #00bfbf; stroke: #00bfbf; stroke-width: 1.5"/>
     <use xlink:href="#m14a523f9c0" x="307.188505" y="222.623168" style="fill: #00bfbf; stroke: #00bfbf; stroke-width: 1.5"/>
     <use xlink:href="#m14a523f9c0" x="312.533698" y="221.6905" style="fill: #00bfbf; stroke: #00bfbf; stroke-width: 1.5"/>
     <use xlink:href="#m14a523f9c0" x="317.878892" y="220.866337" style="fill: #00bfbf; stroke: #00bfbf; stroke-width: 1.5"/>
     <use xlink:href="#m14a523f9c0" x="323.224085" y="220.128607" style="fill: #00bfbf; stroke: #00bfbf; stroke-width: 1.5"/>
     <use xlink:href="#m14a523f9c0" x="328.569278" y="219.441829" style="fill: #00bfbf; stroke: #00bfbf; stroke-width: 1.5"/>
     <use xlink:href="#m14a523f9c0" x="333.914471" y="218.794338" style="fill: #00bfbf; stroke: #00bfbf; stroke-width: 1.5"/>
     <use xlink:href="#m14a523f9c0" x="339.259665" y="218.207345" style="fill: #00bfbf; stroke: #00bfbf; stroke-width: 1.5"/>
     <use xlink:href="#m14a523f9c0" x="344.604858" y="217.702746" style="fill: #00bfbf; stroke: #00bfbf; stroke-width: 1.5"/>
     <use xlink:href="#m14a523f9c0" x="349.950051" y="217.26067" style="fill: #00bfbf; stroke: #00bfbf; stroke-width: 1.5"/>
     <use xlink:href="#m14a523f9c0" x="355.295245" y="216.829571" style="fill: #00bfbf; stroke: #00bfbf; stroke-width: 1.5"/>
     <use xlink:href="#m14a523f9c0" x="360.640438" y="216.378756" style="fill: #00bfbf; stroke: #00bfbf; stroke-width: 1.5"/>
     <use xlink:href="#m14a523f9c0" x="365.985631" y="215.940175" style="fill: #00bfbf; stroke: #00bfbf; stroke-width: 1.5"/>
     <use xlink:href="#m14a523f9c0" x="371.330824" y="215.574535" style="fill: #00bfbf; stroke: #00bfbf; stroke-width: 1.5"/>
     <use xlink:href="#m14a523f9c0" x="376.676018" y="215.293292" style="fill: #00bfbf; stroke: #00bfbf; stroke-width: 1.5"/>
     <use xlink:href="#m14a523f9c0" x="382.021211" y="215.044701" style="fill: #00bfbf; stroke: #00bfbf; stroke-width: 1.5"/>
     <use xlink:href="#m14a523f9c0" x="387.366404" y="214.77066" style="fill: #00bfbf; stroke: #00bfbf; stroke-width: 1.5"/>
     <use xlink:href="#m14a523f9c0" x="392.711598" y="214.461151" style="fill: #00bfbf; stroke: #00bfbf; stroke-width: 1.5"/>
     <use xlink:href="#m14a523f9c0" x="398.056791" y="214.162985" style="fill: #00bfbf; stroke: #00bfbf; stroke-width: 1.5"/>
     <use xlink:href="#m14a523f9c0" x="403.401984" y="213.924171" style="fill: #00bfbf; stroke: #00bfbf; stroke-width: 1.5"/>
     <use xlink:href="#m14a523f9c0" x="408.747178" y="213.74861" style="fill: #00bfbf; stroke: #00bfbf; stroke-width: 1.5"/>
     <use xlink:href="#m14a523f9c0" x="414.092371" y="213.604919" style="fill: #00bfbf; stroke: #00bfbf; stroke-width: 1.5"/>
     <use xlink:href="#m14a523f9c0" x="419.437564" y="213.457167" style="fill: #00bfbf; stroke: #00bfbf; stroke-width: 1.5"/>
     <use xlink:href="#m14a523f9c0" x="424.782757" y="213.288572" style="fill: #00bfbf; stroke: #00bfbf; stroke-width: 1.5"/>
     <use xlink:href="#m14a523f9c0" x="430.127951" y="213.108416" style="fill: #00bfbf; stroke: #00bfbf; stroke-width: 1.5"/>
     <use xlink:href="#m14a523f9c0" x="435.473144" y="212.937488" style="fill: #00bfbf; stroke: #00bfbf; stroke-width: 1.5"/>
     <use xlink:href="#m14a523f9c0" x="440.818337" y="212.787755" style="fill: #00bfbf; stroke: #00bfbf; stroke-width: 1.5"/>
     <use xlink:href="#m14a523f9c0" x="446.163531" y="212.658064" style="fill: #00bfbf; stroke: #00bfbf; stroke-width: 1.5"/>
     <use xlink:href="#m14a523f9c0" x="451.508724" y="212.543499" style="fill: #00bfbf; stroke: #00bfbf; stroke-width: 1.5"/>
     <use xlink:href="#m14a523f9c0" x="456.853917" y="212.443561" style="fill: #00bfbf; stroke: #00bfbf; stroke-width: 1.5"/>
     <use xlink:href="#m14a523f9c0" x="462.199111" y="212.36196" style="fill: #00bfbf; stroke: #00bfbf; stroke-width: 1.5"/>
     <use xlink:href="#m14a523f9c0" x="467.544304" y="212.29964" style="fill: #00bfbf; stroke: #00bfbf; stroke-width: 1.5"/>
     <use xlink:href="#m14a523f9c0" x="66.654807" y="142.505737" style="fill: #00bfbf; stroke: #00bfbf; stroke-width: 1.5"/>
    </g>
   </g>
   <g id="FillBetweenPolyCollection_2">
    <defs>
     <path id="m5788a6b46b" d="M 72 -174.032698 
L 72 -113.550995 
L 77.70771 -119.950189 
L 83.41542 -127.823296 
L 89.123131 -136.909594 
L 94.83084 -146.62547 
L 100.538549 -156.050238 
L 106.246261 -163.998491 
L 111.95397 -169.190968 
L 117.661679 -170.505395 
L 123.369388 -166.604024 
L 129.077097 -153.050977 
L 134.784806 -138.715934 
L 140.492522 -124.963983 
L 146.200231 -112.949205 
L 151.90794 -103.397462 
L 157.615649 -96.117098 
L 163.323358 -90.007379 
L 169.031067 -87.805909 
L 174.738777 -88.234847 
L 180.446486 -87.877558 
L 186.154195 -88.230301 
L 191.861904 -89.332087 
L 197.569613 -91.315199 
L 203.277322 -94.247762 
L 208.985044 -96.776385 
L 214.692753 -95.903092 
L 220.400462 -96.109275 
L 226.108172 -98.093467 
L 231.815881 -102.159221 
L 237.52359 -108.173696 
L 243.231299 -113.038574 
L 248.939008 -111.510623 
L 254.646717 -109.233936 
L 260.354426 -106.663974 
L 266.062135 -104.201365 
L 271.769844 -102.122303 
L 277.477553 -100.555142 
L 283.185262 -99.498513 
L 288.892971 -98.865669 
L 294.60068 -98.53502 
L 300.308389 -98.390646 
L 306.016112 -98.344434 
L 311.723807 -98.340779 
L 317.43153 -98.350436 
L 323.139226 -98.360996 
L 328.846948 -98.368769 
L 334.554644 -98.373652 
L 340.262366 -98.376592 
L 345.970089 -98.378657 
L 351.677784 -98.38092 
L 357.385507 -98.384725 
L 363.093202 -98.392189 
L 368.800925 -98.406962 
L 374.508647 -98.43531 
L 380.216343 -98.487635 
L 385.924066 -98.58051 
L 391.631761 -98.739347 
L 397.339484 -99.001878 
L 403.047179 -99.422578 
L 408.754902 -100.077898 
L 414.462597 -101.070911 
L 420.17032 -102.532357 
L 425.878016 -104.613245 
L 431.585738 -107.464968 
L 437.293434 -111.206431 
L 443.001156 -115.884256 
L 448.708852 -121.436934 
L 454.416574 -127.676191 
L 460.124297 -134.294651 
L 465.831992 -140.902527 
L 471.539715 -138.287362 
L 477.247411 -131.62547 
L 482.955133 -125.115382 
L 488.662829 -119.120034 
L 494.370551 -113.901951 
L 500.078247 -109.598015 
L 505.785969 -106.222976 
L 511.493665 -103.696543 
L 517.201387 -101.882189 
L 522.909083 -100.625403 
L 528.616779 -99.781657 
L 534.324501 -99.230981 
L 540.032224 -98.881369 
L 545.739946 -98.665805 
L 551.447669 -98.537105 
L 557.155337 -98.462942 
L 562.86306 -98.421812 
L 568.570782 -98.399906 
L 574.278505 -98.388717 
L 579.986174 -98.383239 
L 585.693896 -98.380671 
L 591.401619 -98.379517 
L 597.109341 -98.37902 
L 602.81701 -98.378816 
L 608.524732 -98.378735 
L 614.232455 -98.378704 
L 619.940177 -98.378693 
L 625.647846 -98.37869 
L 631.355569 -98.378688 
L 637.063291 -98.378688 
L 637.063291 -160.688571 
L 637.063291 -160.688571 
L 631.355569 -160.688571 
L 625.647846 -160.688573 
L 619.940177 -160.688577 
L 614.232455 -160.688588 
L 608.524732 -160.688618 
L 602.81701 -160.688699 
L 597.109341 -160.688904 
L 591.401619 -160.6894 
L 585.693896 -160.690553 
L 579.986174 -160.693119 
L 574.278505 -160.698582 
L 568.570782 -160.70971 
L 562.86306 -160.73137 
L 557.155337 -160.771591 
L 551.447669 -160.842679 
L 545.739946 -160.961833 
L 540.032224 -161.150215 
L 534.324501 -161.428871 
L 528.616779 -161.809814 
L 522.909083 -162.281472 
L 517.201387 -162.790265 
L 511.493665 -163.223699 
L 505.785969 -163.403206 
L 500.078247 -163.094553 
L 494.370551 -162.039121 
L 488.662829 -160.002153 
L 482.955133 -156.827346 
L 477.247411 -152.483277 
L 471.539715 -147.088084 
L 465.831992 -144.69018 
L 460.124297 -150.439634 
L 454.416574 -155.226841 
L 448.708852 -158.873715 
L 443.001156 -161.353197 
L 437.293434 -162.776265 
L 431.585738 -163.352719 
L 425.878016 -163.338083 
L 420.17032 -162.981218 
L 414.462597 -162.48537 
L 408.754902 -161.989444 
L 403.047179 -161.568902 
L 397.339484 -161.249838 
L 391.631761 -161.027627 
L 385.924066 -160.88345 
L 380.216343 -160.795463 
L 374.508647 -160.744633 
L 368.800925 -160.716704 
L 363.093202 -160.70204 
L 357.385507 -160.694599 
L 351.677784 -160.690792 
L 345.970089 -160.688492 
L 340.262366 -160.686271 
L 334.554644 -160.682726 
L 328.846948 -160.675694 
L 323.139226 -160.660932 
L 317.43153 -160.629544 
L 311.723807 -160.563077 
L 306.016112 -160.425021 
L 300.308389 -160.148157 
L 294.60068 -159.619511 
L 288.892971 -158.66842 
L 283.185262 -157.066894 
L 277.477553 -154.551548 
L 271.769844 -150.871731 
L 266.062135 -145.85888 
L 260.354426 -139.502928 
L 254.646717 -132.013042 
L 248.939008 -123.839879 
L 243.231299 -115.639774 
L 237.52359 -113.413412 
L 231.815881 -112.389982 
L 226.108172 -109.97105 
L 220.400462 -106.427508 
L 214.692753 -102.245977 
L 208.985044 -98.009932 
L 203.277322 -97.803638 
L 197.569613 -98.083536 
L 191.861904 -97.036895 
L 186.154195 -94.632266 
L 180.446486 -91.478923 
L 174.738777 -88.731759 
L 169.031067 -89.488439 
L 163.323358 -92.056863 
L 157.615649 -96.519469 
L 151.90794 -106.13807 
L 146.200231 -119.19588 
L 140.492522 -133.718302 
L 134.784806 -147.758726 
L 129.077097 -159.422287 
L 123.369388 -167.257129 
L 117.661679 -178.086318 
L 111.95397 -186.531086 
L 106.246261 -191.477085 
L 100.538549 -193.000313 
L 94.83084 -191.632475 
L 89.123131 -188.19339 
L 83.41542 -183.594291 
L 77.70771 -178.663976 
L 72 -174.032698 
z
" style="stroke: #ff0000; stroke-opacity: 0.1"/>
    </defs>
    <g clip-path="url(#p25cd973b7e)">
     <use xlink:href="#m5788a6b46b" x="0" y="360" style="fill: #ff0000; fill-opacity: 0.1; stroke: #ff0000; stroke-opacity: 0.1"/>
    </g>
   </g>
   <g id="matplotlib.axis_1">
    <g id="xtick_1">
     <g id="line2d_1">
      <defs>
       <path id="mf606f0d8f8" d="M 0 0 
L 0 3.5 
" style="stroke: #000000; stroke-width: 0.8"/>
      </defs>
      <g>
       <use xlink:href="#mf606f0d8f8" x="72" y="320.4" style="stroke: #000000; stroke-width: 0.8"/>
      </g>
     </g>
     <g id="text_1">
      <!-- 0 -->
      <g transform="translate(68.81875 334.998438) scale(0.1 -0.1)">
       <defs>
        <path id="DejaVuSans-30" d="M 2034 4250 
Q 1547 4250 1301 3770 
Q 1056 3291 1056 2328 
Q 1056 1369 1301 889 
Q 1547 409 2034 409 
Q 2525 409 2770 889 
Q 3016 1369 3016 2328 
Q 3016 3291 2770 3770 
Q 2525 4250 2034 4250 
z
M 2034 4750 
Q 2819 4750 3233 4129 
Q 3647 3509 3647 2328 
Q 3647 1150 3233 529 
Q 2819 -91 2034 -91 
Q 1250 -91 836 529 
Q 422 1150 422 2328 
Q 422 3509 836 4129 
Q 1250 4750 2034 4750 
z
" transform="scale(0.015625)"/>
       </defs>
       <use xlink:href="#DejaVuSans-30"/>
      </g>
     </g>
    </g>
    <g id="xtick_2">
     <g id="line2d_2">
      <g>
       <use xlink:href="#mf606f0d8f8" x="128.506329" y="320.4" style="stroke: #000000; stroke-width: 0.8"/>
      </g>
     </g>
     <g id="text_2">
      <!-- 1 -->
      <g transform="translate(125.325079 334.998438) scale(0.1 -0.1)">
       <defs>
        <path id="DejaVuSans-31" d="M 794 531 
L 1825 531 
L 1825 4091 
L 703 3866 
L 703 4441 
L 1819 4666 
L 2450 4666 
L 2450 531 
L 3481 531 
L 3481 0 
L 794 0 
L 794 531 
z
" transform="scale(0.015625)"/>
       </defs>
       <use xlink:href="#DejaVuSans-31"/>
      </g>
     </g>
    </g>
    <g id="xtick_3">
     <g id="line2d_3">
      <g>
       <use xlink:href="#mf606f0d8f8" x="185.012658" y="320.4" style="stroke: #000000; stroke-width: 0.8"/>
      </g>
     </g>
     <g id="text_3">
      <!-- 2 -->
      <g transform="translate(181.831408 334.998438) scale(0.1 -0.1)">
       <defs>
        <path id="DejaVuSans-32" d="M 1228 531 
L 3431 531 
L 3431 0 
L 469 0 
L 469 531 
Q 828 903 1448 1529 
Q 2069 2156 2228 2338 
Q 2531 2678 2651 2914 
Q 2772 3150 2772 3378 
Q 2772 3750 2511 3984 
Q 2250 4219 1831 4219 
Q 1534 4219 1204 4116 
Q 875 4013 500 3803 
L 500 4441 
Q 881 4594 1212 4672 
Q 1544 4750 1819 4750 
Q 2544 4750 2975 4387 
Q 3406 4025 3406 3419 
Q 3406 3131 3298 2873 
Q 3191 2616 2906 2266 
Q 2828 2175 2409 1742 
Q 1991 1309 1228 531 
z
" transform="scale(0.015625)"/>
       </defs>
       <use xlink:href="#DejaVuSans-32"/>
      </g>
     </g>
    </g>
    <g id="xtick_4">
     <g id="line2d_4">
      <g>
       <use xlink:href="#mf606f0d8f8" x="241.518987" y="320.4" style="stroke: #000000; stroke-width: 0.8"/>
      </g>
     </g>
     <g id="text_4">
      <!-- 3 -->
      <g transform="translate(238.337737 334.998438) scale(0.1 -0.1)">
       <defs>
        <path id="DejaVuSans-33" d="M 2597 2516 
Q 3050 2419 3304 2112 
Q 3559 1806 3559 1356 
Q 3559 666 3084 287 
Q 2609 -91 1734 -91 
Q 1441 -91 1130 -33 
Q 819 25 488 141 
L 488 750 
Q 750 597 1062 519 
Q 1375 441 1716 441 
Q 2309 441 2620 675 
Q 2931 909 2931 1356 
Q 2931 1769 2642 2001 
Q 2353 2234 1838 2234 
L 1294 2234 
L 1294 2753 
L 1863 2753 
Q 2328 2753 2575 2939 
Q 2822 3125 2822 3475 
Q 2822 3834 2567 4026 
Q 2313 4219 1838 4219 
Q 1578 4219 1281 4162 
Q 984 4106 628 3988 
L 628 4550 
Q 988 4650 1302 4700 
Q 1616 4750 1894 4750 
Q 2613 4750 3031 4423 
Q 3450 4097 3450 3541 
Q 3450 3153 3228 2886 
Q 3006 2619 2597 2516 
z
" transform="scale(0.015625)"/>
       </defs>
       <use xlink:href="#DejaVuSans-33"/>
      </g>
     </g>
    </g>
    <g id="xtick_5">
     <g id="line2d_5">
      <g>
       <use xlink:href="#mf606f0d8f8" x="298.025316" y="320.4" style="stroke: #000000; stroke-width: 0.8"/>
      </g>
     </g>
     <g id="text_5">
      <!-- 4 -->
      <g transform="translate(294.844066 334.998438) scale(0.1 -0.1)">
       <defs>
        <path id="DejaVuSans-34" d="M 2419 4116 
L 825 1625 
L 2419 1625 
L 2419 4116 
z
M 2253 4666 
L 3047 4666 
L 3047 1625 
L 3713 1625 
L 3713 1100 
L 3047 1100 
L 3047 0 
L 2419 0 
L 2419 1100 
L 313 1100 
L 313 1709 
L 2253 4666 
z
" transform="scale(0.015625)"/>
       </defs>
       <use xlink:href="#DejaVuSans-34"/>
      </g>
     </g>
    </g>
    <g id="xtick_6">
     <g id="line2d_6">
      <g>
       <use xlink:href="#mf606f0d8f8" x="354.531646" y="320.4" style="stroke: #000000; stroke-width: 0.8"/>
      </g>
     </g>
     <g id="text_6">
      <!-- 5 -->
      <g transform="translate(351.350396 334.998438) scale(0.1 -0.1)">
       <defs>
        <path id="DejaVuSans-35" d="M 691 4666 
L 3169 4666 
L 3169 4134 
L 1269 4134 
L 1269 2991 
Q 1406 3038 1543 3061 
Q 1681 3084 1819 3084 
Q 2600 3084 3056 2656 
Q 3513 2228 3513 1497 
Q 3513 744 3044 326 
Q 2575 -91 1722 -91 
Q 1428 -91 1123 -41 
Q 819 9 494 109 
L 494 744 
Q 775 591 1075 516 
Q 1375 441 1709 441 
Q 2250 441 2565 725 
Q 2881 1009 2881 1497 
Q 2881 1984 2565 2268 
Q 2250 2553 1709 2553 
Q 1456 2553 1204 2497 
Q 953 2441 691 2322 
L 691 4666 
z
" transform="scale(0.015625)"/>
       </defs>
       <use xlink:href="#DejaVuSans-35"/>
      </g>
     </g>
    </g>
    <g id="xtick_7">
     <g id="line2d_7">
      <g>
       <use xlink:href="#mf606f0d8f8" x="411.037975" y="320.4" style="stroke: #000000; stroke-width: 0.8"/>
      </g>
     </g>
     <g id="text_7">
      <!-- 6 -->
      <g transform="translate(407.856725 334.998438) scale(0.1 -0.1)">
       <defs>
        <path id="DejaVuSans-36" d="M 2113 2584 
Q 1688 2584 1439 2293 
Q 1191 2003 1191 1497 
Q 1191 994 1439 701 
Q 1688 409 2113 409 
Q 2538 409 2786 701 
Q 3034 994 3034 1497 
Q 3034 2003 2786 2293 
Q 2538 2584 2113 2584 
z
M 3366 4563 
L 3366 3988 
Q 3128 4100 2886 4159 
Q 2644 4219 2406 4219 
Q 1781 4219 1451 3797 
Q 1122 3375 1075 2522 
Q 1259 2794 1537 2939 
Q 1816 3084 2150 3084 
Q 2853 3084 3261 2657 
Q 3669 2231 3669 1497 
Q 3669 778 3244 343 
Q 2819 -91 2113 -91 
Q 1303 -91 875 529 
Q 447 1150 447 2328 
Q 447 3434 972 4092 
Q 1497 4750 2381 4750 
Q 2619 4750 2861 4703 
Q 3103 4656 3366 4563 
z
" transform="scale(0.015625)"/>
       </defs>
       <use xlink:href="#DejaVuSans-36"/>
      </g>
     </g>
    </g>
    <g id="xtick_8">
     <g id="line2d_8">
      <g>
       <use xlink:href="#mf606f0d8f8" x="467.544304" y="320.4" style="stroke: #000000; stroke-width: 0.8"/>
      </g>
     </g>
     <g id="text_8">
      <!-- 7 -->
      <g transform="translate(464.363054 334.998438) scale(0.1 -0.1)">
       <defs>
        <path id="DejaVuSans-37" d="M 525 4666 
L 3525 4666 
L 3525 4397 
L 1831 0 
L 1172 0 
L 2766 4134 
L 525 4134 
L 525 4666 
z
" transform="scale(0.015625)"/>
       </defs>
       <use xlink:href="#DejaVuSans-37"/>
      </g>
     </g>
    </g>
    <g id="text_9">
     <!-- z (Å) -->
     <g transform="translate(280.204297 352.156563) scale(0.13 -0.13)">
      <defs>
       <path id="DejaVuSans-7a" d="M 353 3500 
L 3084 3500 
L 3084 2975 
L 922 459 
L 3084 459 
L 3084 0 
L 275 0 
L 275 525 
L 2438 3041 
L 353 3041 
L 353 3500 
z
" transform="scale(0.015625)"/>
       <path id="DejaVuSans-20" transform="scale(0.015625)"/>
       <path id="DejaVuSans-28" d="M 1984 4856 
Q 1566 4138 1362 3434 
Q 1159 2731 1159 2009 
Q 1159 1288 1364 580 
Q 1569 -128 1984 -844 
L 1484 -844 
Q 1016 -109 783 600 
Q 550 1309 550 2009 
Q 550 2706 781 3412 
Q 1013 4119 1484 4856 
L 1984 4856 
z
" transform="scale(0.015625)"/>
       <path id="DejaVuSans-c5" d="M 2663 5081 
Q 2663 5278 2523 5417 
Q 2384 5556 2188 5556 
Q 1988 5556 1852 5420 
Q 1716 5284 1716 5081 
Q 1716 4884 1853 4746 
Q 1991 4609 2188 4609 
Q 2384 4609 2523 4746 
Q 2663 4884 2663 5081 
z
M 2188 4044 
L 1338 1722 
L 3041 1722 
L 2188 4044 
z
M 1716 4366 
Q 1525 4494 1428 4673 
Q 1331 4853 1331 5081 
Q 1331 5441 1579 5691 
Q 1828 5941 2188 5941 
Q 2544 5941 2795 5689 
Q 3047 5438 3047 5081 
Q 3047 4863 2948 4678 
Q 2850 4494 2663 4366 
L 4325 0 
L 3669 0 
L 3244 1197 
L 1141 1197 
L 716 0 
L 50 0 
L 1716 4366 
z
" transform="scale(0.015625)"/>
       <path id="DejaVuSans-29" d="M 513 4856 
L 1013 4856 
Q 1481 4119 1714 3412 
Q 1947 2706 1947 2009 
Q 1947 1309 1714 600 
Q 1481 -109 1013 -844 
L 513 -844 
Q 928 -128 1133 580 
Q 1338 1288 1338 2009 
Q 1338 2731 1133 3434 
Q 928 4138 513 4856 
z
" transform="scale(0.015625)"/>
      </defs>
      <use xlink:href="#DejaVuSans-7a"/>
      <use xlink:href="#DejaVuSans-20" transform="translate(52.490234 0)"/>
      <use xlink:href="#DejaVuSans-28" transform="translate(84.277344 0)"/>
      <use xlink:href="#DejaVuSans-c5" transform="translate(123.291016 0)"/>
      <use xlink:href="#DejaVuSans-29" transform="translate(191.699219 0)"/>
     </g>
    </g>
   </g>
   <g id="matplotlib.axis_2">
    <g id="ytick_1">
     <g id="line2d_9">
      <defs>
       <path id="m8e2133a2da" d="M 0 0 
L -3.5 0 
" style="stroke: #000000; stroke-width: 0.8"/>
      </defs>
      <g>
       <use xlink:href="#m8e2133a2da" x="72" y="291.530179" style="stroke: #000000; stroke-width: 0.8"/>
      </g>
     </g>
     <g id="text_10">
      <!-- −40 -->
      <g transform="translate(43.895313 295.329398) scale(0.1 -0.1)">
       <defs>
        <path id="DejaVuSans-2212" d="M 678 2272 
L 4684 2272 
L 4684 1741 
L 678 1741 
L 678 2272 
z
" transform="scale(0.015625)"/>
       </defs>
       <use xlink:href="#DejaVuSans-2212"/>
       <use xlink:href="#DejaVuSans-34" transform="translate(83.789062 0)"/>
       <use xlink:href="#DejaVuSans-30" transform="translate(147.412109 0)"/>
      </g>
     </g>
    </g>
    <g id="ytick_2">
     <g id="line2d_10">
      <g>
       <use xlink:href="#m8e2133a2da" x="72" y="253.687266" style="stroke: #000000; stroke-width: 0.8"/>
      </g>
     </g>
     <g id="text_11">
      <!-- −20 -->
      <g transform="translate(43.895313 257.486485) scale(0.1 -0.1)">
       <use xlink:href="#DejaVuSans-2212"/>
       <use xlink:href="#DejaVuSans-32" transform="translate(83.789062 0)"/>
       <use xlink:href="#DejaVuSans-30" transform="translate(147.412109 0)"/>
      </g>
     </g>
    </g>
    <g id="ytick_3">
     <g id="line2d_11">
      <g>
       <use xlink:href="#m8e2133a2da" x="72" y="215.844353" style="stroke: #000000; stroke-width: 0.8"/>
      </g>
     </g>
     <g id="text_12">
      <!-- 0 -->
      <g transform="translate(58.6375 219.643571) scale(0.1 -0.1)">
       <use xlink:href="#DejaVuSans-30"/>
      </g>
     </g>
    </g>
    <g id="ytick_4">
     <g id="line2d_12">
      <g>
       <use xlink:href="#m8e2133a2da" x="72" y="178.001439" style="stroke: #000000; stroke-width: 0.8"/>
      </g>
     </g>
     <g id="text_13">
      <!-- 20 -->
      <g transform="translate(52.275 181.800658) scale(0.1 -0.1)">
       <use xlink:href="#DejaVuSans-32"/>
       <use xlink:href="#DejaVuSans-30" transform="translate(63.623047 0)"/>
      </g>
     </g>
    </g>
    <g id="ytick_5">
     <g id="line2d_13">
      <g>
       <use xlink:href="#m8e2133a2da" x="72" y="140.158526" style="stroke: #000000; stroke-width: 0.8"/>
      </g>
     </g>
     <g id="text_14">
      <!-- 40 -->
      <g transform="translate(52.275 143.957745) scale(0.1 -0.1)">
       <use xlink:href="#DejaVuSans-34"/>
       <use xlink:href="#DejaVuSans-30" transform="translate(63.623047 0)"/>
      </g>
     </g>
    </g>
    <g id="ytick_6">
     <g id="line2d_14">
      <g>
       <use xlink:href="#m8e2133a2da" x="72" y="102.315612" style="stroke: #000000; stroke-width: 0.8"/>
      </g>
     </g>
     <g id="text_15">
      <!-- 60 -->
      <g transform="translate(52.275 106.114831) scale(0.1 -0.1)">
       <use xlink:href="#DejaVuSans-36"/>
       <use xlink:href="#DejaVuSans-30" transform="translate(63.623047 0)"/>
      </g>
     </g>
    </g>
    <g id="ytick_7">
     <g id="line2d_15">
      <g>
       <use xlink:href="#m8e2133a2da" x="72" y="64.472699" style="stroke: #000000; stroke-width: 0.8"/>
      </g>
     </g>
     <g id="text_16">
      <!-- 80 -->
      <g transform="translate(52.275 68.271918) scale(0.1 -0.1)">
       <defs>
        <path id="DejaVuSans-38" d="M 2034 2216 
Q 1584 2216 1326 1975 
Q 1069 1734 1069 1313 
Q 1069 891 1326 650 
Q 1584 409 2034 409 
Q 2484 409 2743 651 
Q 3003 894 3003 1313 
Q 3003 1734 2745 1975 
Q 2488 2216 2034 2216 
z
M 1403 2484 
Q 997 2584 770 2862 
Q 544 3141 544 3541 
Q 544 4100 942 4425 
Q 1341 4750 2034 4750 
Q 2731 4750 3128 4425 
Q 3525 4100 3525 3541 
Q 3525 3141 3298 2862 
Q 3072 2584 2669 2484 
Q 3125 2378 3379 2068 
Q 3634 1759 3634 1313 
Q 3634 634 3220 271 
Q 2806 -91 2034 -91 
Q 1263 -91 848 271 
Q 434 634 434 1313 
Q 434 1759 690 2068 
Q 947 2378 1403 2484 
z
M 1172 3481 
Q 1172 3119 1398 2916 
Q 1625 2713 2034 2713 
Q 2441 2713 2670 2916 
Q 2900 3119 2900 3481 
Q 2900 3844 2670 4047 
Q 2441 4250 2034 4250 
Q 1625 4250 1398 4047 
Q 1172 3844 1172 3481 
z
" transform="scale(0.015625)"/>
       </defs>
       <use xlink:href="#DejaVuSans-38"/>
       <use xlink:href="#DejaVuSans-30" transform="translate(63.623047 0)"/>
      </g>
     </g>
    </g>
    <g id="text_17">
     <!-- V(4.347,1.165,z) -->
     <g transform="translate(37.191719 236.078047) rotate(-90) scale(0.13 -0.13)">
      <defs>
       <path id="DejaVuSans-56" d="M 1831 0 
L 50 4666 
L 709 4666 
L 2188 738 
L 3669 4666 
L 4325 4666 
L 2547 0 
L 1831 0 
z
" transform="scale(0.015625)"/>
       <path id="DejaVuSans-2e" d="M 684 794 
L 1344 794 
L 1344 0 
L 684 0 
L 684 794 
z
" transform="scale(0.015625)"/>
       <path id="DejaVuSans-2c" d="M 750 794 
L 1409 794 
L 1409 256 
L 897 -744 
L 494 -744 
L 750 256 
L 750 794 
z
" transform="scale(0.015625)"/>
      </defs>
      <use xlink:href="#DejaVuSans-56"/>
      <use xlink:href="#DejaVuSans-28" transform="translate(68.408203 0)"/>
      <use xlink:href="#DejaVuSans-34" transform="translate(107.421875 0)"/>
      <use xlink:href="#DejaVuSans-2e" transform="translate(171.044922 0)"/>
      <use xlink:href="#DejaVuSans-33" transform="translate(202.832031 0)"/>
      <use xlink:href="#DejaVuSans-34" transform="translate(266.455078 0)"/>
      <use xlink:href="#DejaVuSans-37" transform="translate(330.078125 0)"/>
      <use xlink:href="#DejaVuSans-2c" transform="translate(393.701172 0)"/>
      <use xlink:href="#DejaVuSans-31" transform="translate(425.488281 0)"/>
      <use xlink:href="#DejaVuSans-2e" transform="translate(489.111328 0)"/>
      <use xlink:href="#DejaVuSans-31" transform="translate(520.898438 0)"/>
      <use xlink:href="#DejaVuSans-36" transform="translate(584.521484 0)"/>
      <use xlink:href="#DejaVuSans-35" transform="translate(648.144531 0)"/>
      <use xlink:href="#DejaVuSans-2c" transform="translate(711.767578 0)"/>
      <use xlink:href="#DejaVuSans-7a" transform="translate(743.554688 0)"/>
      <use xlink:href="#DejaVuSans-29" transform="translate(796.044922 0)"/>
     </g>
    </g>
   </g>
   <g id="line2d_16">
    <path d="M 72 60.966879 
L 77.70771 66.122648 
L 83.41542 74.993348 
L 89.123131 87.266942 
L 94.83084 102.355163 
L 100.538549 119.542732 
L 106.246261 138.046681 
L 111.95397 157.07068 
L 117.661679 175.875147 
L 123.369388 193.826633 
L 129.077097 210.405436 
L 134.784806 225.204927 
L 140.492522 237.96973 
L 146.200231 248.596897 
L 151.90794 257.076148 
L 157.615649 263.427596 
L 163.323358 267.780405 
L 169.031067 270.452643 
L 174.738777 271.771005 
L 180.446486 271.949678 
L 186.154195 271.142549 
L 191.861904 269.588399 
L 197.569613 267.492013 
L 203.277322 265.003319 
L 208.985044 262.284133 
L 214.692753 259.462488 
L 220.400462 256.60219 
L 226.108172 253.747649 
L 231.815881 250.986722 
L 237.52359 248.399945 
L 243.231299 246.022979 
L 248.939008 243.854672 
L 254.646717 241.878131 
L 260.354426 240.086196 
L 266.062135 238.477757 
L 271.769844 237.038906 
L 277.477553 235.738598 
L 283.185262 234.547233 
L 288.892971 233.450059 
L 294.60068 232.438555 
L 300.308389 231.494972 
L 306.016112 230.602327 
L 311.723807 229.762751 
L 317.43153 228.98427 
L 323.139226 228.255783 
L 328.846948 227.554623 
L 334.554644 226.877013 
L 340.262366 226.242894 
L 345.970089 225.661975 
L 351.677784 225.10705 
L 357.385507 224.538976 
L 363.093202 223.95761 
L 368.800925 223.408582 
L 374.508647 222.928314 
L 380.216343 222.4962 
L 385.924066 222.056899 
L 391.631761 221.584033 
L 397.339484 221.107849 
L 403.047179 220.678417 
L 408.754902 220.313063 
L 414.462597 219.985426 
L 420.17032 219.656578 
L 425.878016 219.308918 
L 431.585738 218.953143 
L 437.293434 218.61028 
L 443.001156 218.292174 
L 448.708852 217.998396 
L 454.416574 217.725414 
L 460.124297 217.473194 
L 465.831992 217.243502 
L 471.539715 217.036541 
L 477.247411 216.851324 
L 482.955133 216.686705 
L 488.662829 216.541521 
L 494.370551 216.414593 
L 500.078247 216.304748 
L 505.785969 216.210823 
L 511.493665 216.131682 
L 517.201387 216.066219 
L 522.909083 216.013364 
L 528.616779 215.972089 
L 534.324501 215.941409 
L 540.032224 215.920386 
L 545.739946 215.90813 
L 551.447669 215.903799 
L 557.155337 215.906601 
L 562.86306 215.915791 
L 568.570782 215.930672 
L 574.278505 215.950594 
L 577 215.962208 
" clip-path="url(#p25cd973b7e)" style="fill: none; stroke: #0000ff; stroke-width: 1.5; stroke-linecap: square"/>
   </g>
   <g id="line2d_17">
    <path d="M 72 216.208153 
L 77.70771 210.692918 
L 83.41542 204.291207 
L 89.123131 197.448508 
L 94.83084 190.871028 
L 100.538549 185.474725 
L 106.246261 182.262212 
L 111.95397 182.138973 
L 117.661679 185.704143 
L 123.369388 193.069424 
L 129.077097 203.763368 
L 134.784806 216.76267 
L 140.492522 230.658857 
L 146.200231 243.927457 
L 151.90794 255.232234 
L 157.615649 263.681717 
L 163.323358 268.967879 
L 169.031067 271.352826 
L 174.738777 271.516697 
L 180.446486 270.32176 
L 186.154195 268.568716 
L 191.861904 266.815509 
L 197.569613 265.300633 
L 203.277322 263.9743 
L 208.985044 262.606842 
L 214.692753 260.925466 
L 220.400462 258.731608 
L 226.108172 255.967742 
L 231.815881 252.725399 
L 237.52359 249.206446 
L 243.231299 245.660826 
L 248.939008 242.324749 
L 254.646717 239.376511 
L 260.354426 236.916549 
L 266.062135 234.969878 
L 271.769844 233.502983 
L 277.477553 232.446655 
L 283.185262 231.717297 
L 288.892971 231.232956 
L 294.60068 230.922734 
L 300.308389 230.730598 
L 306.016112 230.615273 
L 311.723807 230.548072 
L 317.43153 230.51001 
L 323.139226 230.489036 
L 328.846948 230.477768 
L 334.554644 230.471811 
L 340.262366 230.468569 
L 345.970089 230.466425 
L 351.677784 230.464144 
L 357.385507 230.460338 
L 363.093202 230.452885 
L 368.800925 230.438167 
L 374.508647 230.410028 
L 380.216343 230.358451 
L 385.924066 230.26802 
L 391.631761 230.116513 
L 397.339484 229.874142 
L 403.047179 229.50426 
L 408.754902 228.966329 
L 414.462597 228.22186 
L 420.17032 227.243213 
L 425.878016 226.024336 
L 431.585738 224.591157 
L 437.293434 223.008652 
L 443.001156 221.381274 
L 448.708852 219.844676 
L 454.416574 218.548484 
L 460.124297 217.632857 
L 465.831992 217.203646 
L 471.539715 217.312277 
L 477.247411 217.945627 
L 482.955133 219.028636 
L 488.662829 220.438907 
L 494.370551 222.029464 
L 500.078247 223.653716 
L 505.785969 225.186909 
L 511.493665 226.539879 
L 517.201387 227.663773 
L 522.909083 228.546563 
L 528.616779 229.204265 
L 534.324501 229.670074 
L 540.032224 229.984208 
L 545.739946 230.186181 
L 551.447669 230.310108 
L 557.155337 230.382734 
L 562.86306 230.423409 
L 568.570782 230.445192 
L 574.278505 230.456351 
L 577 230.458959 
" clip-path="url(#p25cd973b7e)" style="fill: none; stroke: #ff0000; stroke-width: 1.5; stroke-linecap: square"/>
   </g>
   <g id="patch_3">
    <path d="M 72 320.4 
L 72 43.2 
" style="fill: none; stroke: #000000; stroke-width: 0.8; stroke-linejoin: miter; stroke-linecap: square"/>
   </g>
   <g id="patch_4">
    <path d="M 518.4 320.4 
L 518.4 43.2 
" style="fill: none; stroke: #000000; stroke-width: 0.8; stroke-linejoin: miter; stroke-linecap: square"/>
   </g>
   <g id="patch_5">
    <path d="M 72 320.4 
L 518.4 320.4 
" style="fill: none; stroke: #000000; stroke-width: 0.8; stroke-linejoin: miter; stroke-linecap: square"/>
   </g>
   <g id="patch_6">
    <path d="M 72 43.2 
L 518.4 43.2 
" style="fill: none; stroke: #000000; stroke-width: 0.8; stroke-linejoin: miter; stroke-linecap: square"/>
   </g>
   <g id="legend_1">
    <g id="patch_7">
     <path d="M 371.935937 109.9125 
L 511.4 109.9125 
Q 513.4 109.9125 513.4 107.9125 
L 513.4 50.2 
Q 513.4 48.2 511.4 48.2 
L 371.935937 48.2 
Q 369.935937 48.2 369.935937 50.2 
L 369.935937 107.9125 
Q 369.935937 109.9125 371.935937 109.9125 
z
" style="fill: #ffffff; opacity: 0.8; stroke: #cccccc; stroke-linejoin: miter"/>
    </g>
    <g id="line2d_18">
     <path d="M 373.935937 56.298437 
L 383.935937 56.298437 
L 393.935937 56.298437 
" style="fill: none; stroke: #0000ff; stroke-width: 1.5; stroke-linecap: square"/>
    </g>
    <g id="text_18">
     <!-- Predicted HF Mean -->
     <g transform="translate(401.935937 59.798437) scale(0.1 -0.1)">
      <defs>
       <path id="DejaVuSans-50" d="M 1259 4147 
L 1259 2394 
L 2053 2394 
Q 2494 2394 2734 2622 
Q 2975 2850 2975 3272 
Q 2975 3691 2734 3919 
Q 2494 4147 2053 4147 
L 1259 4147 
z
M 628 4666 
L 2053 4666 
Q 2838 4666 3239 4311 
Q 3641 3956 3641 3272 
Q 3641 2581 3239 2228 
Q 2838 1875 2053 1875 
L 1259 1875 
L 1259 0 
L 628 0 
L 628 4666 
z
" transform="scale(0.015625)"/>
       <path id="DejaVuSans-72" d="M 2631 2963 
Q 2534 3019 2420 3045 
Q 2306 3072 2169 3072 
Q 1681 3072 1420 2755 
Q 1159 2438 1159 1844 
L 1159 0 
L 581 0 
L 581 3500 
L 1159 3500 
L 1159 2956 
Q 1341 3275 1631 3429 
Q 1922 3584 2338 3584 
Q 2397 3584 2469 3576 
Q 2541 3569 2628 3553 
L 2631 2963 
z
" transform="scale(0.015625)"/>
       <path id="DejaVuSans-65" d="M 3597 1894 
L 3597 1613 
L 953 1613 
Q 991 1019 1311 708 
Q 1631 397 2203 397 
Q 2534 397 2845 478 
Q 3156 559 3463 722 
L 3463 178 
Q 3153 47 2828 -22 
Q 2503 -91 2169 -91 
Q 1331 -91 842 396 
Q 353 884 353 1716 
Q 353 2575 817 3079 
Q 1281 3584 2069 3584 
Q 2775 3584 3186 3129 
Q 3597 2675 3597 1894 
z
M 3022 2063 
Q 3016 2534 2758 2815 
Q 2500 3097 2075 3097 
Q 1594 3097 1305 2825 
Q 1016 2553 972 2059 
L 3022 2063 
z
" transform="scale(0.015625)"/>
       <path id="DejaVuSans-64" d="M 2906 2969 
L 2906 4863 
L 3481 4863 
L 3481 0 
L 2906 0 
L 2906 525 
Q 2725 213 2448 61 
Q 2172 -91 1784 -91 
Q 1150 -91 751 415 
Q 353 922 353 1747 
Q 353 2572 751 3078 
Q 1150 3584 1784 3584 
Q 2172 3584 2448 3432 
Q 2725 3281 2906 2969 
z
M 947 1747 
Q 947 1113 1208 752 
Q 1469 391 1925 391 
Q 2381 391 2643 752 
Q 2906 1113 2906 1747 
Q 2906 2381 2643 2742 
Q 2381 3103 1925 3103 
Q 1469 3103 1208 2742 
Q 947 2381 947 1747 
z
" transform="scale(0.015625)"/>
       <path id="DejaVuSans-69" d="M 603 3500 
L 1178 3500 
L 1178 0 
L 603 0 
L 603 3500 
z
M 603 4863 
L 1178 4863 
L 1178 4134 
L 603 4134 
L 603 4863 
z
" transform="scale(0.015625)"/>
       <path id="DejaVuSans-63" d="M 3122 3366 
L 3122 2828 
Q 2878 2963 2633 3030 
Q 2388 3097 2138 3097 
Q 1578 3097 1268 2742 
Q 959 2388 959 1747 
Q 959 1106 1268 751 
Q 1578 397 2138 397 
Q 2388 397 2633 464 
Q 2878 531 3122 666 
L 3122 134 
Q 2881 22 2623 -34 
Q 2366 -91 2075 -91 
Q 1284 -91 818 406 
Q 353 903 353 1747 
Q 353 2603 823 3093 
Q 1294 3584 2113 3584 
Q 2378 3584 2631 3529 
Q 2884 3475 3122 3366 
z
" transform="scale(0.015625)"/>
       <path id="DejaVuSans-74" d="M 1172 4494 
L 1172 3500 
L 2356 3500 
L 2356 3053 
L 1172 3053 
L 1172 1153 
Q 1172 725 1289 603 
Q 1406 481 1766 481 
L 2356 481 
L 2356 0 
L 1766 0 
Q 1100 0 847 248 
Q 594 497 594 1153 
L 594 3053 
L 172 3053 
L 172 3500 
L 594 3500 
L 594 4494 
L 1172 4494 
z
" transform="scale(0.015625)"/>
       <path id="DejaVuSans-48" d="M 628 4666 
L 1259 4666 
L 1259 2753 
L 3553 2753 
L 3553 4666 
L 4184 4666 
L 4184 0 
L 3553 0 
L 3553 2222 
L 1259 2222 
L 1259 0 
L 628 0 
L 628 4666 
z
" transform="scale(0.015625)"/>
       <path id="DejaVuSans-46" d="M 628 4666 
L 3309 4666 
L 3309 4134 
L 1259 4134 
L 1259 2759 
L 3109 2759 
L 3109 2228 
L 1259 2228 
L 1259 0 
L 628 0 
L 628 4666 
z
" transform="scale(0.015625)"/>
       <path id="DejaVuSans-4d" d="M 628 4666 
L 1569 4666 
L 2759 1491 
L 3956 4666 
L 4897 4666 
L 4897 0 
L 4281 0 
L 4281 4097 
L 3078 897 
L 2444 897 
L 1241 4097 
L 1241 0 
L 628 0 
L 628 4666 
z
" transform="scale(0.015625)"/>
       <path id="DejaVuSans-61" d="M 2194 1759 
Q 1497 1759 1228 1600 
Q 959 1441 959 1056 
Q 959 750 1161 570 
Q 1363 391 1709 391 
Q 2188 391 2477 730 
Q 2766 1069 2766 1631 
L 2766 1759 
L 2194 1759 
z
M 3341 1997 
L 3341 0 
L 2766 0 
L 2766 531 
Q 2569 213 2275 61 
Q 1981 -91 1556 -91 
Q 1019 -91 701 211 
Q 384 513 384 1019 
Q 384 1609 779 1909 
Q 1175 2209 1959 2209 
L 2766 2209 
L 2766 2266 
Q 2766 2663 2505 2880 
Q 2244 3097 1772 3097 
Q 1472 3097 1187 3025 
Q 903 2953 641 2809 
L 641 3341 
Q 956 3463 1253 3523 
Q 1550 3584 1831 3584 
Q 2591 3584 2966 3190 
Q 3341 2797 3341 1997 
z
" transform="scale(0.015625)"/>
       <path id="DejaVuSans-6e" d="M 3513 2113 
L 3513 0 
L 2938 0 
L 2938 2094 
Q 2938 2591 2744 2837 
Q 2550 3084 2163 3084 
Q 1697 3084 1428 2787 
Q 1159 2491 1159 1978 
L 1159 0 
L 581 0 
L 581 3500 
L 1159 3500 
L 1159 2956 
Q 1366 3272 1645 3428 
Q 1925 3584 2291 3584 
Q 2894 3584 3203 3211 
Q 3513 2838 3513 2113 
z
" transform="scale(0.015625)"/>
      </defs>
      <use xlink:href="#DejaVuSans-50"/>
      <use xlink:href="#DejaVuSans-72" transform="translate(58.552734 0)"/>
      <use xlink:href="#DejaVuSans-65" transform="translate(97.416016 0)"/>
      <use xlink:href="#DejaVuSans-64" transform="translate(158.939453 0)"/>
      <use xlink:href="#DejaVuSans-69" transform="translate(222.416016 0)"/>
      <use xlink:href="#DejaVuSans-63" transform="translate(250.199219 0)"/>
      <use xlink:href="#DejaVuSans-74" transform="translate(305.179688 0)"/>
      <use xlink:href="#DejaVuSans-65" transform="translate(344.388672 0)"/>
      <use xlink:href="#DejaVuSans-64" transform="translate(405.912109 0)"/>
      <use xlink:href="#DejaVuSans-20" transform="translate(469.388672 0)"/>
      <use xlink:href="#DejaVuSans-48" transform="translate(501.175781 0)"/>
      <use xlink:href="#DejaVuSans-46" transform="translate(576.371094 0)"/>
      <use xlink:href="#DejaVuSans-20" transform="translate(633.890625 0)"/>
      <use xlink:href="#DejaVuSans-4d" transform="translate(665.677734 0)"/>
      <use xlink:href="#DejaVuSans-65" transform="translate(751.957031 0)"/>
      <use xlink:href="#DejaVuSans-61" transform="translate(813.480469 0)"/>
      <use xlink:href="#DejaVuSans-6e" transform="translate(874.759766 0)"/>
     </g>
    </g>
    <g id="PathCollection_3">
     <g>
      <use xlink:href="#m8a3f69b670" x="383.935937" y="71.851562" style="fill: #0000ff; stroke: #0000ff"/>
     </g>
    </g>
    <g id="text_19">
     <!-- HF CCSD(T)/CBS data -->
     <g transform="translate(401.935937 74.476562) scale(0.1 -0.1)">
      <defs>
       <path id="DejaVuSans-43" d="M 4122 4306 
L 4122 3641 
Q 3803 3938 3442 4084 
Q 3081 4231 2675 4231 
Q 1875 4231 1450 3742 
Q 1025 3253 1025 2328 
Q 1025 1406 1450 917 
Q 1875 428 2675 428 
Q 3081 428 3442 575 
Q 3803 722 4122 1019 
L 4122 359 
Q 3791 134 3420 21 
Q 3050 -91 2638 -91 
Q 1578 -91 968 557 
Q 359 1206 359 2328 
Q 359 3453 968 4101 
Q 1578 4750 2638 4750 
Q 3056 4750 3426 4639 
Q 3797 4528 4122 4306 
z
" transform="scale(0.015625)"/>
       <path id="DejaVuSans-53" d="M 3425 4513 
L 3425 3897 
Q 3066 4069 2747 4153 
Q 2428 4238 2131 4238 
Q 1616 4238 1336 4038 
Q 1056 3838 1056 3469 
Q 1056 3159 1242 3001 
Q 1428 2844 1947 2747 
L 2328 2669 
Q 3034 2534 3370 2195 
Q 3706 1856 3706 1288 
Q 3706 609 3251 259 
Q 2797 -91 1919 -91 
Q 1588 -91 1214 -16 
Q 841 59 441 206 
L 441 856 
Q 825 641 1194 531 
Q 1563 422 1919 422 
Q 2459 422 2753 634 
Q 3047 847 3047 1241 
Q 3047 1584 2836 1778 
Q 2625 1972 2144 2069 
L 1759 2144 
Q 1053 2284 737 2584 
Q 422 2884 422 3419 
Q 422 4038 858 4394 
Q 1294 4750 2059 4750 
Q 2388 4750 2728 4690 
Q 3069 4631 3425 4513 
z
" transform="scale(0.015625)"/>
       <path id="DejaVuSans-44" d="M 1259 4147 
L 1259 519 
L 2022 519 
Q 2988 519 3436 956 
Q 3884 1394 3884 2338 
Q 3884 3275 3436 3711 
Q 2988 4147 2022 4147 
L 1259 4147 
z
M 628 4666 
L 1925 4666 
Q 3281 4666 3915 4102 
Q 4550 3538 4550 2338 
Q 4550 1131 3912 565 
Q 3275 0 1925 0 
L 628 0 
L 628 4666 
z
" transform="scale(0.015625)"/>
       <path id="DejaVuSans-54" d="M -19 4666 
L 3928 4666 
L 3928 4134 
L 2272 4134 
L 2272 0 
L 1638 0 
L 1638 4134 
L -19 4134 
L -19 4666 
z
" transform="scale(0.015625)"/>
       <path id="DejaVuSans-2f" d="M 1625 4666 
L 2156 4666 
L 531 -594 
L 0 -594 
L 1625 4666 
z
" transform="scale(0.015625)"/>
       <path id="DejaVuSans-42" d="M 1259 2228 
L 1259 519 
L 2272 519 
Q 2781 519 3026 730 
Q 3272 941 3272 1375 
Q 3272 1813 3026 2020 
Q 2781 2228 2272 2228 
L 1259 2228 
z
M 1259 4147 
L 1259 2741 
L 2194 2741 
Q 2656 2741 2882 2914 
Q 3109 3088 3109 3444 
Q 3109 3797 2882 3972 
Q 2656 4147 2194 4147 
L 1259 4147 
z
M 628 4666 
L 2241 4666 
Q 2963 4666 3353 4366 
Q 3744 4066 3744 3513 
Q 3744 3084 3544 2831 
Q 3344 2578 2956 2516 
Q 3422 2416 3680 2098 
Q 3938 1781 3938 1306 
Q 3938 681 3513 340 
Q 3088 0 2303 0 
L 628 0 
L 628 4666 
z
" transform="scale(0.015625)"/>
      </defs>
      <use xlink:href="#DejaVuSans-48"/>
      <use xlink:href="#DejaVuSans-46" transform="translate(75.195312 0)"/>
      <use xlink:href="#DejaVuSans-20" transform="translate(132.714844 0)"/>
      <use xlink:href="#DejaVuSans-43" transform="translate(164.501953 0)"/>
      <use xlink:href="#DejaVuSans-43" transform="translate(234.326172 0)"/>
      <use xlink:href="#DejaVuSans-53" transform="translate(304.150391 0)"/>
      <use xlink:href="#DejaVuSans-44" transform="translate(367.626953 0)"/>
      <use xlink:href="#DejaVuSans-28" transform="translate(444.628906 0)"/>
      <use xlink:href="#DejaVuSans-54" transform="translate(483.642578 0)"/>
      <use xlink:href="#DejaVuSans-29" transform="translate(544.726562 0)"/>
      <use xlink:href="#DejaVuSans-2f" transform="translate(583.740234 0)"/>
      <use xlink:href="#DejaVuSans-43" transform="translate(617.431641 0)"/>
      <use xlink:href="#DejaVuSans-42" transform="translate(687.255859 0)"/>
      <use xlink:href="#DejaVuSans-53" transform="translate(754.109375 0)"/>
      <use xlink:href="#DejaVuSans-20" transform="translate(817.585938 0)"/>
      <use xlink:href="#DejaVuSans-64" transform="translate(849.373047 0)"/>
      <use xlink:href="#DejaVuSans-61" transform="translate(912.849609 0)"/>
      <use xlink:href="#DejaVuSans-74" transform="translate(974.128906 0)"/>
      <use xlink:href="#DejaVuSans-61" transform="translate(1013.337891 0)"/>
     </g>
    </g>
    <g id="PathCollection_4">
     <g>
      <use xlink:href="#m14a523f9c0" x="383.935937" y="86.529687" style="fill: #00bfbf; stroke: #00bfbf; stroke-width: 1.5"/>
     </g>
    </g>
    <g id="text_20">
     <!-- LF DFT data -->
     <g transform="translate(401.935937 89.154687) scale(0.1 -0.1)">
      <defs>
       <path id="DejaVuSans-4c" d="M 628 4666 
L 1259 4666 
L 1259 531 
L 3531 531 
L 3531 0 
L 628 0 
L 628 4666 
z
" transform="scale(0.015625)"/>
      </defs>
      <use xlink:href="#DejaVuSans-4c"/>
      <use xlink:href="#DejaVuSans-46" transform="translate(55.712891 0)"/>
      <use xlink:href="#DejaVuSans-20" transform="translate(113.232422 0)"/>
      <use xlink:href="#DejaVuSans-44" transform="translate(145.019531 0)"/>
      <use xlink:href="#DejaVuSans-46" transform="translate(222.021484 0)"/>
      <use xlink:href="#DejaVuSans-54" transform="translate(277.791016 0)"/>
      <use xlink:href="#DejaVuSans-20" transform="translate(338.875 0)"/>
      <use xlink:href="#DejaVuSans-64" transform="translate(370.662109 0)"/>
      <use xlink:href="#DejaVuSans-61" transform="translate(434.138672 0)"/>
      <use xlink:href="#DejaVuSans-74" transform="translate(495.417969 0)"/>
      <use xlink:href="#DejaVuSans-61" transform="translate(534.626953 0)"/>
     </g>
    </g>
    <g id="line2d_19">
     <path d="M 373.935937 100.332812 
L 383.935937 100.332812 
L 393.935937 100.332812 
" style="fill: none; stroke: #ff0000; stroke-width: 1.5; stroke-linecap: square"/>
    </g>
    <g id="text_21">
     <!-- Standard GP -->
     <g transform="translate(401.935937 103.832812) scale(0.1 -0.1)">
      <defs>
       <path id="DejaVuSans-47" d="M 3809 666 
L 3809 1919 
L 2778 1919 
L 2778 2438 
L 4434 2438 
L 4434 434 
Q 4069 175 3628 42 
Q 3188 -91 2688 -91 
Q 1594 -91 976 548 
Q 359 1188 359 2328 
Q 359 3472 976 4111 
Q 1594 4750 2688 4750 
Q 3144 4750 3555 4637 
Q 3966 4525 4313 4306 
L 4313 3634 
Q 3963 3931 3569 4081 
Q 3175 4231 2741 4231 
Q 1884 4231 1454 3753 
Q 1025 3275 1025 2328 
Q 1025 1384 1454 906 
Q 1884 428 2741 428 
Q 3075 428 3337 486 
Q 3600 544 3809 666 
z
" transform="scale(0.015625)"/>
      </defs>
      <use xlink:href="#DejaVuSans-53"/>
      <use xlink:href="#DejaVuSans-74" transform="translate(63.476562 0)"/>
      <use xlink:href="#DejaVuSans-61" transform="translate(102.685547 0)"/>
      <use xlink:href="#DejaVuSans-6e" transform="translate(163.964844 0)"/>
      <use xlink:href="#DejaVuSans-64" transform="translate(227.34375 0)"/>
      <use xlink:href="#DejaVuSans-61" transform="translate(290.820312 0)"/>
      <use xlink:href="#DejaVuSans-72" transform="translate(352.099609 0)"/>
      <use xlink:href="#DejaVuSans-64" transform="translate(391.462891 0)"/>
      <use xlink:href="#DejaVuSans-20" transform="translate(454.939453 0)"/>
      <use xlink:href="#DejaVuSans-47" transform="translate(486.726562 0)"/>
      <use xlink:href="#DejaVuSans-50" transform="translate(564.216797 0)"/>
     </g>
    </g>
   </g>
  </g>
  <g id="patch_8">
   <path d="M 192.96 198 
L 336.96 198 
L 336.96 54 
L 192.96 54 
z
" style="fill: #ffffff"/>
  </g>
  <g id="axes_2">
   <g id="line2d_20">
    <path d="M 221.393106 140.560868 
L 207.021047 140.560868 
" clip-path="url(#p0d0f16c0b9)" style="fill: none; stroke: #e6e6fa; stroke-width: 1.5; stroke-linecap: square"/>
    <defs>
     <path id="mea904b31ec" d="M 0 3 
C 0.795609 3 1.55874 2.683901 2.12132 2.12132 
C 2.683901 1.55874 3 0.795609 3 0 
C 3 -0.795609 2.683901 -1.55874 2.12132 -2.12132 
C 1.55874 -2.683901 0.795609 -3 0 -3 
C -0.795609 -3 -1.55874 -2.683901 -2.12132 -2.12132 
C -2.683901 -1.55874 -3 -0.795609 -3 0 
C -3 0.795609 -2.683901 1.55874 -2.12132 2.12132 
C -1.55874 2.683901 -0.795609 3 0 3 
z
" style="stroke: #e6e6fa"/>
    </defs>
    <g clip-path="url(#p0d0f16c0b9)">
     <use xlink:href="#mea904b31ec" x="221.393106" y="140.560868" style="fill: #e6e6fa; stroke: #e6e6fa"/>
     <use xlink:href="#mea904b31ec" x="207.021047" y="140.560868" style="fill: #e6e6fa; stroke: #e6e6fa"/>
    </g>
   </g>
   <g id="line2d_21">
    <path d="M 231.240554 132.432404 
L 224.753443 126.287309 
" clip-path="url(#p0d0f16c0b9)" style="fill: none; stroke: #e6e6fa; stroke-width: 1.5; stroke-linecap: square"/>
    <g clip-path="url(#p0d0f16c0b9)">
     <use xlink:href="#mea904b31ec" x="231.240554" y="132.432404" style="fill: #e6e6fa; stroke: #e6e6fa"/>
     <use xlink:href="#mea904b31ec" x="224.753443" y="126.287309" style="fill: #e6e6fa; stroke: #e6e6fa"/>
    </g>
   </g>
   <g id="line2d_22">
    <path d="M 249.347357 132.432404 
L 256.548936 126.287308 
" clip-path="url(#p0d0f16c0b9)" style="fill: none; stroke: #e6e6fa; stroke-width: 1.5; stroke-linecap: square"/>
    <g clip-path="url(#p0d0f16c0b9)">
     <use xlink:href="#mea904b31ec" x="249.347357" y="132.432404" style="fill: #e6e6fa; stroke: #e6e6fa"/>
     <use xlink:href="#mea904b31ec" x="256.548936" y="126.287308" style="fill: #e6e6fa; stroke: #e6e6fa"/>
    </g>
   </g>
   <g id="line2d_23">
    <path d="M 258.249735 140.560868 
L 272.621795 140.560868 
" clip-path="url(#p0d0f16c0b9)" style="fill: none; stroke: #e6e6fa; stroke-width: 1.5; stroke-linecap: square"/>
    <g clip-path="url(#p0d0f16c0b9)">
     <use xlink:href="#mea904b31ec" x="258.249735" y="140.560868" style="fill: #e6e6fa; stroke: #e6e6fa"/>
     <use xlink:href="#mea904b31ec" x="272.621795" y="140.560868" style="fill: #e6e6fa; stroke: #e6e6fa"/>
    </g>
   </g>
   <g id="line2d_24">
    <path d="M 248.712527 148.983216 
L 255.872914 155.766091 
" clip-path="url(#p0d0f16c0b9)" style="fill: none; stroke: #e6e6fa; stroke-width: 1.5; stroke-linecap: square"/>
    <g clip-path="url(#p0d0f16c0b9)">
     <use xlink:href="#mea904b31ec" x="248.712527" y="148.983216" style="fill: #e6e6fa; stroke: #e6e6fa"/>
     <use xlink:href="#mea904b31ec" x="255.872914" y="155.766091" style="fill: #e6e6fa; stroke: #e6e6fa"/>
    </g>
   </g>
   <g id="line2d_25">
    <path d="M 229.951075 148.983217 
L 222.002067 155.766091 
" clip-path="url(#p0d0f16c0b9)" style="fill: none; stroke: #e6e6fa; stroke-width: 1.5; stroke-linecap: square"/>
    <g clip-path="url(#p0d0f16c0b9)">
     <use xlink:href="#mea904b31ec" x="229.951075" y="148.983217" style="fill: #e6e6fa; stroke: #e6e6fa"/>
     <use xlink:href="#mea904b31ec" x="222.002067" y="155.766091" style="fill: #e6e6fa; stroke: #e6e6fa"/>
    </g>
   </g>
   <g id="line2d_26">
    <path d="M 221.393106 140.560868 
L 231.240554 132.432404 
" clip-path="url(#p0d0f16c0b9)" style="fill: none; stroke: #000000; stroke-width: 1.5; stroke-linecap: square"/>
    <defs>
     <path id="m4a57c02f3a" d="M 0 3 
C 0.795609 3 1.55874 2.683901 2.12132 2.12132 
C 2.683901 1.55874 3 0.795609 3 0 
C 3 -0.795609 2.683901 -1.55874 2.12132 -2.12132 
C 1.55874 -2.683901 0.795609 -3 0 -3 
C -0.795609 -3 -1.55874 -2.683901 -2.12132 -2.12132 
C -2.683901 -1.55874 -3 -0.795609 -3 0 
C -3 0.795609 -2.683901 1.55874 -2.12132 2.12132 
C -1.55874 2.683901 -0.795609 3 0 3 
z
" style="stroke: #000000"/>
    </defs>
    <g clip-path="url(#p0d0f16c0b9)">
     <use xlink:href="#m4a57c02f3a" x="221.393106" y="140.560868" style="stroke: #000000"/>
     <use xlink:href="#m4a57c02f3a" x="231.240554" y="132.432404" style="stroke: #000000"/>
    </g>
   </g>
   <g id="line2d_27">
    <path d="M 231.240554 132.432404 
L 249.347357 132.432404 
" clip-path="url(#p0d0f16c0b9)" style="fill: none; stroke: #000000; stroke-width: 1.5; stroke-linecap: square"/>
    <g clip-path="url(#p0d0f16c0b9)">
     <use xlink:href="#m4a57c02f3a" x="231.240554" y="132.432404" style="stroke: #000000"/>
     <use xlink:href="#m4a57c02f3a" x="249.347357" y="132.432404" style="stroke: #000000"/>
    </g>
   </g>
   <g id="line2d_28">
    <path d="M 249.347357 132.432404 
L 258.249735 140.560868 
" clip-path="url(#p0d0f16c0b9)" style="fill: none; stroke: #000000; stroke-width: 1.5; stroke-linecap: square"/>
    <g clip-path="url(#p0d0f16c0b9)">
     <use xlink:href="#m4a57c02f3a" x="249.347357" y="132.432404" style="stroke: #000000"/>
     <use xlink:href="#m4a57c02f3a" x="258.249735" y="140.560868" style="stroke: #000000"/>
    </g>
   </g>
   <g id="line2d_29">
    <path d="M 258.249735 140.560868 
L 248.712527 148.983216 
" clip-path="url(#p0d0f16c0b9)" style="fill: none; stroke: #000000; stroke-width: 1.5; stroke-linecap: square"/>
    <g clip-path="url(#p0d0f16c0b9)">
     <use xlink:href="#m4a57c02f3a" x="258.249735" y="140.560868" style="stroke: #000000"/>
     <use xlink:href="#m4a57c02f3a" x="248.712527" y="148.983216" style="stroke: #000000"/>
    </g>
   </g>
   <g id="line2d_30">
    <path d="M 248.712527 148.983216 
L 229.951075 148.983217 
" clip-path="url(#p0d0f16c0b9)" style="fill: none; stroke: #000000; stroke-width: 1.5; stroke-linecap: square"/>
    <g clip-path="url(#p0d0f16c0b9)">
     <use xlink:href="#m4a57c02f3a" x="248.712527" y="148.983216" style="stroke: #000000"/>
     <use xlink:href="#m4a57c02f3a" x="229.951075" y="148.983217" style="stroke: #000000"/>
    </g>
   </g>
   <g id="line2d_31">
    <path d="M 229.951075 148.983217 
L 221.393106 140.560868 
" clip-path="url(#p0d0f16c0b9)" style="fill: none; stroke: #000000; stroke-width: 1.5; stroke-linecap: square"/>
    <g clip-path="url(#p0d0f16c0b9)">
     <use xlink:href="#m4a57c02f3a" x="229.951075" y="148.983217" style="stroke: #000000"/>
     <use xlink:href="#m4a57c02f3a" x="221.393106" y="140.560868" style="stroke: #000000"/>
    </g>
   </g>
   <g id="line2d_32">
    <path d="M 298.208645 158.344304 
L 185.575318 124.038725 
" clip-path="url(#p0d0f16c0b9)" style="fill: none; stroke: #000000; stroke-linecap: square"/>
   </g>
   <g id="line2d_33">
    <path d="M 272.509964 112.667791 
L 202.686426 172.248094 
" clip-path="url(#p0d0f16c0b9)" style="fill: none; stroke: #000000; stroke-linecap: square"/>
   </g>
   <g id="line2d_34">
    <path d="M 238.93067 96.764705 
L 240.657197 181.654099 
" clip-path="url(#p0d0f16c0b9)" style="fill: none; stroke: #000000; stroke-linecap: square"/>
   </g>
   <g id="Line3DCollection_1">
    <path d="M 298.528697 117.968745 
L 297.811593 148.679435 
" clip-path="url(#p0d0f16c0b9)" style="fill: none; stroke: #0000ff; stroke-width: 1.5"/>
    <path d="M 298.528697 117.968745 
L 295.042424 126.080858 
" clip-path="url(#p0d0f16c0b9)" style="fill: none; stroke: #0000ff; stroke-width: 1.5"/>
    <path d="M 298.528697 117.968745 
L 301.606129 127.950392 
" clip-path="url(#p0d0f16c0b9)" style="fill: none; stroke: #0000ff; stroke-width: 1.5"/>
   </g>
   <g id="text_22">
    <!-- x -->
    <g transform="translate(300.636986 159.083923) scale(0.06 -0.06)">
     <defs>
      <path id="DejaVuSans-78" d="M 3513 3500 
L 2247 1797 
L 3578 0 
L 2900 0 
L 1881 1375 
L 863 0 
L 184 0 
L 1544 1831 
L 300 3500 
L 978 3500 
L 1906 2253 
L 2834 3500 
L 3513 3500 
z
" transform="scale(0.015625)"/>
     </defs>
     <use xlink:href="#DejaVuSans-78"/>
    </g>
   </g>
   <g id="text_23">
    <!-- y -->
    <g transform="translate(274.67309 113.274228) scale(0.06 -0.06)">
     <defs>
      <path id="DejaVuSans-79" d="M 2059 -325 
Q 1816 -950 1584 -1140 
Q 1353 -1331 966 -1331 
L 506 -1331 
L 506 -850 
L 844 -850 
Q 1081 -850 1212 -737 
Q 1344 -625 1503 -206 
L 1606 56 
L 191 3500 
L 800 3500 
L 1894 763 
L 2988 3500 
L 3597 3500 
L 2059 -325 
z
" transform="scale(0.015625)"/>
     </defs>
     <use xlink:href="#DejaVuSans-79"/>
    </g>
   </g>
   <g id="text_24">
    <!-- z -->
    <g transform="translate(241.256456 97.406872) scale(0.06 -0.06)">
     <use xlink:href="#DejaVuSans-7a"/>
    </g>
   </g>
  </g>
 </g>
 <defs>
  <clipPath id="p25cd973b7e">
   <rect x="72" y="43.2" width="446.4" height="277.2"/>
  </clipPath>
  <clipPath id="p0d0f16c0b9">
   <rect x="192.96" y="54" width="144" height="144"/>
  </clipPath>
 </defs>
</svg>
