<?xml version="1.0" encoding="utf-8" standalone="no"?>
<!DOCTYPE svg PUBLIC "-//W3C//DTD SVG 1.1//EN"
  "http://www.w3.org/Graphics/SVG/1.1/DTD/svg11.dtd">
<svg xmlns:xlink="http://www.w3.org/1999/xlink" width="625.875875pt" height="388.43805pt" viewBox="0 0 625.875875 388.43805" xmlns="http://www.w3.org/2000/svg" version="1.1">
 <metadata>
  <rdf:RDF xmlns:dc="http://purl.org/dc/elements/1.1/" xmlns:cc="http://creativecommons.org/ns#" xmlns:rdf="http://www.w3.org/1999/02/22-rdf-syntax-ns#">
   <cc:Work>
    <dc:type rdf:resource="http://purl.org/dc/dcmitype/StillImage"/>
    <dc:date>2025-12-19T08:47:42.953408</dc:date>
    <dc:format>image/svg+xml</dc:format>
    <dc:creator>
     <cc:Agent>
      <dc:title>Matplotlib v3.10.8, https://matplotlib.org/</dc:title>
     </cc:Agent>
    </dc:creator>
   </cc:Work>
  </rdf:RDF>
 </metadata>
 <defs>
  <style type="text/css">*{stroke-linejoin: round; stroke-linecap: butt}</style>
 </defs>
 <g id="figure_1">
  <g id="patch_1">
   <path d="M 0 388.43805 
L 625.875875 388.43805 
L 625.875875 0 
L 0 0 
z
" style="fill: #ffffff"/>
  </g>
  <g id="axes_1">
   <g id="patch_2">
    <path d="M 60.675875 346.4928 
L 618.675875 346.4928 
L 618.675875 13.8528 
L 60.675875 13.8528 
z
" style="fill: #ffffff"/>
   </g>
   <g id="patch_3">
    <path d="M 322.766784 120.2976 
L 356.584966 120.2976 
L 356.584966 80.3808 
L 322.766784 80.3808 
L 322.766784 120.2976 
z
" clip-path="url(#pb58283f0ef)" style="fill: none; stroke: #808080; stroke-linejoin: miter"/>
   </g>
   <g id="matplotlib.axis_1">
    <g id="xtick_1">
     <g id="line2d_1">
      <path d="M 86.039511 346.4928 
L 86.039511 13.8528 
" clip-path="url(#pb58283f0ef)" style="fill: none; stroke-dasharray: 2.96,1.28; stroke-dashoffset: 0; stroke: #b0b0b0; stroke-opacity: 0.3; stroke-width: 0.8"/>
     </g>
     <g id="line2d_2">
      <defs>
       <path id="m2e3008c3db" d="M 0 0 
L 0 3.5 
" style="stroke: #000000; stroke-width: 0.8"/>
      </defs>
      <g>
       <use xlink:href="#m2e3008c3db" x="86.039511" y="346.4928" style="stroke: #000000; stroke-width: 0.8"/>
      </g>
     </g>
     <g id="text_1">
      <!-- 0.0 -->
      <g transform="translate(77.769886 361.395175) scale(0.104 -0.104)">
       <defs>
        <path id="DejaVuSans-30" d="M 2034 4250 
Q 1547 4250 1301 3770 
Q 1056 3291 1056 2328 
Q 1056 1369 1301 889 
Q 1547 409 2034 409 
Q 2525 409 2770 889 
Q 3016 1369 3016 2328 
Q 3016 3291 2770 3770 
Q 2525 4250 2034 4250 
z
M 2034 4750 
Q 2819 4750 3233 4129 
Q 3647 3509 3647 2328 
Q 3647 1150 3233 529 
Q 2819 -91 2034 -91 
Q 1250 -91 836 529 
Q 422 1150 422 2328 
Q 422 3509 836 4129 
Q 1250 4750 2034 4750 
z
" transform="scale(0.015625)"/>
        <path id="DejaVuSans-2e" d="M 684 794 
L 1344 794 
L 1344 0 
L 684 0 
L 684 794 
z
" transform="scale(0.015625)"/>
       </defs>
       <use xlink:href="#DejaVuSans-30"/>
       <use xlink:href="#DejaVuSans-2e" transform="translate(63.623047 0)"/>
       <use xlink:href="#DejaVuSans-30" transform="translate(95.410156 0)"/>
      </g>
     </g>
    </g>
    <g id="xtick_2">
     <g id="line2d_3">
      <path d="M 170.584966 346.4928 
L 170.584966 13.8528 
" clip-path="url(#pb58283f0ef)" style="fill: none; stroke-dasharray: 2.96,1.28; stroke-dashoffset: 0; stroke: #b0b0b0; stroke-opacity: 0.3; stroke-width: 0.8"/>
     </g>
     <g id="line2d_4">
      <g>
       <use xlink:href="#m2e3008c3db" x="170.584966" y="346.4928" style="stroke: #000000; stroke-width: 0.8"/>
      </g>
     </g>
     <g id="text_2">
      <!-- 0.5 -->
      <g transform="translate(162.315341 361.395175) scale(0.104 -0.104)">
       <defs>
        <path id="DejaVuSans-35" d="M 691 4666 
L 3169 4666 
L 3169 4134 
L 1269 4134 
L 1269 2991 
Q 1406 3038 1543 3061 
Q 1681 3084 1819 3084 
Q 2600 3084 3056 2656 
Q 3513 2228 3513 1497 
Q 3513 744 3044 326 
Q 2575 -91 1722 -91 
Q 1428 -91 1123 -41 
Q 819 9 494 109 
L 494 744 
Q 775 591 1075 516 
Q 1375 441 1709 441 
Q 2250 441 2565 725 
Q 2881 1009 2881 1497 
Q 2881 1984 2565 2268 
Q 2250 2553 1709 2553 
Q 1456 2553 1204 2497 
Q 953 2441 691 2322 
L 691 4666 
z
" transform="scale(0.015625)"/>
       </defs>
       <use xlink:href="#DejaVuSans-30"/>
       <use xlink:href="#DejaVuSans-2e" transform="translate(63.623047 0)"/>
       <use xlink:href="#DejaVuSans-35" transform="translate(95.410156 0)"/>
      </g>
     </g>
    </g>
    <g id="xtick_3">
     <g id="line2d_5">
      <path d="M 255.13042 346.4928 
L 255.13042 13.8528 
" clip-path="url(#pb58283f0ef)" style="fill: none; stroke-dasharray: 2.96,1.28; stroke-dashoffset: 0; stroke: #b0b0b0; stroke-opacity: 0.3; stroke-width: 0.8"/>
     </g>
     <g id="line2d_6">
      <g>
       <use xlink:href="#m2e3008c3db" x="255.13042" y="346.4928" style="stroke: #000000; stroke-width: 0.8"/>
      </g>
     </g>
     <g id="text_3">
      <!-- 1.0 -->
      <g transform="translate(246.860795 361.395175) scale(0.104 -0.104)">
       <defs>
        <path id="DejaVuSans-31" d="M 794 531 
L 1825 531 
L 1825 4091 
L 703 3866 
L 703 4441 
L 1819 4666 
L 2450 4666 
L 2450 531 
L 3481 531 
L 3481 0 
L 794 0 
L 794 531 
z
" transform="scale(0.015625)"/>
       </defs>
       <use xlink:href="#DejaVuSans-31"/>
       <use xlink:href="#DejaVuSans-2e" transform="translate(63.623047 0)"/>
       <use xlink:href="#DejaVuSans-30" transform="translate(95.410156 0)"/>
      </g>
     </g>
    </g>
    <g id="xtick_4">
     <g id="line2d_7">
      <path d="M 339.675875 346.4928 
L 339.675875 13.8528 
" clip-path="url(#pb58283f0ef)" style="fill: none; stroke-dasharray: 2.96,1.28; stroke-dashoffset: 0; stroke: #b0b0b0; stroke-opacity: 0.3; stroke-width: 0.8"/>
     </g>
     <g id="line2d_8">
      <g>
       <use xlink:href="#m2e3008c3db" x="339.675875" y="346.4928" style="stroke: #000000; stroke-width: 0.8"/>
      </g>
     </g>
     <g id="text_4">
      <!-- 1.5 -->
      <g transform="translate(331.40625 361.395175) scale(0.104 -0.104)">
       <use xlink:href="#DejaVuSans-31"/>
       <use xlink:href="#DejaVuSans-2e" transform="translate(63.623047 0)"/>
       <use xlink:href="#DejaVuSans-35" transform="translate(95.410156 0)"/>
      </g>
     </g>
    </g>
    <g id="xtick_5">
     <g id="line2d_9">
      <path d="M 424.22133 346.4928 
L 424.22133 13.8528 
" clip-path="url(#pb58283f0ef)" style="fill: none; stroke-dasharray: 2.96,1.28; stroke-dashoffset: 0; stroke: #b0b0b0; stroke-opacity: 0.3; stroke-width: 0.8"/>
     </g>
     <g id="line2d_10">
      <g>
       <use xlink:href="#m2e3008c3db" x="424.22133" y="346.4928" style="stroke: #000000; stroke-width: 0.8"/>
      </g>
     </g>
     <g id="text_5">
      <!-- 2.0 -->
      <g transform="translate(415.951705 361.395175) scale(0.104 -0.104)">
       <defs>
        <path id="DejaVuSans-32" d="M 1228 531 
L 3431 531 
L 3431 0 
L 469 0 
L 469 531 
Q 828 903 1448 1529 
Q 2069 2156 2228 2338 
Q 2531 2678 2651 2914 
Q 2772 3150 2772 3378 
Q 2772 3750 2511 3984 
Q 2250 4219 1831 4219 
Q 1534 4219 1204 4116 
Q 875 4013 500 3803 
L 500 4441 
Q 881 4594 1212 4672 
Q 1544 4750 1819 4750 
Q 2544 4750 2975 4387 
Q 3406 4025 3406 3419 
Q 3406 3131 3298 2873 
Q 3191 2616 2906 2266 
Q 2828 2175 2409 1742 
Q 1991 1309 1228 531 
z
" transform="scale(0.015625)"/>
       </defs>
       <use xlink:href="#DejaVuSans-32"/>
       <use xlink:href="#DejaVuSans-2e" transform="translate(63.623047 0)"/>
       <use xlink:href="#DejaVuSans-30" transform="translate(95.410156 0)"/>
      </g>
     </g>
    </g>
    <g id="xtick_6">
     <g id="line2d_11">
      <path d="M 508.766784 346.4928 
L 508.766784 13.8528 
" clip-path="url(#pb58283f0ef)" style="fill: none; stroke-dasharray: 2.96,1.28; stroke-dashoffset: 0; stroke: #b0b0b0; stroke-opacity: 0.3; stroke-width: 0.8"/>
     </g>
     <g id="line2d_12">
      <g>
       <use xlink:href="#m2e3008c3db" x="508.766784" y="346.4928" style="stroke: #000000; stroke-width: 0.8"/>
      </g>
     </g>
     <g id="text_6">
      <!-- 2.5 -->
      <g transform="translate(500.497159 361.395175) scale(0.104 -0.104)">
       <use xlink:href="#DejaVuSans-32"/>
       <use xlink:href="#DejaVuSans-2e" transform="translate(63.623047 0)"/>
       <use xlink:href="#DejaVuSans-35" transform="translate(95.410156 0)"/>
      </g>
     </g>
    </g>
    <g id="xtick_7">
     <g id="line2d_13">
      <path d="M 593.312239 346.4928 
L 593.312239 13.8528 
" clip-path="url(#pb58283f0ef)" style="fill: none; stroke-dasharray: 2.96,1.28; stroke-dashoffset: 0; stroke: #b0b0b0; stroke-opacity: 0.3; stroke-width: 0.8"/>
     </g>
     <g id="line2d_14">
      <g>
       <use xlink:href="#m2e3008c3db" x="593.312239" y="346.4928" style="stroke: #000000; stroke-width: 0.8"/>
      </g>
     </g>
     <g id="text_7">
      <!-- 3.0 -->
      <g transform="translate(585.042614 361.395175) scale(0.104 -0.104)">
       <defs>
        <path id="DejaVuSans-33" d="M 2597 2516 
Q 3050 2419 3304 2112 
Q 3559 1806 3559 1356 
Q 3559 666 3084 287 
Q 2609 -91 1734 -91 
Q 1441 -91 1130 -33 
Q 819 25 488 141 
L 488 750 
Q 750 597 1062 519 
Q 1375 441 1716 441 
Q 2309 441 2620 675 
Q 2931 909 2931 1356 
Q 2931 1769 2642 2001 
Q 2353 2234 1838 2234 
L 1294 2234 
L 1294 2753 
L 1863 2753 
Q 2328 2753 2575 2939 
Q 2822 3125 2822 3475 
Q 2822 3834 2567 4026 
Q 2313 4219 1838 4219 
Q 1578 4219 1281 4162 
Q 984 4106 628 3988 
L 628 4550 
Q 988 4650 1302 4700 
Q 1616 4750 1894 4750 
Q 2613 4750 3031 4423 
Q 3450 4097 3450 3541 
Q 3450 3153 3228 2886 
Q 3006 2619 2597 2516 
z
" transform="scale(0.015625)"/>
       </defs>
       <use xlink:href="#DejaVuSans-33"/>
       <use xlink:href="#DejaVuSans-2e" transform="translate(63.623047 0)"/>
       <use xlink:href="#DejaVuSans-30" transform="translate(95.410156 0)"/>
      </g>
     </g>
    </g>
    <g id="text_8">
     <!-- Distance ($\mathrm{\AA}$) between He and center of Bz along x-axis, y=0, z=3.128 -->
     <g transform="translate(129.915875 378.71805) scale(0.12 -0.12)">
      <defs>
       <path id="DejaVuSans-44" d="M 1259 4147 
L 1259 519 
L 2022 519 
Q 2988 519 3436 956 
Q 3884 1394 3884 2338 
Q 3884 3275 3436 3711 
Q 2988 4147 2022 4147 
L 1259 4147 
z
M 628 4666 
L 1925 4666 
Q 3281 4666 3915 4102 
Q 4550 3538 4550 2338 
Q 4550 1131 3912 565 
Q 3275 0 1925 0 
L 628 0 
L 628 4666 
z
" transform="scale(0.015625)"/>
       <path id="DejaVuSans-69" d="M 603 3500 
L 1178 3500 
L 1178 0 
L 603 0 
L 603 3500 
z
M 603 4863 
L 1178 4863 
L 1178 4134 
L 603 4134 
L 603 4863 
z
" transform="scale(0.015625)"/>
       <path id="DejaVuSans-73" d="M 2834 3397 
L 2834 2853 
Q 2591 2978 2328 3040 
Q 2066 3103 1784 3103 
Q 1356 3103 1142 2972 
Q 928 2841 928 2578 
Q 928 2378 1081 2264 
Q 1234 2150 1697 2047 
L 1894 2003 
Q 2506 1872 2764 1633 
Q 3022 1394 3022 966 
Q 3022 478 2636 193 
Q 2250 -91 1575 -91 
Q 1294 -91 989 -36 
Q 684 19 347 128 
L 347 722 
Q 666 556 975 473 
Q 1284 391 1588 391 
Q 1994 391 2212 530 
Q 2431 669 2431 922 
Q 2431 1156 2273 1281 
Q 2116 1406 1581 1522 
L 1381 1569 
Q 847 1681 609 1914 
Q 372 2147 372 2553 
Q 372 3047 722 3315 
Q 1072 3584 1716 3584 
Q 2034 3584 2315 3537 
Q 2597 3491 2834 3397 
z
" transform="scale(0.015625)"/>
       <path id="DejaVuSans-74" d="M 1172 4494 
L 1172 3500 
L 2356 3500 
L 2356 3053 
L 1172 3053 
L 1172 1153 
Q 1172 725 1289 603 
Q 1406 481 1766 481 
L 2356 481 
L 2356 0 
L 1766 0 
Q 1100 0 847 248 
Q 594 497 594 1153 
L 594 3053 
L 172 3053 
L 172 3500 
L 594 3500 
L 594 4494 
L 1172 4494 
z
" transform="scale(0.015625)"/>
       <path id="DejaVuSans-61" d="M 2194 1759 
Q 1497 1759 1228 1600 
Q 959 1441 959 1056 
Q 959 750 1161 570 
Q 1363 391 1709 391 
Q 2188 391 2477 730 
Q 2766 1069 2766 1631 
L 2766 1759 
L 2194 1759 
z
M 3341 1997 
L 3341 0 
L 2766 0 
L 2766 531 
Q 2569 213 2275 61 
Q 1981 -91 1556 -91 
Q 1019 -91 701 211 
Q 384 513 384 1019 
Q 384 1609 779 1909 
Q 1175 2209 1959 2209 
L 2766 2209 
L 2766 2266 
Q 2766 2663 2505 2880 
Q 2244 3097 1772 3097 
Q 1472 3097 1187 3025 
Q 903 2953 641 2809 
L 641 3341 
Q 956 3463 1253 3523 
Q 1550 3584 1831 3584 
Q 2591 3584 2966 3190 
Q 3341 2797 3341 1997 
z
" transform="scale(0.015625)"/>
       <path id="DejaVuSans-6e" d="M 3513 2113 
L 3513 0 
L 2938 0 
L 2938 2094 
Q 2938 2591 2744 2837 
Q 2550 3084 2163 3084 
Q 1697 3084 1428 2787 
Q 1159 2491 1159 1978 
L 1159 0 
L 581 0 
L 581 3500 
L 1159 3500 
L 1159 2956 
Q 1366 3272 1645 3428 
Q 1925 3584 2291 3584 
Q 2894 3584 3203 3211 
Q 3513 2838 3513 2113 
z
" transform="scale(0.015625)"/>
       <path id="DejaVuSans-63" d="M 3122 3366 
L 3122 2828 
Q 2878 2963 2633 3030 
Q 2388 3097 2138 3097 
Q 1578 3097 1268 2742 
Q 959 2388 959 1747 
Q 959 1106 1268 751 
Q 1578 397 2138 397 
Q 2388 397 2633 464 
Q 2878 531 3122 666 
L 3122 134 
Q 2881 22 2623 -34 
Q 2366 -91 2075 -91 
Q 1284 -91 818 406 
Q 353 903 353 1747 
Q 353 2603 823 3093 
Q 1294 3584 2113 3584 
Q 2378 3584 2631 3529 
Q 2884 3475 3122 3366 
z
" transform="scale(0.015625)"/>
       <path id="DejaVuSans-65" d="M 3597 1894 
L 3597 1613 
L 953 1613 
Q 991 1019 1311 708 
Q 1631 397 2203 397 
Q 2534 397 2845 478 
Q 3156 559 3463 722 
L 3463 178 
Q 3153 47 2828 -22 
Q 2503 -91 2169 -91 
Q 1331 -91 842 396 
Q 353 884 353 1716 
Q 353 2575 817 3079 
Q 1281 3584 2069 3584 
Q 2775 3584 3186 3129 
Q 3597 2675 3597 1894 
z
M 3022 2063 
Q 3016 2534 2758 2815 
Q 2500 3097 2075 3097 
Q 1594 3097 1305 2825 
Q 1016 2553 972 2059 
L 3022 2063 
z
" transform="scale(0.015625)"/>
       <path id="DejaVuSans-20" transform="scale(0.015625)"/>
       <path id="DejaVuSans-28" d="M 1984 4856 
Q 1566 4138 1362 3434 
Q 1159 2731 1159 2009 
Q 1159 1288 1364 580 
Q 1569 -128 1984 -844 
L 1484 -844 
Q 1016 -109 783 600 
Q 550 1309 550 2009 
Q 550 2706 781 3412 
Q 1013 4119 1484 4856 
L 1984 4856 
z
" transform="scale(0.015625)"/>
       <path id="DejaVuSans-c5" d="M 2663 5081 
Q 2663 5278 2523 5417 
Q 2384 5556 2188 5556 
Q 1988 5556 1852 5420 
Q 1716 5284 1716 5081 
Q 1716 4884 1853 4746 
Q 1991 4609 2188 4609 
Q 2384 4609 2523 4746 
Q 2663 4884 2663 5081 
z
M 2188 4044 
L 1338 1722 
L 3041 1722 
L 2188 4044 
z
M 1716 4366 
Q 1525 4494 1428 4673 
Q 1331 4853 1331 5081 
Q 1331 5441 1579 5691 
Q 1828 5941 2188 5941 
Q 2544 5941 2795 5689 
Q 3047 5438 3047 5081 
Q 3047 4863 2948 4678 
Q 2850 4494 2663 4366 
L 4325 0 
L 3669 0 
L 3244 1197 
L 1141 1197 
L 716 0 
L 50 0 
L 1716 4366 
z
" transform="scale(0.015625)"/>
       <path id="DejaVuSans-29" d="M 513 4856 
L 1013 4856 
Q 1481 4119 1714 3412 
Q 1947 2706 1947 2009 
Q 1947 1309 1714 600 
Q 1481 -109 1013 -844 
L 513 -844 
Q 928 -128 1133 580 
Q 1338 1288 1338 2009 
Q 1338 2731 1133 3434 
Q 928 4138 513 4856 
z
" transform="scale(0.015625)"/>
       <path id="DejaVuSans-62" d="M 3116 1747 
Q 3116 2381 2855 2742 
Q 2594 3103 2138 3103 
Q 1681 3103 1420 2742 
Q 1159 2381 1159 1747 
Q 1159 1113 1420 752 
Q 1681 391 2138 391 
Q 2594 391 2855 752 
Q 3116 1113 3116 1747 
z
M 1159 2969 
Q 1341 3281 1617 3432 
Q 1894 3584 2278 3584 
Q 2916 3584 3314 3078 
Q 3713 2572 3713 1747 
Q 3713 922 3314 415 
Q 2916 -91 2278 -91 
Q 1894 -91 1617 61 
Q 1341 213 1159 525 
L 1159 0 
L 581 0 
L 581 4863 
L 1159 4863 
L 1159 2969 
z
" transform="scale(0.015625)"/>
       <path id="DejaVuSans-77" d="M 269 3500 
L 844 3500 
L 1563 769 
L 2278 3500 
L 2956 3500 
L 3675 769 
L 4391 3500 
L 4966 3500 
L 4050 0 
L 3372 0 
L 2619 2869 
L 1863 0 
L 1184 0 
L 269 3500 
z
" transform="scale(0.015625)"/>
       <path id="DejaVuSans-48" d="M 628 4666 
L 1259 4666 
L 1259 2753 
L 3553 2753 
L 3553 4666 
L 4184 4666 
L 4184 0 
L 3553 0 
L 3553 2222 
L 1259 2222 
L 1259 0 
L 628 0 
L 628 4666 
z
" transform="scale(0.015625)"/>
       <path id="DejaVuSans-64" d="M 2906 2969 
L 2906 4863 
L 3481 4863 
L 3481 0 
L 2906 0 
L 2906 525 
Q 2725 213 2448 61 
Q 2172 -91 1784 -91 
Q 1150 -91 751 415 
Q 353 922 353 1747 
Q 353 2572 751 3078 
Q 1150 3584 1784 3584 
Q 2172 3584 2448 3432 
Q 2725 3281 2906 2969 
z
M 947 1747 
Q 947 1113 1208 752 
Q 1469 391 1925 391 
Q 2381 391 2643 752 
Q 2906 1113 2906 1747 
Q 2906 2381 2643 2742 
Q 2381 3103 1925 3103 
Q 1469 3103 1208 2742 
Q 947 2381 947 1747 
z
" transform="scale(0.015625)"/>
       <path id="DejaVuSans-72" d="M 2631 2963 
Q 2534 3019 2420 3045 
Q 2306 3072 2169 3072 
Q 1681 3072 1420 2755 
Q 1159 2438 1159 1844 
L 1159 0 
L 581 0 
L 581 3500 
L 1159 3500 
L 1159 2956 
Q 1341 3275 1631 3429 
Q 1922 3584 2338 3584 
Q 2397 3584 2469 3576 
Q 2541 3569 2628 3553 
L 2631 2963 
z
" transform="scale(0.015625)"/>
       <path id="DejaVuSans-6f" d="M 1959 3097 
Q 1497 3097 1228 2736 
Q 959 2375 959 1747 
Q 959 1119 1226 758 
Q 1494 397 1959 397 
Q 2419 397 2687 759 
Q 2956 1122 2956 1747 
Q 2956 2369 2687 2733 
Q 2419 3097 1959 3097 
z
M 1959 3584 
Q 2709 3584 3137 3096 
Q 3566 2609 3566 1747 
Q 3566 888 3137 398 
Q 2709 -91 1959 -91 
Q 1206 -91 779 398 
Q 353 888 353 1747 
Q 353 2609 779 3096 
Q 1206 3584 1959 3584 
z
" transform="scale(0.015625)"/>
       <path id="DejaVuSans-66" d="M 2375 4863 
L 2375 4384 
L 1825 4384 
Q 1516 4384 1395 4259 
Q 1275 4134 1275 3809 
L 1275 3500 
L 2222 3500 
L 2222 3053 
L 1275 3053 
L 1275 0 
L 697 0 
L 697 3053 
L 147 3053 
L 147 3500 
L 697 3500 
L 697 3744 
Q 697 4328 969 4595 
Q 1241 4863 1831 4863 
L 2375 4863 
z
" transform="scale(0.015625)"/>
       <path id="DejaVuSans-42" d="M 1259 2228 
L 1259 519 
L 2272 519 
Q 2781 519 3026 730 
Q 3272 941 3272 1375 
Q 3272 1813 3026 2020 
Q 2781 2228 2272 2228 
L 1259 2228 
z
M 1259 4147 
L 1259 2741 
L 2194 2741 
Q 2656 2741 2882 2914 
Q 3109 3088 3109 3444 
Q 3109 3797 2882 3972 
Q 2656 4147 2194 4147 
L 1259 4147 
z
M 628 4666 
L 2241 4666 
Q 2963 4666 3353 4366 
Q 3744 4066 3744 3513 
Q 3744 3084 3544 2831 
Q 3344 2578 2956 2516 
Q 3422 2416 3680 2098 
Q 3938 1781 3938 1306 
Q 3938 681 3513 340 
Q 3088 0 2303 0 
L 628 0 
L 628 4666 
z
" transform="scale(0.015625)"/>
       <path id="DejaVuSans-7a" d="M 353 3500 
L 3084 3500 
L 3084 2975 
L 922 459 
L 3084 459 
L 3084 0 
L 275 0 
L 275 525 
L 2438 3041 
L 353 3041 
L 353 3500 
z
" transform="scale(0.015625)"/>
       <path id="DejaVuSans-6c" d="M 603 4863 
L 1178 4863 
L 1178 0 
L 603 0 
L 603 4863 
z
" transform="scale(0.015625)"/>
       <path id="DejaVuSans-67" d="M 2906 1791 
Q 2906 2416 2648 2759 
Q 2391 3103 1925 3103 
Q 1463 3103 1205 2759 
Q 947 2416 947 1791 
Q 947 1169 1205 825 
Q 1463 481 1925 481 
Q 2391 481 2648 825 
Q 2906 1169 2906 1791 
z
M 3481 434 
Q 3481 -459 3084 -895 
Q 2688 -1331 1869 -1331 
Q 1566 -1331 1297 -1286 
Q 1028 -1241 775 -1147 
L 775 -588 
Q 1028 -725 1275 -790 
Q 1522 -856 1778 -856 
Q 2344 -856 2625 -561 
Q 2906 -266 2906 331 
L 2906 616 
Q 2728 306 2450 153 
Q 2172 0 1784 0 
Q 1141 0 747 490 
Q 353 981 353 1791 
Q 353 2603 747 3093 
Q 1141 3584 1784 3584 
Q 2172 3584 2450 3431 
Q 2728 3278 2906 2969 
L 2906 3500 
L 3481 3500 
L 3481 434 
z
" transform="scale(0.015625)"/>
       <path id="DejaVuSans-78" d="M 3513 3500 
L 2247 1797 
L 3578 0 
L 2900 0 
L 1881 1375 
L 863 0 
L 184 0 
L 1544 1831 
L 300 3500 
L 978 3500 
L 1906 2253 
L 2834 3500 
L 3513 3500 
z
" transform="scale(0.015625)"/>
       <path id="DejaVuSans-2d" d="M 313 2009 
L 1997 2009 
L 1997 1497 
L 313 1497 
L 313 2009 
z
" transform="scale(0.015625)"/>
       <path id="DejaVuSans-2c" d="M 750 794 
L 1409 794 
L 1409 256 
L 897 -744 
L 494 -744 
L 750 256 
L 750 794 
z
" transform="scale(0.015625)"/>
       <path id="DejaVuSans-79" d="M 2059 -325 
Q 1816 -950 1584 -1140 
Q 1353 -1331 966 -1331 
L 506 -1331 
L 506 -850 
L 844 -850 
Q 1081 -850 1212 -737 
Q 1344 -625 1503 -206 
L 1606 56 
L 191 3500 
L 800 3500 
L 1894 763 
L 2988 3500 
L 3597 3500 
L 2059 -325 
z
" transform="scale(0.015625)"/>
       <path id="DejaVuSans-3d" d="M 678 2906 
L 4684 2906 
L 4684 2381 
L 678 2381 
L 678 2906 
z
M 678 1631 
L 4684 1631 
L 4684 1100 
L 678 1100 
L 678 1631 
z
" transform="scale(0.015625)"/>
       <path id="DejaVuSans-38" d="M 2034 2216 
Q 1584 2216 1326 1975 
Q 1069 1734 1069 1313 
Q 1069 891 1326 650 
Q 1584 409 2034 409 
Q 2484 409 2743 651 
Q 3003 894 3003 1313 
Q 3003 1734 2745 1975 
Q 2488 2216 2034 2216 
z
M 1403 2484 
Q 997 2584 770 2862 
Q 544 3141 544 3541 
Q 544 4100 942 4425 
Q 1341 4750 2034 4750 
Q 2731 4750 3128 4425 
Q 3525 4100 3525 3541 
Q 3525 3141 3298 2862 
Q 3072 2584 2669 2484 
Q 3125 2378 3379 2068 
Q 3634 1759 3634 1313 
Q 3634 634 3220 271 
Q 2806 -91 2034 -91 
Q 1263 -91 848 271 
Q 434 634 434 1313 
Q 434 1759 690 2068 
Q 947 2378 1403 2484 
z
M 1172 3481 
Q 1172 3119 1398 2916 
Q 1625 2713 2034 2713 
Q 2441 2713 2670 2916 
Q 2900 3119 2900 3481 
Q 2900 3844 2670 4047 
Q 2441 4250 2034 4250 
Q 1625 4250 1398 4047 
Q 1172 3844 1172 3481 
z
" transform="scale(0.015625)"/>
      </defs>
      <use xlink:href="#DejaVuSans-44" transform="translate(0 0.171875)"/>
      <use xlink:href="#DejaVuSans-69" transform="translate(77.001953 0.171875)"/>
      <use xlink:href="#DejaVuSans-73" transform="translate(104.785156 0.171875)"/>
      <use xlink:href="#DejaVuSans-74" transform="translate(156.884766 0.171875)"/>
      <use xlink:href="#DejaVuSans-61" transform="translate(196.09375 0.171875)"/>
      <use xlink:href="#DejaVuSans-6e" transform="translate(257.373047 0.171875)"/>
      <use xlink:href="#DejaVuSans-63" transform="translate(320.751953 0.171875)"/>
      <use xlink:href="#DejaVuSans-65" transform="translate(375.732422 0.171875)"/>
      <use xlink:href="#DejaVuSans-20" transform="translate(437.255859 0.171875)"/>
      <use xlink:href="#DejaVuSans-28" transform="translate(469.042969 0.171875)"/>
      <use xlink:href="#DejaVuSans-c5" transform="translate(508.056641 0.171875)"/>
      <use xlink:href="#DejaVuSans-29" transform="translate(576.464844 0.171875)"/>
      <use xlink:href="#DejaVuSans-20" transform="translate(615.478516 0.171875)"/>
      <use xlink:href="#DejaVuSans-62" transform="translate(647.265625 0.171875)"/>
      <use xlink:href="#DejaVuSans-65" transform="translate(710.742188 0.171875)"/>
      <use xlink:href="#DejaVuSans-74" transform="translate(772.265625 0.171875)"/>
      <use xlink:href="#DejaVuSans-77" transform="translate(811.474609 0.171875)"/>
      <use xlink:href="#DejaVuSans-65" transform="translate(893.261719 0.171875)"/>
      <use xlink:href="#DejaVuSans-65" transform="translate(954.785156 0.171875)"/>
      <use xlink:href="#DejaVuSans-6e" transform="translate(1016.308594 0.171875)"/>
      <use xlink:href="#DejaVuSans-20" transform="translate(1079.6875 0.171875)"/>
      <use xlink:href="#DejaVuSans-48" transform="translate(1111.474609 0.171875)"/>
      <use xlink:href="#DejaVuSans-65" transform="translate(1186.669922 0.171875)"/>
      <use xlink:href="#DejaVuSans-20" transform="translate(1248.193359 0.171875)"/>
      <use xlink:href="#DejaVuSans-61" transform="translate(1279.980469 0.171875)"/>
      <use xlink:href="#DejaVuSans-6e" transform="translate(1341.259766 0.171875)"/>
      <use xlink:href="#DejaVuSans-64" transform="translate(1404.638672 0.171875)"/>
      <use xlink:href="#DejaVuSans-20" transform="translate(1468.115234 0.171875)"/>
      <use xlink:href="#DejaVuSans-63" transform="translate(1499.902344 0.171875)"/>
      <use xlink:href="#DejaVuSans-65" transform="translate(1554.882812 0.171875)"/>
      <use xlink:href="#DejaVuSans-6e" transform="translate(1616.40625 0.171875)"/>
      <use xlink:href="#DejaVuSans-74" transform="translate(1679.785156 0.171875)"/>
      <use xlink:href="#DejaVuSans-65" transform="translate(1718.994141 0.171875)"/>
      <use xlink:href="#DejaVuSans-72" transform="translate(1780.517578 0.171875)"/>
      <use xlink:href="#DejaVuSans-20" transform="translate(1821.630859 0.171875)"/>
      <use xlink:href="#DejaVuSans-6f" transform="translate(1853.417969 0.171875)"/>
      <use xlink:href="#DejaVuSans-66" transform="translate(1914.599609 0.171875)"/>
      <use xlink:href="#DejaVuSans-20" transform="translate(1949.804688 0.171875)"/>
      <use xlink:href="#DejaVuSans-42" transform="translate(1981.591797 0.171875)"/>
      <use xlink:href="#DejaVuSans-7a" transform="translate(2050.195312 0.171875)"/>
      <use xlink:href="#DejaVuSans-20" transform="translate(2102.685547 0.171875)"/>
      <use xlink:href="#DejaVuSans-61" transform="translate(2134.472656 0.171875)"/>
      <use xlink:href="#DejaVuSans-6c" transform="translate(2195.751953 0.171875)"/>
      <use xlink:href="#DejaVuSans-6f" transform="translate(2223.535156 0.171875)"/>
      <use xlink:href="#DejaVuSans-6e" transform="translate(2284.716797 0.171875)"/>
      <use xlink:href="#DejaVuSans-67" transform="translate(2348.095703 0.171875)"/>
      <use xlink:href="#DejaVuSans-20" transform="translate(2411.572266 0.171875)"/>
      <use xlink:href="#DejaVuSans-78" transform="translate(2443.359375 0.171875)"/>
      <use xlink:href="#DejaVuSans-2d" transform="translate(2502.539062 0.171875)"/>
      <use xlink:href="#DejaVuSans-61" transform="translate(2538.623047 0.171875)"/>
      <use xlink:href="#DejaVuSans-78" transform="translate(2599.902344 0.171875)"/>
      <use xlink:href="#DejaVuSans-69" transform="translate(2659.082031 0.171875)"/>
      <use xlink:href="#DejaVuSans-73" transform="translate(2686.865234 0.171875)"/>
      <use xlink:href="#DejaVuSans-2c" transform="translate(2738.964844 0.171875)"/>
      <use xlink:href="#DejaVuSans-20" transform="translate(2770.751953 0.171875)"/>
      <use xlink:href="#DejaVuSans-79" transform="translate(2802.539062 0.171875)"/>
      <use xlink:href="#DejaVuSans-3d" transform="translate(2861.71875 0.171875)"/>
      <use xlink:href="#DejaVuSans-30" transform="translate(2945.507812 0.171875)"/>
      <use xlink:href="#DejaVuSans-2c" transform="translate(3009.130859 0.171875)"/>
      <use xlink:href="#DejaVuSans-20" transform="translate(3040.917969 0.171875)"/>
      <use xlink:href="#DejaVuSans-7a" transform="translate(3072.705078 0.171875)"/>
      <use xlink:href="#DejaVuSans-3d" transform="translate(3125.195312 0.171875)"/>
      <use xlink:href="#DejaVuSans-33" transform="translate(3208.984375 0.171875)"/>
      <use xlink:href="#DejaVuSans-2e" transform="translate(3272.607422 0.171875)"/>
      <use xlink:href="#DejaVuSans-31" transform="translate(3304.394531 0.171875)"/>
      <use xlink:href="#DejaVuSans-32" transform="translate(3368.017578 0.171875)"/>
      <use xlink:href="#DejaVuSans-38" transform="translate(3431.640625 0.171875)"/>
     </g>
    </g>
   </g>
   <g id="matplotlib.axis_2">
    <g id="ytick_1">
     <g id="line2d_15">
      <path d="M 60.675875 346.4928 
L 618.675875 346.4928 
" clip-path="url(#pb58283f0ef)" style="fill: none; stroke-dasharray: 2.96,1.28; stroke-dashoffset: 0; stroke: #b0b0b0; stroke-opacity: 0.3; stroke-width: 0.8"/>
     </g>
     <g id="line2d_16">
      <defs>
       <path id="md9ed1bf29f" d="M 0 0 
L -3.5 0 
" style="stroke: #000000; stroke-width: 0.8"/>
      </defs>
      <g>
       <use xlink:href="#md9ed1bf29f" x="60.675875" y="346.4928" style="stroke: #000000; stroke-width: 0.8"/>
      </g>
     </g>
     <g id="text_9">
      <!-- −100 -->
      <g transform="translate(25.11 350.443987) scale(0.104 -0.104)">
       <defs>
        <path id="DejaVuSans-2212" d="M 678 2272 
L 4684 2272 
L 4684 1741 
L 678 1741 
L 678 2272 
z
" transform="scale(0.015625)"/>
       </defs>
       <use xlink:href="#DejaVuSans-2212"/>
       <use xlink:href="#DejaVuSans-31" transform="translate(83.789062 0)"/>
       <use xlink:href="#DejaVuSans-30" transform="translate(147.412109 0)"/>
       <use xlink:href="#DejaVuSans-30" transform="translate(211.035156 0)"/>
      </g>
     </g>
    </g>
    <g id="ytick_2">
     <g id="line2d_17">
      <path d="M 60.675875 293.2704 
L 618.675875 293.2704 
" clip-path="url(#pb58283f0ef)" style="fill: none; stroke-dasharray: 2.96,1.28; stroke-dashoffset: 0; stroke: #b0b0b0; stroke-opacity: 0.3; stroke-width: 0.8"/>
     </g>
     <g id="line2d_18">
      <g>
       <use xlink:href="#md9ed1bf29f" x="60.675875" y="293.2704" style="stroke: #000000; stroke-width: 0.8"/>
      </g>
     </g>
     <g id="text_10">
      <!-- −80 -->
      <g transform="translate(31.727 297.221587) scale(0.104 -0.104)">
       <use xlink:href="#DejaVuSans-2212"/>
       <use xlink:href="#DejaVuSans-38" transform="translate(83.789062 0)"/>
       <use xlink:href="#DejaVuSans-30" transform="translate(147.412109 0)"/>
      </g>
     </g>
    </g>
    <g id="ytick_3">
     <g id="line2d_19">
      <path d="M 60.675875 240.048 
L 618.675875 240.048 
" clip-path="url(#pb58283f0ef)" style="fill: none; stroke-dasharray: 2.96,1.28; stroke-dashoffset: 0; stroke: #b0b0b0; stroke-opacity: 0.3; stroke-width: 0.8"/>
     </g>
     <g id="line2d_20">
      <g>
       <use xlink:href="#md9ed1bf29f" x="60.675875" y="240.048" style="stroke: #000000; stroke-width: 0.8"/>
      </g>
     </g>
     <g id="text_11">
      <!-- −60 -->
      <g transform="translate(31.727 243.999188) scale(0.104 -0.104)">
       <defs>
        <path id="DejaVuSans-36" d="M 2113 2584 
Q 1688 2584 1439 2293 
Q 1191 2003 1191 1497 
Q 1191 994 1439 701 
Q 1688 409 2113 409 
Q 2538 409 2786 701 
Q 3034 994 3034 1497 
Q 3034 2003 2786 2293 
Q 2538 2584 2113 2584 
z
M 3366 4563 
L 3366 3988 
Q 3128 4100 2886 4159 
Q 2644 4219 2406 4219 
Q 1781 4219 1451 3797 
Q 1122 3375 1075 2522 
Q 1259 2794 1537 2939 
Q 1816 3084 2150 3084 
Q 2853 3084 3261 2657 
Q 3669 2231 3669 1497 
Q 3669 778 3244 343 
Q 2819 -91 2113 -91 
Q 1303 -91 875 529 
Q 447 1150 447 2328 
Q 447 3434 972 4092 
Q 1497 4750 2381 4750 
Q 2619 4750 2861 4703 
Q 3103 4656 3366 4563 
z
" transform="scale(0.015625)"/>
       </defs>
       <use xlink:href="#DejaVuSans-2212"/>
       <use xlink:href="#DejaVuSans-36" transform="translate(83.789062 0)"/>
       <use xlink:href="#DejaVuSans-30" transform="translate(147.412109 0)"/>
      </g>
     </g>
    </g>
    <g id="ytick_4">
     <g id="line2d_21">
      <path d="M 60.675875 186.8256 
L 618.675875 186.8256 
" clip-path="url(#pb58283f0ef)" style="fill: none; stroke-dasharray: 2.96,1.28; stroke-dashoffset: 0; stroke: #b0b0b0; stroke-opacity: 0.3; stroke-width: 0.8"/>
     </g>
     <g id="line2d_22">
      <g>
       <use xlink:href="#md9ed1bf29f" x="60.675875" y="186.8256" style="stroke: #000000; stroke-width: 0.8"/>
      </g>
     </g>
     <g id="text_12">
      <!-- −40 -->
      <g transform="translate(31.727 190.776787) scale(0.104 -0.104)">
       <defs>
        <path id="DejaVuSans-34" d="M 2419 4116 
L 825 1625 
L 2419 1625 
L 2419 4116 
z
M 2253 4666 
L 3047 4666 
L 3047 1625 
L 3713 1625 
L 3713 1100 
L 3047 1100 
L 3047 0 
L 2419 0 
L 2419 1100 
L 313 1100 
L 313 1709 
L 2253 4666 
z
" transform="scale(0.015625)"/>
       </defs>
       <use xlink:href="#DejaVuSans-2212"/>
       <use xlink:href="#DejaVuSans-34" transform="translate(83.789062 0)"/>
       <use xlink:href="#DejaVuSans-30" transform="translate(147.412109 0)"/>
      </g>
     </g>
    </g>
    <g id="ytick_5">
     <g id="line2d_23">
      <path d="M 60.675875 133.6032 
L 618.675875 133.6032 
" clip-path="url(#pb58283f0ef)" style="fill: none; stroke-dasharray: 2.96,1.28; stroke-dashoffset: 0; stroke: #b0b0b0; stroke-opacity: 0.3; stroke-width: 0.8"/>
     </g>
     <g id="line2d_24">
      <g>
       <use xlink:href="#md9ed1bf29f" x="60.675875" y="133.6032" style="stroke: #000000; stroke-width: 0.8"/>
      </g>
     </g>
     <g id="text_13">
      <!-- −20 -->
      <g transform="translate(31.727 137.554387) scale(0.104 -0.104)">
       <use xlink:href="#DejaVuSans-2212"/>
       <use xlink:href="#DejaVuSans-32" transform="translate(83.789062 0)"/>
       <use xlink:href="#DejaVuSans-30" transform="translate(147.412109 0)"/>
      </g>
     </g>
    </g>
    <g id="ytick_6">
     <g id="line2d_25">
      <path d="M 60.675875 80.3808 
L 618.675875 80.3808 
" clip-path="url(#pb58283f0ef)" style="fill: none; stroke-dasharray: 2.96,1.28; stroke-dashoffset: 0; stroke: #b0b0b0; stroke-opacity: 0.3; stroke-width: 0.8"/>
     </g>
     <g id="line2d_26">
      <g>
       <use xlink:href="#md9ed1bf29f" x="60.675875" y="80.3808" style="stroke: #000000; stroke-width: 0.8"/>
      </g>
     </g>
     <g id="text_14">
      <!-- 0 -->
      <g transform="translate(47.058875 84.331987) scale(0.104 -0.104)">
       <use xlink:href="#DejaVuSans-30"/>
      </g>
     </g>
    </g>
    <g id="ytick_7">
     <g id="line2d_27">
      <path d="M 60.675875 27.1584 
L 618.675875 27.1584 
" clip-path="url(#pb58283f0ef)" style="fill: none; stroke-dasharray: 2.96,1.28; stroke-dashoffset: 0; stroke: #b0b0b0; stroke-opacity: 0.3; stroke-width: 0.8"/>
     </g>
     <g id="line2d_28">
      <g>
       <use xlink:href="#md9ed1bf29f" x="60.675875" y="27.1584" style="stroke: #000000; stroke-width: 0.8"/>
      </g>
     </g>
     <g id="text_15">
      <!-- 20 -->
      <g transform="translate(40.441875 31.109587) scale(0.104 -0.104)">
       <use xlink:href="#DejaVuSans-32"/>
       <use xlink:href="#DejaVuSans-30" transform="translate(63.623047 0)"/>
      </g>
     </g>
    </g>
    <g id="text_16">
     <!-- $\Delta E_{int}$ (cm$^{-1}$) -->
     <g transform="translate(18.406406 218.8478) rotate(-90) scale(0.13 -0.13)">
      <defs>
       <path id="DejaVuSans-394" d="M 2188 4044 
L 906 525 
L 3472 525 
L 2188 4044 
z
M 50 0 
L 1831 4666 
L 2547 4666 
L 4325 0 
L 50 0 
z
" transform="scale(0.015625)"/>
       <path id="DejaVuSans-Oblique-45" d="M 1081 4666 
L 4031 4666 
L 3928 4134 
L 1606 4134 
L 1338 2753 
L 3566 2753 
L 3463 2222 
L 1234 2222 
L 909 531 
L 3284 531 
L 3181 0 
L 172 0 
L 1081 4666 
z
" transform="scale(0.015625)"/>
       <path id="DejaVuSans-Oblique-69" d="M 1172 4863 
L 1747 4863 
L 1606 4134 
L 1031 4134 
L 1172 4863 
z
M 909 3500 
L 1484 3500 
L 800 0 
L 225 0 
L 909 3500 
z
" transform="scale(0.015625)"/>
       <path id="DejaVuSans-Oblique-6e" d="M 3566 2113 
L 3156 0 
L 2578 0 
L 2988 2091 
Q 3016 2238 3031 2350 
Q 3047 2463 3047 2528 
Q 3047 2791 2881 2937 
Q 2716 3084 2419 3084 
Q 1956 3084 1622 2776 
Q 1288 2469 1184 1941 
L 800 0 
L 225 0 
L 903 3500 
L 1478 3500 
L 1363 2950 
Q 1603 3253 1940 3418 
Q 2278 3584 2650 3584 
Q 3113 3584 3367 3334 
Q 3622 3084 3622 2631 
Q 3622 2519 3608 2391 
Q 3594 2263 3566 2113 
z
" transform="scale(0.015625)"/>
       <path id="DejaVuSans-Oblique-74" d="M 2706 3500 
L 2619 3053 
L 1472 3053 
L 1100 1153 
Q 1081 1047 1072 975 
Q 1063 903 1063 863 
Q 1063 663 1183 572 
Q 1303 481 1569 481 
L 2150 481 
L 2053 0 
L 1503 0 
Q 991 0 739 200 
Q 488 400 488 806 
Q 488 878 497 964 
Q 506 1050 525 1153 
L 897 3053 
L 409 3053 
L 500 3500 
L 978 3500 
L 1172 4494 
L 1747 4494 
L 1556 3500 
L 2706 3500 
z
" transform="scale(0.015625)"/>
       <path id="DejaVuSans-6d" d="M 3328 2828 
Q 3544 3216 3844 3400 
Q 4144 3584 4550 3584 
Q 5097 3584 5394 3201 
Q 5691 2819 5691 2113 
L 5691 0 
L 5113 0 
L 5113 2094 
Q 5113 2597 4934 2840 
Q 4756 3084 4391 3084 
Q 3944 3084 3684 2787 
Q 3425 2491 3425 1978 
L 3425 0 
L 2847 0 
L 2847 2094 
Q 2847 2600 2669 2842 
Q 2491 3084 2119 3084 
Q 1678 3084 1418 2786 
Q 1159 2488 1159 1978 
L 1159 0 
L 581 0 
L 581 3500 
L 1159 3500 
L 1159 2956 
Q 1356 3278 1631 3431 
Q 1906 3584 2284 3584 
Q 2666 3584 2933 3390 
Q 3200 3197 3328 2828 
z
" transform="scale(0.015625)"/>
      </defs>
      <use xlink:href="#DejaVuSans-394" transform="translate(0 0.684375)"/>
      <use xlink:href="#DejaVuSans-Oblique-45" transform="translate(68.408203 0.684375)"/>
      <use xlink:href="#DejaVuSans-Oblique-69" transform="translate(131.591797 -15.721875) scale(0.7)"/>
      <use xlink:href="#DejaVuSans-Oblique-6e" transform="translate(151.040039 -15.721875) scale(0.7)"/>
      <use xlink:href="#DejaVuSans-Oblique-74" transform="translate(195.405273 -15.721875) scale(0.7)"/>
      <use xlink:href="#DejaVuSans-20" transform="translate(225.585938 0.684375)"/>
      <use xlink:href="#DejaVuSans-28" transform="translate(257.373047 0.684375)"/>
      <use xlink:href="#DejaVuSans-63" transform="translate(296.386719 0.684375)"/>
      <use xlink:href="#DejaVuSans-6d" transform="translate(351.367188 0.684375)"/>
      <use xlink:href="#DejaVuSans-2212" transform="translate(449.736328 38.965625) scale(0.7)"/>
      <use xlink:href="#DejaVuSans-31" transform="translate(508.388672 38.965625) scale(0.7)"/>
      <use xlink:href="#DejaVuSans-29" transform="translate(555.65918 0.684375)"/>
     </g>
    </g>
   </g>
   <g id="line2d_29">
    <path d="M 86.039511 320.573134 
L 119.857693 311.025906 
L 153.675875 284.26413 
L 187.494057 245.412669 
L 221.312239 201.528326 
L 255.13042 160.082073 
L 288.948602 127.181486 
L 322.766784 106.443508 
L 356.584966 98.634365 
L 390.403148 101.819214 
L 424.22133 112.648556 
L 458.039511 126.97115 
L 491.857693 141.134766 
L 525.675875 152.609868 
L 559.494057 159.94765 
L 593.312239 162.910102 
" clip-path="url(#pb58283f0ef)" style="fill: none; stroke: #000000; stroke-width: 2; stroke-linecap: square"/>
    <defs>
     <path id="mf9ab0bf19c" d="M 0 1 
C 0.265203 1 0.51958 0.894634 0.707107 0.707107 
C 0.894634 0.51958 1 0.265203 1 0 
C 1 -0.265203 0.894634 -0.51958 0.707107 -0.707107 
C 0.51958 -0.894634 0.265203 -1 0 -1 
C -0.265203 -1 -0.51958 -0.894634 -0.707107 -0.707107 
C -0.894634 -0.51958 -1 -0.265203 -1 0 
C -1 0.265203 -0.894634 0.51958 -0.707107 0.707107 
C -0.51958 0.894634 -0.265203 1 0 1 
z
" style="stroke: #000000"/>
    </defs>
    <g clip-path="url(#pb58283f0ef)">
     <use xlink:href="#mf9ab0bf19c" x="86.039511" y="320.573134" style="stroke: #000000"/>
     <use xlink:href="#mf9ab0bf19c" x="119.857693" y="311.025906" style="stroke: #000000"/>
     <use xlink:href="#mf9ab0bf19c" x="153.675875" y="284.26413" style="stroke: #000000"/>
     <use xlink:href="#mf9ab0bf19c" x="187.494057" y="245.412669" style="stroke: #000000"/>
     <use xlink:href="#mf9ab0bf19c" x="221.312239" y="201.528326" style="stroke: #000000"/>
     <use xlink:href="#mf9ab0bf19c" x="255.13042" y="160.082073" style="stroke: #000000"/>
     <use xlink:href="#mf9ab0bf19c" x="288.948602" y="127.181486" style="stroke: #000000"/>
     <use xlink:href="#mf9ab0bf19c" x="322.766784" y="106.443508" style="stroke: #000000"/>
     <use xlink:href="#mf9ab0bf19c" x="356.584966" y="98.634365" style="stroke: #000000"/>
     <use xlink:href="#mf9ab0bf19c" x="390.403148" y="101.819214" style="stroke: #000000"/>
     <use xlink:href="#mf9ab0bf19c" x="424.22133" y="112.648556" style="stroke: #000000"/>
     <use xlink:href="#mf9ab0bf19c" x="458.039511" y="126.97115" style="stroke: #000000"/>
     <use xlink:href="#mf9ab0bf19c" x="491.857693" y="141.134766" style="stroke: #000000"/>
     <use xlink:href="#mf9ab0bf19c" x="525.675875" y="152.609868" style="stroke: #000000"/>
     <use xlink:href="#mf9ab0bf19c" x="559.494057" y="159.94765" style="stroke: #000000"/>
     <use xlink:href="#mf9ab0bf19c" x="593.312239" y="162.910102" style="stroke: #000000"/>
    </g>
   </g>
   <g id="line2d_30">
    <path d="M 86.039511 233.791842 
L 119.857693 224.041618 
L 153.675875 196.635645 
L 187.494057 156.975235 
L 221.312239 112.549301 
L 255.13042 71.267037 
L 288.948602 39.695952 
L 322.766784 21.774163 
L 356.584966 18.309694 
L 390.403148 27.323451 
L 424.22133 45.011475 
L 458.039511 66.944262 
L 491.857693 89.096131 
L 525.675875 108.521056 
L 559.494057 123.486312 
L 593.312239 133.405729 
" clip-path="url(#pb58283f0ef)" style="fill: none; stroke: #1f77b4; stroke-linecap: square"/>
    <defs>
     <path id="m4d22637dc4" d="M 0 1 
C 0.265203 1 0.51958 0.894634 0.707107 0.707107 
C 0.894634 0.51958 1 0.265203 1 0 
C 1 -0.265203 0.894634 -0.51958 0.707107 -0.707107 
C 0.51958 -0.894634 0.265203 -1 0 -1 
C -0.265203 -1 -0.51958 -0.894634 -0.707107 -0.707107 
C -0.894634 -0.51958 -1 -0.265203 -1 0 
C -1 0.265203 -0.894634 0.51958 -0.707107 0.707107 
C -0.51958 0.894634 -0.265203 1 0 1 
z
" style="stroke: #1f77b4"/>
    </defs>
    <g clip-path="url(#pb58283f0ef)">
     <use xlink:href="#m4d22637dc4" x="86.039511" y="233.791842" style="fill: #1f77b4; stroke: #1f77b4"/>
     <use xlink:href="#m4d22637dc4" x="119.857693" y="224.041618" style="fill: #1f77b4; stroke: #1f77b4"/>
     <use xlink:href="#m4d22637dc4" x="153.675875" y="196.635645" style="fill: #1f77b4; stroke: #1f77b4"/>
     <use xlink:href="#m4d22637dc4" x="187.494057" y="156.975235" style="fill: #1f77b4; stroke: #1f77b4"/>
     <use xlink:href="#m4d22637dc4" x="221.312239" y="112.549301" style="fill: #1f77b4; stroke: #1f77b4"/>
     <use xlink:href="#m4d22637dc4" x="255.13042" y="71.267037" style="fill: #1f77b4; stroke: #1f77b4"/>
     <use xlink:href="#m4d22637dc4" x="288.948602" y="39.695952" style="fill: #1f77b4; stroke: #1f77b4"/>
     <use xlink:href="#m4d22637dc4" x="322.766784" y="21.774163" style="fill: #1f77b4; stroke: #1f77b4"/>
     <use xlink:href="#m4d22637dc4" x="356.584966" y="18.309694" style="fill: #1f77b4; stroke: #1f77b4"/>
     <use xlink:href="#m4d22637dc4" x="390.403148" y="27.323451" style="fill: #1f77b4; stroke: #1f77b4"/>
     <use xlink:href="#m4d22637dc4" x="424.22133" y="45.011475" style="fill: #1f77b4; stroke: #1f77b4"/>
     <use xlink:href="#m4d22637dc4" x="458.039511" y="66.944262" style="fill: #1f77b4; stroke: #1f77b4"/>
     <use xlink:href="#m4d22637dc4" x="491.857693" y="89.096131" style="fill: #1f77b4; stroke: #1f77b4"/>
     <use xlink:href="#m4d22637dc4" x="525.675875" y="108.521056" style="fill: #1f77b4; stroke: #1f77b4"/>
     <use xlink:href="#m4d22637dc4" x="559.494057" y="123.486312" style="fill: #1f77b4; stroke: #1f77b4"/>
     <use xlink:href="#m4d22637dc4" x="593.312239" y="133.405729" style="fill: #1f77b4; stroke: #1f77b4"/>
    </g>
   </g>
   <g id="line2d_31">
    <path d="M 86.039511 297.815538 
L 119.857693 288.34776 
L 153.675875 261.703233 
L 187.494057 222.905457 
L 221.312239 178.997463 
L 255.13042 137.431363 
L 288.948602 104.430242 
L 322.766784 83.780545 
L 356.584966 76.35099 
L 390.403148 80.392218 
L 424.22133 92.433021 
L 458.039511 108.406665 
L 491.857693 124.629066 
L 525.675875 138.370086 
L 559.494057 148.117004 
L 593.312239 153.399657 
" clip-path="url(#pb58283f0ef)" style="fill: none; stroke: #ff7f0e; stroke-linecap: square"/>
    <defs>
     <path id="m9c83aa5895" d="M 0 1 
C 0.265203 1 0.51958 0.894634 0.707107 0.707107 
C 0.894634 0.51958 1 0.265203 1 0 
C 1 -0.265203 0.894634 -0.51958 0.707107 -0.707107 
C 0.51958 -0.894634 0.265203 -1 0 -1 
C -0.265203 -1 -0.51958 -0.894634 -0.707107 -0.707107 
C -0.894634 -0.51958 -1 -0.265203 -1 0 
C -1 0.265203 -0.894634 0.51958 -0.707107 0.707107 
C -0.51958 0.894634 -0.265203 1 0 1 
z
" style="stroke: #ff7f0e"/>
    </defs>
    <g clip-path="url(#pb58283f0ef)">
     <use xlink:href="#m9c83aa5895" x="86.039511" y="297.815538" style="fill: #ff7f0e; stroke: #ff7f0e"/>
     <use xlink:href="#m9c83aa5895" x="119.857693" y="288.34776" style="fill: #ff7f0e; stroke: #ff7f0e"/>
     <use xlink:href="#m9c83aa5895" x="153.675875" y="261.703233" style="fill: #ff7f0e; stroke: #ff7f0e"/>
     <use xlink:href="#m9c83aa5895" x="187.494057" y="222.905457" style="fill: #ff7f0e; stroke: #ff7f0e"/>
     <use xlink:href="#m9c83aa5895" x="221.312239" y="178.997463" style="fill: #ff7f0e; stroke: #ff7f0e"/>
     <use xlink:href="#m9c83aa5895" x="255.13042" y="137.431363" style="fill: #ff7f0e; stroke: #ff7f0e"/>
     <use xlink:href="#m9c83aa5895" x="288.948602" y="104.430242" style="fill: #ff7f0e; stroke: #ff7f0e"/>
     <use xlink:href="#m9c83aa5895" x="322.766784" y="83.780545" style="fill: #ff7f0e; stroke: #ff7f0e"/>
     <use xlink:href="#m9c83aa5895" x="356.584966" y="76.35099" style="fill: #ff7f0e; stroke: #ff7f0e"/>
     <use xlink:href="#m9c83aa5895" x="390.403148" y="80.392218" style="fill: #ff7f0e; stroke: #ff7f0e"/>
     <use xlink:href="#m9c83aa5895" x="424.22133" y="92.433021" style="fill: #ff7f0e; stroke: #ff7f0e"/>
     <use xlink:href="#m9c83aa5895" x="458.039511" y="108.406665" style="fill: #ff7f0e; stroke: #ff7f0e"/>
     <use xlink:href="#m9c83aa5895" x="491.857693" y="124.629066" style="fill: #ff7f0e; stroke: #ff7f0e"/>
     <use xlink:href="#m9c83aa5895" x="525.675875" y="138.370086" style="fill: #ff7f0e; stroke: #ff7f0e"/>
     <use xlink:href="#m9c83aa5895" x="559.494057" y="148.117004" style="fill: #ff7f0e; stroke: #ff7f0e"/>
     <use xlink:href="#m9c83aa5895" x="593.312239" y="153.399657" style="fill: #ff7f0e; stroke: #ff7f0e"/>
    </g>
   </g>
   <g id="line2d_32">
    <path d="M 86.039511 313.540722 
L 119.857693 304.063482 
L 153.675875 277.489362 
L 187.494057 238.782972 
L 221.312239 194.939522 
L 255.13042 153.332853 
L 288.948602 120.09486 
L 322.766784 98.938127 
L 356.584966 90.706282 
L 390.403148 93.683924 
L 424.22133 104.468346 
L 458.039511 119.057993 
L 491.857693 133.819357 
L 525.675875 146.100525 
L 559.494057 154.437493 
L 593.312239 158.431816 
" clip-path="url(#pb58283f0ef)" style="fill: none; stroke: #2ca02c; stroke-linecap: square"/>
    <defs>
     <path id="ma08bbefeef" d="M 0 1 
C 0.265203 1 0.51958 0.894634 0.707107 0.707107 
C 0.894634 0.51958 1 0.265203 1 0 
C 1 -0.265203 0.894634 -0.51958 0.707107 -0.707107 
C 0.51958 -0.894634 0.265203 -1 0 -1 
C -0.265203 -1 -0.51958 -0.894634 -0.707107 -0.707107 
C -0.894634 -0.51958 -1 -0.265203 -1 0 
C -1 0.265203 -0.894634 0.51958 -0.707107 0.707107 
C -0.51958 0.894634 -0.265203 1 0 1 
z
" style="stroke: #2ca02c"/>
    </defs>
    <g clip-path="url(#pb58283f0ef)">
     <use xlink:href="#ma08bbefeef" x="86.039511" y="313.540722" style="fill: #2ca02c; stroke: #2ca02c"/>
     <use xlink:href="#ma08bbefeef" x="119.857693" y="304.063482" style="fill: #2ca02c; stroke: #2ca02c"/>
     <use xlink:href="#ma08bbefeef" x="153.675875" y="277.489362" style="fill: #2ca02c; stroke: #2ca02c"/>
     <use xlink:href="#ma08bbefeef" x="187.494057" y="238.782972" style="fill: #2ca02c; stroke: #2ca02c"/>
     <use xlink:href="#ma08bbefeef" x="221.312239" y="194.939522" style="fill: #2ca02c; stroke: #2ca02c"/>
     <use xlink:href="#ma08bbefeef" x="255.13042" y="153.332853" style="fill: #2ca02c; stroke: #2ca02c"/>
     <use xlink:href="#ma08bbefeef" x="288.948602" y="120.09486" style="fill: #2ca02c; stroke: #2ca02c"/>
     <use xlink:href="#ma08bbefeef" x="322.766784" y="98.938127" style="fill: #2ca02c; stroke: #2ca02c"/>
     <use xlink:href="#ma08bbefeef" x="356.584966" y="90.706282" style="fill: #2ca02c; stroke: #2ca02c"/>
     <use xlink:href="#ma08bbefeef" x="390.403148" y="93.683924" style="fill: #2ca02c; stroke: #2ca02c"/>
     <use xlink:href="#ma08bbefeef" x="424.22133" y="104.468346" style="fill: #2ca02c; stroke: #2ca02c"/>
     <use xlink:href="#ma08bbefeef" x="458.039511" y="119.057993" style="fill: #2ca02c; stroke: #2ca02c"/>
     <use xlink:href="#ma08bbefeef" x="491.857693" y="133.819357" style="fill: #2ca02c; stroke: #2ca02c"/>
     <use xlink:href="#ma08bbefeef" x="525.675875" y="146.100525" style="fill: #2ca02c; stroke: #2ca02c"/>
     <use xlink:href="#ma08bbefeef" x="559.494057" y="154.437493" style="fill: #2ca02c; stroke: #2ca02c"/>
     <use xlink:href="#ma08bbefeef" x="593.312239" y="158.431816" style="fill: #2ca02c; stroke: #2ca02c"/>
    </g>
   </g>
   <g id="line2d_33">
    <path d="M 86.039511 323.470444 
L 119.857693 314.092889 
L 153.675875 287.686645 
L 187.494057 249.128744 
L 221.312239 205.300326 
L 255.13042 163.498373 
L 288.948602 129.838963 
L 322.766784 108.064838 
L 356.584966 99.062974 
L 390.403148 101.155657 
L 424.22133 110.983239 
L 458.039511 124.612939 
L 491.857693 138.498397 
L 525.675875 150.000479 
L 559.494057 157.699203 
L 593.312239 161.17024 
" clip-path="url(#pb58283f0ef)" style="fill: none; stroke: #d62728; stroke-linecap: square"/>
    <defs>
     <path id="mb15e9d4050" d="M 0 1 
C 0.265203 1 0.51958 0.894634 0.707107 0.707107 
C 0.894634 0.51958 1 0.265203 1 0 
C 1 -0.265203 0.894634 -0.51958 0.707107 -0.707107 
C 0.51958 -0.894634 0.265203 -1 0 -1 
C -0.265203 -1 -0.51958 -0.894634 -0.707107 -0.707107 
C -0.894634 -0.51958 -1 -0.265203 -1 0 
C -1 0.265203 -0.894634 0.51958 -0.707107 0.707107 
C -0.51958 0.894634 -0.265203 1 0 1 
z
" style="stroke: #d62728"/>
    </defs>
    <g clip-path="url(#pb58283f0ef)">
     <use xlink:href="#mb15e9d4050" x="86.039511" y="323.470444" style="fill: #d62728; stroke: #d62728"/>
     <use xlink:href="#mb15e9d4050" x="119.857693" y="314.092889" style="fill: #d62728; stroke: #d62728"/>
     <use xlink:href="#mb15e9d4050" x="153.675875" y="287.686645" style="fill: #d62728; stroke: #d62728"/>
     <use xlink:href="#mb15e9d4050" x="187.494057" y="249.128744" style="fill: #d62728; stroke: #d62728"/>
     <use xlink:href="#mb15e9d4050" x="221.312239" y="205.300326" style="fill: #d62728; stroke: #d62728"/>
     <use xlink:href="#mb15e9d4050" x="255.13042" y="163.498373" style="fill: #d62728; stroke: #d62728"/>
     <use xlink:href="#mb15e9d4050" x="288.948602" y="129.838963" style="fill: #d62728; stroke: #d62728"/>
     <use xlink:href="#mb15e9d4050" x="322.766784" y="108.064838" style="fill: #d62728; stroke: #d62728"/>
     <use xlink:href="#mb15e9d4050" x="356.584966" y="99.062974" style="fill: #d62728; stroke: #d62728"/>
     <use xlink:href="#mb15e9d4050" x="390.403148" y="101.155657" style="fill: #d62728; stroke: #d62728"/>
     <use xlink:href="#mb15e9d4050" x="424.22133" y="110.983239" style="fill: #d62728; stroke: #d62728"/>
     <use xlink:href="#mb15e9d4050" x="458.039511" y="124.612939" style="fill: #d62728; stroke: #d62728"/>
     <use xlink:href="#mb15e9d4050" x="491.857693" y="138.498397" style="fill: #d62728; stroke: #d62728"/>
     <use xlink:href="#mb15e9d4050" x="525.675875" y="150.000479" style="fill: #d62728; stroke: #d62728"/>
     <use xlink:href="#mb15e9d4050" x="559.494057" y="157.699203" style="fill: #d62728; stroke: #d62728"/>
     <use xlink:href="#mb15e9d4050" x="593.312239" y="161.17024" style="fill: #d62728; stroke: #d62728"/>
    </g>
   </g>
   <g id="line2d_34">
    <path d="M 86.039511 324.284075 
L 119.857693 314.806375 
L 153.675875 288.304615 
L 187.494057 249.705729 
L 221.312239 205.969676 
L 255.13042 164.404212 
L 288.948602 131.059052 
L 322.766784 109.582432 
L 356.584966 100.798351 
L 390.403148 103.017122 
L 424.22133 112.887414 
L 458.039511 126.45912 
L 491.857693 140.142699 
L 525.675875 151.352036 
L 559.494057 158.66185 
L 593.312239 161.725035 
" clip-path="url(#pb58283f0ef)" style="fill: none; stroke: #9467bd; stroke-linecap: square"/>
    <defs>
     <path id="md3dbd89fed" d="M 0 1 
C 0.265203 1 0.51958 0.894634 0.707107 0.707107 
C 0.894634 0.51958 1 0.265203 1 0 
C 1 -0.265203 0.894634 -0.51958 0.707107 -0.707107 
C 0.51958 -0.894634 0.265203 -1 0 -1 
C -0.265203 -1 -0.51958 -0.894634 -0.707107 -0.707107 
C -0.894634 -0.51958 -1 -0.265203 -1 0 
C -1 0.265203 -0.894634 0.51958 -0.707107 0.707107 
C -0.51958 0.894634 -0.265203 1 0 1 
z
" style="stroke: #9467bd"/>
    </defs>
    <g clip-path="url(#pb58283f0ef)">
     <use xlink:href="#md3dbd89fed" x="86.039511" y="324.284075" style="fill: #9467bd; stroke: #9467bd"/>
     <use xlink:href="#md3dbd89fed" x="119.857693" y="314.806375" style="fill: #9467bd; stroke: #9467bd"/>
     <use xlink:href="#md3dbd89fed" x="153.675875" y="288.304615" style="fill: #9467bd; stroke: #9467bd"/>
     <use xlink:href="#md3dbd89fed" x="187.494057" y="249.705729" style="fill: #9467bd; stroke: #9467bd"/>
     <use xlink:href="#md3dbd89fed" x="221.312239" y="205.969676" style="fill: #9467bd; stroke: #9467bd"/>
     <use xlink:href="#md3dbd89fed" x="255.13042" y="164.404212" style="fill: #9467bd; stroke: #9467bd"/>
     <use xlink:href="#md3dbd89fed" x="288.948602" y="131.059052" style="fill: #9467bd; stroke: #9467bd"/>
     <use xlink:href="#md3dbd89fed" x="322.766784" y="109.582432" style="fill: #9467bd; stroke: #9467bd"/>
     <use xlink:href="#md3dbd89fed" x="356.584966" y="100.798351" style="fill: #9467bd; stroke: #9467bd"/>
     <use xlink:href="#md3dbd89fed" x="390.403148" y="103.017122" style="fill: #9467bd; stroke: #9467bd"/>
     <use xlink:href="#md3dbd89fed" x="424.22133" y="112.887414" style="fill: #9467bd; stroke: #9467bd"/>
     <use xlink:href="#md3dbd89fed" x="458.039511" y="126.45912" style="fill: #9467bd; stroke: #9467bd"/>
     <use xlink:href="#md3dbd89fed" x="491.857693" y="140.142699" style="fill: #9467bd; stroke: #9467bd"/>
     <use xlink:href="#md3dbd89fed" x="525.675875" y="151.352036" style="fill: #9467bd; stroke: #9467bd"/>
     <use xlink:href="#md3dbd89fed" x="559.494057" y="158.66185" style="fill: #9467bd; stroke: #9467bd"/>
     <use xlink:href="#md3dbd89fed" x="593.312239" y="161.725035" style="fill: #9467bd; stroke: #9467bd"/>
    </g>
   </g>
   <g id="patch_4">
    <path d="M 60.675875 346.4928 
L 60.675875 13.8528 
" style="fill: none; stroke: #000000; stroke-width: 0.8; stroke-linejoin: miter; stroke-linecap: square"/>
   </g>
   <g id="patch_5">
    <path d="M 618.675875 346.4928 
L 618.675875 13.8528 
" style="fill: none; stroke: #000000; stroke-width: 0.8; stroke-linejoin: miter; stroke-linecap: square"/>
   </g>
   <g id="patch_6">
    <path d="M 60.675875 346.4928 
L 618.675875 346.4928 
" style="fill: none; stroke: #000000; stroke-width: 0.8; stroke-linejoin: miter; stroke-linecap: square"/>
   </g>
   <g id="patch_7">
    <path d="M 60.675875 13.8528 
L 618.675875 13.8528 
" style="fill: none; stroke: #000000; stroke-width: 0.8; stroke-linejoin: miter; stroke-linecap: square"/>
   </g>
   <g id="patch_8">
    <path d="M 105.747875 140.256 
L 238.803875 140.256 
L 238.803875 7.2 
L 105.747875 7.2 
L 105.747875 140.256 
z
" style="fill: none"/>
   </g>
   <g id="axes_2">
    <g id="line2d_35">
     <path d="M 132.020065 87.182242 
L 118.740282 87.182242 
" clip-path="url(#p24242f92fc)" style="fill: none; stroke: #e6e6fa; stroke-width: 1.5; stroke-linecap: square"/>
     <defs>
      <path id="m5599eb6499" d="M 0 1.5 
C 0.397805 1.5 0.77937 1.341951 1.06066 1.06066 
C 1.341951 0.77937 1.5 0.397805 1.5 0 
C 1.5 -0.397805 1.341951 -0.77937 1.06066 -1.06066 
C 0.77937 -1.341951 0.397805 -1.5 0 -1.5 
C -0.397805 -1.5 -0.77937 -1.341951 -1.06066 -1.06066 
C -1.341951 -0.77937 -1.5 -0.397805 -1.5 0 
C -1.5 0.397805 -1.341951 0.77937 -1.06066 1.06066 
C -0.77937 1.341951 -0.397805 1.5 0 1.5 
z
" style="stroke: #e6e6fa"/>
     </defs>
     <g clip-path="url(#p24242f92fc)">
      <use xlink:href="#m5599eb6499" x="132.020065" y="87.182242" style="fill: #e6e6fa; stroke: #e6e6fa"/>
      <use xlink:href="#m5599eb6499" x="118.740282" y="87.182242" style="fill: #e6e6fa; stroke: #e6e6fa"/>
     </g>
    </g>
    <g id="line2d_36">
     <path d="M 141.119107 79.671541 
L 135.125017 73.993473 
" clip-path="url(#p24242f92fc)" style="fill: none; stroke: #e6e6fa; stroke-width: 1.5; stroke-linecap: square"/>
     <g clip-path="url(#p24242f92fc)">
      <use xlink:href="#m5599eb6499" x="141.119107" y="79.671541" style="fill: #e6e6fa; stroke: #e6e6fa"/>
      <use xlink:href="#m5599eb6499" x="135.125017" y="73.993473" style="fill: #e6e6fa; stroke: #e6e6fa"/>
     </g>
    </g>
    <g id="line2d_37">
     <path d="M 157.849793 79.671541 
L 164.504052 73.993473 
" clip-path="url(#p24242f92fc)" style="fill: none; stroke: #e6e6fa; stroke-width: 1.5; stroke-linecap: square"/>
     <g clip-path="url(#p24242f92fc)">
      <use xlink:href="#m5599eb6499" x="157.849793" y="79.671541" style="fill: #e6e6fa; stroke: #e6e6fa"/>
      <use xlink:href="#m5599eb6499" x="164.504052" y="73.993473" style="fill: #e6e6fa; stroke: #e6e6fa"/>
     </g>
    </g>
    <g id="line2d_38">
     <path d="M 166.07559 87.182242 
L 179.355373 87.182242 
" clip-path="url(#p24242f92fc)" style="fill: none; stroke: #e6e6fa; stroke-width: 1.5; stroke-linecap: square"/>
     <g clip-path="url(#p24242f92fc)">
      <use xlink:href="#m5599eb6499" x="166.07559" y="87.182242" style="fill: #e6e6fa; stroke: #e6e6fa"/>
      <use xlink:href="#m5599eb6499" x="179.355373" y="87.182242" style="fill: #e6e6fa; stroke: #e6e6fa"/>
     </g>
    </g>
    <g id="line2d_39">
     <path d="M 157.26321 94.964491 
L 163.879408 101.231868 
" clip-path="url(#p24242f92fc)" style="fill: none; stroke: #e6e6fa; stroke-width: 1.5; stroke-linecap: square"/>
     <g clip-path="url(#p24242f92fc)">
      <use xlink:href="#m5599eb6499" x="157.26321" y="94.964491" style="fill: #e6e6fa; stroke: #e6e6fa"/>
      <use xlink:href="#m5599eb6499" x="163.879408" y="101.231868" style="fill: #e6e6fa; stroke: #e6e6fa"/>
     </g>
    </g>
    <g id="line2d_40">
     <path d="M 139.927629 94.964492 
L 132.582745 101.231868 
" clip-path="url(#p24242f92fc)" style="fill: none; stroke: #e6e6fa; stroke-width: 1.5; stroke-linecap: square"/>
     <g clip-path="url(#p24242f92fc)">
      <use xlink:href="#m5599eb6499" x="139.927629" y="94.964492" style="fill: #e6e6fa; stroke: #e6e6fa"/>
      <use xlink:href="#m5599eb6499" x="132.582745" y="101.231868" style="fill: #e6e6fa; stroke: #e6e6fa"/>
     </g>
    </g>
    <g id="line2d_41">
     <path d="M 132.020065 87.182242 
L 141.119107 79.671541 
" clip-path="url(#p24242f92fc)" style="fill: none; stroke: #000000; stroke-width: 1.5; stroke-linecap: square"/>
     <defs>
      <path id="mf33139a57b" d="M 0 1.5 
C 0.397805 1.5 0.77937 1.341951 1.06066 1.06066 
C 1.341951 0.77937 1.5 0.397805 1.5 0 
C 1.5 -0.397805 1.341951 -0.77937 1.06066 -1.06066 
C 0.77937 -1.341951 0.397805 -1.5 0 -1.5 
C -0.397805 -1.5 -0.77937 -1.341951 -1.06066 -1.06066 
C -1.341951 -0.77937 -1.5 -0.397805 -1.5 0 
C -1.5 0.397805 -1.341951 0.77937 -1.06066 1.06066 
C -0.77937 1.341951 -0.397805 1.5 0 1.5 
z
" style="stroke: #000000"/>
     </defs>
     <g clip-path="url(#p24242f92fc)">
      <use xlink:href="#mf33139a57b" x="132.020065" y="87.182242" style="stroke: #000000"/>
      <use xlink:href="#mf33139a57b" x="141.119107" y="79.671541" style="stroke: #000000"/>
     </g>
    </g>
    <g id="line2d_42">
     <path d="M 141.119107 79.671541 
L 157.849793 79.671541 
" clip-path="url(#p24242f92fc)" style="fill: none; stroke: #000000; stroke-width: 1.5; stroke-linecap: square"/>
     <g clip-path="url(#p24242f92fc)">
      <use xlink:href="#mf33139a57b" x="141.119107" y="79.671541" style="stroke: #000000"/>
      <use xlink:href="#mf33139a57b" x="157.849793" y="79.671541" style="stroke: #000000"/>
     </g>
    </g>
    <g id="line2d_43">
     <path d="M 157.849793 79.671541 
L 166.07559 87.182242 
" clip-path="url(#p24242f92fc)" style="fill: none; stroke: #000000; stroke-width: 1.5; stroke-linecap: square"/>
     <g clip-path="url(#p24242f92fc)">
      <use xlink:href="#mf33139a57b" x="157.849793" y="79.671541" style="stroke: #000000"/>
      <use xlink:href="#mf33139a57b" x="166.07559" y="87.182242" style="stroke: #000000"/>
     </g>
    </g>
    <g id="line2d_44">
     <path d="M 166.07559 87.182242 
L 157.26321 94.964491 
" clip-path="url(#p24242f92fc)" style="fill: none; stroke: #000000; stroke-width: 1.5; stroke-linecap: square"/>
     <g clip-path="url(#p24242f92fc)">
      <use xlink:href="#mf33139a57b" x="166.07559" y="87.182242" style="stroke: #000000"/>
      <use xlink:href="#mf33139a57b" x="157.26321" y="94.964491" style="stroke: #000000"/>
     </g>
    </g>
    <g id="line2d_45">
     <path d="M 157.26321 94.964491 
L 139.927629 94.964492 
" clip-path="url(#p24242f92fc)" style="fill: none; stroke: #000000; stroke-width: 1.5; stroke-linecap: square"/>
     <g clip-path="url(#p24242f92fc)">
      <use xlink:href="#mf33139a57b" x="157.26321" y="94.964491" style="stroke: #000000"/>
      <use xlink:href="#mf33139a57b" x="139.927629" y="94.964492" style="stroke: #000000"/>
     </g>
    </g>
    <g id="line2d_46">
     <path d="M 139.927629 94.964492 
L 132.020065 87.182242 
" clip-path="url(#p24242f92fc)" style="fill: none; stroke: #000000; stroke-width: 1.5; stroke-linecap: square"/>
     <g clip-path="url(#p24242f92fc)">
      <use xlink:href="#mf33139a57b" x="139.927629" y="94.964492" style="stroke: #000000"/>
      <use xlink:href="#mf33139a57b" x="132.020065" y="87.182242" style="stroke: #000000"/>
     </g>
    </g>
    <g id="line2d_47">
     <path d="M 202.997623 103.614137 
L 98.924429 71.915781 
" clip-path="url(#p24242f92fc)" style="fill: none; stroke: #000000; stroke-linecap: square"/>
    </g>
    <g id="line2d_48">
     <path d="M 179.252042 61.409039 
L 114.735092 116.461239 
" clip-path="url(#p24242f92fc)" style="fill: none; stroke: #000000; stroke-linecap: square"/>
    </g>
    <g id="line2d_49">
     <path d="M 148.224774 46.714588 
L 149.820085 125.152387 
" clip-path="url(#p24242f92fc)" style="fill: none; stroke: #000000; stroke-linecap: square"/>
    </g>
    <g id="Line3DCollection_1">
     <path d="M 186.642102 73.108657 
L 148.539188 62.173614 
" clip-path="url(#p24242f92fc)" style="fill: none; stroke: #0000ff; stroke-width: 1.5"/>
     <path d="M 186.642102 73.108657 
L 175.388524 72.120842 
" clip-path="url(#p24242f92fc)" style="fill: none; stroke: #0000ff; stroke-width: 1.5"/>
     <path d="M 186.642102 73.108657 
L 175.393263 67.630488 
" clip-path="url(#p24242f92fc)" style="fill: none; stroke: #0000ff; stroke-width: 1.5"/>
    </g>
    <g id="text_17">
     <!-- $x$ -->
     <g transform="translate(205.24141 104.297545) scale(0.06 -0.06)">
      <defs>
       <path id="DejaVuSans-Oblique-78" d="M 3841 3500 
L 2234 1784 
L 3219 0 
L 2559 0 
L 1819 1388 
L 531 0 
L -166 0 
L 1556 1844 
L 641 3500 
L 1300 3500 
L 1972 2234 
L 3144 3500 
L 3841 3500 
z
" transform="scale(0.015625)"/>
      </defs>
      <use xlink:href="#DejaVuSans-Oblique-78" transform="translate(0 0.3125)"/>
     </g>
    </g>
    <g id="text_18">
     <!-- $y$ -->
     <g transform="translate(181.25077 61.969386) scale(0.06 -0.06)">
      <defs>
       <path id="DejaVuSans-Oblique-79" d="M 1588 -325 
Q 1188 -997 936 -1164 
Q 684 -1331 294 -1331 
L -159 -1331 
L -63 -850 
L 269 -850 
Q 509 -850 678 -719 
Q 847 -588 1056 -206 
L 1234 128 
L 459 3500 
L 1069 3500 
L 1650 819 
L 3256 3500 
L 3859 3500 
L 1588 -325 
z
" transform="scale(0.015625)"/>
      </defs>
      <use xlink:href="#DejaVuSans-Oblique-79" transform="translate(0 0.3125)"/>
     </g>
    </g>
    <g id="text_19">
     <!-- $z$ -->
     <g transform="translate(150.373801 47.30795) scale(0.06 -0.06)">
      <defs>
       <path id="DejaVuSans-Oblique-7a" d="M 744 3500 
L 3475 3500 
L 3372 2975 
L 738 459 
L 2913 459 
L 2822 0 
L -19 0 
L 84 525 
L 2719 3041 
L 653 3041 
L 744 3500 
z
" transform="scale(0.015625)"/>
      </defs>
      <use xlink:href="#DejaVuSans-Oblique-7a" transform="translate(0 0.3125)"/>
     </g>
    </g>
   </g>
  </g>
  <g id="axes_3">
   <g id="patch_9">
    <path d="M 272.039511 324.8608 
L 407.312239 324.8608 
L 407.312239 165.1936 
L 272.039511 165.1936 
z
" style="fill: #ffffff"/>
   </g>
   <g id="patch_10">
    <path d="M 272.039511 324.8608 
L 322.766784 120.2976 
" style="fill: none; stroke: #808080; stroke-linejoin: miter"/>
   </g>
   <g id="patch_11">
    <path d="M 407.312239 324.8608 
L 356.584966 120.2976 
" style="fill: none; stroke: #808080; stroke-linejoin: miter"/>
   </g>
   <g id="matplotlib.axis_3">
    <g id="xtick_8">
     <g id="line2d_50">
      <g>
       <use xlink:href="#m2e3008c3db" x="272.039511" y="324.8608" style="stroke: #000000; stroke-width: 0.8"/>
      </g>
     </g>
     <g id="text_20">
      <!-- 1.4 -->
      <g transform="translate(264.087949 339.459237) scale(0.1 -0.1)">
       <use xlink:href="#DejaVuSans-31"/>
       <use xlink:href="#DejaVuSans-2e" transform="translate(63.623047 0)"/>
       <use xlink:href="#DejaVuSans-34" transform="translate(95.410156 0)"/>
      </g>
     </g>
    </g>
    <g id="xtick_9">
     <g id="line2d_51">
      <g>
       <use xlink:href="#m2e3008c3db" x="339.675875" y="324.8608" style="stroke: #000000; stroke-width: 0.8"/>
      </g>
     </g>
     <g id="text_21">
      <!-- 1.5 -->
      <g transform="translate(331.724312 339.459237) scale(0.1 -0.1)">
       <use xlink:href="#DejaVuSans-31"/>
       <use xlink:href="#DejaVuSans-2e" transform="translate(63.623047 0)"/>
       <use xlink:href="#DejaVuSans-35" transform="translate(95.410156 0)"/>
      </g>
     </g>
    </g>
    <g id="xtick_10">
     <g id="line2d_52">
      <g>
       <use xlink:href="#m2e3008c3db" x="407.312239" y="324.8608" style="stroke: #000000; stroke-width: 0.8"/>
      </g>
     </g>
     <g id="text_22">
      <!-- 1.6 -->
      <g transform="translate(399.360676 339.459237) scale(0.1 -0.1)">
       <use xlink:href="#DejaVuSans-31"/>
       <use xlink:href="#DejaVuSans-2e" transform="translate(63.623047 0)"/>
       <use xlink:href="#DejaVuSans-36" transform="translate(95.410156 0)"/>
      </g>
     </g>
    </g>
   </g>
   <g id="matplotlib.axis_4">
    <g id="ytick_8">
     <g id="line2d_53">
      <g>
       <use xlink:href="#md9ed1bf29f" x="272.039511" y="324.8608" style="stroke: #000000; stroke-width: 0.8"/>
      </g>
     </g>
     <g id="text_23">
      <!-- −15.0 -->
      <g transform="translate(234.394199 328.660019) scale(0.1 -0.1)">
       <use xlink:href="#DejaVuSans-2212"/>
       <use xlink:href="#DejaVuSans-31" transform="translate(83.789062 0)"/>
       <use xlink:href="#DejaVuSans-35" transform="translate(147.412109 0)"/>
       <use xlink:href="#DejaVuSans-2e" transform="translate(211.035156 0)"/>
       <use xlink:href="#DejaVuSans-30" transform="translate(242.822266 0)"/>
      </g>
     </g>
    </g>
    <g id="ytick_9">
     <g id="line2d_54">
      <g>
       <use xlink:href="#md9ed1bf29f" x="272.039511" y="298.2496" style="stroke: #000000; stroke-width: 0.8"/>
      </g>
     </g>
     <g id="text_24">
      <!-- −12.5 -->
      <g transform="translate(234.394199 302.048819) scale(0.1 -0.1)">
       <use xlink:href="#DejaVuSans-2212"/>
       <use xlink:href="#DejaVuSans-31" transform="translate(83.789062 0)"/>
       <use xlink:href="#DejaVuSans-32" transform="translate(147.412109 0)"/>
       <use xlink:href="#DejaVuSans-2e" transform="translate(211.035156 0)"/>
       <use xlink:href="#DejaVuSans-35" transform="translate(242.822266 0)"/>
      </g>
     </g>
    </g>
    <g id="ytick_10">
     <g id="line2d_55">
      <g>
       <use xlink:href="#md9ed1bf29f" x="272.039511" y="271.6384" style="stroke: #000000; stroke-width: 0.8"/>
      </g>
     </g>
     <g id="text_25">
      <!-- −10.0 -->
      <g transform="translate(234.394199 275.437619) scale(0.1 -0.1)">
       <use xlink:href="#DejaVuSans-2212"/>
       <use xlink:href="#DejaVuSans-31" transform="translate(83.789062 0)"/>
       <use xlink:href="#DejaVuSans-30" transform="translate(147.412109 0)"/>
       <use xlink:href="#DejaVuSans-2e" transform="translate(211.035156 0)"/>
       <use xlink:href="#DejaVuSans-30" transform="translate(242.822266 0)"/>
      </g>
     </g>
    </g>
    <g id="ytick_11">
     <g id="line2d_56">
      <g>
       <use xlink:href="#md9ed1bf29f" x="272.039511" y="245.0272" style="stroke: #000000; stroke-width: 0.8"/>
      </g>
     </g>
     <g id="text_26">
      <!-- −7.5 -->
      <g transform="translate(240.756699 248.826419) scale(0.1 -0.1)">
       <defs>
        <path id="DejaVuSans-37" d="M 525 4666 
L 3525 4666 
L 3525 4397 
L 1831 0 
L 1172 0 
L 2766 4134 
L 525 4134 
L 525 4666 
z
" transform="scale(0.015625)"/>
       </defs>
       <use xlink:href="#DejaVuSans-2212"/>
       <use xlink:href="#DejaVuSans-37" transform="translate(83.789062 0)"/>
       <use xlink:href="#DejaVuSans-2e" transform="translate(147.412109 0)"/>
       <use xlink:href="#DejaVuSans-35" transform="translate(179.199219 0)"/>
      </g>
     </g>
    </g>
    <g id="ytick_12">
     <g id="line2d_57">
      <g>
       <use xlink:href="#md9ed1bf29f" x="272.039511" y="218.416" style="stroke: #000000; stroke-width: 0.8"/>
      </g>
     </g>
     <g id="text_27">
      <!-- −5.0 -->
      <g transform="translate(240.756699 222.215219) scale(0.1 -0.1)">
       <use xlink:href="#DejaVuSans-2212"/>
       <use xlink:href="#DejaVuSans-35" transform="translate(83.789062 0)"/>
       <use xlink:href="#DejaVuSans-2e" transform="translate(147.412109 0)"/>
       <use xlink:href="#DejaVuSans-30" transform="translate(179.199219 0)"/>
      </g>
     </g>
    </g>
    <g id="ytick_13">
     <g id="line2d_58">
      <g>
       <use xlink:href="#md9ed1bf29f" x="272.039511" y="191.8048" style="stroke: #000000; stroke-width: 0.8"/>
      </g>
     </g>
     <g id="text_28">
      <!-- −2.5 -->
      <g transform="translate(240.756699 195.604019) scale(0.1 -0.1)">
       <use xlink:href="#DejaVuSans-2212"/>
       <use xlink:href="#DejaVuSans-32" transform="translate(83.789062 0)"/>
       <use xlink:href="#DejaVuSans-2e" transform="translate(147.412109 0)"/>
       <use xlink:href="#DejaVuSans-35" transform="translate(179.199219 0)"/>
      </g>
     </g>
    </g>
    <g id="ytick_14">
     <g id="line2d_59">
      <g>
       <use xlink:href="#md9ed1bf29f" x="272.039511" y="165.1936" style="stroke: #000000; stroke-width: 0.8"/>
      </g>
     </g>
     <g id="text_29">
      <!-- 0.0 -->
      <g transform="translate(249.136386 168.992819) scale(0.1 -0.1)">
       <use xlink:href="#DejaVuSans-30"/>
       <use xlink:href="#DejaVuSans-2e" transform="translate(63.623047 0)"/>
       <use xlink:href="#DejaVuSans-30" transform="translate(95.410156 0)"/>
      </g>
     </g>
    </g>
   </g>
   <g id="line2d_60">
    <path d="M 98.691987 389.43805 
L 136.766784 352.396343 
L 272.039511 269.444432 
L 407.312239 238.207858 
L 542.584966 250.947257 
L 626.875875 277.939102 
" clip-path="url(#pb359baa2f7)" style="fill: none; stroke: #000000; stroke-width: 2; stroke-linecap: square"/>
    <g clip-path="url(#pb359baa2f7)">
     <use xlink:href="#mf9ab0bf19c" x="-1" y="487.05531" style="stroke: #000000"/>
     <use xlink:href="#mf9ab0bf19c" x="1.494057" y="483.998691" style="stroke: #000000"/>
     <use xlink:href="#mf9ab0bf19c" x="136.766784" y="352.396343" style="stroke: #000000"/>
     <use xlink:href="#mf9ab0bf19c" x="272.039511" y="269.444432" style="stroke: #000000"/>
     <use xlink:href="#mf9ab0bf19c" x="407.312239" y="238.207858" style="stroke: #000000"/>
     <use xlink:href="#mf9ab0bf19c" x="542.584966" y="250.947257" style="stroke: #000000"/>
     <use xlink:href="#mf9ab0bf19c" x="677.857693" y="294.264626" style="stroke: #000000"/>
     <use xlink:href="#mf9ab0bf19c" x="813.13042" y="351.554998" style="stroke: #000000"/>
     <use xlink:href="#mf9ab0bf19c" x="948.403148" y="408.209465" style="stroke: #000000"/>
     <use xlink:href="#mf9ab0bf19c" x="1083.675875" y="454.109874" style="stroke: #000000"/>
     <use xlink:href="#mf9ab0bf19c" x="1218.948602" y="483.461" style="stroke: #000000"/>
     <use xlink:href="#mf9ab0bf19c" x="1354.22133" y="495.310809" style="stroke: #000000"/>
    </g>
   </g>
   <g id="line2d_61">
    <path d="M -1 131.783072 
L 1.494057 128.738547 
L 136.766784 2.454209 
L 143.284832 -1 
" clip-path="url(#pb359baa2f7)" style="fill: none; stroke: #1f77b4; stroke-linecap: square"/>
    <g clip-path="url(#pb359baa2f7)">
     <use xlink:href="#m4d22637dc4" x="-1" y="131.783072" style="fill: #1f77b4; stroke: #1f77b4"/>
     <use xlink:href="#m4d22637dc4" x="1.494057" y="128.738547" style="fill: #1f77b4; stroke: #1f77b4"/>
     <use xlink:href="#m4d22637dc4" x="136.766784" y="2.454209" style="fill: #1f77b4; stroke: #1f77b4"/>
     <use xlink:href="#m4d22637dc4" x="143.284832" y="-1" style="fill: #1f77b4; stroke: #1f77b4"/>
     <use xlink:href="#m4d22637dc4" x="630.601974" y="-1" style="fill: #1f77b4; stroke: #1f77b4"/>
     <use xlink:href="#m4d22637dc4" x="677.857693" y="23.716299" style="fill: #1f77b4; stroke: #1f77b4"/>
     <use xlink:href="#m4d22637dc4" x="813.13042" y="111.447448" style="fill: #1f77b4; stroke: #1f77b4"/>
     <use xlink:href="#m4d22637dc4" x="948.403148" y="200.054926" style="fill: #1f77b4; stroke: #1f77b4"/>
     <use xlink:href="#m4d22637dc4" x="1083.675875" y="277.754626" style="fill: #1f77b4; stroke: #1f77b4"/>
     <use xlink:href="#m4d22637dc4" x="1218.948602" y="337.615646" style="fill: #1f77b4; stroke: #1f77b4"/>
     <use xlink:href="#m4d22637dc4" x="1354.22133" y="377.293314" style="fill: #1f77b4; stroke: #1f77b4"/>
    </g>
   </g>
   <g id="line2d_62">
    <path d="M 5.549848 389.43805 
L 136.766784 261.391369 
L 272.039511 178.792579 
L 407.312239 149.074359 
L 542.584966 165.239273 
L 626.875875 195.25065 
" clip-path="url(#pb359baa2f7)" style="fill: none; stroke: #ff7f0e; stroke-linecap: square"/>
    <g clip-path="url(#pb359baa2f7)">
     <use xlink:href="#m9c83aa5895" x="-1" y="396.46131" style="fill: #ff7f0e; stroke: #ff7f0e"/>
     <use xlink:href="#m9c83aa5895" x="1.494057" y="393.395852" style="fill: #ff7f0e; stroke: #ff7f0e"/>
     <use xlink:href="#m9c83aa5895" x="136.766784" y="261.391369" style="fill: #ff7f0e; stroke: #ff7f0e"/>
     <use xlink:href="#m9c83aa5895" x="272.039511" y="178.792579" style="fill: #ff7f0e; stroke: #ff7f0e"/>
     <use xlink:href="#m9c83aa5895" x="407.312239" y="149.074359" style="fill: #ff7f0e; stroke: #ff7f0e"/>
     <use xlink:href="#m9c83aa5895" x="542.584966" y="165.239273" style="fill: #ff7f0e; stroke: #ff7f0e"/>
     <use xlink:href="#m9c83aa5895" x="677.857693" y="213.402484" style="fill: #ff7f0e; stroke: #ff7f0e"/>
     <use xlink:href="#m9c83aa5895" x="813.13042" y="277.297059" style="fill: #ff7f0e; stroke: #ff7f0e"/>
     <use xlink:href="#m9c83aa5895" x="948.403148" y="342.186665" style="fill: #ff7f0e; stroke: #ff7f0e"/>
     <use xlink:href="#m9c83aa5895" x="1083.675875" y="397.150744" style="fill: #ff7f0e; stroke: #ff7f0e"/>
     <use xlink:href="#m9c83aa5895" x="1218.948602" y="436.138418" style="fill: #ff7f0e; stroke: #ff7f0e"/>
     <use xlink:href="#m9c83aa5895" x="1354.22133" y="457.269027" style="fill: #ff7f0e; stroke: #ff7f0e"/>
    </g>
   </g>
   <g id="line2d_63">
    <path d="M 70.237185 389.43805 
L 136.766784 324.049841 
L 272.039511 239.422908 
L 407.312239 206.49553 
L 542.584966 218.406096 
L 626.875875 245.285977 
" clip-path="url(#pb359baa2f7)" style="fill: none; stroke: #2ca02c; stroke-linecap: square"/>
    <g clip-path="url(#pb359baa2f7)">
     <use xlink:href="#ma08bbefeef" x="-1" y="460.070263" style="fill: #2ca02c; stroke: #2ca02c"/>
     <use xlink:href="#ma08bbefeef" x="1.494057" y="457.001813" style="fill: #2ca02c; stroke: #2ca02c"/>
     <use xlink:href="#ma08bbefeef" x="136.766784" y="324.049841" style="fill: #2ca02c; stroke: #2ca02c"/>
     <use xlink:href="#ma08bbefeef" x="272.039511" y="239.422908" style="fill: #2ca02c; stroke: #2ca02c"/>
     <use xlink:href="#ma08bbefeef" x="407.312239" y="206.49553" style="fill: #2ca02c; stroke: #2ca02c"/>
     <use xlink:href="#ma08bbefeef" x="542.584966" y="218.406096" style="fill: #2ca02c; stroke: #2ca02c"/>
     <use xlink:href="#ma08bbefeef" x="677.857693" y="261.543782" style="fill: #2ca02c; stroke: #2ca02c"/>
     <use xlink:href="#ma08bbefeef" x="813.13042" y="319.902374" style="fill: #2ca02c; stroke: #2ca02c"/>
     <use xlink:href="#ma08bbefeef" x="948.403148" y="378.94783" style="fill: #2ca02c; stroke: #2ca02c"/>
     <use xlink:href="#ma08bbefeef" x="1083.675875" y="428.072501" style="fill: #2ca02c; stroke: #2ca02c"/>
     <use xlink:href="#ma08bbefeef" x="1218.948602" y="461.420371" style="fill: #2ca02c; stroke: #2ca02c"/>
     <use xlink:href="#ma08bbefeef" x="1354.22133" y="477.397665" style="fill: #2ca02c; stroke: #2ca02c"/>
    </g>
   </g>
   <g id="line2d_64">
    <path d="M 110.2304 389.43805 
L 136.766784 363.02625 
L 272.039511 275.929753 
L 407.312239 239.922294 
L 542.584966 248.293029 
L 626.875875 272.788013 
" clip-path="url(#pb359baa2f7)" style="fill: none; stroke: #d62728; stroke-linecap: square"/>
    <g clip-path="url(#pb359baa2f7)">
     <use xlink:href="#mb15e9d4050" x="-1" y="500.746744" style="fill: #d62728; stroke: #d62728"/>
     <use xlink:href="#mb15e9d4050" x="1.494057" y="497.663892" style="fill: #d62728; stroke: #d62728"/>
     <use xlink:href="#mb15e9d4050" x="136.766784" y="363.02625" style="fill: #d62728; stroke: #d62728"/>
     <use xlink:href="#mb15e9d4050" x="272.039511" y="275.929753" style="fill: #d62728; stroke: #d62728"/>
     <use xlink:href="#mb15e9d4050" x="407.312239" y="239.922294" style="fill: #d62728; stroke: #d62728"/>
     <use xlink:href="#mb15e9d4050" x="542.584966" y="248.293029" style="fill: #d62728; stroke: #d62728"/>
     <use xlink:href="#mb15e9d4050" x="677.857693" y="287.603357" style="fill: #d62728; stroke: #d62728"/>
     <use xlink:href="#mb15e9d4050" x="813.13042" y="342.122155" style="fill: #d62728; stroke: #d62728"/>
     <use xlink:href="#mb15e9d4050" x="948.403148" y="397.663989" style="fill: #d62728; stroke: #d62728"/>
     <use xlink:href="#mb15e9d4050" x="1083.675875" y="443.672315" style="fill: #d62728; stroke: #d62728"/>
     <use xlink:href="#mb15e9d4050" x="1218.948602" y="474.46721" style="fill: #d62728; stroke: #d62728"/>
     <use xlink:href="#mb15e9d4050" x="1354.22133" y="488.351361" style="fill: #d62728; stroke: #d62728"/>
    </g>
   </g>
   <g id="line2d_65">
    <path d="M 114.929904 389.43805 
L 136.766784 367.906607 
L 272.039511 282.000128 
L 407.312239 246.863802 
L 542.584966 255.738888 
L 626.875875 280.340326 
" clip-path="url(#pb359baa2f7)" style="fill: none; stroke: #9467bd; stroke-linecap: square"/>
    <g clip-path="url(#pb359baa2f7)">
     <use xlink:href="#md3dbd89fed" x="-1" y="504.35266" style="fill: #9467bd; stroke: #9467bd"/>
     <use xlink:href="#md3dbd89fed" x="1.494057" y="501.287248" style="fill: #9467bd; stroke: #9467bd"/>
     <use xlink:href="#md3dbd89fed" x="136.766784" y="367.906607" style="fill: #9467bd; stroke: #9467bd"/>
     <use xlink:href="#md3dbd89fed" x="272.039511" y="282.000128" style="fill: #9467bd; stroke: #9467bd"/>
     <use xlink:href="#md3dbd89fed" x="407.312239" y="246.863802" style="fill: #9467bd; stroke: #9467bd"/>
     <use xlink:href="#md3dbd89fed" x="542.584966" y="255.738888" style="fill: #9467bd; stroke: #9467bd"/>
     <use xlink:href="#md3dbd89fed" x="677.857693" y="295.220057" style="fill: #9467bd; stroke: #9467bd"/>
     <use xlink:href="#md3dbd89fed" x="813.13042" y="349.506879" style="fill: #9467bd; stroke: #9467bd"/>
     <use xlink:href="#md3dbd89fed" x="948.403148" y="404.241194" style="fill: #9467bd; stroke: #9467bd"/>
     <use xlink:href="#md3dbd89fed" x="1083.675875" y="449.078542" style="fill: #9467bd; stroke: #9467bd"/>
     <use xlink:href="#md3dbd89fed" x="1218.948602" y="478.317802" style="fill: #9467bd; stroke: #9467bd"/>
     <use xlink:href="#md3dbd89fed" x="1354.22133" y="490.57054" style="fill: #9467bd; stroke: #9467bd"/>
    </g>
   </g>
   <g id="patch_12">
    <path d="M 272.039511 324.8608 
L 272.039511 165.1936 
" style="fill: none; stroke: #000000; stroke-width: 0.8; stroke-linejoin: miter; stroke-linecap: square"/>
   </g>
   <g id="patch_13">
    <path d="M 407.312239 324.8608 
L 407.312239 165.1936 
" style="fill: none; stroke: #000000; stroke-width: 0.8; stroke-linejoin: miter; stroke-linecap: square"/>
   </g>
   <g id="patch_14">
    <path d="M 272.039511 324.8608 
L 407.312239 324.8608 
" style="fill: none; stroke: #000000; stroke-width: 0.8; stroke-linejoin: miter; stroke-linecap: square"/>
   </g>
   <g id="patch_15">
    <path d="M 272.039511 165.1936 
L 407.312239 165.1936 
" style="fill: none; stroke: #000000; stroke-width: 0.8; stroke-linejoin: miter; stroke-linecap: square"/>
   </g>
  </g>
 </g>
 <defs>
  <clipPath id="pb58283f0ef">
   <rect x="60.675875" y="13.8528" width="558" height="332.64"/>
  </clipPath>
  <clipPath id="p24242f92fc">
   <rect x="105.747875" y="7.2" width="133.056" height="133.056"/>
  </clipPath>
  <clipPath id="pb359baa2f7">
   <rect x="272.039511" y="165.1936" width="135.272727" height="159.6672"/>
  </clipPath>
 </defs>
</svg>
