<?xml version="1.0" encoding="utf-8" standalone="no"?>
<!DOCTYPE svg PUBLIC "-//W3C//DTD SVG 1.1//EN"
  "http://www.w3.org/Graphics/SVG/1.1/DTD/svg11.dtd">
<svg xmlns:xlink="http://www.w3.org/1999/xlink" width="617.161pt" height="388.43805pt" viewBox="0 0 617.161 388.43805" xmlns="http://www.w3.org/2000/svg" version="1.1">
 <metadata>
  <rdf:RDF xmlns:dc="http://purl.org/dc/elements/1.1/" xmlns:cc="http://creativecommons.org/ns#" xmlns:rdf="http://www.w3.org/1999/02/22-rdf-syntax-ns#">
   <cc:Work>
    <dc:type rdf:resource="http://purl.org/dc/dcmitype/StillImage"/>
    <dc:date>2025-12-19T08:47:42.082088</dc:date>
    <dc:format>image/svg+xml</dc:format>
    <dc:creator>
     <cc:Agent>
      <dc:title>Matplotlib v3.10.8, https://matplotlib.org/</dc:title>
     </cc:Agent>
    </dc:creator>
   </cc:Work>
  </rdf:RDF>
 </metadata>
 <defs>
  <style type="text/css">*{stroke-linejoin: round; stroke-linecap: butt}</style>
 </defs>
 <g id="figure_1">
  <g id="patch_1">
   <path d="M 0 388.43805 
L 617.161 388.43805 
L 617.161 0 
L 0 0 
z
" style="fill: #ffffff"/>
  </g>
  <g id="axes_1">
   <g id="patch_2">
    <path d="M 51.961 346.4928 
L 609.961 346.4928 
L 609.961 13.8528 
L 51.961 13.8528 
z
" style="fill: #ffffff"/>
   </g>
   <g id="patch_3">
    <path d="M 314.051909 104.5728 
L 347.870091 104.5728 
L 347.870091 74.3328 
L 314.051909 74.3328 
L 314.051909 104.5728 
z
" clip-path="url(#pb8fef0f88a)" style="fill: none; stroke: #808080; stroke-linejoin: miter"/>
   </g>
   <g id="matplotlib.axis_1">
    <g id="xtick_1">
     <g id="line2d_1">
      <path d="M 77.324636 346.4928 
L 77.324636 13.8528 
" clip-path="url(#pb8fef0f88a)" style="fill: none; stroke-dasharray: 2.96,1.28; stroke-dashoffset: 0; stroke: #b0b0b0; stroke-opacity: 0.3; stroke-width: 0.8"/>
     </g>
     <g id="line2d_2">
      <defs>
       <path id="m8dfd8d0740" d="M 0 0 
L 0 3.5 
" style="stroke: #000000; stroke-width: 0.8"/>
      </defs>
      <g>
       <use xlink:href="#m8dfd8d0740" x="77.324636" y="346.4928" style="stroke: #000000; stroke-width: 0.8"/>
      </g>
     </g>
     <g id="text_1">
      <!-- 0.0 -->
      <g transform="translate(69.055011 361.395175) scale(0.104 -0.104)">
       <defs>
        <path id="DejaVuSans-30" d="M 2034 4250 
Q 1547 4250 1301 3770 
Q 1056 3291 1056 2328 
Q 1056 1369 1301 889 
Q 1547 409 2034 409 
Q 2525 409 2770 889 
Q 3016 1369 3016 2328 
Q 3016 3291 2770 3770 
Q 2525 4250 2034 4250 
z
M 2034 4750 
Q 2819 4750 3233 4129 
Q 3647 3509 3647 2328 
Q 3647 1150 3233 529 
Q 2819 -91 2034 -91 
Q 1250 -91 836 529 
Q 422 1150 422 2328 
Q 422 3509 836 4129 
Q 1250 4750 2034 4750 
z
" transform="scale(0.015625)"/>
        <path id="DejaVuSans-2e" d="M 684 794 
L 1344 794 
L 1344 0 
L 684 0 
L 684 794 
z
" transform="scale(0.015625)"/>
       </defs>
       <use xlink:href="#DejaVuSans-30"/>
       <use xlink:href="#DejaVuSans-2e" transform="translate(63.623047 0)"/>
       <use xlink:href="#DejaVuSans-30" transform="translate(95.410156 0)"/>
      </g>
     </g>
    </g>
    <g id="xtick_2">
     <g id="line2d_3">
      <path d="M 161.870091 346.4928 
L 161.870091 13.8528 
" clip-path="url(#pb8fef0f88a)" style="fill: none; stroke-dasharray: 2.96,1.28; stroke-dashoffset: 0; stroke: #b0b0b0; stroke-opacity: 0.3; stroke-width: 0.8"/>
     </g>
     <g id="line2d_4">
      <g>
       <use xlink:href="#m8dfd8d0740" x="161.870091" y="346.4928" style="stroke: #000000; stroke-width: 0.8"/>
      </g>
     </g>
     <g id="text_2">
      <!-- 0.5 -->
      <g transform="translate(153.600466 361.395175) scale(0.104 -0.104)">
       <defs>
        <path id="DejaVuSans-35" d="M 691 4666 
L 3169 4666 
L 3169 4134 
L 1269 4134 
L 1269 2991 
Q 1406 3038 1543 3061 
Q 1681 3084 1819 3084 
Q 2600 3084 3056 2656 
Q 3513 2228 3513 1497 
Q 3513 744 3044 326 
Q 2575 -91 1722 -91 
Q 1428 -91 1123 -41 
Q 819 9 494 109 
L 494 744 
Q 775 591 1075 516 
Q 1375 441 1709 441 
Q 2250 441 2565 725 
Q 2881 1009 2881 1497 
Q 2881 1984 2565 2268 
Q 2250 2553 1709 2553 
Q 1456 2553 1204 2497 
Q 953 2441 691 2322 
L 691 4666 
z
" transform="scale(0.015625)"/>
       </defs>
       <use xlink:href="#DejaVuSans-30"/>
       <use xlink:href="#DejaVuSans-2e" transform="translate(63.623047 0)"/>
       <use xlink:href="#DejaVuSans-35" transform="translate(95.410156 0)"/>
      </g>
     </g>
    </g>
    <g id="xtick_3">
     <g id="line2d_5">
      <path d="M 246.415545 346.4928 
L 246.415545 13.8528 
" clip-path="url(#pb8fef0f88a)" style="fill: none; stroke-dasharray: 2.96,1.28; stroke-dashoffset: 0; stroke: #b0b0b0; stroke-opacity: 0.3; stroke-width: 0.8"/>
     </g>
     <g id="line2d_6">
      <g>
       <use xlink:href="#m8dfd8d0740" x="246.415545" y="346.4928" style="stroke: #000000; stroke-width: 0.8"/>
      </g>
     </g>
     <g id="text_3">
      <!-- 1.0 -->
      <g transform="translate(238.14592 361.395175) scale(0.104 -0.104)">
       <defs>
        <path id="DejaVuSans-31" d="M 794 531 
L 1825 531 
L 1825 4091 
L 703 3866 
L 703 4441 
L 1819 4666 
L 2450 4666 
L 2450 531 
L 3481 531 
L 3481 0 
L 794 0 
L 794 531 
z
" transform="scale(0.015625)"/>
       </defs>
       <use xlink:href="#DejaVuSans-31"/>
       <use xlink:href="#DejaVuSans-2e" transform="translate(63.623047 0)"/>
       <use xlink:href="#DejaVuSans-30" transform="translate(95.410156 0)"/>
      </g>
     </g>
    </g>
    <g id="xtick_4">
     <g id="line2d_7">
      <path d="M 330.961 346.4928 
L 330.961 13.8528 
" clip-path="url(#pb8fef0f88a)" style="fill: none; stroke-dasharray: 2.96,1.28; stroke-dashoffset: 0; stroke: #b0b0b0; stroke-opacity: 0.3; stroke-width: 0.8"/>
     </g>
     <g id="line2d_8">
      <g>
       <use xlink:href="#m8dfd8d0740" x="330.961" y="346.4928" style="stroke: #000000; stroke-width: 0.8"/>
      </g>
     </g>
     <g id="text_4">
      <!-- 1.5 -->
      <g transform="translate(322.691375 361.395175) scale(0.104 -0.104)">
       <use xlink:href="#DejaVuSans-31"/>
       <use xlink:href="#DejaVuSans-2e" transform="translate(63.623047 0)"/>
       <use xlink:href="#DejaVuSans-35" transform="translate(95.410156 0)"/>
      </g>
     </g>
    </g>
    <g id="xtick_5">
     <g id="line2d_9">
      <path d="M 415.506455 346.4928 
L 415.506455 13.8528 
" clip-path="url(#pb8fef0f88a)" style="fill: none; stroke-dasharray: 2.96,1.28; stroke-dashoffset: 0; stroke: #b0b0b0; stroke-opacity: 0.3; stroke-width: 0.8"/>
     </g>
     <g id="line2d_10">
      <g>
       <use xlink:href="#m8dfd8d0740" x="415.506455" y="346.4928" style="stroke: #000000; stroke-width: 0.8"/>
      </g>
     </g>
     <g id="text_5">
      <!-- 2.0 -->
      <g transform="translate(407.23683 361.395175) scale(0.104 -0.104)">
       <defs>
        <path id="DejaVuSans-32" d="M 1228 531 
L 3431 531 
L 3431 0 
L 469 0 
L 469 531 
Q 828 903 1448 1529 
Q 2069 2156 2228 2338 
Q 2531 2678 2651 2914 
Q 2772 3150 2772 3378 
Q 2772 3750 2511 3984 
Q 2250 4219 1831 4219 
Q 1534 4219 1204 4116 
Q 875 4013 500 3803 
L 500 4441 
Q 881 4594 1212 4672 
Q 1544 4750 1819 4750 
Q 2544 4750 2975 4387 
Q 3406 4025 3406 3419 
Q 3406 3131 3298 2873 
Q 3191 2616 2906 2266 
Q 2828 2175 2409 1742 
Q 1991 1309 1228 531 
z
" transform="scale(0.015625)"/>
       </defs>
       <use xlink:href="#DejaVuSans-32"/>
       <use xlink:href="#DejaVuSans-2e" transform="translate(63.623047 0)"/>
       <use xlink:href="#DejaVuSans-30" transform="translate(95.410156 0)"/>
      </g>
     </g>
    </g>
    <g id="xtick_6">
     <g id="line2d_11">
      <path d="M 500.051909 346.4928 
L 500.051909 13.8528 
" clip-path="url(#pb8fef0f88a)" style="fill: none; stroke-dasharray: 2.96,1.28; stroke-dashoffset: 0; stroke: #b0b0b0; stroke-opacity: 0.3; stroke-width: 0.8"/>
     </g>
     <g id="line2d_12">
      <g>
       <use xlink:href="#m8dfd8d0740" x="500.051909" y="346.4928" style="stroke: #000000; stroke-width: 0.8"/>
      </g>
     </g>
     <g id="text_6">
      <!-- 2.5 -->
      <g transform="translate(491.782284 361.395175) scale(0.104 -0.104)">
       <use xlink:href="#DejaVuSans-32"/>
       <use xlink:href="#DejaVuSans-2e" transform="translate(63.623047 0)"/>
       <use xlink:href="#DejaVuSans-35" transform="translate(95.410156 0)"/>
      </g>
     </g>
    </g>
    <g id="xtick_7">
     <g id="line2d_13">
      <path d="M 584.597364 346.4928 
L 584.597364 13.8528 
" clip-path="url(#pb8fef0f88a)" style="fill: none; stroke-dasharray: 2.96,1.28; stroke-dashoffset: 0; stroke: #b0b0b0; stroke-opacity: 0.3; stroke-width: 0.8"/>
     </g>
     <g id="line2d_14">
      <g>
       <use xlink:href="#m8dfd8d0740" x="584.597364" y="346.4928" style="stroke: #000000; stroke-width: 0.8"/>
      </g>
     </g>
     <g id="text_7">
      <!-- 3.0 -->
      <g transform="translate(576.327739 361.395175) scale(0.104 -0.104)">
       <defs>
        <path id="DejaVuSans-33" d="M 2597 2516 
Q 3050 2419 3304 2112 
Q 3559 1806 3559 1356 
Q 3559 666 3084 287 
Q 2609 -91 1734 -91 
Q 1441 -91 1130 -33 
Q 819 25 488 141 
L 488 750 
Q 750 597 1062 519 
Q 1375 441 1716 441 
Q 2309 441 2620 675 
Q 2931 909 2931 1356 
Q 2931 1769 2642 2001 
Q 2353 2234 1838 2234 
L 1294 2234 
L 1294 2753 
L 1863 2753 
Q 2328 2753 2575 2939 
Q 2822 3125 2822 3475 
Q 2822 3834 2567 4026 
Q 2313 4219 1838 4219 
Q 1578 4219 1281 4162 
Q 984 4106 628 3988 
L 628 4550 
Q 988 4650 1302 4700 
Q 1616 4750 1894 4750 
Q 2613 4750 3031 4423 
Q 3450 4097 3450 3541 
Q 3450 3153 3228 2886 
Q 3006 2619 2597 2516 
z
" transform="scale(0.015625)"/>
       </defs>
       <use xlink:href="#DejaVuSans-33"/>
       <use xlink:href="#DejaVuSans-2e" transform="translate(63.623047 0)"/>
       <use xlink:href="#DejaVuSans-30" transform="translate(95.410156 0)"/>
      </g>
     </g>
    </g>
    <g id="text_8">
     <!-- Distance ($\mathrm{\AA}$) between He and center of Bz along x-axis, y=0, z=2.620 -->
     <g transform="translate(121.201 378.71805) scale(0.12 -0.12)">
      <defs>
       <path id="DejaVuSans-44" d="M 1259 4147 
L 1259 519 
L 2022 519 
Q 2988 519 3436 956 
Q 3884 1394 3884 2338 
Q 3884 3275 3436 3711 
Q 2988 4147 2022 4147 
L 1259 4147 
z
M 628 4666 
L 1925 4666 
Q 3281 4666 3915 4102 
Q 4550 3538 4550 2338 
Q 4550 1131 3912 565 
Q 3275 0 1925 0 
L 628 0 
L 628 4666 
z
" transform="scale(0.015625)"/>
       <path id="DejaVuSans-69" d="M 603 3500 
L 1178 3500 
L 1178 0 
L 603 0 
L 603 3500 
z
M 603 4863 
L 1178 4863 
L 1178 4134 
L 603 4134 
L 603 4863 
z
" transform="scale(0.015625)"/>
       <path id="DejaVuSans-73" d="M 2834 3397 
L 2834 2853 
Q 2591 2978 2328 3040 
Q 2066 3103 1784 3103 
Q 1356 3103 1142 2972 
Q 928 2841 928 2578 
Q 928 2378 1081 2264 
Q 1234 2150 1697 2047 
L 1894 2003 
Q 2506 1872 2764 1633 
Q 3022 1394 3022 966 
Q 3022 478 2636 193 
Q 2250 -91 1575 -91 
Q 1294 -91 989 -36 
Q 684 19 347 128 
L 347 722 
Q 666 556 975 473 
Q 1284 391 1588 391 
Q 1994 391 2212 530 
Q 2431 669 2431 922 
Q 2431 1156 2273 1281 
Q 2116 1406 1581 1522 
L 1381 1569 
Q 847 1681 609 1914 
Q 372 2147 372 2553 
Q 372 3047 722 3315 
Q 1072 3584 1716 3584 
Q 2034 3584 2315 3537 
Q 2597 3491 2834 3397 
z
" transform="scale(0.015625)"/>
       <path id="DejaVuSans-74" d="M 1172 4494 
L 1172 3500 
L 2356 3500 
L 2356 3053 
L 1172 3053 
L 1172 1153 
Q 1172 725 1289 603 
Q 1406 481 1766 481 
L 2356 481 
L 2356 0 
L 1766 0 
Q 1100 0 847 248 
Q 594 497 594 1153 
L 594 3053 
L 172 3053 
L 172 3500 
L 594 3500 
L 594 4494 
L 1172 4494 
z
" transform="scale(0.015625)"/>
       <path id="DejaVuSans-61" d="M 2194 1759 
Q 1497 1759 1228 1600 
Q 959 1441 959 1056 
Q 959 750 1161 570 
Q 1363 391 1709 391 
Q 2188 391 2477 730 
Q 2766 1069 2766 1631 
L 2766 1759 
L 2194 1759 
z
M 3341 1997 
L 3341 0 
L 2766 0 
L 2766 531 
Q 2569 213 2275 61 
Q 1981 -91 1556 -91 
Q 1019 -91 701 211 
Q 384 513 384 1019 
Q 384 1609 779 1909 
Q 1175 2209 1959 2209 
L 2766 2209 
L 2766 2266 
Q 2766 2663 2505 2880 
Q 2244 3097 1772 3097 
Q 1472 3097 1187 3025 
Q 903 2953 641 2809 
L 641 3341 
Q 956 3463 1253 3523 
Q 1550 3584 1831 3584 
Q 2591 3584 2966 3190 
Q 3341 2797 3341 1997 
z
" transform="scale(0.015625)"/>
       <path id="DejaVuSans-6e" d="M 3513 2113 
L 3513 0 
L 2938 0 
L 2938 2094 
Q 2938 2591 2744 2837 
Q 2550 3084 2163 3084 
Q 1697 3084 1428 2787 
Q 1159 2491 1159 1978 
L 1159 0 
L 581 0 
L 581 3500 
L 1159 3500 
L 1159 2956 
Q 1366 3272 1645 3428 
Q 1925 3584 2291 3584 
Q 2894 3584 3203 3211 
Q 3513 2838 3513 2113 
z
" transform="scale(0.015625)"/>
       <path id="DejaVuSans-63" d="M 3122 3366 
L 3122 2828 
Q 2878 2963 2633 3030 
Q 2388 3097 2138 3097 
Q 1578 3097 1268 2742 
Q 959 2388 959 1747 
Q 959 1106 1268 751 
Q 1578 397 2138 397 
Q 2388 397 2633 464 
Q 2878 531 3122 666 
L 3122 134 
Q 2881 22 2623 -34 
Q 2366 -91 2075 -91 
Q 1284 -91 818 406 
Q 353 903 353 1747 
Q 353 2603 823 3093 
Q 1294 3584 2113 3584 
Q 2378 3584 2631 3529 
Q 2884 3475 3122 3366 
z
" transform="scale(0.015625)"/>
       <path id="DejaVuSans-65" d="M 3597 1894 
L 3597 1613 
L 953 1613 
Q 991 1019 1311 708 
Q 1631 397 2203 397 
Q 2534 397 2845 478 
Q 3156 559 3463 722 
L 3463 178 
Q 3153 47 2828 -22 
Q 2503 -91 2169 -91 
Q 1331 -91 842 396 
Q 353 884 353 1716 
Q 353 2575 817 3079 
Q 1281 3584 2069 3584 
Q 2775 3584 3186 3129 
Q 3597 2675 3597 1894 
z
M 3022 2063 
Q 3016 2534 2758 2815 
Q 2500 3097 2075 3097 
Q 1594 3097 1305 2825 
Q 1016 2553 972 2059 
L 3022 2063 
z
" transform="scale(0.015625)"/>
       <path id="DejaVuSans-20" transform="scale(0.015625)"/>
       <path id="DejaVuSans-28" d="M 1984 4856 
Q 1566 4138 1362 3434 
Q 1159 2731 1159 2009 
Q 1159 1288 1364 580 
Q 1569 -128 1984 -844 
L 1484 -844 
Q 1016 -109 783 600 
Q 550 1309 550 2009 
Q 550 2706 781 3412 
Q 1013 4119 1484 4856 
L 1984 4856 
z
" transform="scale(0.015625)"/>
       <path id="DejaVuSans-c5" d="M 2663 5081 
Q 2663 5278 2523 5417 
Q 2384 5556 2188 5556 
Q 1988 5556 1852 5420 
Q 1716 5284 1716 5081 
Q 1716 4884 1853 4746 
Q 1991 4609 2188 4609 
Q 2384 4609 2523 4746 
Q 2663 4884 2663 5081 
z
M 2188 4044 
L 1338 1722 
L 3041 1722 
L 2188 4044 
z
M 1716 4366 
Q 1525 4494 1428 4673 
Q 1331 4853 1331 5081 
Q 1331 5441 1579 5691 
Q 1828 5941 2188 5941 
Q 2544 5941 2795 5689 
Q 3047 5438 3047 5081 
Q 3047 4863 2948 4678 
Q 2850 4494 2663 4366 
L 4325 0 
L 3669 0 
L 3244 1197 
L 1141 1197 
L 716 0 
L 50 0 
L 1716 4366 
z
" transform="scale(0.015625)"/>
       <path id="DejaVuSans-29" d="M 513 4856 
L 1013 4856 
Q 1481 4119 1714 3412 
Q 1947 2706 1947 2009 
Q 1947 1309 1714 600 
Q 1481 -109 1013 -844 
L 513 -844 
Q 928 -128 1133 580 
Q 1338 1288 1338 2009 
Q 1338 2731 1133 3434 
Q 928 4138 513 4856 
z
" transform="scale(0.015625)"/>
       <path id="DejaVuSans-62" d="M 3116 1747 
Q 3116 2381 2855 2742 
Q 2594 3103 2138 3103 
Q 1681 3103 1420 2742 
Q 1159 2381 1159 1747 
Q 1159 1113 1420 752 
Q 1681 391 2138 391 
Q 2594 391 2855 752 
Q 3116 1113 3116 1747 
z
M 1159 2969 
Q 1341 3281 1617 3432 
Q 1894 3584 2278 3584 
Q 2916 3584 3314 3078 
Q 3713 2572 3713 1747 
Q 3713 922 3314 415 
Q 2916 -91 2278 -91 
Q 1894 -91 1617 61 
Q 1341 213 1159 525 
L 1159 0 
L 581 0 
L 581 4863 
L 1159 4863 
L 1159 2969 
z
" transform="scale(0.015625)"/>
       <path id="DejaVuSans-77" d="M 269 3500 
L 844 3500 
L 1563 769 
L 2278 3500 
L 2956 3500 
L 3675 769 
L 4391 3500 
L 4966 3500 
L 4050 0 
L 3372 0 
L 2619 2869 
L 1863 0 
L 1184 0 
L 269 3500 
z
" transform="scale(0.015625)"/>
       <path id="DejaVuSans-48" d="M 628 4666 
L 1259 4666 
L 1259 2753 
L 3553 2753 
L 3553 4666 
L 4184 4666 
L 4184 0 
L 3553 0 
L 3553 2222 
L 1259 2222 
L 1259 0 
L 628 0 
L 628 4666 
z
" transform="scale(0.015625)"/>
       <path id="DejaVuSans-64" d="M 2906 2969 
L 2906 4863 
L 3481 4863 
L 3481 0 
L 2906 0 
L 2906 525 
Q 2725 213 2448 61 
Q 2172 -91 1784 -91 
Q 1150 -91 751 415 
Q 353 922 353 1747 
Q 353 2572 751 3078 
Q 1150 3584 1784 3584 
Q 2172 3584 2448 3432 
Q 2725 3281 2906 2969 
z
M 947 1747 
Q 947 1113 1208 752 
Q 1469 391 1925 391 
Q 2381 391 2643 752 
Q 2906 1113 2906 1747 
Q 2906 2381 2643 2742 
Q 2381 3103 1925 3103 
Q 1469 3103 1208 2742 
Q 947 2381 947 1747 
z
" transform="scale(0.015625)"/>
       <path id="DejaVuSans-72" d="M 2631 2963 
Q 2534 3019 2420 3045 
Q 2306 3072 2169 3072 
Q 1681 3072 1420 2755 
Q 1159 2438 1159 1844 
L 1159 0 
L 581 0 
L 581 3500 
L 1159 3500 
L 1159 2956 
Q 1341 3275 1631 3429 
Q 1922 3584 2338 3584 
Q 2397 3584 2469 3576 
Q 2541 3569 2628 3553 
L 2631 2963 
z
" transform="scale(0.015625)"/>
       <path id="DejaVuSans-6f" d="M 1959 3097 
Q 1497 3097 1228 2736 
Q 959 2375 959 1747 
Q 959 1119 1226 758 
Q 1494 397 1959 397 
Q 2419 397 2687 759 
Q 2956 1122 2956 1747 
Q 2956 2369 2687 2733 
Q 2419 3097 1959 3097 
z
M 1959 3584 
Q 2709 3584 3137 3096 
Q 3566 2609 3566 1747 
Q 3566 888 3137 398 
Q 2709 -91 1959 -91 
Q 1206 -91 779 398 
Q 353 888 353 1747 
Q 353 2609 779 3096 
Q 1206 3584 1959 3584 
z
" transform="scale(0.015625)"/>
       <path id="DejaVuSans-66" d="M 2375 4863 
L 2375 4384 
L 1825 4384 
Q 1516 4384 1395 4259 
Q 1275 4134 1275 3809 
L 1275 3500 
L 2222 3500 
L 2222 3053 
L 1275 3053 
L 1275 0 
L 697 0 
L 697 3053 
L 147 3053 
L 147 3500 
L 697 3500 
L 697 3744 
Q 697 4328 969 4595 
Q 1241 4863 1831 4863 
L 2375 4863 
z
" transform="scale(0.015625)"/>
       <path id="DejaVuSans-42" d="M 1259 2228 
L 1259 519 
L 2272 519 
Q 2781 519 3026 730 
Q 3272 941 3272 1375 
Q 3272 1813 3026 2020 
Q 2781 2228 2272 2228 
L 1259 2228 
z
M 1259 4147 
L 1259 2741 
L 2194 2741 
Q 2656 2741 2882 2914 
Q 3109 3088 3109 3444 
Q 3109 3797 2882 3972 
Q 2656 4147 2194 4147 
L 1259 4147 
z
M 628 4666 
L 2241 4666 
Q 2963 4666 3353 4366 
Q 3744 4066 3744 3513 
Q 3744 3084 3544 2831 
Q 3344 2578 2956 2516 
Q 3422 2416 3680 2098 
Q 3938 1781 3938 1306 
Q 3938 681 3513 340 
Q 3088 0 2303 0 
L 628 0 
L 628 4666 
z
" transform="scale(0.015625)"/>
       <path id="DejaVuSans-7a" d="M 353 3500 
L 3084 3500 
L 3084 2975 
L 922 459 
L 3084 459 
L 3084 0 
L 275 0 
L 275 525 
L 2438 3041 
L 353 3041 
L 353 3500 
z
" transform="scale(0.015625)"/>
       <path id="DejaVuSans-6c" d="M 603 4863 
L 1178 4863 
L 1178 0 
L 603 0 
L 603 4863 
z
" transform="scale(0.015625)"/>
       <path id="DejaVuSans-67" d="M 2906 1791 
Q 2906 2416 2648 2759 
Q 2391 3103 1925 3103 
Q 1463 3103 1205 2759 
Q 947 2416 947 1791 
Q 947 1169 1205 825 
Q 1463 481 1925 481 
Q 2391 481 2648 825 
Q 2906 1169 2906 1791 
z
M 3481 434 
Q 3481 -459 3084 -895 
Q 2688 -1331 1869 -1331 
Q 1566 -1331 1297 -1286 
Q 1028 -1241 775 -1147 
L 775 -588 
Q 1028 -725 1275 -790 
Q 1522 -856 1778 -856 
Q 2344 -856 2625 -561 
Q 2906 -266 2906 331 
L 2906 616 
Q 2728 306 2450 153 
Q 2172 0 1784 0 
Q 1141 0 747 490 
Q 353 981 353 1791 
Q 353 2603 747 3093 
Q 1141 3584 1784 3584 
Q 2172 3584 2450 3431 
Q 2728 3278 2906 2969 
L 2906 3500 
L 3481 3500 
L 3481 434 
z
" transform="scale(0.015625)"/>
       <path id="DejaVuSans-78" d="M 3513 3500 
L 2247 1797 
L 3578 0 
L 2900 0 
L 1881 1375 
L 863 0 
L 184 0 
L 1544 1831 
L 300 3500 
L 978 3500 
L 1906 2253 
L 2834 3500 
L 3513 3500 
z
" transform="scale(0.015625)"/>
       <path id="DejaVuSans-2d" d="M 313 2009 
L 1997 2009 
L 1997 1497 
L 313 1497 
L 313 2009 
z
" transform="scale(0.015625)"/>
       <path id="DejaVuSans-2c" d="M 750 794 
L 1409 794 
L 1409 256 
L 897 -744 
L 494 -744 
L 750 256 
L 750 794 
z
" transform="scale(0.015625)"/>
       <path id="DejaVuSans-79" d="M 2059 -325 
Q 1816 -950 1584 -1140 
Q 1353 -1331 966 -1331 
L 506 -1331 
L 506 -850 
L 844 -850 
Q 1081 -850 1212 -737 
Q 1344 -625 1503 -206 
L 1606 56 
L 191 3500 
L 800 3500 
L 1894 763 
L 2988 3500 
L 3597 3500 
L 2059 -325 
z
" transform="scale(0.015625)"/>
       <path id="DejaVuSans-3d" d="M 678 2906 
L 4684 2906 
L 4684 2381 
L 678 2381 
L 678 2906 
z
M 678 1631 
L 4684 1631 
L 4684 1100 
L 678 1100 
L 678 1631 
z
" transform="scale(0.015625)"/>
       <path id="DejaVuSans-36" d="M 2113 2584 
Q 1688 2584 1439 2293 
Q 1191 2003 1191 1497 
Q 1191 994 1439 701 
Q 1688 409 2113 409 
Q 2538 409 2786 701 
Q 3034 994 3034 1497 
Q 3034 2003 2786 2293 
Q 2538 2584 2113 2584 
z
M 3366 4563 
L 3366 3988 
Q 3128 4100 2886 4159 
Q 2644 4219 2406 4219 
Q 1781 4219 1451 3797 
Q 1122 3375 1075 2522 
Q 1259 2794 1537 2939 
Q 1816 3084 2150 3084 
Q 2853 3084 3261 2657 
Q 3669 2231 3669 1497 
Q 3669 778 3244 343 
Q 2819 -91 2113 -91 
Q 1303 -91 875 529 
Q 447 1150 447 2328 
Q 447 3434 972 4092 
Q 1497 4750 2381 4750 
Q 2619 4750 2861 4703 
Q 3103 4656 3366 4563 
z
" transform="scale(0.015625)"/>
      </defs>
      <use xlink:href="#DejaVuSans-44" transform="translate(0 0.171875)"/>
      <use xlink:href="#DejaVuSans-69" transform="translate(77.001953 0.171875)"/>
      <use xlink:href="#DejaVuSans-73" transform="translate(104.785156 0.171875)"/>
      <use xlink:href="#DejaVuSans-74" transform="translate(156.884766 0.171875)"/>
      <use xlink:href="#DejaVuSans-61" transform="translate(196.09375 0.171875)"/>
      <use xlink:href="#DejaVuSans-6e" transform="translate(257.373047 0.171875)"/>
      <use xlink:href="#DejaVuSans-63" transform="translate(320.751953 0.171875)"/>
      <use xlink:href="#DejaVuSans-65" transform="translate(375.732422 0.171875)"/>
      <use xlink:href="#DejaVuSans-20" transform="translate(437.255859 0.171875)"/>
      <use xlink:href="#DejaVuSans-28" transform="translate(469.042969 0.171875)"/>
      <use xlink:href="#DejaVuSans-c5" transform="translate(508.056641 0.171875)"/>
      <use xlink:href="#DejaVuSans-29" transform="translate(576.464844 0.171875)"/>
      <use xlink:href="#DejaVuSans-20" transform="translate(615.478516 0.171875)"/>
      <use xlink:href="#DejaVuSans-62" transform="translate(647.265625 0.171875)"/>
      <use xlink:href="#DejaVuSans-65" transform="translate(710.742188 0.171875)"/>
      <use xlink:href="#DejaVuSans-74" transform="translate(772.265625 0.171875)"/>
      <use xlink:href="#DejaVuSans-77" transform="translate(811.474609 0.171875)"/>
      <use xlink:href="#DejaVuSans-65" transform="translate(893.261719 0.171875)"/>
      <use xlink:href="#DejaVuSans-65" transform="translate(954.785156 0.171875)"/>
      <use xlink:href="#DejaVuSans-6e" transform="translate(1016.308594 0.171875)"/>
      <use xlink:href="#DejaVuSans-20" transform="translate(1079.6875 0.171875)"/>
      <use xlink:href="#DejaVuSans-48" transform="translate(1111.474609 0.171875)"/>
      <use xlink:href="#DejaVuSans-65" transform="translate(1186.669922 0.171875)"/>
      <use xlink:href="#DejaVuSans-20" transform="translate(1248.193359 0.171875)"/>
      <use xlink:href="#DejaVuSans-61" transform="translate(1279.980469 0.171875)"/>
      <use xlink:href="#DejaVuSans-6e" transform="translate(1341.259766 0.171875)"/>
      <use xlink:href="#DejaVuSans-64" transform="translate(1404.638672 0.171875)"/>
      <use xlink:href="#DejaVuSans-20" transform="translate(1468.115234 0.171875)"/>
      <use xlink:href="#DejaVuSans-63" transform="translate(1499.902344 0.171875)"/>
      <use xlink:href="#DejaVuSans-65" transform="translate(1554.882812 0.171875)"/>
      <use xlink:href="#DejaVuSans-6e" transform="translate(1616.40625 0.171875)"/>
      <use xlink:href="#DejaVuSans-74" transform="translate(1679.785156 0.171875)"/>
      <use xlink:href="#DejaVuSans-65" transform="translate(1718.994141 0.171875)"/>
      <use xlink:href="#DejaVuSans-72" transform="translate(1780.517578 0.171875)"/>
      <use xlink:href="#DejaVuSans-20" transform="translate(1821.630859 0.171875)"/>
      <use xlink:href="#DejaVuSans-6f" transform="translate(1853.417969 0.171875)"/>
      <use xlink:href="#DejaVuSans-66" transform="translate(1914.599609 0.171875)"/>
      <use xlink:href="#DejaVuSans-20" transform="translate(1949.804688 0.171875)"/>
      <use xlink:href="#DejaVuSans-42" transform="translate(1981.591797 0.171875)"/>
      <use xlink:href="#DejaVuSans-7a" transform="translate(2050.195312 0.171875)"/>
      <use xlink:href="#DejaVuSans-20" transform="translate(2102.685547 0.171875)"/>
      <use xlink:href="#DejaVuSans-61" transform="translate(2134.472656 0.171875)"/>
      <use xlink:href="#DejaVuSans-6c" transform="translate(2195.751953 0.171875)"/>
      <use xlink:href="#DejaVuSans-6f" transform="translate(2223.535156 0.171875)"/>
      <use xlink:href="#DejaVuSans-6e" transform="translate(2284.716797 0.171875)"/>
      <use xlink:href="#DejaVuSans-67" transform="translate(2348.095703 0.171875)"/>
      <use xlink:href="#DejaVuSans-20" transform="translate(2411.572266 0.171875)"/>
      <use xlink:href="#DejaVuSans-78" transform="translate(2443.359375 0.171875)"/>
      <use xlink:href="#DejaVuSans-2d" transform="translate(2502.539062 0.171875)"/>
      <use xlink:href="#DejaVuSans-61" transform="translate(2538.623047 0.171875)"/>
      <use xlink:href="#DejaVuSans-78" transform="translate(2599.902344 0.171875)"/>
      <use xlink:href="#DejaVuSans-69" transform="translate(2659.082031 0.171875)"/>
      <use xlink:href="#DejaVuSans-73" transform="translate(2686.865234 0.171875)"/>
      <use xlink:href="#DejaVuSans-2c" transform="translate(2738.964844 0.171875)"/>
      <use xlink:href="#DejaVuSans-20" transform="translate(2770.751953 0.171875)"/>
      <use xlink:href="#DejaVuSans-79" transform="translate(2802.539062 0.171875)"/>
      <use xlink:href="#DejaVuSans-3d" transform="translate(2861.71875 0.171875)"/>
      <use xlink:href="#DejaVuSans-30" transform="translate(2945.507812 0.171875)"/>
      <use xlink:href="#DejaVuSans-2c" transform="translate(3009.130859 0.171875)"/>
      <use xlink:href="#DejaVuSans-20" transform="translate(3040.917969 0.171875)"/>
      <use xlink:href="#DejaVuSans-7a" transform="translate(3072.705078 0.171875)"/>
      <use xlink:href="#DejaVuSans-3d" transform="translate(3125.195312 0.171875)"/>
      <use xlink:href="#DejaVuSans-32" transform="translate(3208.984375 0.171875)"/>
      <use xlink:href="#DejaVuSans-2e" transform="translate(3272.607422 0.171875)"/>
      <use xlink:href="#DejaVuSans-36" transform="translate(3304.394531 0.171875)"/>
      <use xlink:href="#DejaVuSans-32" transform="translate(3368.017578 0.171875)"/>
      <use xlink:href="#DejaVuSans-30" transform="translate(3431.640625 0.171875)"/>
     </g>
    </g>
   </g>
   <g id="matplotlib.axis_2">
    <g id="ytick_1">
     <g id="line2d_15">
      <path d="M 51.961 316.2528 
L 609.961 316.2528 
" clip-path="url(#pb8fef0f88a)" style="fill: none; stroke-dasharray: 2.96,1.28; stroke-dashoffset: 0; stroke: #b0b0b0; stroke-opacity: 0.3; stroke-width: 0.8"/>
     </g>
     <g id="line2d_16">
      <defs>
       <path id="md7617f13a3" d="M 0 0 
L -3.5 0 
" style="stroke: #000000; stroke-width: 0.8"/>
      </defs>
      <g>
       <use xlink:href="#md7617f13a3" x="51.961" y="316.2528" style="stroke: #000000; stroke-width: 0.8"/>
      </g>
     </g>
     <g id="text_9">
      <!-- 0 -->
      <g transform="translate(38.344 320.203987) scale(0.104 -0.104)">
       <use xlink:href="#DejaVuSans-30"/>
      </g>
     </g>
    </g>
    <g id="ytick_2">
     <g id="line2d_17">
      <path d="M 51.961 255.7728 
L 609.961 255.7728 
" clip-path="url(#pb8fef0f88a)" style="fill: none; stroke-dasharray: 2.96,1.28; stroke-dashoffset: 0; stroke: #b0b0b0; stroke-opacity: 0.3; stroke-width: 0.8"/>
     </g>
     <g id="line2d_18">
      <g>
       <use xlink:href="#md7617f13a3" x="51.961" y="255.7728" style="stroke: #000000; stroke-width: 0.8"/>
      </g>
     </g>
     <g id="text_10">
      <!-- 100 -->
      <g transform="translate(25.11 259.723987) scale(0.104 -0.104)">
       <use xlink:href="#DejaVuSans-31"/>
       <use xlink:href="#DejaVuSans-30" transform="translate(63.623047 0)"/>
       <use xlink:href="#DejaVuSans-30" transform="translate(127.246094 0)"/>
      </g>
     </g>
    </g>
    <g id="ytick_3">
     <g id="line2d_19">
      <path d="M 51.961 195.2928 
L 609.961 195.2928 
" clip-path="url(#pb8fef0f88a)" style="fill: none; stroke-dasharray: 2.96,1.28; stroke-dashoffset: 0; stroke: #b0b0b0; stroke-opacity: 0.3; stroke-width: 0.8"/>
     </g>
     <g id="line2d_20">
      <g>
       <use xlink:href="#md7617f13a3" x="51.961" y="195.2928" style="stroke: #000000; stroke-width: 0.8"/>
      </g>
     </g>
     <g id="text_11">
      <!-- 200 -->
      <g transform="translate(25.11 199.243987) scale(0.104 -0.104)">
       <use xlink:href="#DejaVuSans-32"/>
       <use xlink:href="#DejaVuSans-30" transform="translate(63.623047 0)"/>
       <use xlink:href="#DejaVuSans-30" transform="translate(127.246094 0)"/>
      </g>
     </g>
    </g>
    <g id="ytick_4">
     <g id="line2d_21">
      <path d="M 51.961 134.8128 
L 609.961 134.8128 
" clip-path="url(#pb8fef0f88a)" style="fill: none; stroke-dasharray: 2.96,1.28; stroke-dashoffset: 0; stroke: #b0b0b0; stroke-opacity: 0.3; stroke-width: 0.8"/>
     </g>
     <g id="line2d_22">
      <g>
       <use xlink:href="#md7617f13a3" x="51.961" y="134.8128" style="stroke: #000000; stroke-width: 0.8"/>
      </g>
     </g>
     <g id="text_12">
      <!-- 300 -->
      <g transform="translate(25.11 138.763987) scale(0.104 -0.104)">
       <use xlink:href="#DejaVuSans-33"/>
       <use xlink:href="#DejaVuSans-30" transform="translate(63.623047 0)"/>
       <use xlink:href="#DejaVuSans-30" transform="translate(127.246094 0)"/>
      </g>
     </g>
    </g>
    <g id="ytick_5">
     <g id="line2d_23">
      <path d="M 51.961 74.3328 
L 609.961 74.3328 
" clip-path="url(#pb8fef0f88a)" style="fill: none; stroke-dasharray: 2.96,1.28; stroke-dashoffset: 0; stroke: #b0b0b0; stroke-opacity: 0.3; stroke-width: 0.8"/>
     </g>
     <g id="line2d_24">
      <g>
       <use xlink:href="#md7617f13a3" x="51.961" y="74.3328" style="stroke: #000000; stroke-width: 0.8"/>
      </g>
     </g>
     <g id="text_13">
      <!-- 400 -->
      <g transform="translate(25.11 78.283987) scale(0.104 -0.104)">
       <defs>
        <path id="DejaVuSans-34" d="M 2419 4116 
L 825 1625 
L 2419 1625 
L 2419 4116 
z
M 2253 4666 
L 3047 4666 
L 3047 1625 
L 3713 1625 
L 3713 1100 
L 3047 1100 
L 3047 0 
L 2419 0 
L 2419 1100 
L 313 1100 
L 313 1709 
L 2253 4666 
z
" transform="scale(0.015625)"/>
       </defs>
       <use xlink:href="#DejaVuSans-34"/>
       <use xlink:href="#DejaVuSans-30" transform="translate(63.623047 0)"/>
       <use xlink:href="#DejaVuSans-30" transform="translate(127.246094 0)"/>
      </g>
     </g>
    </g>
    <g id="ytick_6">
     <g id="line2d_25">
      <path d="M 51.961 13.8528 
L 609.961 13.8528 
" clip-path="url(#pb8fef0f88a)" style="fill: none; stroke-dasharray: 2.96,1.28; stroke-dashoffset: 0; stroke: #b0b0b0; stroke-opacity: 0.3; stroke-width: 0.8"/>
     </g>
     <g id="line2d_26">
      <g>
       <use xlink:href="#md7617f13a3" x="51.961" y="13.8528" style="stroke: #000000; stroke-width: 0.8"/>
      </g>
     </g>
     <g id="text_14">
      <!-- 500 -->
      <g transform="translate(25.11 17.803987) scale(0.104 -0.104)">
       <use xlink:href="#DejaVuSans-35"/>
       <use xlink:href="#DejaVuSans-30" transform="translate(63.623047 0)"/>
       <use xlink:href="#DejaVuSans-30" transform="translate(127.246094 0)"/>
      </g>
     </g>
    </g>
    <g id="text_15">
     <!-- $\Delta E_{int}$ (cm$^{-1}$) -->
     <g transform="translate(18.406406 218.8478) rotate(-90) scale(0.13 -0.13)">
      <defs>
       <path id="DejaVuSans-394" d="M 2188 4044 
L 906 525 
L 3472 525 
L 2188 4044 
z
M 50 0 
L 1831 4666 
L 2547 4666 
L 4325 0 
L 50 0 
z
" transform="scale(0.015625)"/>
       <path id="DejaVuSans-Oblique-45" d="M 1081 4666 
L 4031 4666 
L 3928 4134 
L 1606 4134 
L 1338 2753 
L 3566 2753 
L 3463 2222 
L 1234 2222 
L 909 531 
L 3284 531 
L 3181 0 
L 172 0 
L 1081 4666 
z
" transform="scale(0.015625)"/>
       <path id="DejaVuSans-Oblique-69" d="M 1172 4863 
L 1747 4863 
L 1606 4134 
L 1031 4134 
L 1172 4863 
z
M 909 3500 
L 1484 3500 
L 800 0 
L 225 0 
L 909 3500 
z
" transform="scale(0.015625)"/>
       <path id="DejaVuSans-Oblique-6e" d="M 3566 2113 
L 3156 0 
L 2578 0 
L 2988 2091 
Q 3016 2238 3031 2350 
Q 3047 2463 3047 2528 
Q 3047 2791 2881 2937 
Q 2716 3084 2419 3084 
Q 1956 3084 1622 2776 
Q 1288 2469 1184 1941 
L 800 0 
L 225 0 
L 903 3500 
L 1478 3500 
L 1363 2950 
Q 1603 3253 1940 3418 
Q 2278 3584 2650 3584 
Q 3113 3584 3367 3334 
Q 3622 3084 3622 2631 
Q 3622 2519 3608 2391 
Q 3594 2263 3566 2113 
z
" transform="scale(0.015625)"/>
       <path id="DejaVuSans-Oblique-74" d="M 2706 3500 
L 2619 3053 
L 1472 3053 
L 1100 1153 
Q 1081 1047 1072 975 
Q 1063 903 1063 863 
Q 1063 663 1183 572 
Q 1303 481 1569 481 
L 2150 481 
L 2053 0 
L 1503 0 
Q 991 0 739 200 
Q 488 400 488 806 
Q 488 878 497 964 
Q 506 1050 525 1153 
L 897 3053 
L 409 3053 
L 500 3500 
L 978 3500 
L 1172 4494 
L 1747 4494 
L 1556 3500 
L 2706 3500 
z
" transform="scale(0.015625)"/>
       <path id="DejaVuSans-6d" d="M 3328 2828 
Q 3544 3216 3844 3400 
Q 4144 3584 4550 3584 
Q 5097 3584 5394 3201 
Q 5691 2819 5691 2113 
L 5691 0 
L 5113 0 
L 5113 2094 
Q 5113 2597 4934 2840 
Q 4756 3084 4391 3084 
Q 3944 3084 3684 2787 
Q 3425 2491 3425 1978 
L 3425 0 
L 2847 0 
L 2847 2094 
Q 2847 2600 2669 2842 
Q 2491 3084 2119 3084 
Q 1678 3084 1418 2786 
Q 1159 2488 1159 1978 
L 1159 0 
L 581 0 
L 581 3500 
L 1159 3500 
L 1159 2956 
Q 1356 3278 1631 3431 
Q 1906 3584 2284 3584 
Q 2666 3584 2933 3390 
Q 3200 3197 3328 2828 
z
" transform="scale(0.015625)"/>
       <path id="DejaVuSans-2212" d="M 678 2272 
L 4684 2272 
L 4684 1741 
L 678 1741 
L 678 2272 
z
" transform="scale(0.015625)"/>
      </defs>
      <use xlink:href="#DejaVuSans-394" transform="translate(0 0.684375)"/>
      <use xlink:href="#DejaVuSans-Oblique-45" transform="translate(68.408203 0.684375)"/>
      <use xlink:href="#DejaVuSans-Oblique-69" transform="translate(131.591797 -15.721875) scale(0.7)"/>
      <use xlink:href="#DejaVuSans-Oblique-6e" transform="translate(151.040039 -15.721875) scale(0.7)"/>
      <use xlink:href="#DejaVuSans-Oblique-74" transform="translate(195.405273 -15.721875) scale(0.7)"/>
      <use xlink:href="#DejaVuSans-20" transform="translate(225.585938 0.684375)"/>
      <use xlink:href="#DejaVuSans-28" transform="translate(257.373047 0.684375)"/>
      <use xlink:href="#DejaVuSans-63" transform="translate(296.386719 0.684375)"/>
      <use xlink:href="#DejaVuSans-6d" transform="translate(351.367188 0.684375)"/>
      <use xlink:href="#DejaVuSans-2212" transform="translate(449.736328 38.965625) scale(0.7)"/>
      <use xlink:href="#DejaVuSans-31" transform="translate(508.388672 38.965625) scale(0.7)"/>
      <use xlink:href="#DejaVuSans-29" transform="translate(555.65918 0.684375)"/>
     </g>
    </g>
   </g>
   <g id="line2d_27">
    <path d="M 77.324636 288.869937 
L 111.142818 277.414586 
L 144.961 245.74504 
L 178.779182 201.250425 
L 212.597364 154.093953 
L 246.415545 114.655071 
L 280.233727 90.934301 
L 314.051909 86.871097 
L 347.870091 101.863188 
L 381.688273 131.641398 
L 415.506455 169.943979 
L 449.324636 210.394219 
L 483.142818 247.86673 
L 516.961 279.145042 
L 550.779182 302.931011 
L 584.597364 319.386568 
" clip-path="url(#pb8fef0f88a)" style="fill: none; stroke: #000000; stroke-width: 2; stroke-linecap: square"/>
    <defs>
     <path id="m4eb7d12451" d="M 0 1 
C 0.265203 1 0.51958 0.894634 0.707107 0.707107 
C 0.894634 0.51958 1 0.265203 1 0 
C 1 -0.265203 0.894634 -0.51958 0.707107 -0.707107 
C 0.51958 -0.894634 0.265203 -1 0 -1 
C -0.265203 -1 -0.51958 -0.894634 -0.707107 -0.707107 
C -0.894634 -0.51958 -1 -0.265203 -1 0 
C -1 0.265203 -0.894634 0.51958 -0.707107 0.707107 
C -0.51958 0.894634 -0.265203 1 0 1 
z
" style="stroke: #000000"/>
    </defs>
    <g clip-path="url(#pb8fef0f88a)">
     <use xlink:href="#m4eb7d12451" x="77.324636" y="288.869937" style="stroke: #000000"/>
     <use xlink:href="#m4eb7d12451" x="111.142818" y="277.414586" style="stroke: #000000"/>
     <use xlink:href="#m4eb7d12451" x="144.961" y="245.74504" style="stroke: #000000"/>
     <use xlink:href="#m4eb7d12451" x="178.779182" y="201.250425" style="stroke: #000000"/>
     <use xlink:href="#m4eb7d12451" x="212.597364" y="154.093953" style="stroke: #000000"/>
     <use xlink:href="#m4eb7d12451" x="246.415545" y="114.655071" style="stroke: #000000"/>
     <use xlink:href="#m4eb7d12451" x="280.233727" y="90.934301" style="stroke: #000000"/>
     <use xlink:href="#m4eb7d12451" x="314.051909" y="86.871097" style="stroke: #000000"/>
     <use xlink:href="#m4eb7d12451" x="347.870091" y="101.863188" style="stroke: #000000"/>
     <use xlink:href="#m4eb7d12451" x="381.688273" y="131.641398" style="stroke: #000000"/>
     <use xlink:href="#m4eb7d12451" x="415.506455" y="169.943979" style="stroke: #000000"/>
     <use xlink:href="#m4eb7d12451" x="449.324636" y="210.394219" style="stroke: #000000"/>
     <use xlink:href="#m4eb7d12451" x="483.142818" y="247.86673" style="stroke: #000000"/>
     <use xlink:href="#m4eb7d12451" x="516.961" y="279.145042" style="stroke: #000000"/>
     <use xlink:href="#m4eb7d12451" x="550.779182" y="302.931011" style="stroke: #000000"/>
     <use xlink:href="#m4eb7d12451" x="584.597364" y="319.386568" style="stroke: #000000"/>
    </g>
   </g>
   <g id="line2d_28">
    <path d="M 77.324636 234.190259 
L 111.142818 222.460168 
L 144.961 190.021347 
L 178.779182 144.457904 
L 212.597364 96.287119 
L 246.415545 56.336454 
L 280.233727 33.107516 
L 314.051909 30.879242 
L 347.870091 49.154277 
L 381.688273 83.475931 
L 415.506455 127.205624 
L 449.324636 173.495666 
L 483.142818 216.785381 
L 516.961 253.614506 
L 550.779182 282.337045 
L 584.597364 303.107542 
" clip-path="url(#pb8fef0f88a)" style="fill: none; stroke: #1f77b4; stroke-linecap: square"/>
    <defs>
     <path id="m64cd586ef7" d="M 0 1 
C 0.265203 1 0.51958 0.894634 0.707107 0.707107 
C 0.894634 0.51958 1 0.265203 1 0 
C 1 -0.265203 0.894634 -0.51958 0.707107 -0.707107 
C 0.51958 -0.894634 0.265203 -1 0 -1 
C -0.265203 -1 -0.51958 -0.894634 -0.707107 -0.707107 
C -0.894634 -0.51958 -1 -0.265203 -1 0 
C -1 0.265203 -0.894634 0.51958 -0.707107 0.707107 
C -0.51958 0.894634 -0.265203 1 0 1 
z
" style="stroke: #1f77b4"/>
    </defs>
    <g clip-path="url(#pb8fef0f88a)">
     <use xlink:href="#m64cd586ef7" x="77.324636" y="234.190259" style="fill: #1f77b4; stroke: #1f77b4"/>
     <use xlink:href="#m64cd586ef7" x="111.142818" y="222.460168" style="fill: #1f77b4; stroke: #1f77b4"/>
     <use xlink:href="#m64cd586ef7" x="144.961" y="190.021347" style="fill: #1f77b4; stroke: #1f77b4"/>
     <use xlink:href="#m64cd586ef7" x="178.779182" y="144.457904" style="fill: #1f77b4; stroke: #1f77b4"/>
     <use xlink:href="#m64cd586ef7" x="212.597364" y="96.287119" style="fill: #1f77b4; stroke: #1f77b4"/>
     <use xlink:href="#m64cd586ef7" x="246.415545" y="56.336454" style="fill: #1f77b4; stroke: #1f77b4"/>
     <use xlink:href="#m64cd586ef7" x="280.233727" y="33.107516" style="fill: #1f77b4; stroke: #1f77b4"/>
     <use xlink:href="#m64cd586ef7" x="314.051909" y="30.879242" style="fill: #1f77b4; stroke: #1f77b4"/>
     <use xlink:href="#m64cd586ef7" x="347.870091" y="49.154277" style="fill: #1f77b4; stroke: #1f77b4"/>
     <use xlink:href="#m64cd586ef7" x="381.688273" y="83.475931" style="fill: #1f77b4; stroke: #1f77b4"/>
     <use xlink:href="#m64cd586ef7" x="415.506455" y="127.205624" style="fill: #1f77b4; stroke: #1f77b4"/>
     <use xlink:href="#m64cd586ef7" x="449.324636" y="173.495666" style="fill: #1f77b4; stroke: #1f77b4"/>
     <use xlink:href="#m64cd586ef7" x="483.142818" y="216.785381" style="fill: #1f77b4; stroke: #1f77b4"/>
     <use xlink:href="#m64cd586ef7" x="516.961" y="253.614506" style="fill: #1f77b4; stroke: #1f77b4"/>
     <use xlink:href="#m64cd586ef7" x="550.779182" y="282.337045" style="fill: #1f77b4; stroke: #1f77b4"/>
     <use xlink:href="#m64cd586ef7" x="584.597364" y="303.107542" style="fill: #1f77b4; stroke: #1f77b4"/>
    </g>
   </g>
   <g id="line2d_29">
    <path d="M 77.324636 269.167592 
L 111.142818 257.903456 
L 144.961 226.680667 
L 178.779182 182.688601 
L 212.597364 135.934263 
L 246.415545 96.762778 
L 280.233727 73.257423 
L 314.051909 69.527089 
L 347.870091 85.136862 
L 381.688273 115.792741 
L 415.506455 155.304085 
L 449.324636 197.17487 
L 483.142818 236.243283 
L 516.961 269.226471 
L 550.779182 294.740049 
L 584.597364 312.845607 
" clip-path="url(#pb8fef0f88a)" style="fill: none; stroke: #ff7f0e; stroke-linecap: square"/>
    <defs>
     <path id="me7a01639ef" d="M 0 1 
C 0.265203 1 0.51958 0.894634 0.707107 0.707107 
C 0.894634 0.51958 1 0.265203 1 0 
C 1 -0.265203 0.894634 -0.51958 0.707107 -0.707107 
C 0.51958 -0.894634 0.265203 -1 0 -1 
C -0.265203 -1 -0.51958 -0.894634 -0.707107 -0.707107 
C -0.894634 -0.51958 -1 -0.265203 -1 0 
C -1 0.265203 -0.894634 0.51958 -0.707107 0.707107 
C -0.51958 0.894634 -0.265203 1 0 1 
z
" style="stroke: #ff7f0e"/>
    </defs>
    <g clip-path="url(#pb8fef0f88a)">
     <use xlink:href="#me7a01639ef" x="77.324636" y="269.167592" style="fill: #ff7f0e; stroke: #ff7f0e"/>
     <use xlink:href="#me7a01639ef" x="111.142818" y="257.903456" style="fill: #ff7f0e; stroke: #ff7f0e"/>
     <use xlink:href="#me7a01639ef" x="144.961" y="226.680667" style="fill: #ff7f0e; stroke: #ff7f0e"/>
     <use xlink:href="#me7a01639ef" x="178.779182" y="182.688601" style="fill: #ff7f0e; stroke: #ff7f0e"/>
     <use xlink:href="#me7a01639ef" x="212.597364" y="135.934263" style="fill: #ff7f0e; stroke: #ff7f0e"/>
     <use xlink:href="#me7a01639ef" x="246.415545" y="96.762778" style="fill: #ff7f0e; stroke: #ff7f0e"/>
     <use xlink:href="#me7a01639ef" x="280.233727" y="73.257423" style="fill: #ff7f0e; stroke: #ff7f0e"/>
     <use xlink:href="#me7a01639ef" x="314.051909" y="69.527089" style="fill: #ff7f0e; stroke: #ff7f0e"/>
     <use xlink:href="#me7a01639ef" x="347.870091" y="85.136862" style="fill: #ff7f0e; stroke: #ff7f0e"/>
     <use xlink:href="#me7a01639ef" x="381.688273" y="115.792741" style="fill: #ff7f0e; stroke: #ff7f0e"/>
     <use xlink:href="#me7a01639ef" x="415.506455" y="155.304085" style="fill: #ff7f0e; stroke: #ff7f0e"/>
     <use xlink:href="#me7a01639ef" x="449.324636" y="197.17487" style="fill: #ff7f0e; stroke: #ff7f0e"/>
     <use xlink:href="#me7a01639ef" x="483.142818" y="236.243283" style="fill: #ff7f0e; stroke: #ff7f0e"/>
     <use xlink:href="#me7a01639ef" x="516.961" y="269.226471" style="fill: #ff7f0e; stroke: #ff7f0e"/>
     <use xlink:href="#me7a01639ef" x="550.779182" y="294.740049" style="fill: #ff7f0e; stroke: #ff7f0e"/>
     <use xlink:href="#me7a01639ef" x="584.597364" y="312.845607" style="fill: #ff7f0e; stroke: #ff7f0e"/>
    </g>
   </g>
   <g id="line2d_30">
    <path d="M 77.324636 282.425736 
L 111.142818 271.162461 
L 144.961 239.994442 
L 178.779182 196.11089 
L 212.597364 149.475829 
L 246.415545 110.31082 
L 280.233727 86.599793 
L 314.051909 82.326354 
L 347.870091 96.992367 
L 381.688273 126.489383 
L 415.506455 164.676615 
L 449.324636 205.199896 
L 483.142818 242.963275 
L 516.961 274.728077 
L 550.779182 299.129213 
L 584.597364 316.257945 
" clip-path="url(#pb8fef0f88a)" style="fill: none; stroke: #2ca02c; stroke-linecap: square"/>
    <defs>
     <path id="m0a41bd64d5" d="M 0 1 
C 0.265203 1 0.51958 0.894634 0.707107 0.707107 
C 0.894634 0.51958 1 0.265203 1 0 
C 1 -0.265203 0.894634 -0.51958 0.707107 -0.707107 
C 0.51958 -0.894634 0.265203 -1 0 -1 
C -0.265203 -1 -0.51958 -0.894634 -0.707107 -0.707107 
C -0.894634 -0.51958 -1 -0.265203 -1 0 
C -1 0.265203 -0.894634 0.51958 -0.707107 0.707107 
C -0.51958 0.894634 -0.265203 1 0 1 
z
" style="stroke: #2ca02c"/>
    </defs>
    <g clip-path="url(#pb8fef0f88a)">
     <use xlink:href="#m0a41bd64d5" x="77.324636" y="282.425736" style="fill: #2ca02c; stroke: #2ca02c"/>
     <use xlink:href="#m0a41bd64d5" x="111.142818" y="271.162461" style="fill: #2ca02c; stroke: #2ca02c"/>
     <use xlink:href="#m0a41bd64d5" x="144.961" y="239.994442" style="fill: #2ca02c; stroke: #2ca02c"/>
     <use xlink:href="#m0a41bd64d5" x="178.779182" y="196.11089" style="fill: #2ca02c; stroke: #2ca02c"/>
     <use xlink:href="#m0a41bd64d5" x="212.597364" y="149.475829" style="fill: #2ca02c; stroke: #2ca02c"/>
     <use xlink:href="#m0a41bd64d5" x="246.415545" y="110.31082" style="fill: #2ca02c; stroke: #2ca02c"/>
     <use xlink:href="#m0a41bd64d5" x="280.233727" y="86.599793" style="fill: #2ca02c; stroke: #2ca02c"/>
     <use xlink:href="#m0a41bd64d5" x="314.051909" y="82.326354" style="fill: #2ca02c; stroke: #2ca02c"/>
     <use xlink:href="#m0a41bd64d5" x="347.870091" y="96.992367" style="fill: #2ca02c; stroke: #2ca02c"/>
     <use xlink:href="#m0a41bd64d5" x="381.688273" y="126.489383" style="fill: #2ca02c; stroke: #2ca02c"/>
     <use xlink:href="#m0a41bd64d5" x="415.506455" y="164.676615" style="fill: #2ca02c; stroke: #2ca02c"/>
     <use xlink:href="#m0a41bd64d5" x="449.324636" y="205.199896" style="fill: #2ca02c; stroke: #2ca02c"/>
     <use xlink:href="#m0a41bd64d5" x="483.142818" y="242.963275" style="fill: #2ca02c; stroke: #2ca02c"/>
     <use xlink:href="#m0a41bd64d5" x="516.961" y="274.728077" style="fill: #2ca02c; stroke: #2ca02c"/>
     <use xlink:href="#m0a41bd64d5" x="550.779182" y="299.129213" style="fill: #2ca02c; stroke: #2ca02c"/>
     <use xlink:href="#m0a41bd64d5" x="584.597364" y="316.257945" style="fill: #2ca02c; stroke: #2ca02c"/>
    </g>
   </g>
   <g id="line2d_31">
    <path d="M 77.324636 285.281566 
L 111.142818 274.160503 
L 144.961 243.303716 
L 178.779182 199.765256 
L 212.597364 153.372312 
L 246.415545 114.303283 
L 280.233727 90.502853 
L 314.051909 86.037084 
L 347.870091 100.501697 
L 381.688273 129.647195 
L 415.506455 167.432303 
L 449.324636 207.473179 
L 483.142818 244.756169 
L 516.961 276.072385 
L 550.779182 300.16119 
L 584.597364 317.064133 
" clip-path="url(#pb8fef0f88a)" style="fill: none; stroke: #d62728; stroke-linecap: square"/>
    <defs>
     <path id="m17d3064d3f" d="M 0 1 
C 0.265203 1 0.51958 0.894634 0.707107 0.707107 
C 0.894634 0.51958 1 0.265203 1 0 
C 1 -0.265203 0.894634 -0.51958 0.707107 -0.707107 
C 0.51958 -0.894634 0.265203 -1 0 -1 
C -0.265203 -1 -0.51958 -0.894634 -0.707107 -0.707107 
C -0.894634 -0.51958 -1 -0.265203 -1 0 
C -1 0.265203 -0.894634 0.51958 -0.707107 0.707107 
C -0.51958 0.894634 -0.265203 1 0 1 
z
" style="stroke: #d62728"/>
    </defs>
    <g clip-path="url(#pb8fef0f88a)">
     <use xlink:href="#m17d3064d3f" x="77.324636" y="285.281566" style="fill: #d62728; stroke: #d62728"/>
     <use xlink:href="#m17d3064d3f" x="111.142818" y="274.160503" style="fill: #d62728; stroke: #d62728"/>
     <use xlink:href="#m17d3064d3f" x="144.961" y="243.303716" style="fill: #d62728; stroke: #d62728"/>
     <use xlink:href="#m17d3064d3f" x="178.779182" y="199.765256" style="fill: #d62728; stroke: #d62728"/>
     <use xlink:href="#m17d3064d3f" x="212.597364" y="153.372312" style="fill: #d62728; stroke: #d62728"/>
     <use xlink:href="#m17d3064d3f" x="246.415545" y="114.303283" style="fill: #d62728; stroke: #d62728"/>
     <use xlink:href="#m17d3064d3f" x="280.233727" y="90.502853" style="fill: #d62728; stroke: #d62728"/>
     <use xlink:href="#m17d3064d3f" x="314.051909" y="86.037084" style="fill: #d62728; stroke: #d62728"/>
     <use xlink:href="#m17d3064d3f" x="347.870091" y="100.501697" style="fill: #d62728; stroke: #d62728"/>
     <use xlink:href="#m17d3064d3f" x="381.688273" y="129.647195" style="fill: #d62728; stroke: #d62728"/>
     <use xlink:href="#m17d3064d3f" x="415.506455" y="167.432303" style="fill: #d62728; stroke: #d62728"/>
     <use xlink:href="#m17d3064d3f" x="449.324636" y="207.473179" style="fill: #d62728; stroke: #d62728"/>
     <use xlink:href="#m17d3064d3f" x="483.142818" y="244.756169" style="fill: #d62728; stroke: #d62728"/>
     <use xlink:href="#m17d3064d3f" x="516.961" y="276.072385" style="fill: #d62728; stroke: #d62728"/>
     <use xlink:href="#m17d3064d3f" x="550.779182" y="300.16119" style="fill: #d62728; stroke: #d62728"/>
     <use xlink:href="#m17d3064d3f" x="584.597364" y="317.064133" style="fill: #d62728; stroke: #d62728"/>
    </g>
   </g>
   <g id="line2d_32">
    <path d="M 77.324636 291.217314 
L 111.142818 279.944476 
L 144.961 248.787211 
L 178.779182 204.943552 
L 212.597364 158.36416 
L 246.415545 119.19698 
L 280.233727 95.361552 
L 314.051909 90.752577 
L 347.870091 104.824278 
L 381.688273 133.594729 
L 415.506455 170.942368 
L 449.324636 210.598581 
L 483.142818 247.504772 
L 516.961 278.453376 
L 550.779182 302.099014 
L 584.597364 318.560754 
" clip-path="url(#pb8fef0f88a)" style="fill: none; stroke: #9467bd; stroke-linecap: square"/>
    <defs>
     <path id="mfc317e689b" d="M 0 1 
C 0.265203 1 0.51958 0.894634 0.707107 0.707107 
C 0.894634 0.51958 1 0.265203 1 0 
C 1 -0.265203 0.894634 -0.51958 0.707107 -0.707107 
C 0.51958 -0.894634 0.265203 -1 0 -1 
C -0.265203 -1 -0.51958 -0.894634 -0.707107 -0.707107 
C -0.894634 -0.51958 -1 -0.265203 -1 0 
C -1 0.265203 -0.894634 0.51958 -0.707107 0.707107 
C -0.51958 0.894634 -0.265203 1 0 1 
z
" style="stroke: #9467bd"/>
    </defs>
    <g clip-path="url(#pb8fef0f88a)">
     <use xlink:href="#mfc317e689b" x="77.324636" y="291.217314" style="fill: #9467bd; stroke: #9467bd"/>
     <use xlink:href="#mfc317e689b" x="111.142818" y="279.944476" style="fill: #9467bd; stroke: #9467bd"/>
     <use xlink:href="#mfc317e689b" x="144.961" y="248.787211" style="fill: #9467bd; stroke: #9467bd"/>
     <use xlink:href="#mfc317e689b" x="178.779182" y="204.943552" style="fill: #9467bd; stroke: #9467bd"/>
     <use xlink:href="#mfc317e689b" x="212.597364" y="158.36416" style="fill: #9467bd; stroke: #9467bd"/>
     <use xlink:href="#mfc317e689b" x="246.415545" y="119.19698" style="fill: #9467bd; stroke: #9467bd"/>
     <use xlink:href="#mfc317e689b" x="280.233727" y="95.361552" style="fill: #9467bd; stroke: #9467bd"/>
     <use xlink:href="#mfc317e689b" x="314.051909" y="90.752577" style="fill: #9467bd; stroke: #9467bd"/>
     <use xlink:href="#mfc317e689b" x="347.870091" y="104.824278" style="fill: #9467bd; stroke: #9467bd"/>
     <use xlink:href="#mfc317e689b" x="381.688273" y="133.594729" style="fill: #9467bd; stroke: #9467bd"/>
     <use xlink:href="#mfc317e689b" x="415.506455" y="170.942368" style="fill: #9467bd; stroke: #9467bd"/>
     <use xlink:href="#mfc317e689b" x="449.324636" y="210.598581" style="fill: #9467bd; stroke: #9467bd"/>
     <use xlink:href="#mfc317e689b" x="483.142818" y="247.504772" style="fill: #9467bd; stroke: #9467bd"/>
     <use xlink:href="#mfc317e689b" x="516.961" y="278.453376" style="fill: #9467bd; stroke: #9467bd"/>
     <use xlink:href="#mfc317e689b" x="550.779182" y="302.099014" style="fill: #9467bd; stroke: #9467bd"/>
     <use xlink:href="#mfc317e689b" x="584.597364" y="318.560754" style="fill: #9467bd; stroke: #9467bd"/>
    </g>
   </g>
   <g id="patch_4">
    <path d="M 51.961 346.4928 
L 51.961 13.8528 
" style="fill: none; stroke: #000000; stroke-width: 0.8; stroke-linejoin: miter; stroke-linecap: square"/>
   </g>
   <g id="patch_5">
    <path d="M 609.961 346.4928 
L 609.961 13.8528 
" style="fill: none; stroke: #000000; stroke-width: 0.8; stroke-linejoin: miter; stroke-linecap: square"/>
   </g>
   <g id="patch_6">
    <path d="M 51.961 346.4928 
L 609.961 346.4928 
" style="fill: none; stroke: #000000; stroke-width: 0.8; stroke-linejoin: miter; stroke-linecap: square"/>
   </g>
   <g id="patch_7">
    <path d="M 51.961 13.8528 
L 609.961 13.8528 
" style="fill: none; stroke: #000000; stroke-width: 0.8; stroke-linejoin: miter; stroke-linecap: square"/>
   </g>
   <g id="patch_8">
    <path d="M 97.033 140.256 
L 230.089 140.256 
L 230.089 7.2 
L 97.033 7.2 
L 97.033 140.256 
z
" style="fill: none"/>
   </g>
   <g id="axes_2">
    <g id="line2d_33">
     <path d="M 123.30519 87.182242 
L 110.025407 87.182242 
" clip-path="url(#pb1da0a07e9)" style="fill: none; stroke: #e6e6fa; stroke-width: 1.5; stroke-linecap: square"/>
     <defs>
      <path id="m8df5bd0e04" d="M 0 1.5 
C 0.397805 1.5 0.77937 1.341951 1.06066 1.06066 
C 1.341951 0.77937 1.5 0.397805 1.5 0 
C 1.5 -0.397805 1.341951 -0.77937 1.06066 -1.06066 
C 0.77937 -1.341951 0.397805 -1.5 0 -1.5 
C -0.397805 -1.5 -0.77937 -1.341951 -1.06066 -1.06066 
C -1.341951 -0.77937 -1.5 -0.397805 -1.5 0 
C -1.5 0.397805 -1.341951 0.77937 -1.06066 1.06066 
C -0.77937 1.341951 -0.397805 1.5 0 1.5 
z
" style="stroke: #e6e6fa"/>
     </defs>
     <g clip-path="url(#pb1da0a07e9)">
      <use xlink:href="#m8df5bd0e04" x="123.30519" y="87.182242" style="fill: #e6e6fa; stroke: #e6e6fa"/>
      <use xlink:href="#m8df5bd0e04" x="110.025407" y="87.182242" style="fill: #e6e6fa; stroke: #e6e6fa"/>
     </g>
    </g>
    <g id="line2d_34">
     <path d="M 132.404232 79.671541 
L 126.410142 73.993473 
" clip-path="url(#pb1da0a07e9)" style="fill: none; stroke: #e6e6fa; stroke-width: 1.5; stroke-linecap: square"/>
     <g clip-path="url(#pb1da0a07e9)">
      <use xlink:href="#m8df5bd0e04" x="132.404232" y="79.671541" style="fill: #e6e6fa; stroke: #e6e6fa"/>
      <use xlink:href="#m8df5bd0e04" x="126.410142" y="73.993473" style="fill: #e6e6fa; stroke: #e6e6fa"/>
     </g>
    </g>
    <g id="line2d_35">
     <path d="M 149.134918 79.671541 
L 155.789177 73.993473 
" clip-path="url(#pb1da0a07e9)" style="fill: none; stroke: #e6e6fa; stroke-width: 1.5; stroke-linecap: square"/>
     <g clip-path="url(#pb1da0a07e9)">
      <use xlink:href="#m8df5bd0e04" x="149.134918" y="79.671541" style="fill: #e6e6fa; stroke: #e6e6fa"/>
      <use xlink:href="#m8df5bd0e04" x="155.789177" y="73.993473" style="fill: #e6e6fa; stroke: #e6e6fa"/>
     </g>
    </g>
    <g id="line2d_36">
     <path d="M 157.360715 87.182242 
L 170.640498 87.182242 
" clip-path="url(#pb1da0a07e9)" style="fill: none; stroke: #e6e6fa; stroke-width: 1.5; stroke-linecap: square"/>
     <g clip-path="url(#pb1da0a07e9)">
      <use xlink:href="#m8df5bd0e04" x="157.360715" y="87.182242" style="fill: #e6e6fa; stroke: #e6e6fa"/>
      <use xlink:href="#m8df5bd0e04" x="170.640498" y="87.182242" style="fill: #e6e6fa; stroke: #e6e6fa"/>
     </g>
    </g>
    <g id="line2d_37">
     <path d="M 148.548335 94.964491 
L 155.164533 101.231868 
" clip-path="url(#pb1da0a07e9)" style="fill: none; stroke: #e6e6fa; stroke-width: 1.5; stroke-linecap: square"/>
     <g clip-path="url(#pb1da0a07e9)">
      <use xlink:href="#m8df5bd0e04" x="148.548335" y="94.964491" style="fill: #e6e6fa; stroke: #e6e6fa"/>
      <use xlink:href="#m8df5bd0e04" x="155.164533" y="101.231868" style="fill: #e6e6fa; stroke: #e6e6fa"/>
     </g>
    </g>
    <g id="line2d_38">
     <path d="M 131.212754 94.964492 
L 123.86787 101.231868 
" clip-path="url(#pb1da0a07e9)" style="fill: none; stroke: #e6e6fa; stroke-width: 1.5; stroke-linecap: square"/>
     <g clip-path="url(#pb1da0a07e9)">
      <use xlink:href="#m8df5bd0e04" x="131.212754" y="94.964492" style="fill: #e6e6fa; stroke: #e6e6fa"/>
      <use xlink:href="#m8df5bd0e04" x="123.86787" y="101.231868" style="fill: #e6e6fa; stroke: #e6e6fa"/>
     </g>
    </g>
    <g id="line2d_39">
     <path d="M 123.30519 87.182242 
L 132.404232 79.671541 
" clip-path="url(#pb1da0a07e9)" style="fill: none; stroke: #000000; stroke-width: 1.5; stroke-linecap: square"/>
     <defs>
      <path id="mebab6d1502" d="M 0 1.5 
C 0.397805 1.5 0.77937 1.341951 1.06066 1.06066 
C 1.341951 0.77937 1.5 0.397805 1.5 0 
C 1.5 -0.397805 1.341951 -0.77937 1.06066 -1.06066 
C 0.77937 -1.341951 0.397805 -1.5 0 -1.5 
C -0.397805 -1.5 -0.77937 -1.341951 -1.06066 -1.06066 
C -1.341951 -0.77937 -1.5 -0.397805 -1.5 0 
C -1.5 0.397805 -1.341951 0.77937 -1.06066 1.06066 
C -0.77937 1.341951 -0.397805 1.5 0 1.5 
z
" style="stroke: #000000"/>
     </defs>
     <g clip-path="url(#pb1da0a07e9)">
      <use xlink:href="#mebab6d1502" x="123.30519" y="87.182242" style="stroke: #000000"/>
      <use xlink:href="#mebab6d1502" x="132.404232" y="79.671541" style="stroke: #000000"/>
     </g>
    </g>
    <g id="line2d_40">
     <path d="M 132.404232 79.671541 
L 149.134918 79.671541 
" clip-path="url(#pb1da0a07e9)" style="fill: none; stroke: #000000; stroke-width: 1.5; stroke-linecap: square"/>
     <g clip-path="url(#pb1da0a07e9)">
      <use xlink:href="#mebab6d1502" x="132.404232" y="79.671541" style="stroke: #000000"/>
      <use xlink:href="#mebab6d1502" x="149.134918" y="79.671541" style="stroke: #000000"/>
     </g>
    </g>
    <g id="line2d_41">
     <path d="M 149.134918 79.671541 
L 157.360715 87.182242 
" clip-path="url(#pb1da0a07e9)" style="fill: none; stroke: #000000; stroke-width: 1.5; stroke-linecap: square"/>
     <g clip-path="url(#pb1da0a07e9)">
      <use xlink:href="#mebab6d1502" x="149.134918" y="79.671541" style="stroke: #000000"/>
      <use xlink:href="#mebab6d1502" x="157.360715" y="87.182242" style="stroke: #000000"/>
     </g>
    </g>
    <g id="line2d_42">
     <path d="M 157.360715 87.182242 
L 148.548335 94.964491 
" clip-path="url(#pb1da0a07e9)" style="fill: none; stroke: #000000; stroke-width: 1.5; stroke-linecap: square"/>
     <g clip-path="url(#pb1da0a07e9)">
      <use xlink:href="#mebab6d1502" x="157.360715" y="87.182242" style="stroke: #000000"/>
      <use xlink:href="#mebab6d1502" x="148.548335" y="94.964491" style="stroke: #000000"/>
     </g>
    </g>
    <g id="line2d_43">
     <path d="M 148.548335 94.964491 
L 131.212754 94.964492 
" clip-path="url(#pb1da0a07e9)" style="fill: none; stroke: #000000; stroke-width: 1.5; stroke-linecap: square"/>
     <g clip-path="url(#pb1da0a07e9)">
      <use xlink:href="#mebab6d1502" x="148.548335" y="94.964491" style="stroke: #000000"/>
      <use xlink:href="#mebab6d1502" x="131.212754" y="94.964492" style="stroke: #000000"/>
     </g>
    </g>
    <g id="line2d_44">
     <path d="M 131.212754 94.964492 
L 123.30519 87.182242 
" clip-path="url(#pb1da0a07e9)" style="fill: none; stroke: #000000; stroke-width: 1.5; stroke-linecap: square"/>
     <g clip-path="url(#pb1da0a07e9)">
      <use xlink:href="#mebab6d1502" x="131.212754" y="94.964492" style="stroke: #000000"/>
      <use xlink:href="#mebab6d1502" x="123.30519" y="87.182242" style="stroke: #000000"/>
     </g>
    </g>
    <g id="line2d_45">
     <path d="M 194.282748 103.614137 
L 90.209554 71.915781 
" clip-path="url(#pb1da0a07e9)" style="fill: none; stroke: #000000; stroke-linecap: square"/>
    </g>
    <g id="line2d_46">
     <path d="M 170.537167 61.409039 
L 106.020217 116.461239 
" clip-path="url(#pb1da0a07e9)" style="fill: none; stroke: #000000; stroke-linecap: square"/>
    </g>
    <g id="line2d_47">
     <path d="M 139.509899 46.714588 
L 141.10521 125.152387 
" clip-path="url(#pb1da0a07e9)" style="fill: none; stroke: #000000; stroke-linecap: square"/>
    </g>
    <g id="Line3DCollection_1">
     <path d="M 177.884768 77.313144 
L 139.90832 66.304031 
" clip-path="url(#pb1da0a07e9)" style="fill: none; stroke: #0000ff; stroke-width: 1.5"/>
     <path d="M 177.884768 77.313144 
L 166.66925 76.288673 
" clip-path="url(#pb1da0a07e9)" style="fill: none; stroke: #0000ff; stroke-width: 1.5"/>
     <path d="M 177.884768 77.313144 
L 166.673958 71.828375 
" clip-path="url(#pb1da0a07e9)" style="fill: none; stroke: #0000ff; stroke-width: 1.5"/>
    </g>
    <g id="text_16">
     <!-- $x$ -->
     <g transform="translate(196.526535 104.297545) scale(0.06 -0.06)">
      <defs>
       <path id="DejaVuSans-Oblique-78" d="M 3841 3500 
L 2234 1784 
L 3219 0 
L 2559 0 
L 1819 1388 
L 531 0 
L -166 0 
L 1556 1844 
L 641 3500 
L 1300 3500 
L 1972 2234 
L 3144 3500 
L 3841 3500 
z
" transform="scale(0.015625)"/>
      </defs>
      <use xlink:href="#DejaVuSans-Oblique-78" transform="translate(0 0.3125)"/>
     </g>
    </g>
    <g id="text_17">
     <!-- $y$ -->
     <g transform="translate(172.535895 61.969386) scale(0.06 -0.06)">
      <defs>
       <path id="DejaVuSans-Oblique-79" d="M 1588 -325 
Q 1188 -997 936 -1164 
Q 684 -1331 294 -1331 
L -159 -1331 
L -63 -850 
L 269 -850 
Q 509 -850 678 -719 
Q 847 -588 1056 -206 
L 1234 128 
L 459 3500 
L 1069 3500 
L 1650 819 
L 3256 3500 
L 3859 3500 
L 1588 -325 
z
" transform="scale(0.015625)"/>
      </defs>
      <use xlink:href="#DejaVuSans-Oblique-79" transform="translate(0 0.3125)"/>
     </g>
    </g>
    <g id="text_18">
     <!-- $z$ -->
     <g transform="translate(141.658926 47.30795) scale(0.06 -0.06)">
      <defs>
       <path id="DejaVuSans-Oblique-7a" d="M 744 3500 
L 3475 3500 
L 3372 2975 
L 738 459 
L 2913 459 
L 2822 0 
L -19 0 
L 84 525 
L 2719 3041 
L 653 3041 
L 744 3500 
z
" transform="scale(0.015625)"/>
      </defs>
      <use xlink:href="#DejaVuSans-Oblique-7a" transform="translate(0 0.3125)"/>
     </g>
    </g>
   </g>
   <g id="legend_1">
    <g id="patch_9">
     <path d="M 370.184125 129.1353 
L 601.561 129.1353 
Q 603.961 129.1353 603.961 126.7353 
L 603.961 22.2528 
Q 603.961 19.8528 601.561 19.8528 
L 370.184125 19.8528 
Q 367.784125 19.8528 367.784125 22.2528 
L 367.784125 126.7353 
Q 367.784125 129.1353 370.184125 129.1353 
z
" style="fill: #ffffff; opacity: 0.8; stroke: #cccccc; stroke-linejoin: miter"/>
    </g>
    <g id="line2d_48">
     <path d="M 372.584125 29.570925 
L 384.584125 29.570925 
L 396.584125 29.570925 
" style="fill: none; stroke: #000000; stroke-width: 2; stroke-linecap: square"/>
     <g>
      <use xlink:href="#m4eb7d12451" x="384.584125" y="29.570925" style="stroke: #000000"/>
     </g>
    </g>
    <g id="text_19">
     <!-- CCSD(T)/aug-cc-pV(T,Q)Z -->
     <g transform="translate(406.184125 33.770925) scale(0.12 -0.12)">
      <defs>
       <path id="DejaVuSans-43" d="M 4122 4306 
L 4122 3641 
Q 3803 3938 3442 4084 
Q 3081 4231 2675 4231 
Q 1875 4231 1450 3742 
Q 1025 3253 1025 2328 
Q 1025 1406 1450 917 
Q 1875 428 2675 428 
Q 3081 428 3442 575 
Q 3803 722 4122 1019 
L 4122 359 
Q 3791 134 3420 21 
Q 3050 -91 2638 -91 
Q 1578 -91 968 557 
Q 359 1206 359 2328 
Q 359 3453 968 4101 
Q 1578 4750 2638 4750 
Q 3056 4750 3426 4639 
Q 3797 4528 4122 4306 
z
" transform="scale(0.015625)"/>
       <path id="DejaVuSans-53" d="M 3425 4513 
L 3425 3897 
Q 3066 4069 2747 4153 
Q 2428 4238 2131 4238 
Q 1616 4238 1336 4038 
Q 1056 3838 1056 3469 
Q 1056 3159 1242 3001 
Q 1428 2844 1947 2747 
L 2328 2669 
Q 3034 2534 3370 2195 
Q 3706 1856 3706 1288 
Q 3706 609 3251 259 
Q 2797 -91 1919 -91 
Q 1588 -91 1214 -16 
Q 841 59 441 206 
L 441 856 
Q 825 641 1194 531 
Q 1563 422 1919 422 
Q 2459 422 2753 634 
Q 3047 847 3047 1241 
Q 3047 1584 2836 1778 
Q 2625 1972 2144 2069 
L 1759 2144 
Q 1053 2284 737 2584 
Q 422 2884 422 3419 
Q 422 4038 858 4394 
Q 1294 4750 2059 4750 
Q 2388 4750 2728 4690 
Q 3069 4631 3425 4513 
z
" transform="scale(0.015625)"/>
       <path id="DejaVuSans-54" d="M -19 4666 
L 3928 4666 
L 3928 4134 
L 2272 4134 
L 2272 0 
L 1638 0 
L 1638 4134 
L -19 4134 
L -19 4666 
z
" transform="scale(0.015625)"/>
       <path id="DejaVuSans-2f" d="M 1625 4666 
L 2156 4666 
L 531 -594 
L 0 -594 
L 1625 4666 
z
" transform="scale(0.015625)"/>
       <path id="DejaVuSans-75" d="M 544 1381 
L 544 3500 
L 1119 3500 
L 1119 1403 
Q 1119 906 1312 657 
Q 1506 409 1894 409 
Q 2359 409 2629 706 
Q 2900 1003 2900 1516 
L 2900 3500 
L 3475 3500 
L 3475 0 
L 2900 0 
L 2900 538 
Q 2691 219 2414 64 
Q 2138 -91 1772 -91 
Q 1169 -91 856 284 
Q 544 659 544 1381 
z
M 1991 3584 
L 1991 3584 
z
" transform="scale(0.015625)"/>
       <path id="DejaVuSans-70" d="M 1159 525 
L 1159 -1331 
L 581 -1331 
L 581 3500 
L 1159 3500 
L 1159 2969 
Q 1341 3281 1617 3432 
Q 1894 3584 2278 3584 
Q 2916 3584 3314 3078 
Q 3713 2572 3713 1747 
Q 3713 922 3314 415 
Q 2916 -91 2278 -91 
Q 1894 -91 1617 61 
Q 1341 213 1159 525 
z
M 3116 1747 
Q 3116 2381 2855 2742 
Q 2594 3103 2138 3103 
Q 1681 3103 1420 2742 
Q 1159 2381 1159 1747 
Q 1159 1113 1420 752 
Q 1681 391 2138 391 
Q 2594 391 2855 752 
Q 3116 1113 3116 1747 
z
" transform="scale(0.015625)"/>
       <path id="DejaVuSans-56" d="M 1831 0 
L 50 4666 
L 709 4666 
L 2188 738 
L 3669 4666 
L 4325 4666 
L 2547 0 
L 1831 0 
z
" transform="scale(0.015625)"/>
       <path id="DejaVuSans-51" d="M 2522 4238 
Q 1834 4238 1429 3725 
Q 1025 3213 1025 2328 
Q 1025 1447 1429 934 
Q 1834 422 2522 422 
Q 3209 422 3611 934 
Q 4013 1447 4013 2328 
Q 4013 3213 3611 3725 
Q 3209 4238 2522 4238 
z
M 3406 84 
L 4238 -825 
L 3475 -825 
L 2784 -78 
Q 2681 -84 2626 -87 
Q 2572 -91 2522 -91 
Q 1538 -91 948 567 
Q 359 1225 359 2328 
Q 359 3434 948 4092 
Q 1538 4750 2522 4750 
Q 3503 4750 4090 4092 
Q 4678 3434 4678 2328 
Q 4678 1516 4351 937 
Q 4025 359 3406 84 
z
" transform="scale(0.015625)"/>
       <path id="DejaVuSans-5a" d="M 359 4666 
L 4025 4666 
L 4025 4184 
L 1075 531 
L 4097 531 
L 4097 0 
L 288 0 
L 288 481 
L 3238 4134 
L 359 4134 
L 359 4666 
z
" transform="scale(0.015625)"/>
      </defs>
      <use xlink:href="#DejaVuSans-43"/>
      <use xlink:href="#DejaVuSans-43" transform="translate(69.824219 0)"/>
      <use xlink:href="#DejaVuSans-53" transform="translate(139.648438 0)"/>
      <use xlink:href="#DejaVuSans-44" transform="translate(203.125 0)"/>
      <use xlink:href="#DejaVuSans-28" transform="translate(280.126953 0)"/>
      <use xlink:href="#DejaVuSans-54" transform="translate(319.140625 0)"/>
      <use xlink:href="#DejaVuSans-29" transform="translate(380.224609 0)"/>
      <use xlink:href="#DejaVuSans-2f" transform="translate(419.238281 0)"/>
      <use xlink:href="#DejaVuSans-61" transform="translate(452.929688 0)"/>
      <use xlink:href="#DejaVuSans-75" transform="translate(514.208984 0)"/>
      <use xlink:href="#DejaVuSans-67" transform="translate(577.587891 0)"/>
      <use xlink:href="#DejaVuSans-2d" transform="translate(641.064453 0)"/>
      <use xlink:href="#DejaVuSans-63" transform="translate(677.148438 0)"/>
      <use xlink:href="#DejaVuSans-63" transform="translate(732.128906 0)"/>
      <use xlink:href="#DejaVuSans-2d" transform="translate(787.109375 0)"/>
      <use xlink:href="#DejaVuSans-70" transform="translate(823.193359 0)"/>
      <use xlink:href="#DejaVuSans-56" transform="translate(886.669922 0)"/>
      <use xlink:href="#DejaVuSans-28" transform="translate(955.078125 0)"/>
      <use xlink:href="#DejaVuSans-54" transform="translate(994.091797 0)"/>
      <use xlink:href="#DejaVuSans-2c" transform="translate(1055.175781 0)"/>
      <use xlink:href="#DejaVuSans-51" transform="translate(1086.962891 0)"/>
      <use xlink:href="#DejaVuSans-29" transform="translate(1165.673828 0)"/>
      <use xlink:href="#DejaVuSans-5a" transform="translate(1204.6875 0)"/>
     </g>
    </g>
    <g id="line2d_49">
     <path d="M 372.584125 47.184675 
L 384.584125 47.184675 
L 396.584125 47.184675 
" style="fill: none; stroke: #1f77b4; stroke-linecap: square"/>
     <g>
      <use xlink:href="#m64cd586ef7" x="384.584125" y="47.184675" style="fill: #1f77b4; stroke: #1f77b4"/>
     </g>
    </g>
    <g id="text_20">
     <!-- SAPT2+3dmp2/aug-cc-pVDZ -->
     <g transform="translate(406.184125 51.384675) scale(0.12 -0.12)">
      <defs>
       <path id="DejaVuSans-41" d="M 2188 4044 
L 1331 1722 
L 3047 1722 
L 2188 4044 
z
M 1831 4666 
L 2547 4666 
L 4325 0 
L 3669 0 
L 3244 1197 
L 1141 1197 
L 716 0 
L 50 0 
L 1831 4666 
z
" transform="scale(0.015625)"/>
       <path id="DejaVuSans-50" d="M 1259 4147 
L 1259 2394 
L 2053 2394 
Q 2494 2394 2734 2622 
Q 2975 2850 2975 3272 
Q 2975 3691 2734 3919 
Q 2494 4147 2053 4147 
L 1259 4147 
z
M 628 4666 
L 2053 4666 
Q 2838 4666 3239 4311 
Q 3641 3956 3641 3272 
Q 3641 2581 3239 2228 
Q 2838 1875 2053 1875 
L 1259 1875 
L 1259 0 
L 628 0 
L 628 4666 
z
" transform="scale(0.015625)"/>
       <path id="DejaVuSans-2b" d="M 2944 4013 
L 2944 2272 
L 4684 2272 
L 4684 1741 
L 2944 1741 
L 2944 0 
L 2419 0 
L 2419 1741 
L 678 1741 
L 678 2272 
L 2419 2272 
L 2419 4013 
L 2944 4013 
z
" transform="scale(0.015625)"/>
      </defs>
      <use xlink:href="#DejaVuSans-53"/>
      <use xlink:href="#DejaVuSans-41" transform="translate(65.351562 0)"/>
      <use xlink:href="#DejaVuSans-50" transform="translate(133.759766 0)"/>
      <use xlink:href="#DejaVuSans-54" transform="translate(194.0625 0)"/>
      <use xlink:href="#DejaVuSans-32" transform="translate(255.146484 0)"/>
      <use xlink:href="#DejaVuSans-2b" transform="translate(318.769531 0)"/>
      <use xlink:href="#DejaVuSans-33" transform="translate(402.558594 0)"/>
      <use xlink:href="#DejaVuSans-64" transform="translate(466.181641 0)"/>
      <use xlink:href="#DejaVuSans-6d" transform="translate(529.658203 0)"/>
      <use xlink:href="#DejaVuSans-70" transform="translate(627.070312 0)"/>
      <use xlink:href="#DejaVuSans-32" transform="translate(690.546875 0)"/>
      <use xlink:href="#DejaVuSans-2f" transform="translate(754.169922 0)"/>
      <use xlink:href="#DejaVuSans-61" transform="translate(787.861328 0)"/>
      <use xlink:href="#DejaVuSans-75" transform="translate(849.140625 0)"/>
      <use xlink:href="#DejaVuSans-67" transform="translate(912.519531 0)"/>
      <use xlink:href="#DejaVuSans-2d" transform="translate(975.996094 0)"/>
      <use xlink:href="#DejaVuSans-63" transform="translate(1012.080078 0)"/>
      <use xlink:href="#DejaVuSans-63" transform="translate(1067.060547 0)"/>
      <use xlink:href="#DejaVuSans-2d" transform="translate(1122.041016 0)"/>
      <use xlink:href="#DejaVuSans-70" transform="translate(1158.125 0)"/>
      <use xlink:href="#DejaVuSans-56" transform="translate(1221.601562 0)"/>
      <use xlink:href="#DejaVuSans-44" transform="translate(1290.009766 0)"/>
      <use xlink:href="#DejaVuSans-5a" transform="translate(1367.011719 0)"/>
     </g>
    </g>
    <g id="line2d_50">
     <path d="M 372.584125 64.798425 
L 384.584125 64.798425 
L 396.584125 64.798425 
" style="fill: none; stroke: #ff7f0e; stroke-linecap: square"/>
     <g>
      <use xlink:href="#me7a01639ef" x="384.584125" y="64.798425" style="fill: #ff7f0e; stroke: #ff7f0e"/>
     </g>
    </g>
    <g id="text_21">
     <!-- SAPT2+3dmp2/aug-cc-pVTZ -->
     <g transform="translate(406.184125 68.998425) scale(0.12 -0.12)">
      <use xlink:href="#DejaVuSans-53"/>
      <use xlink:href="#DejaVuSans-41" transform="translate(65.351562 0)"/>
      <use xlink:href="#DejaVuSans-50" transform="translate(133.759766 0)"/>
      <use xlink:href="#DejaVuSans-54" transform="translate(194.0625 0)"/>
      <use xlink:href="#DejaVuSans-32" transform="translate(255.146484 0)"/>
      <use xlink:href="#DejaVuSans-2b" transform="translate(318.769531 0)"/>
      <use xlink:href="#DejaVuSans-33" transform="translate(402.558594 0)"/>
      <use xlink:href="#DejaVuSans-64" transform="translate(466.181641 0)"/>
      <use xlink:href="#DejaVuSans-6d" transform="translate(529.658203 0)"/>
      <use xlink:href="#DejaVuSans-70" transform="translate(627.070312 0)"/>
      <use xlink:href="#DejaVuSans-32" transform="translate(690.546875 0)"/>
      <use xlink:href="#DejaVuSans-2f" transform="translate(754.169922 0)"/>
      <use xlink:href="#DejaVuSans-61" transform="translate(787.861328 0)"/>
      <use xlink:href="#DejaVuSans-75" transform="translate(849.140625 0)"/>
      <use xlink:href="#DejaVuSans-67" transform="translate(912.519531 0)"/>
      <use xlink:href="#DejaVuSans-2d" transform="translate(975.996094 0)"/>
      <use xlink:href="#DejaVuSans-63" transform="translate(1012.080078 0)"/>
      <use xlink:href="#DejaVuSans-63" transform="translate(1067.060547 0)"/>
      <use xlink:href="#DejaVuSans-2d" transform="translate(1122.041016 0)"/>
      <use xlink:href="#DejaVuSans-70" transform="translate(1158.125 0)"/>
      <use xlink:href="#DejaVuSans-56" transform="translate(1221.601562 0)"/>
      <use xlink:href="#DejaVuSans-54" transform="translate(1290.009766 0)"/>
      <use xlink:href="#DejaVuSans-5a" transform="translate(1351.09375 0)"/>
     </g>
    </g>
    <g id="line2d_51">
     <path d="M 372.584125 82.412175 
L 384.584125 82.412175 
L 396.584125 82.412175 
" style="fill: none; stroke: #2ca02c; stroke-linecap: square"/>
     <g>
      <use xlink:href="#m0a41bd64d5" x="384.584125" y="82.412175" style="fill: #2ca02c; stroke: #2ca02c"/>
     </g>
    </g>
    <g id="text_22">
     <!-- SAPT2+3dmp2/aug-cc-pVQZ -->
     <g transform="translate(406.184125 86.612175) scale(0.12 -0.12)">
      <use xlink:href="#DejaVuSans-53"/>
      <use xlink:href="#DejaVuSans-41" transform="translate(65.351562 0)"/>
      <use xlink:href="#DejaVuSans-50" transform="translate(133.759766 0)"/>
      <use xlink:href="#DejaVuSans-54" transform="translate(194.0625 0)"/>
      <use xlink:href="#DejaVuSans-32" transform="translate(255.146484 0)"/>
      <use xlink:href="#DejaVuSans-2b" transform="translate(318.769531 0)"/>
      <use xlink:href="#DejaVuSans-33" transform="translate(402.558594 0)"/>
      <use xlink:href="#DejaVuSans-64" transform="translate(466.181641 0)"/>
      <use xlink:href="#DejaVuSans-6d" transform="translate(529.658203 0)"/>
      <use xlink:href="#DejaVuSans-70" transform="translate(627.070312 0)"/>
      <use xlink:href="#DejaVuSans-32" transform="translate(690.546875 0)"/>
      <use xlink:href="#DejaVuSans-2f" transform="translate(754.169922 0)"/>
      <use xlink:href="#DejaVuSans-61" transform="translate(787.861328 0)"/>
      <use xlink:href="#DejaVuSans-75" transform="translate(849.140625 0)"/>
      <use xlink:href="#DejaVuSans-67" transform="translate(912.519531 0)"/>
      <use xlink:href="#DejaVuSans-2d" transform="translate(975.996094 0)"/>
      <use xlink:href="#DejaVuSans-63" transform="translate(1012.080078 0)"/>
      <use xlink:href="#DejaVuSans-63" transform="translate(1067.060547 0)"/>
      <use xlink:href="#DejaVuSans-2d" transform="translate(1122.041016 0)"/>
      <use xlink:href="#DejaVuSans-70" transform="translate(1158.125 0)"/>
      <use xlink:href="#DejaVuSans-56" transform="translate(1221.601562 0)"/>
      <use xlink:href="#DejaVuSans-51" transform="translate(1290.009766 0)"/>
      <use xlink:href="#DejaVuSans-5a" transform="translate(1368.720703 0)"/>
     </g>
    </g>
    <g id="line2d_52">
     <path d="M 372.584125 100.025925 
L 384.584125 100.025925 
L 396.584125 100.025925 
" style="fill: none; stroke: #d62728; stroke-linecap: square"/>
     <g>
      <use xlink:href="#m17d3064d3f" x="384.584125" y="100.025925" style="fill: #d62728; stroke: #d62728"/>
     </g>
    </g>
    <g id="text_23">
     <!-- SAPT2+3dmp2/aug-cc-pV(D,T)Z -->
     <g transform="translate(406.184125 104.225925) scale(0.12 -0.12)">
      <use xlink:href="#DejaVuSans-53"/>
      <use xlink:href="#DejaVuSans-41" transform="translate(65.351562 0)"/>
      <use xlink:href="#DejaVuSans-50" transform="translate(133.759766 0)"/>
      <use xlink:href="#DejaVuSans-54" transform="translate(194.0625 0)"/>
      <use xlink:href="#DejaVuSans-32" transform="translate(255.146484 0)"/>
      <use xlink:href="#DejaVuSans-2b" transform="translate(318.769531 0)"/>
      <use xlink:href="#DejaVuSans-33" transform="translate(402.558594 0)"/>
      <use xlink:href="#DejaVuSans-64" transform="translate(466.181641 0)"/>
      <use xlink:href="#DejaVuSans-6d" transform="translate(529.658203 0)"/>
      <use xlink:href="#DejaVuSans-70" transform="translate(627.070312 0)"/>
      <use xlink:href="#DejaVuSans-32" transform="translate(690.546875 0)"/>
      <use xlink:href="#DejaVuSans-2f" transform="translate(754.169922 0)"/>
      <use xlink:href="#DejaVuSans-61" transform="translate(787.861328 0)"/>
      <use xlink:href="#DejaVuSans-75" transform="translate(849.140625 0)"/>
      <use xlink:href="#DejaVuSans-67" transform="translate(912.519531 0)"/>
      <use xlink:href="#DejaVuSans-2d" transform="translate(975.996094 0)"/>
      <use xlink:href="#DejaVuSans-63" transform="translate(1012.080078 0)"/>
      <use xlink:href="#DejaVuSans-63" transform="translate(1067.060547 0)"/>
      <use xlink:href="#DejaVuSans-2d" transform="translate(1122.041016 0)"/>
      <use xlink:href="#DejaVuSans-70" transform="translate(1158.125 0)"/>
      <use xlink:href="#DejaVuSans-56" transform="translate(1221.601562 0)"/>
      <use xlink:href="#DejaVuSans-28" transform="translate(1290.009766 0)"/>
      <use xlink:href="#DejaVuSans-44" transform="translate(1329.023438 0)"/>
      <use xlink:href="#DejaVuSans-2c" transform="translate(1406.025391 0)"/>
      <use xlink:href="#DejaVuSans-54" transform="translate(1437.8125 0)"/>
      <use xlink:href="#DejaVuSans-29" transform="translate(1498.896484 0)"/>
      <use xlink:href="#DejaVuSans-5a" transform="translate(1537.910156 0)"/>
     </g>
    </g>
    <g id="line2d_53">
     <path d="M 372.584125 117.639675 
L 384.584125 117.639675 
L 396.584125 117.639675 
" style="fill: none; stroke: #9467bd; stroke-linecap: square"/>
     <g>
      <use xlink:href="#mfc317e689b" x="384.584125" y="117.639675" style="fill: #9467bd; stroke: #9467bd"/>
     </g>
    </g>
    <g id="text_24">
     <!-- SAPT2+3dmp2/aug-cc-pV(T,Q)Z -->
     <g transform="translate(406.184125 121.839675) scale(0.12 -0.12)">
      <use xlink:href="#DejaVuSans-53"/>
      <use xlink:href="#DejaVuSans-41" transform="translate(65.351562 0)"/>
      <use xlink:href="#DejaVuSans-50" transform="translate(133.759766 0)"/>
      <use xlink:href="#DejaVuSans-54" transform="translate(194.0625 0)"/>
      <use xlink:href="#DejaVuSans-32" transform="translate(255.146484 0)"/>
      <use xlink:href="#DejaVuSans-2b" transform="translate(318.769531 0)"/>
      <use xlink:href="#DejaVuSans-33" transform="translate(402.558594 0)"/>
      <use xlink:href="#DejaVuSans-64" transform="translate(466.181641 0)"/>
      <use xlink:href="#DejaVuSans-6d" transform="translate(529.658203 0)"/>
      <use xlink:href="#DejaVuSans-70" transform="translate(627.070312 0)"/>
      <use xlink:href="#DejaVuSans-32" transform="translate(690.546875 0)"/>
      <use xlink:href="#DejaVuSans-2f" transform="translate(754.169922 0)"/>
      <use xlink:href="#DejaVuSans-61" transform="translate(787.861328 0)"/>
      <use xlink:href="#DejaVuSans-75" transform="translate(849.140625 0)"/>
      <use xlink:href="#DejaVuSans-67" transform="translate(912.519531 0)"/>
      <use xlink:href="#DejaVuSans-2d" transform="translate(975.996094 0)"/>
      <use xlink:href="#DejaVuSans-63" transform="translate(1012.080078 0)"/>
      <use xlink:href="#DejaVuSans-63" transform="translate(1067.060547 0)"/>
      <use xlink:href="#DejaVuSans-2d" transform="translate(1122.041016 0)"/>
      <use xlink:href="#DejaVuSans-70" transform="translate(1158.125 0)"/>
      <use xlink:href="#DejaVuSans-56" transform="translate(1221.601562 0)"/>
      <use xlink:href="#DejaVuSans-28" transform="translate(1290.009766 0)"/>
      <use xlink:href="#DejaVuSans-54" transform="translate(1329.023438 0)"/>
      <use xlink:href="#DejaVuSans-2c" transform="translate(1390.107422 0)"/>
      <use xlink:href="#DejaVuSans-51" transform="translate(1421.894531 0)"/>
      <use xlink:href="#DejaVuSans-29" transform="translate(1500.605469 0)"/>
      <use xlink:href="#DejaVuSans-5a" transform="translate(1539.619141 0)"/>
     </g>
    </g>
   </g>
  </g>
  <g id="axes_3">
   <g id="patch_10">
    <path d="M 263.324636 324.8608 
L 398.597364 324.8608 
L 398.597364 203.9008 
L 263.324636 203.9008 
z
" style="fill: #ffffff"/>
   </g>
   <g id="patch_11">
    <path d="M 263.324636 324.8608 
L 314.051909 104.5728 
" style="fill: none; stroke: #808080; stroke-linejoin: miter"/>
   </g>
   <g id="patch_12">
    <path d="M 398.597364 324.8608 
L 347.870091 104.5728 
" style="fill: none; stroke: #808080; stroke-linejoin: miter"/>
   </g>
   <g id="matplotlib.axis_3">
    <g id="xtick_8">
     <g id="line2d_54">
      <g>
       <use xlink:href="#m8dfd8d0740" x="263.324636" y="324.8608" style="stroke: #000000; stroke-width: 0.8"/>
      </g>
     </g>
     <g id="text_25">
      <!-- 1.4 -->
      <g transform="translate(255.373074 339.459237) scale(0.1 -0.1)">
       <use xlink:href="#DejaVuSans-31"/>
       <use xlink:href="#DejaVuSans-2e" transform="translate(63.623047 0)"/>
       <use xlink:href="#DejaVuSans-34" transform="translate(95.410156 0)"/>
      </g>
     </g>
    </g>
    <g id="xtick_9">
     <g id="line2d_55">
      <g>
       <use xlink:href="#m8dfd8d0740" x="330.961" y="324.8608" style="stroke: #000000; stroke-width: 0.8"/>
      </g>
     </g>
     <g id="text_26">
      <!-- 1.5 -->
      <g transform="translate(323.009437 339.459237) scale(0.1 -0.1)">
       <use xlink:href="#DejaVuSans-31"/>
       <use xlink:href="#DejaVuSans-2e" transform="translate(63.623047 0)"/>
       <use xlink:href="#DejaVuSans-35" transform="translate(95.410156 0)"/>
      </g>
     </g>
    </g>
    <g id="xtick_10">
     <g id="line2d_56">
      <g>
       <use xlink:href="#m8dfd8d0740" x="398.597364" y="324.8608" style="stroke: #000000; stroke-width: 0.8"/>
      </g>
     </g>
     <g id="text_27">
      <!-- 1.6 -->
      <g transform="translate(390.645801 339.459237) scale(0.1 -0.1)">
       <use xlink:href="#DejaVuSans-31"/>
       <use xlink:href="#DejaVuSans-2e" transform="translate(63.623047 0)"/>
       <use xlink:href="#DejaVuSans-36" transform="translate(95.410156 0)"/>
      </g>
     </g>
    </g>
   </g>
   <g id="matplotlib.axis_4">
    <g id="ytick_7">
     <g id="line2d_57">
      <g>
       <use xlink:href="#md7617f13a3" x="263.324636" y="324.8608" style="stroke: #000000; stroke-width: 0.8"/>
      </g>
     </g>
     <g id="text_28">
      <!-- 350 -->
      <g transform="translate(237.237136 328.660019) scale(0.1 -0.1)">
       <use xlink:href="#DejaVuSans-33"/>
       <use xlink:href="#DejaVuSans-35" transform="translate(63.623047 0)"/>
       <use xlink:href="#DejaVuSans-30" transform="translate(127.246094 0)"/>
      </g>
     </g>
    </g>
    <g id="ytick_8">
     <g id="line2d_58">
      <g>
       <use xlink:href="#md7617f13a3" x="263.324636" y="300.6688" style="stroke: #000000; stroke-width: 0.8"/>
      </g>
     </g>
     <g id="text_29">
      <!-- 360 -->
      <g transform="translate(237.237136 304.468019) scale(0.1 -0.1)">
       <use xlink:href="#DejaVuSans-33"/>
       <use xlink:href="#DejaVuSans-36" transform="translate(63.623047 0)"/>
       <use xlink:href="#DejaVuSans-30" transform="translate(127.246094 0)"/>
      </g>
     </g>
    </g>
    <g id="ytick_9">
     <g id="line2d_59">
      <g>
       <use xlink:href="#md7617f13a3" x="263.324636" y="276.4768" style="stroke: #000000; stroke-width: 0.8"/>
      </g>
     </g>
     <g id="text_30">
      <!-- 370 -->
      <g transform="translate(237.237136 280.276019) scale(0.1 -0.1)">
       <defs>
        <path id="DejaVuSans-37" d="M 525 4666 
L 3525 4666 
L 3525 4397 
L 1831 0 
L 1172 0 
L 2766 4134 
L 525 4134 
L 525 4666 
z
" transform="scale(0.015625)"/>
       </defs>
       <use xlink:href="#DejaVuSans-33"/>
       <use xlink:href="#DejaVuSans-37" transform="translate(63.623047 0)"/>
       <use xlink:href="#DejaVuSans-30" transform="translate(127.246094 0)"/>
      </g>
     </g>
    </g>
    <g id="ytick_10">
     <g id="line2d_60">
      <g>
       <use xlink:href="#md7617f13a3" x="263.324636" y="252.2848" style="stroke: #000000; stroke-width: 0.8"/>
      </g>
     </g>
     <g id="text_31">
      <!-- 380 -->
      <g transform="translate(237.237136 256.084019) scale(0.1 -0.1)">
       <defs>
        <path id="DejaVuSans-38" d="M 2034 2216 
Q 1584 2216 1326 1975 
Q 1069 1734 1069 1313 
Q 1069 891 1326 650 
Q 1584 409 2034 409 
Q 2484 409 2743 651 
Q 3003 894 3003 1313 
Q 3003 1734 2745 1975 
Q 2488 2216 2034 2216 
z
M 1403 2484 
Q 997 2584 770 2862 
Q 544 3141 544 3541 
Q 544 4100 942 4425 
Q 1341 4750 2034 4750 
Q 2731 4750 3128 4425 
Q 3525 4100 3525 3541 
Q 3525 3141 3298 2862 
Q 3072 2584 2669 2484 
Q 3125 2378 3379 2068 
Q 3634 1759 3634 1313 
Q 3634 634 3220 271 
Q 2806 -91 2034 -91 
Q 1263 -91 848 271 
Q 434 634 434 1313 
Q 434 1759 690 2068 
Q 947 2378 1403 2484 
z
M 1172 3481 
Q 1172 3119 1398 2916 
Q 1625 2713 2034 2713 
Q 2441 2713 2670 2916 
Q 2900 3119 2900 3481 
Q 2900 3844 2670 4047 
Q 2441 4250 2034 4250 
Q 1625 4250 1398 4047 
Q 1172 3844 1172 3481 
z
" transform="scale(0.015625)"/>
       </defs>
       <use xlink:href="#DejaVuSans-33"/>
       <use xlink:href="#DejaVuSans-38" transform="translate(63.623047 0)"/>
       <use xlink:href="#DejaVuSans-30" transform="translate(127.246094 0)"/>
      </g>
     </g>
    </g>
    <g id="ytick_11">
     <g id="line2d_61">
      <g>
       <use xlink:href="#md7617f13a3" x="263.324636" y="228.0928" style="stroke: #000000; stroke-width: 0.8"/>
      </g>
     </g>
     <g id="text_32">
      <!-- 390 -->
      <g transform="translate(237.237136 231.892019) scale(0.1 -0.1)">
       <defs>
        <path id="DejaVuSans-39" d="M 703 97 
L 703 672 
Q 941 559 1184 500 
Q 1428 441 1663 441 
Q 2288 441 2617 861 
Q 2947 1281 2994 2138 
Q 2813 1869 2534 1725 
Q 2256 1581 1919 1581 
Q 1219 1581 811 2004 
Q 403 2428 403 3163 
Q 403 3881 828 4315 
Q 1253 4750 1959 4750 
Q 2769 4750 3195 4129 
Q 3622 3509 3622 2328 
Q 3622 1225 3098 567 
Q 2575 -91 1691 -91 
Q 1453 -91 1209 -44 
Q 966 3 703 97 
z
M 1959 2075 
Q 2384 2075 2632 2365 
Q 2881 2656 2881 3163 
Q 2881 3666 2632 3958 
Q 2384 4250 1959 4250 
Q 1534 4250 1286 3958 
Q 1038 3666 1038 3163 
Q 1038 2656 1286 2365 
Q 1534 2075 1959 2075 
z
" transform="scale(0.015625)"/>
       </defs>
       <use xlink:href="#DejaVuSans-33"/>
       <use xlink:href="#DejaVuSans-39" transform="translate(63.623047 0)"/>
       <use xlink:href="#DejaVuSans-30" transform="translate(127.246094 0)"/>
      </g>
     </g>
    </g>
    <g id="ytick_12">
     <g id="line2d_62">
      <g>
       <use xlink:href="#md7617f13a3" x="263.324636" y="203.9008" style="stroke: #000000; stroke-width: 0.8"/>
      </g>
     </g>
     <g id="text_33">
      <!-- 400 -->
      <g transform="translate(237.237136 207.700019) scale(0.1 -0.1)">
       <use xlink:href="#DejaVuSans-34"/>
       <use xlink:href="#DejaVuSans-30" transform="translate(63.623047 0)"/>
       <use xlink:href="#DejaVuSans-30" transform="translate(127.246094 0)"/>
      </g>
     </g>
    </g>
   </g>
   <g id="line2d_63">
    <path d="M -1 360.826473 
L 128.051909 270.306804 
L 263.324636 254.053987 
L 398.597364 314.022353 
L 484.244614 389.43805 
" clip-path="url(#p43f530cb78)" style="fill: none; stroke: #000000; stroke-width: 2; stroke-linecap: square"/>
    <g clip-path="url(#p43f530cb78)">
     <use xlink:href="#m4eb7d12451" x="-1" y="360.826473" style="stroke: #000000"/>
     <use xlink:href="#m4eb7d12451" x="128.051909" y="270.306804" style="stroke: #000000"/>
     <use xlink:href="#m4eb7d12451" x="263.324636" y="254.053987" style="stroke: #000000"/>
     <use xlink:href="#m4eb7d12451" x="398.597364" y="314.022353" style="stroke: #000000"/>
     <use xlink:href="#m4eb7d12451" x="533.870091" y="433.135191" style="stroke: #000000"/>
     <use xlink:href="#m4eb7d12451" x="669.142818" y="586.345517" style="stroke: #000000"/>
     <use xlink:href="#m4eb7d12451" x="804.415545" y="748.146478" style="stroke: #000000"/>
     <use xlink:href="#m4eb7d12451" x="939.688273" y="898.036518" style="stroke: #000000"/>
     <use xlink:href="#m4eb7d12451" x="1074.961" y="1023.149768" style="stroke: #000000"/>
     <use xlink:href="#m4eb7d12451" x="1210.233727" y="1118.293644" style="stroke: #000000"/>
     <use xlink:href="#m4eb7d12451" x="1345.506455" y="1184.115872" style="stroke: #000000"/>
    </g>
   </g>
   <g id="line2d_64">
    <path d="M -1 127.642477 
L 128.051909 38.999663 
L 263.324636 30.086566 
L 398.597364 103.186709 
L 533.870091 240.473323 
L 618.161 349.468407 
" clip-path="url(#p43f530cb78)" style="fill: none; stroke: #1f77b4; stroke-linecap: square"/>
    <g clip-path="url(#p43f530cb78)">
     <use xlink:href="#m64cd586ef7" x="-1" y="127.642477" style="fill: #1f77b4; stroke: #1f77b4"/>
     <use xlink:href="#m64cd586ef7" x="128.051909" y="38.999663" style="fill: #1f77b4; stroke: #1f77b4"/>
     <use xlink:href="#m64cd586ef7" x="263.324636" y="30.086566" style="fill: #1f77b4; stroke: #1f77b4"/>
     <use xlink:href="#m64cd586ef7" x="398.597364" y="103.186709" style="fill: #1f77b4; stroke: #1f77b4"/>
     <use xlink:href="#m64cd586ef7" x="533.870091" y="240.473323" style="fill: #1f77b4; stroke: #1f77b4"/>
     <use xlink:href="#m64cd586ef7" x="669.142818" y="415.392094" style="fill: #1f77b4; stroke: #1f77b4"/>
     <use xlink:href="#m64cd586ef7" x="804.415545" y="600.552262" style="fill: #1f77b4; stroke: #1f77b4"/>
     <use xlink:href="#m64cd586ef7" x="939.688273" y="773.711126" style="fill: #1f77b4; stroke: #1f77b4"/>
     <use xlink:href="#m64cd586ef7" x="1074.961" y="921.027622" style="fill: #1f77b4; stroke: #1f77b4"/>
     <use xlink:href="#m64cd586ef7" x="1210.233727" y="1035.917781" style="fill: #1f77b4; stroke: #1f77b4"/>
     <use xlink:href="#m64cd586ef7" x="1345.506455" y="1118.99977" style="fill: #1f77b4; stroke: #1f77b4"/>
    </g>
   </g>
   <g id="line2d_65">
    <path d="M -1 289.296926 
L 128.051909 199.599291 
L 263.324636 184.677957 
L 398.597364 247.117047 
L 533.870091 369.740563 
L 550.729381 389.43805 
" clip-path="url(#p43f530cb78)" style="fill: none; stroke: #ff7f0e; stroke-linecap: square"/>
    <g clip-path="url(#p43f530cb78)">
     <use xlink:href="#me7a01639ef" x="-1" y="289.296926" style="fill: #ff7f0e; stroke: #ff7f0e"/>
     <use xlink:href="#me7a01639ef" x="128.051909" y="199.599291" style="fill: #ff7f0e; stroke: #ff7f0e"/>
     <use xlink:href="#me7a01639ef" x="263.324636" y="184.677957" style="fill: #ff7f0e; stroke: #ff7f0e"/>
     <use xlink:href="#me7a01639ef" x="398.597364" y="247.117047" style="fill: #ff7f0e; stroke: #ff7f0e"/>
     <use xlink:href="#me7a01639ef" x="533.870091" y="369.740563" style="fill: #ff7f0e; stroke: #ff7f0e"/>
     <use xlink:href="#me7a01639ef" x="669.142818" y="527.785941" style="fill: #ff7f0e; stroke: #ff7f0e"/>
     <use xlink:href="#me7a01639ef" x="804.415545" y="695.269081" style="fill: #ff7f0e; stroke: #ff7f0e"/>
     <use xlink:href="#me7a01639ef" x="939.688273" y="851.542733" style="fill: #ff7f0e; stroke: #ff7f0e"/>
     <use xlink:href="#me7a01639ef" x="1074.961" y="983.475484" style="fill: #ff7f0e; stroke: #ff7f0e"/>
     <use xlink:href="#me7a01639ef" x="1210.233727" y="1085.529797" style="fill: #ff7f0e; stroke: #ff7f0e"/>
     <use xlink:href="#me7a01639ef" x="1345.506455" y="1157.952029" style="fill: #ff7f0e; stroke: #ff7f0e"/>
    </g>
   </g>
   <g id="line2d_66">
    <path d="M -1 343.451262 
L 128.051909 252.96877 
L 263.324636 235.875016 
L 398.597364 294.539068 
L 507.398575 389.43805 
" clip-path="url(#p43f530cb78)" style="fill: none; stroke: #2ca02c; stroke-linecap: square"/>
    <g clip-path="url(#p43f530cb78)">
     <use xlink:href="#m0a41bd64d5" x="-1" y="343.451262" style="fill: #2ca02c; stroke: #2ca02c"/>
     <use xlink:href="#m0a41bd64d5" x="128.051909" y="252.96877" style="fill: #2ca02c; stroke: #2ca02c"/>
     <use xlink:href="#m0a41bd64d5" x="263.324636" y="235.875016" style="fill: #2ca02c; stroke: #2ca02c"/>
     <use xlink:href="#m0a41bd64d5" x="398.597364" y="294.539068" style="fill: #2ca02c; stroke: #2ca02c"/>
     <use xlink:href="#m0a41bd64d5" x="533.870091" y="412.52713" style="fill: #2ca02c; stroke: #2ca02c"/>
     <use xlink:href="#m0a41bd64d5" x="669.142818" y="565.276061" style="fill: #2ca02c; stroke: #2ca02c"/>
     <use xlink:href="#m0a41bd64d5" x="804.415545" y="727.369186" style="fill: #2ca02c; stroke: #2ca02c"/>
     <use xlink:href="#m0a41bd64d5" x="939.688273" y="878.422699" style="fill: #2ca02c; stroke: #2ca02c"/>
     <use xlink:href="#m0a41bd64d5" x="1074.961" y="1005.481907" style="fill: #2ca02c; stroke: #2ca02c"/>
     <use xlink:href="#m0a41bd64d5" x="1210.233727" y="1103.086452" style="fill: #2ca02c; stroke: #2ca02c"/>
     <use xlink:href="#m0a41bd64d5" x="1345.506455" y="1171.60138" style="fill: #2ca02c; stroke: #2ca02c"/>
    </g>
   </g>
   <g id="line2d_67">
    <path d="M -1 359.404668 
L 128.051909 268.581011 
L 263.324636 250.717935 
L 398.597364 308.57639 
L 492.422982 389.43805 
" clip-path="url(#p43f530cb78)" style="fill: none; stroke: #d62728; stroke-linecap: square"/>
    <g clip-path="url(#p43f530cb78)">
     <use xlink:href="#m17d3064d3f" x="-1" y="359.404668" style="fill: #d62728; stroke: #d62728"/>
     <use xlink:href="#m17d3064d3f" x="128.051909" y="268.581011" style="fill: #d62728; stroke: #d62728"/>
     <use xlink:href="#m17d3064d3f" x="263.324636" y="250.717935" style="fill: #d62728; stroke: #d62728"/>
     <use xlink:href="#m17d3064d3f" x="398.597364" y="308.57639" style="fill: #d62728; stroke: #d62728"/>
     <use xlink:href="#m17d3064d3f" x="533.870091" y="425.15838" style="fill: #d62728; stroke: #d62728"/>
     <use xlink:href="#m17d3064d3f" x="669.142818" y="576.29881" style="fill: #d62728; stroke: #d62728"/>
     <use xlink:href="#m17d3064d3f" x="804.415545" y="736.462316" style="fill: #d62728; stroke: #d62728"/>
     <use xlink:href="#m17d3064d3f" x="939.688273" y="885.594277" style="fill: #d62728; stroke: #d62728"/>
     <use xlink:href="#m17d3064d3f" x="1074.961" y="1010.85914" style="fill: #d62728; stroke: #d62728"/>
     <use xlink:href="#m17d3064d3f" x="1210.233727" y="1107.21436" style="fill: #d62728; stroke: #d62728"/>
     <use xlink:href="#m17d3064d3f" x="1345.506455" y="1174.826132" style="fill: #d62728; stroke: #d62728"/>
    </g>
   </g>
   <g id="line2d_68">
    <path d="M -1 378.973019 
L 128.051909 288.015809 
L 263.324636 269.579909 
L 398.597364 325.866713 
L 473.322193 389.43805 
" clip-path="url(#p43f530cb78)" style="fill: none; stroke: #9467bd; stroke-linecap: square"/>
    <g clip-path="url(#p43f530cb78)">
     <use xlink:href="#mfc317e689b" x="-1" y="378.973019" style="fill: #9467bd; stroke: #9467bd"/>
     <use xlink:href="#mfc317e689b" x="128.051909" y="288.015809" style="fill: #9467bd; stroke: #9467bd"/>
     <use xlink:href="#mfc317e689b" x="263.324636" y="269.579909" style="fill: #9467bd; stroke: #9467bd"/>
     <use xlink:href="#mfc317e689b" x="398.597364" y="325.866713" style="fill: #9467bd; stroke: #9467bd"/>
     <use xlink:href="#mfc317e689b" x="533.870091" y="440.948516" style="fill: #9467bd; stroke: #9467bd"/>
     <use xlink:href="#mfc317e689b" x="669.142818" y="590.33907" style="fill: #9467bd; stroke: #9467bd"/>
     <use xlink:href="#mfc317e689b" x="804.415545" y="748.963924" style="fill: #9467bd; stroke: #9467bd"/>
     <use xlink:href="#mfc317e689b" x="939.688273" y="896.588687" style="fill: #9467bd; stroke: #9467bd"/>
     <use xlink:href="#mfc317e689b" x="1074.961" y="1020.383103" style="fill: #9467bd; stroke: #9467bd"/>
     <use xlink:href="#mfc317e689b" x="1210.233727" y="1114.965657" style="fill: #9467bd; stroke: #9467bd"/>
     <use xlink:href="#mfc317e689b" x="1345.506455" y="1180.812617" style="fill: #9467bd; stroke: #9467bd"/>
    </g>
   </g>
   <g id="patch_13">
    <path d="M 263.324636 324.8608 
L 263.324636 203.9008 
" style="fill: none; stroke: #000000; stroke-width: 0.8; stroke-linejoin: miter; stroke-linecap: square"/>
   </g>
   <g id="patch_14">
    <path d="M 398.597364 324.8608 
L 398.597364 203.9008 
" style="fill: none; stroke: #000000; stroke-width: 0.8; stroke-linejoin: miter; stroke-linecap: square"/>
   </g>
   <g id="patch_15">
    <path d="M 263.324636 324.8608 
L 398.597364 324.8608 
" style="fill: none; stroke: #000000; stroke-width: 0.8; stroke-linejoin: miter; stroke-linecap: square"/>
   </g>
   <g id="patch_16">
    <path d="M 263.324636 203.9008 
L 398.597364 203.9008 
" style="fill: none; stroke: #000000; stroke-width: 0.8; stroke-linejoin: miter; stroke-linecap: square"/>
   </g>
  </g>
 </g>
 <defs>
  <clipPath id="pb8fef0f88a">
   <rect x="51.961" y="13.8528" width="558" height="332.64"/>
  </clipPath>
  <clipPath id="pb1da0a07e9">
   <rect x="97.033" y="7.2" width="133.056" height="133.056"/>
  </clipPath>
  <clipPath id="p43f530cb78">
   <rect x="263.324636" y="203.9008" width="135.272727" height="120.96"/>
  </clipPath>
 </defs>
</svg>
